<svg width="20" height="20" viewBox="0 0 20 20" fill="none" xmlns="http://www.w3.org/2000/svg">
<g clip-path="url(#clip0)">
<path d="M4.3882 8.1375C4.77811 6.95787 5.53059 5.93151 6.5383 5.20483C7.54601 4.47815 8.75748 4.08828 9.99987 4.09083C11.4082 4.09083 12.6815 4.59083 13.6815 5.40917L16.5915 2.5C14.8182 0.954167 12.5457 0 9.99987 0C6.0582 0 2.66487 2.24833 1.0332 5.54167L4.3882 8.1375Z" fill="#EA4335"/>
<path d="M13.3666 15.0108C12.4583 15.5967 11.3049 15.9092 9.99993 15.9092C8.76249 15.9117 7.5556 15.525 6.55013 14.8036C5.54465 14.0823 4.79155 13.063 4.39743 11.89L1.03076 14.4458C1.8568 16.1178 3.13515 17.5245 4.72061 18.5063C6.30608 19.4881 8.1351 20.0056 9.99993 20C12.4441 20 14.7791 19.1308 16.5283 17.5L13.3674 15.0108H13.3666Z" fill="#34A853"/>
<path d="M16.5283 17.5C18.3575 15.7933 19.545 13.2533 19.545 9.99997C19.545 9.40831 19.4542 8.77247 19.3183 8.18164H10V12.0458H15.3633C15.0992 13.345 14.3883 14.3508 13.3675 15.0108L16.5283 17.5Z" fill="#4A90E2"/>
<path d="M4.3976 11.89C4.19373 11.2808 4.09016 10.6425 4.09093 10C4.09093 9.34835 4.1951 8.72252 4.38843 8.13752L1.03343 5.54169C0.347079 6.92726 -0.00673329 8.45379 9.70454e-05 10C9.70454e-05 11.6 0.37093 13.1084 1.03093 14.4459L4.3976 11.89Z" fill="#FBBC05"/>
</g>
<defs>
<clipPath id="clip0">
<rect width="20" height="20" fill="white"/>
</clipPath>
</defs>
</svg>
