<svg width="605" height="954" viewBox="0 0 605 954" fill="none" xmlns="http://www.w3.org/2000/svg">
<g clip-path="url(#clip0)">
<rect width="605" height="954" fill="#FEFEFE"/>
<path d="M134.408 178V144.4H146.168C148.792 144.4 150.968 144.848 152.696 145.744C154.424 146.608 155.704 147.808 156.536 149.344C157.4 150.848 157.832 152.56 157.832 154.48C157.832 156.304 157.416 157.984 156.584 159.52C155.784 161.024 154.52 162.224 152.792 163.12C151.064 164.016 148.856 164.464 146.168 164.464H139.496V178H134.408ZM139.496 160.288H145.928C148.328 160.288 150.04 159.776 151.064 158.752C152.12 157.696 152.648 156.272 152.648 154.48C152.648 152.624 152.12 151.184 151.064 150.16C150.04 149.104 148.328 148.576 145.928 148.576H139.496V160.288ZM162.669 178V154.192H167.229L167.661 158.704C168.493 157.136 169.645 155.904 171.117 155.008C172.621 154.08 174.429 153.616 176.541 153.616V158.944H175.149C173.741 158.944 172.477 159.184 171.357 159.664C170.269 160.112 169.389 160.896 168.717 162.016C168.077 163.104 167.757 164.624 167.757 166.576V178H162.669ZM188.968 178.576C186.952 178.576 185.288 178.24 183.976 177.568C182.664 176.896 181.688 176.016 181.048 174.928C180.408 173.808 180.088 172.592 180.088 171.28C180.088 168.976 180.984 167.152 182.776 165.808C184.568 164.464 187.128 163.792 190.456 163.792H196.696V163.36C196.696 161.504 196.184 160.112 195.16 159.184C194.168 158.256 192.872 157.792 191.272 157.792C189.864 157.792 188.632 158.144 187.576 158.848C186.552 159.52 185.928 160.528 185.704 161.872H180.616C180.776 160.144 181.352 158.672 182.344 157.456C183.368 156.208 184.648 155.264 186.184 154.624C187.752 153.952 189.464 153.616 191.32 153.616C194.648 153.616 197.224 154.496 199.048 156.256C200.872 157.984 201.784 160.352 201.784 163.36V178H197.368L196.936 173.92C196.264 175.232 195.288 176.336 194.008 177.232C192.728 178.128 191.048 178.576 188.968 178.576ZM189.976 174.448C191.352 174.448 192.504 174.128 193.432 173.488C194.392 172.816 195.128 171.936 195.64 170.848C196.184 169.76 196.52 168.56 196.648 167.248H190.984C188.968 167.248 187.528 167.6 186.664 168.304C185.832 169.008 185.416 169.888 185.416 170.944C185.416 172.032 185.816 172.896 186.616 173.536C187.448 174.144 188.568 174.448 189.976 174.448ZM218.996 178.576C216.66 178.576 214.564 178.048 212.708 176.992C210.884 175.936 209.444 174.48 208.388 172.624C207.364 170.736 206.852 168.56 206.852 166.096C206.852 163.632 207.364 161.472 208.388 159.616C209.444 157.728 210.884 156.256 212.708 155.2C214.564 154.144 216.66 153.616 218.996 153.616C221.94 153.616 224.404 154.384 226.388 155.92C228.404 157.456 229.7 159.536 230.276 162.16H224.948C224.628 160.848 223.924 159.824 222.836 159.088C221.748 158.352 220.468 157.984 218.996 157.984C217.748 157.984 216.596 158.304 215.54 158.944C214.484 159.552 213.636 160.464 212.996 161.68C212.356 162.864 212.036 164.336 212.036 166.096C212.036 167.856 212.356 169.344 212.996 170.56C213.636 171.744 214.484 172.656 215.54 173.296C216.596 173.936 217.748 174.256 218.996 174.256C220.468 174.256 221.748 173.888 222.836 173.152C223.924 172.416 224.628 171.376 224.948 170.032H230.276C229.732 172.592 228.452 174.656 226.436 176.224C224.42 177.792 221.94 178.576 218.996 178.576ZM245.309 178C242.973 178 241.117 177.44 239.741 176.32C238.365 175.168 237.677 173.136 237.677 170.224V158.464H233.597V154.192H237.677L238.301 148.144H242.765V154.192H249.485V158.464H242.765V170.224C242.765 171.536 243.037 172.448 243.581 172.96C244.157 173.44 245.133 173.68 246.509 173.68H249.245V178H245.309ZM257.612 149.68C256.652 149.68 255.852 149.392 255.212 148.816C254.604 148.208 254.3 147.456 254.3 146.56C254.3 145.664 254.604 144.928 255.212 144.352C255.852 143.744 256.652 143.44 257.612 143.44C258.572 143.44 259.356 143.744 259.964 144.352C260.604 144.928 260.924 145.664 260.924 146.56C260.924 147.456 260.604 148.208 259.964 148.816C259.356 149.392 258.572 149.68 257.612 149.68ZM255.068 178V154.192H260.156V178H255.068ZM278.152 178.576C275.816 178.576 273.72 178.048 271.864 176.992C270.04 175.936 268.6 174.48 267.544 172.624C266.52 170.736 266.008 168.56 266.008 166.096C266.008 163.632 266.52 161.472 267.544 159.616C268.6 157.728 270.04 156.256 271.864 155.2C273.72 154.144 275.816 153.616 278.152 153.616C281.096 153.616 283.56 154.384 285.544 155.92C287.56 157.456 288.856 159.536 289.432 162.16H284.104C283.784 160.848 283.08 159.824 281.992 159.088C280.904 158.352 279.624 157.984 278.152 157.984C276.904 157.984 275.752 158.304 274.696 158.944C273.64 159.552 272.792 160.464 272.152 161.68C271.512 162.864 271.192 164.336 271.192 166.096C271.192 167.856 271.512 169.344 272.152 170.56C272.792 171.744 273.64 172.656 274.696 173.296C275.752 173.936 276.904 174.256 278.152 174.256C279.624 174.256 280.904 173.888 281.992 173.152C283.08 172.416 283.784 171.376 284.104 170.032H289.432C288.888 172.592 287.608 174.656 285.592 176.224C283.576 177.792 281.096 178.576 278.152 178.576ZM306.086 178.576C303.75 178.576 301.67 178.064 299.846 177.04C298.054 175.984 296.646 174.528 295.622 172.672C294.598 170.816 294.086 168.656 294.086 166.192C294.086 163.696 294.582 161.504 295.574 159.616C296.598 157.728 298.006 156.256 299.798 155.2C301.622 154.144 303.734 153.616 306.134 153.616C308.47 153.616 310.502 154.144 312.23 155.2C313.958 156.224 315.302 157.6 316.262 159.328C317.222 161.056 317.702 162.96 317.702 165.04C317.702 165.36 317.686 165.712 317.654 166.096C317.654 166.448 317.638 166.848 317.606 167.296H299.078C299.238 169.6 299.99 171.36 301.334 172.576C302.71 173.76 304.294 174.352 306.086 174.352C307.526 174.352 308.726 174.032 309.686 173.392C310.678 172.72 311.414 171.824 311.894 170.704H316.982C316.342 172.944 315.062 174.816 313.142 176.32C311.254 177.824 308.902 178.576 306.086 178.576ZM306.086 157.792C304.39 157.792 302.886 158.304 301.574 159.328C300.262 160.32 299.462 161.824 299.174 163.84H312.614C312.518 161.984 311.862 160.512 310.646 159.424C309.43 158.336 307.91 157.792 306.086 157.792ZM337.955 149.68C336.995 149.68 336.195 149.392 335.555 148.816C334.947 148.208 334.643 147.456 334.643 146.56C334.643 145.664 334.947 144.928 335.555 144.352C336.195 143.744 336.995 143.44 337.955 143.44C338.915 143.44 339.699 143.744 340.307 144.352C340.947 144.928 341.267 145.664 341.267 146.56C341.267 147.456 340.947 148.208 340.307 148.816C339.699 149.392 338.915 149.68 337.955 149.68ZM335.411 178V154.192H340.499V178H335.411ZM356.72 178.576C353.712 178.576 351.232 177.84 349.28 176.368C347.328 174.896 346.208 172.944 345.92 170.512H351.056C351.312 171.6 351.92 172.544 352.88 173.344C353.84 174.112 355.104 174.496 356.672 174.496C358.208 174.496 359.328 174.176 360.032 173.536C360.736 172.896 361.088 172.16 361.088 171.328C361.088 170.112 360.592 169.296 359.6 168.88C358.64 168.432 357.296 168.032 355.568 167.68C354.224 167.392 352.88 167.008 351.536 166.528C350.224 166.048 349.12 165.376 348.224 164.512C347.36 163.616 346.928 162.416 346.928 160.912C346.928 158.832 347.728 157.104 349.328 155.728C350.928 154.32 353.168 153.616 356.048 153.616C358.704 153.616 360.848 154.256 362.48 155.536C364.144 156.816 365.12 158.624 365.408 160.96H360.512C360.352 159.936 359.872 159.136 359.072 158.56C358.304 157.984 357.264 157.696 355.952 157.696C354.672 157.696 353.68 157.968 352.976 158.512C352.272 159.024 351.92 159.696 351.92 160.528C351.92 161.36 352.4 162.016 353.36 162.496C354.352 162.976 355.648 163.408 357.248 163.792C358.848 164.144 360.32 164.56 361.664 165.04C363.04 165.488 364.144 166.16 364.976 167.056C365.808 167.952 366.224 169.264 366.224 170.992C366.256 173.168 365.408 174.976 363.68 176.416C361.984 177.856 359.664 178.576 356.72 178.576ZM383.872 178V143.44H388.96V164.032L398.08 154.192H404.176L394.048 164.992L405.664 178H399.232L388.96 165.808V178H383.872ZM418.915 178.576C416.579 178.576 414.499 178.064 412.675 177.04C410.883 175.984 409.475 174.528 408.451 172.672C407.427 170.816 406.915 168.656 406.915 166.192C406.915 163.696 407.411 161.504 408.403 159.616C409.427 157.728 410.835 156.256 412.627 155.2C414.451 154.144 416.563 153.616 418.963 153.616C421.299 153.616 423.331 154.144 425.059 155.2C426.787 156.224 428.131 157.6 429.091 159.328C430.051 161.056 430.531 162.96 430.531 165.04C430.531 165.36 430.515 165.712 430.483 166.096C430.483 166.448 430.467 166.848 430.435 167.296H411.907C412.067 169.6 412.819 171.36 414.163 172.576C415.539 173.76 417.123 174.352 418.915 174.352C420.355 174.352 421.555 174.032 422.515 173.392C423.507 172.72 424.243 171.824 424.723 170.704H429.811C429.171 172.944 427.891 174.816 425.971 176.32C424.083 177.824 421.731 178.576 418.915 178.576ZM418.915 157.792C417.219 157.792 415.715 158.304 414.403 159.328C413.091 160.32 412.291 161.824 412.003 163.84H425.443C425.347 161.984 424.691 160.512 423.475 159.424C422.259 158.336 420.739 157.792 418.915 157.792ZM437.516 188.56L443.228 176.032H441.836L432.428 154.192H437.948L445.244 171.808L452.876 154.192H458.252L442.892 188.56H437.516Z" fill="#0F0F0F"/>
<path d="M180.24 433.333C180.564 436.004 181.258 438.614 182.3 441.086C181.317 438.594 180.626 435.991 180.24 433.333ZM261.25 470.482C262.902 469.082 264.133 467.234 264.8 465.15C265.37 463.292 265.49 461.259 263.91 460.217C260.54 457.99 251.61 464.476 249.62 468.123C247.64 471.769 239.9 481.503 242.87 496.089C245.85 510.685 256.96 522.646 256.96 522.646C256.96 522.646 257.94 523.677 259.42 525.363L263.78 513.024C260.82 509.623 258.41 506.824 257.76 506.027C255.84 503.668 244.4 484.925 261.25 470.482ZM230.97 509.878C230.97 509.878 219.85 500.553 208.15 494.874C199.85 490.849 195.74 484.486 196.52 479.46C196.751 478.147 197.333 476.924 198.204 475.929C199.074 474.933 200.198 474.204 201.45 473.822C204.8 472.729 212.74 468.94 211.92 457.582L211.77 453.986C210.03 453.937 208.323 453.487 206.777 452.67C205.231 451.853 203.885 450.69 202.84 449.267C199.27 444.405 193.02 441.975 183.34 443.343L178.28 440.453C178.28 440.453 177.91 431.158 179.95 430.259C179.92 429.565 179.91 428.86 179.92 428.145C179.92 428.145 175.45 429.156 176.2 438.532C176.2 438.532 174.41 437.511 172.82 426.98C172.82 426.98 165.08 429.207 167.27 444.61C167.948 447.699 167.813 450.916 166.88 453.935C166.88 453.935 163.7 467.918 161.12 476.028C158.54 484.139 153.28 503.852 165.78 541.246L172.23 562.379C172.23 562.379 175.4 585.279 170.44 589.742C170.44 589.742 162.9 590.641 165.68 596.678C165.816 596.978 165.999 597.254 166.22 597.495C166.011 597.12 165.887 596.7 165.86 596.269C165.826 595.843 165.866 595.414 165.98 595.002C166.096 594.557 166.331 594.153 166.66 593.838C166.819 593.669 167.016 593.544 167.235 593.474C167.454 593.405 167.686 593.393 167.91 593.44C167.639 593.688 167.422 593.99 167.27 594.328C167.135 594.639 167.024 594.96 166.94 595.289C166.75 596.04 166.51 596.777 166.22 597.495C166.92 598.291 168.42 599.313 171.24 598.659L171.54 598.629C171.09 597.832 170.914 596.904 171.04 595.993C171.103 595.523 171.259 595.071 171.5 594.665C171.613 594.444 171.78 594.256 171.985 594.119C172.19 593.983 172.426 593.904 172.67 593.889C172.436 594.216 172.278 594.593 172.21 594.992C172.14 595.36 172.08 595.738 172.03 596.136C171.949 596.982 171.785 597.817 171.54 598.629L173.22 598.475C173.127 597.851 173.144 597.214 173.27 596.596C173.416 595.969 173.708 595.388 174.12 594.9C174.533 594.403 175.04 593.997 175.61 593.705C176.167 593.481 176.691 593.182 177.17 592.817C178.131 592.108 178.918 591.181 179.47 590.11C179.934 588.979 180.267 587.796 180.46 586.586C181.512 581.721 182.191 576.779 182.49 571.806C182.89 566.832 182.96 561.837 182.91 556.843C182.9 554.34 182.82 551.848 182.71 549.346C182.63 546.843 182.47 544.351 182.3 541.848C183.03 546.81 183.491 551.809 183.68 556.822C183.882 561.841 183.818 566.866 183.49 571.878C183.152 576.9 182.389 581.882 181.21 586.77C180.958 588.025 180.562 589.246 180.03 590.406C179.4 591.537 178.52 592.503 177.46 593.226C176.933 593.576 176.365 593.857 175.77 594.063C175.225 594.296 174.731 594.64 174.32 595.074C173.909 595.527 173.597 596.066 173.408 596.652C173.218 597.239 173.154 597.861 173.22 598.476C173.22 598.476 173.56 599.65 175.52 600.314C175.189 599.418 175.151 598.436 175.41 597.515C175.545 597.028 175.784 596.578 176.11 596.198C176.273 595.981 176.502 595.825 176.761 595.757C177.02 595.688 177.295 595.711 177.54 595.82C177.357 595.892 177.191 596.005 177.054 596.149C176.918 596.294 176.814 596.467 176.75 596.657C176.599 597.025 176.475 597.404 176.38 597.791C176.168 598.657 175.88 599.501 175.52 600.314C177.056 600.763 178.666 600.885 180.25 600.672C179.921 600.312 179.714 599.853 179.66 599.364C179.603 598.873 179.647 598.376 179.79 597.903C179.935 597.443 180.174 597.019 180.492 596.66C180.809 596.301 181.197 596.015 181.63 595.82C181.49 596.29 181.31 596.688 181.16 597.076C181.01 597.475 180.86 597.842 180.74 598.22C180.49 599.016 180.329 599.839 180.26 600.672C181.598 600.549 182.925 600.323 184.23 599.997C184.23 599.997 188.7 599.466 189.15 589.589C189.962 585.032 191.308 580.59 193.16 576.362L196.29 565.494C196.72 562.297 197.39 559.182 198.06 556.066L199.1 551.409C199.42 549.846 199.82 548.314 200.01 546.721C200.164 548.331 200.116 549.954 199.87 551.552C199.67 553.145 199.36 554.718 199.03 556.291C198.361 559.429 197.444 562.507 196.29 565.494C196.29 565.494 196.74 574.084 205.14 583.277C204.005 578.292 203.362 573.204 203.22 568.088C203.054 562.924 203.803 557.772 205.43 552.88C207.154 547.951 210.383 543.719 214.64 540.807C218.926 538.023 223.96 536.687 229.03 536.986C226.543 537.04 224.075 537.453 221.7 538.212C219.338 538.936 217.102 540.032 215.07 541.46C213.058 542.889 211.282 544.638 209.81 546.639C208.363 548.661 207.205 550.882 206.37 553.237C204.743 558.01 203.938 563.035 203.99 568.088C203.965 570.625 204.065 573.161 204.29 575.688C204.42 576.954 204.49 578.231 204.66 579.487L205.14 583.277C205.14 583.277 203.14 587.158 196.59 587.455C196.59 587.455 192.57 587.843 192.12 593.011C192.12 593.011 191.9 595.943 198.45 596.678C198.45 596.678 205.37 598.047 209.54 595.616L213.5 595.82H214.97C213.873 593.132 213.237 590.271 213.09 587.363C212.784 582.113 213.639 576.861 215.594 571.996C217.549 567.132 220.552 562.779 224.38 559.264C235.2 549.203 246.64 549.386 249.89 549.672C248.18 535.853 243.25 520.419 230.97 509.878ZM173 438.175C173 438.175 172.48 439.084 173.22 441.219C173.22 441.219 166.82 439.544 172.33 429.054C172.33 429.054 173.22 436.806 175.9 440.453C174.809 439.875 173.827 439.104 173 438.175V438.175ZM198.97 454.589C193.02 456.111 191.97 450.789 191.97 450.789C198.22 450.34 198.97 454.589 198.97 454.589V454.589ZM176.64 461.586C180.197 460.709 183.82 460.135 187.47 459.87C189.296 459.721 191.129 459.67 192.96 459.717C194.806 459.695 196.64 460.021 198.37 460.677C197.481 460.497 196.576 460.418 195.67 460.442C194.77 460.431 193.87 460.483 192.96 460.513C191.16 460.605 189.35 460.748 187.54 460.881C183.92 461.157 180.3 461.473 176.64 461.586ZM179.92 468.429C181.148 467.292 182.508 466.314 183.97 465.518C185.432 464.708 186.965 464.041 188.55 463.526C190.135 463.008 191.766 462.655 193.42 462.474C195.065 462.282 196.727 462.289 198.37 462.495C196.73 462.719 195.12 462.913 193.54 463.261C191.953 463.579 190.387 463.995 188.85 464.507C187.307 464.997 185.791 465.574 184.31 466.233C182.83 466.897 181.36 467.602 179.92 468.429V468.429ZM191.9 468.347C189.6 469.931 187.35 471.585 184.98 473.138C186.865 470.998 189.001 469.104 191.34 467.5C193.643 465.818 196.229 464.585 198.97 463.863C196.5 465.242 194.19 466.754 191.9 468.347L191.9 468.347Z" fill="black"/>
<path d="M179.955 430.253C179.955 430.253 179.955 430.286 179.959 430.346C179.955 430.316 179.955 430.286 179.951 430.257L179.955 430.253Z" fill="white"/>
<path d="M195.471 451.119C195.754 451.356 195.975 451.661 196.114 452.006C196.236 452.286 196.299 452.588 196.298 452.894C196.3 453.199 196.238 453.502 196.116 453.781C195.977 454.127 195.755 454.432 195.471 454.668C195.187 454.432 194.965 454.127 194.826 453.781C194.704 453.502 194.642 453.199 194.645 452.894C194.644 452.588 194.706 452.286 194.828 452.006C194.968 451.661 195.188 451.356 195.471 451.119Z" fill="black"/>
<path d="M179.951 430.257C180.057 431.372 180.205 432.476 180.395 433.571C180.585 434.666 180.797 435.757 181.085 436.828C181.342 437.907 181.654 438.972 182.022 440.017C182.363 441.075 182.803 442.092 183.226 443.128C182.073 441.208 181.216 439.118 180.685 436.932C180.125 434.755 179.878 432.507 179.951 430.257Z" fill="black"/>
<path d="M296.895 449.549C297.68 447.624 298.779 445.849 300.145 444.299C301.505 442.697 303.172 441.394 305.041 440.471C305.988 440.014 306.986 439.676 308.012 439.467C309.04 439.277 310.087 439.222 311.129 439.302C313.175 439.493 315.171 440.053 317.026 440.955C318.891 441.777 320.645 442.838 322.248 444.112C323.88 445.388 325.286 446.941 326.403 448.703C327.564 450.495 328.283 452.549 328.496 454.687C328.699 456.914 328.041 459.135 326.661 460.873L326.649 460.889C326.615 460.934 326.573 460.973 326.527 461.004C325.218 461.926 323.663 462.415 322.074 462.402C321.247 462.346 320.451 462.062 319.77 461.581C319.123 461.102 318.586 460.484 318.2 459.77C317.871 459.149 317.489 458.56 317.058 458.008C316.601 457.474 316.102 456.925 315.614 456.396C315.118 455.869 314.624 455.338 314.113 454.828C313.855 454.576 313.594 454.327 313.32 454.099C313.185 453.985 313.044 453.879 312.897 453.78C312.762 453.691 312.574 453.591 312.482 453.646L312.461 453.659C312.448 453.667 312.432 453.67 312.417 453.666C312.402 453.663 312.389 453.653 312.381 453.64C312.373 453.627 312.37 453.611 312.373 453.595C312.376 453.58 312.385 453.566 312.398 453.557C312.629 453.398 312.825 453.542 312.992 453.597C313.161 453.676 313.324 453.767 313.48 453.87C313.791 454.07 314.086 454.289 314.377 454.513C314.958 454.961 315.516 455.436 316.056 455.929C316.601 456.424 317.126 456.909 317.665 457.436C318.189 457.986 318.648 458.596 319.035 459.254C319.347 459.815 319.794 460.286 320.335 460.621C320.876 460.956 321.492 461.145 322.124 461.168C323.432 461.117 324.699 460.684 325.773 459.92L325.639 460.051C326.819 458.56 327.416 456.676 327.316 454.762C327.158 452.797 326.573 450.892 325.603 449.186C323.686 445.602 320.592 442.824 316.866 441.342C315.035 440.584 313.077 440.196 311.101 440.2C309.167 440.23 307.259 440.661 305.492 441.465C301.954 443.285 299.006 446.111 297.005 449.602C297.001 449.609 296.996 449.616 296.99 449.621C296.983 449.626 296.976 449.63 296.969 449.632C296.961 449.635 296.953 449.635 296.945 449.635C296.937 449.634 296.929 449.631 296.922 449.628C296.91 449.62 296.9 449.608 296.895 449.593C296.89 449.579 296.89 449.564 296.895 449.549Z" fill="black"/>
<path d="M356.741 447.55C354.537 447.942 352.412 448.705 350.452 449.808C348.454 450.838 346.523 452.003 344.618 453.205C340.796 455.596 337.099 458.194 333.455 460.864C329.812 463.535 326.208 466.263 322.642 469.047C319.078 471.828 315.566 474.688 312.073 477.553L312.068 477.557C311.989 477.622 311.893 477.663 311.792 477.675C311.691 477.687 311.589 477.669 311.498 477.624C311.406 477.579 311.329 477.508 311.275 477.42C311.221 477.332 311.193 477.23 311.193 477.127L311.243 464.544L311.375 451.962L311.636 452.313L308.427 451.44C307.358 451.143 306.265 450.957 305.185 450.71C304.106 450.452 303.002 450.352 301.911 450.165C300.816 450.01 299.71 449.966 298.608 449.881C296.405 449.784 294.199 449.986 292.048 450.481C291.513 450.607 290.989 450.774 290.479 450.98C289.965 451.17 289.466 451.401 288.987 451.67C288.029 452.178 287.212 452.923 286.609 453.837L286.627 453.774C286.174 458.148 285.81 462.534 285.535 466.931C285.25 471.327 285.095 475.715 285.104 480.119C285.083 488.921 285.301 497.729 285.536 506.528L285.532 506.471C285.703 507.319 286.003 508.134 286.421 508.888C286.638 509.267 286.883 509.629 287.154 509.971L287.564 510.48C287.713 510.638 287.878 510.781 288.033 510.933C289.341 512.112 290.915 512.94 292.614 513.342C296.149 513.992 299.782 513.839 303.253 512.893C305.007 512.487 306.796 512.003 308.58 511.52L313.948 510.177L324.707 507.664C331.878 506.006 339.067 504.451 346.154 502.501C347.933 502.042 349.681 501.479 351.446 500.97C353.183 500.38 354.949 499.862 356.653 499.183C360.122 498.011 363.415 496.354 366.44 494.261L366.449 494.254C366.502 494.215 366.568 494.198 366.633 494.209C366.698 494.219 366.756 494.256 366.795 494.31C366.827 494.354 366.843 494.408 366.842 494.463L366.653 506.319C366.653 506.335 366.646 506.351 366.635 506.362C366.624 506.373 366.608 506.38 366.592 506.38C366.576 506.38 366.561 506.373 366.55 506.362C366.538 506.351 366.532 506.335 366.532 506.319L366.343 494.463L366.745 494.665C363.725 496.871 360.412 498.623 356.906 499.867C355.194 500.584 353.431 501.135 351.69 501.761C349.926 502.304 348.175 502.902 346.397 503.395C339.308 505.452 332.15 507.228 324.979 508.889L314.24 511.431L308.899 512.784C307.129 513.265 305.369 513.76 303.534 514.176C299.869 515.139 296.042 515.261 292.325 514.534C290.434 514.068 288.686 513.128 287.24 511.798C285.779 510.425 284.79 508.607 284.423 506.614L284.419 506.576L284.419 506.556C284.329 502.148 284.313 497.742 284.297 493.334C284.29 488.927 284.309 484.519 284.393 480.11C284.455 475.702 284.692 471.286 285.052 466.896C285.391 462.501 285.758 458.111 286.248 453.729L286.25 453.711C286.252 453.695 286.258 453.679 286.267 453.665C287.588 451.633 289.806 450.685 291.947 450.084C294.133 449.559 296.378 449.333 298.623 449.411C300.857 449.51 303.082 449.753 305.286 450.14C306.381 450.364 307.49 450.528 308.573 450.802L311.829 451.61C311.903 451.628 311.968 451.671 312.016 451.732C312.063 451.792 312.089 451.867 312.09 451.945V451.962L312.222 464.544L312.271 477.127L311.391 476.701C314.878 473.789 318.449 471.002 322.036 468.23C325.632 465.473 329.251 462.745 332.96 460.143C336.668 457.543 340.429 455.014 344.317 452.692C346.269 451.545 348.251 450.448 350.298 449.481C352.317 448.436 354.492 447.742 356.733 447.426C356.749 447.424 356.765 447.429 356.777 447.44C356.789 447.45 356.797 447.465 356.799 447.481C356.801 447.497 356.796 447.513 356.786 447.526C356.777 447.539 356.762 447.547 356.747 447.549L356.741 447.55Z" fill="black"/>
<path d="M322.191 432.254L325.303 439.775L328.327 447.33L327.979 447.055C330.732 447.25 333.498 447.013 336.18 446.352C338.846 445.724 341.331 444.467 343.436 442.681C345.483 440.839 346.97 438.436 347.72 435.757C348.47 433.035 348.746 430.2 348.538 427.381L348.537 427.356L348.539 427.329C348.675 426.725 348.97 426.171 349.392 425.725C349.814 425.28 350.346 424.96 350.932 424.801C352.016 424.485 353.145 424.363 354.269 424.442C356.474 424.462 358.673 424.656 360.848 425.022C367.421 426.104 373.625 428.851 378.891 433.011L381.418 435.218C381.843 435.581 382.24 435.977 382.606 436.402L383.748 437.636C385.266 439.289 386.663 441.052 387.93 442.912C388.589 443.823 389.097 444.834 389.688 445.791C390.24 446.771 390.874 447.708 391.358 448.725L392.786 451.786C393.293 452.791 393.742 453.826 394.129 454.885C394.864 457.012 395.656 459.133 396.342 461.264L400.354 474.051C401.705 478.308 403.14 482.535 404.616 486.746C405.365 488.847 406.146 490.937 406.98 493.002C407.397 494.034 407.826 495.063 408.303 496.066C408.724 497.083 409.288 498.031 409.978 498.88L410.008 498.911C410.019 498.922 410.024 498.936 410.024 498.951C410.024 498.966 410.019 498.98 410.009 498.991C409.999 499.002 409.985 499.008 409.97 499.009C409.956 499.009 409.941 499.004 409.931 498.994C409.16 498.173 408.521 497.232 408.037 496.207C407.503 495.223 407.018 494.214 406.544 493.2C405.588 491.175 404.759 489.095 403.921 487.02C402.261 482.863 400.757 478.646 399.303 474.415C397.828 470.19 396.483 465.921 395.142 461.651C394.448 459.531 393.664 457.468 392.931 455.374C392.556 454.333 392.127 453.313 391.643 452.319L390.28 449.296C389.819 448.292 389.209 447.371 388.68 446.403C388.114 445.46 387.628 444.459 386.995 443.561L385.079 440.878C384.456 439.971 383.766 439.114 383.015 438.315L381.931 437.076C381.585 436.65 381.206 436.251 380.8 435.884L378.385 433.654C376.701 432.251 374.909 430.99 373.025 429.884C369.241 427.654 365.097 426.135 360.788 425.399C358.632 425.044 356.451 424.877 354.268 424.899C353.198 424.831 352.126 424.964 351.104 425.292C350.63 425.435 350.201 425.704 349.861 426.071C349.521 426.438 349.282 426.891 349.167 427.382V427.33C349.485 430.237 349.299 433.179 348.617 436.02C347.891 438.917 346.332 441.525 344.141 443.509C341.915 445.42 339.261 446.739 336.415 447.349C333.62 448.013 330.737 448.206 327.881 447.92C327.804 447.912 327.73 447.882 327.669 447.834C327.607 447.785 327.56 447.72 327.533 447.646L324.762 439.99L322.078 432.299C322.072 432.284 322.073 432.267 322.08 432.252C322.086 432.238 322.098 432.226 322.113 432.22C322.128 432.214 322.144 432.215 322.159 432.221C322.174 432.227 322.185 432.239 322.191 432.254V432.254Z" fill="black"/>
<path d="M309.652 429.592C305.306 431.032 301.139 432.981 297.234 435.402C293.322 437.771 289.702 440.61 286.453 443.86C283.201 447.085 280.418 450.77 278.19 454.801C275.968 458.866 273.717 462.97 271.386 466.984C269.057 471.003 266.648 474.978 264.641 479.131C263.614 481.175 262.806 483.327 262.232 485.549C261.641 487.717 261.689 490.015 262.368 492.156C263.215 494.258 264.573 496.105 266.313 497.523C268.025 499.029 269.915 500.31 271.94 501.334C276.042 503.383 280.432 504.765 284.952 505.428C282.668 505.22 280.405 504.813 278.188 504.211C275.957 503.629 273.78 502.85 271.681 501.882C269.575 500.888 267.603 499.623 265.812 498.118C264.919 497.35 264.084 496.513 263.317 495.614C262.547 494.681 261.931 493.626 261.491 492.491C260.679 490.182 260.58 487.673 261.208 485.304C261.782 482.998 262.599 480.763 263.644 478.638C265.658 474.391 268.038 470.388 270.34 466.352C272.708 462.348 274.962 458.316 277.23 454.242C279.518 450.127 282.411 446.395 285.806 443.176C292.551 436.729 300.737 432.065 309.652 429.592Z" fill="black"/>
<path d="M268.479 481.936C269.54 480.893 270.726 479.99 272.008 479.249C273.286 478.487 274.637 477.86 276.038 477.375C277.457 476.904 278.929 476.618 280.418 476.524C281.909 476.454 283.397 476.697 284.792 477.236C283.362 477.186 281.93 477.27 280.515 477.489C279.128 477.751 277.759 478.108 276.418 478.555C275.071 478.999 273.754 479.546 272.434 480.111C271.119 480.691 269.81 481.301 268.479 481.936Z" fill="black"/>
<path d="M366.592 494.463C368.196 493.171 369.696 491.794 371.177 490.399C372.647 488.99 374.081 487.548 375.48 486.071C376.883 484.597 378.244 483.079 379.601 481.55C380.959 480.02 382.277 478.452 383.675 476.923C382.687 478.752 381.57 480.504 380.333 482.167C379.101 483.836 377.772 485.428 376.353 486.935C374.926 488.437 373.401 489.84 371.79 491.134C370.192 492.449 368.447 493.566 366.592 494.463Z" fill="black"/>
<path d="M361.336 445.475C363.535 444.987 365.8 444.905 368.027 445.233C370.287 445.544 372.47 446.283 374.465 447.411C375.459 447.99 376.4 448.66 377.276 449.411C378.118 450.198 378.88 451.07 379.55 452.014C379.904 452.466 380.22 452.948 380.494 453.454L381.267 454.992C381.508 455.51 381.706 456.048 381.859 456.599C382.041 457.14 382.206 457.683 382.361 458.225C381.409 456.212 380.215 454.329 378.807 452.618C378.11 451.787 377.349 451.014 376.53 450.308C375.694 449.63 374.805 449.023 373.87 448.495C371.99 447.426 369.965 446.647 367.861 446.184C365.718 445.706 363.53 445.468 361.336 445.475Z" fill="black"/>
<path d="M292.937 553.72L286.715 563.405C284.642 566.635 282.548 569.85 280.435 573.051C280.386 573.126 280.32 573.186 280.241 573.226C280.163 573.266 280.076 573.285 279.989 573.28C279.901 573.276 279.816 573.249 279.742 573.201C279.668 573.153 279.608 573.087 279.566 573.008L279.548 572.974C278.044 570.224 276.187 567.692 274.028 565.443C271.872 563.171 269.536 561.085 267.044 559.206C265.76 558.32 264.515 557.376 263.165 556.592C262.497 556.191 261.851 555.754 261.165 555.383L259.106 554.279C258.428 553.895 257.724 553.562 257.013 553.246L254.892 552.27C253.458 551.665 251.994 551.135 250.548 550.563L250.53 550.557C250.334 550.479 250.176 550.326 250.087 550.131C249.999 549.937 249.989 549.714 250.058 549.511C251.491 545.323 253.014 541.167 254.494 536.995C255.98 532.825 257.465 528.655 259.004 524.505L268.146 499.572C268.179 499.48 268.247 499.407 268.333 499.366C268.42 499.326 268.519 499.323 268.608 499.357C268.628 499.365 268.647 499.374 268.666 499.385C271.166 500.895 273.793 502.176 276.515 503.212C279.218 504.29 282.066 504.939 284.961 505.137C285.033 505.14 285.101 505.171 285.151 505.224C285.201 505.276 285.23 505.346 285.231 505.42L285.232 505.441C285.283 506.452 285.56 507.437 286.041 508.321C286.525 509.226 287.143 510.05 287.872 510.762C288.605 511.483 289.409 512.123 290.272 512.672L291.603 513.444L292.992 514.113L292.998 514.117C293.055 514.144 293.104 514.187 293.138 514.242C293.172 514.296 293.19 514.359 293.191 514.423L293.664 562.68L293.781 586.808C293.836 594.851 293.83 602.894 293.806 610.937V610.942C293.805 611.102 293.765 611.26 293.69 611.401C293.201 612.269 292.504 612.996 291.666 613.515C290.898 614.003 290.067 614.378 289.197 614.63C287.55 615.106 285.853 615.38 284.143 615.448C280.82 615.585 277.492 615.439 274.193 615.013C267.672 614.141 261.203 612.898 254.817 611.289C248.431 609.749 242.119 607.938 235.845 606.014C229.568 604.099 223.344 602.017 217.173 599.77L217.168 599.768C217.139 599.757 217.113 599.739 217.094 599.714C216.184 598.541 215.441 597.242 214.886 595.857C214.877 595.834 214.877 595.809 214.886 595.786C214.895 595.764 214.912 595.746 214.934 595.736C214.956 595.726 214.981 595.725 215.003 595.734C215.026 595.743 215.044 595.76 215.054 595.782C215.65 597.121 216.428 598.367 217.366 599.483L217.287 599.428C223.531 601.413 229.826 603.232 236.128 605.002C242.437 606.749 248.777 608.352 255.149 609.808C261.498 611.294 267.922 612.418 274.393 613.173C277.591 613.564 280.815 613.692 284.034 613.554C285.596 613.488 287.145 613.235 288.649 612.799C290.023 612.488 291.231 611.656 292.03 610.473L291.914 610.936C291.89 602.894 291.884 594.851 291.939 586.808L292.057 562.68L292.529 514.423L292.728 514.733L291.304 514.033L289.932 513.223C289.035 512.642 288.2 511.967 287.442 511.208C286.674 510.445 286.026 509.566 285.52 508.601C284.995 507.62 284.703 506.526 284.669 505.408L284.938 505.712C283.461 505.615 281.993 505.403 280.547 505.078C279.11 504.736 277.694 504.311 276.304 503.806C273.529 502.783 270.849 501.511 268.294 500.004L268.814 499.818L260.29 524.979C258.885 529.178 257.425 533.357 255.967 537.537C254.501 541.714 253.079 545.907 251.568 550.067L251.079 549.016C252.553 549.614 254.044 550.172 255.504 550.806L257.665 551.827C258.389 552.159 259.106 552.506 259.798 552.907L261.896 554.06C262.593 554.447 263.253 554.902 263.934 555.32C265.307 556.138 266.578 557.119 267.884 558.042C270.435 559.986 272.801 562.171 274.949 564.569C277.134 566.959 278.994 569.639 280.478 572.536L279.592 572.459C281.767 569.302 283.957 566.154 286.16 563.016L292.786 553.614C292.8 553.594 292.821 553.581 292.845 553.577C292.868 553.572 292.892 553.578 292.912 553.592C292.932 553.605 292.945 553.627 292.95 553.65C292.954 553.674 292.95 553.699 292.937 553.72L292.937 553.72Z" fill="black"/>
<path d="M270.377 577.527C272.2 576.747 274.102 576.176 276.048 575.826C278 575.441 279.987 575.269 281.975 575.312C283.983 575.337 285.976 575.678 287.882 576.323C289.789 576.97 291.503 578.103 292.861 579.615C291.256 578.527 289.481 577.728 287.611 577.252C287.143 577.156 286.679 577.055 286.218 576.943L284.802 576.751C284.333 576.669 283.853 576.654 283.377 576.617C282.901 576.581 282.426 576.542 281.945 576.554C280.02 576.507 278.095 576.584 276.179 576.783C274.252 576.972 272.323 577.22 270.377 577.527Z" fill="black"/>
<path d="M252.941 550.59C249.993 557.443 246.719 564.121 243.364 570.758C239.977 577.377 236.508 583.952 232.709 590.352C235.654 583.499 238.928 576.82 242.285 570.185C245.675 563.567 249.144 556.992 252.941 550.59Z" fill="black"/>
<path d="M257.383 596.914C260.251 591.809 263.418 586.914 266.667 582.076C269.945 577.26 273.295 572.494 276.953 567.946C274.087 573.053 270.917 577.946 267.667 582.782C264.387 587.596 261.039 592.364 257.383 596.914Z" fill="black"/>
<path d="M248.48 622.642C252.6 622.397 256.71 622.09 260.82 621.764C260.462 623.51 259.65 625.126 258.47 626.442C258.47 626.442 191.17 633.152 181.1 627.78C181.1 627.78 177.59 619.057 183.94 615.932C186.05 614.89 190.76 612.98 196.56 610.477C198.308 610.771 200.01 611.303 201.62 612.06C203.219 612.808 204.702 613.792 206.02 614.981C206.671 615.576 207.276 616.222 207.83 616.912C208.357 617.618 208.829 618.366 209.24 619.149C210.051 620.719 210.633 622.402 210.97 624.144L210.98 624.154C211.001 624.253 211.056 624.341 211.135 624.402C211.213 624.464 211.311 624.495 211.41 624.491L223.77 623.98L236.13 623.367C240.25 623.173 244.36 622.897 248.48 622.642Z" fill="black"/>
<path d="M257.38 596.913C237.16 607.127 232.71 590.355 232.71 590.355C229.598 593.086 226.236 595.505 222.67 597.577C223.491 597.614 224.294 597.827 225.03 598.2C225.811 598.583 226.525 599.098 227.14 599.722C227.75 600.341 228.257 601.059 228.64 601.846C229.024 602.626 229.264 603.47 229.35 604.338C228.86 603.623 228.46 602.909 227.97 602.265C227.508 601.615 226.993 601.007 226.43 600.447C225.88 599.876 225.281 599.356 224.64 598.894C223.996 598.419 223.321 597.99 222.62 597.608C221 598.588 219.323 599.548 217.59 600.488C218.366 600.537 219.125 600.745 219.82 601.101C221.388 601.868 222.656 603.152 223.42 604.747C223.808 605.525 224.049 606.37 224.13 607.239C223.65 606.514 223.24 605.809 222.76 605.166C222.295 604.516 221.78 603.904 221.22 603.338C220.664 602.769 220.062 602.25 219.42 601.785C218.797 601.322 218.142 600.905 217.46 600.539C215.69 601.499 213.88 602.439 212.06 603.348C212.915 603.37 213.754 603.583 214.52 603.971C216.091 604.741 217.363 606.029 218.13 607.627C218.514 608.403 218.754 609.245 218.84 610.109C218.36 609.394 217.95 608.68 217.46 608.036C217.002 607.387 216.49 606.778 215.93 606.218C215.377 605.647 214.775 605.127 214.13 604.666C213.472 604.176 212.78 603.736 212.06 603.348C206.71 606.014 201.27 608.445 196.56 610.477C198.342 610.646 200.09 611.08 201.75 611.764C203.426 612.44 204.986 613.384 206.37 614.563C207.068 615.154 207.717 615.804 208.31 616.504C208.885 617.223 209.404 617.988 209.86 618.792C210.709 620.292 211.333 621.913 211.71 623.602L223.73 622.979L236.09 622.459C240.21 622.265 244.33 622.152 248.45 622.03C252.57 621.897 256.7 621.825 260.82 621.764C263.08 612.367 257.38 596.913 257.38 596.913ZM248.04 615.492C244.17 615.492 244.18 609.364 248.04 609.364C251.91 609.364 251.9 615.492 248.04 615.492Z" fill="black"/>
<path d="M217.57 600.488C217.53 600.508 217.5 600.518 217.46 600.539C217.42 600.518 217.39 600.498 217.35 600.477C217.424 600.476 217.497 600.479 217.57 600.488Z" fill="white"/>
<path d="M222.67 597.577C222.65 597.587 222.64 597.597 222.62 597.607C222.6 597.597 222.59 597.587 222.57 597.577H222.67Z" fill="white"/>
<path d="M292.861 514.425C292.861 514.425 284.977 518.174 318.266 521.753L429.811 503.56L412.291 496.7L292.861 514.425Z" fill="black"/>
<path d="M292.953 514.425C293.134 523.188 293.292 531.951 293.371 540.714C293.464 549.477 293.572 558.24 293.587 567.003C293.611 575.766 293.693 584.529 293.669 593.292C293.64 602.055 293.625 610.818 293.502 619.581L293.08 618.967L311.109 625.889C317.111 628.218 323.152 630.437 329.171 632.717L329.008 632.705C333.981 631.673 338.937 630.562 343.899 629.474L358.773 626.168L388.501 619.453C398.409 617.211 408.319 614.974 418.242 612.805C428.165 610.633 438.074 608.392 448.008 606.277L447.253 607.333C446.383 598.585 445.412 589.841 444.338 581.102C443.274 572.369 442.206 563.635 440.953 554.928C439.69 546.225 438.378 537.526 436.736 528.892C435.907 524.578 435.019 520.274 433.972 516.012C433.02 511.727 431.598 507.566 429.733 503.607L429.73 503.602C429.719 503.58 429.716 503.555 429.723 503.531C429.73 503.508 429.746 503.488 429.767 503.477C429.788 503.465 429.813 503.462 429.836 503.469C429.859 503.476 429.878 503.491 429.89 503.513C431.901 507.43 433.472 511.566 434.575 515.844C435.786 520.083 436.786 524.378 437.709 528.687C439.557 537.306 441.091 545.988 442.448 554.695C443.805 563.402 445.069 572.124 446.162 580.867C447.252 589.613 448.252 598.37 449.162 607.138C449.186 607.376 449.124 607.615 448.987 607.81C448.849 608.004 448.647 608.14 448.418 608.191L448.406 608.194C438.484 610.373 428.537 612.427 418.604 614.549C408.671 616.674 398.724 618.732 388.777 620.785L358.936 626.953L344.026 630.09C339.059 631.149 334.087 632.185 329.132 633.3C329.077 633.312 329.021 633.308 328.968 633.289C322.919 631.094 316.89 628.84 310.823 626.695L292.643 620.196C292.522 620.153 292.416 620.072 292.341 619.965C292.265 619.859 292.224 619.731 292.222 619.599L292.221 619.581C292.098 610.818 292.083 602.055 292.054 593.292C292.03 584.529 292.113 575.766 292.137 567.003C292.152 558.24 292.26 549.477 292.353 540.714C292.431 531.951 292.589 523.188 292.77 514.425C292.771 514.4 292.781 514.377 292.798 514.36C292.815 514.343 292.838 514.334 292.862 514.334C292.886 514.334 292.908 514.343 292.925 514.36C292.943 514.377 292.952 514.4 292.953 514.425L292.953 514.425Z" fill="black"/>
<path d="M318.266 521.753C318.776 526.243 319.209 530.737 319.684 535.229L320.975 548.712C321.817 557.706 322.573 566.691 323.355 575.707C323.985 584.725 324.494 593.747 324.88 602.772L325.372 616.315C325.477 620.832 325.614 625.347 325.655 629.865L323.946 602.823C323.373 593.812 322.867 584.796 322.143 575.802L320.047 548.795L319.093 535.278C318.818 530.77 318.503 526.264 318.266 521.753Z" fill="black"/>
<path d="M296.374 617.204C297.589 617.241 298.789 616.93 299.84 616.306C300.863 615.677 301.704 614.781 302.278 613.711C303.362 611.506 303.883 609.058 303.795 606.593C303.993 601.554 304.124 596.512 304.41 591.475L305.383 576.373C305.673 571.338 305.884 566.3 306.018 561.258C306.02 561.185 306.049 561.117 306.099 561.066C306.149 561.015 306.216 560.985 306.287 560.984C306.357 560.982 306.426 561.008 306.479 561.056C306.531 561.105 306.563 561.172 306.569 561.244L306.57 561.258L307.73 577.927L308.828 594.594L309.376 602.922C309.467 604.309 309.566 605.695 309.687 607.075C309.748 607.764 309.812 608.455 309.899 609.13C309.938 609.463 309.995 609.816 310.054 610.086L310.093 610.241L310.21 610.495C310.293 610.665 310.356 610.828 310.424 610.993C310.905 612.281 311.452 613.542 312.064 614.77C312.692 615.983 313.426 617.135 314.257 618.213C315.947 620.382 317.894 622.327 320.053 624.005C320.06 624.01 320.065 624.016 320.069 624.023C320.073 624.03 320.076 624.038 320.077 624.046C320.078 624.054 320.078 624.062 320.076 624.07C320.074 624.078 320.07 624.085 320.065 624.092C320.056 624.104 320.042 624.113 320.026 624.115C320.011 624.118 319.995 624.114 319.982 624.106C317.678 622.572 315.587 620.728 313.767 618.623C311.971 616.469 310.539 614.024 309.531 611.389C309.463 611.235 309.396 611.076 309.323 610.937L309.216 610.721L309.095 610.38C309.003 610.019 308.931 609.653 308.879 609.284C308.768 608.581 308.684 607.887 308.604 607.191C308.443 605.8 308.305 604.412 308.175 603.023C307.934 600.243 307.719 597.464 307.53 594.684C307.152 589.123 306.902 583.556 306.625 577.992C306.363 572.426 306.192 566.856 306.018 561.287L306.57 561.287C306.25 566.318 306.009 571.354 305.846 576.394L305.459 591.513C305.292 596.55 304.971 601.582 304.715 606.617C304.714 609.218 304.058 611.774 302.81 614.041C302.155 615.162 301.199 616.068 300.055 616.65C298.911 617.233 297.628 617.468 296.357 617.327C296.342 617.325 296.328 617.317 296.318 617.304C296.309 617.292 296.304 617.276 296.305 617.261C296.307 617.245 296.314 617.23 296.325 617.22C296.337 617.209 296.352 617.203 296.367 617.204L296.374 617.204Z" fill="black"/>
<path d="M350.338 516.522C350.338 516.522 368.886 512.188 369.264 554.316C369.305 558.974 369.472 565.317 370.534 569.847C372.717 579.153 377.316 589.832 383.16 580.783C385.122 577.676 386.127 574.04 386.046 570.344C385.987 565.377 384.818 557.964 379.295 552.176C370.146 542.589 372.505 539.649 373.381 534.28C374.257 528.912 376.407 525.295 370.534 519.74L364.662 514.186L375.134 512.478C380.901 514.238 385.719 521.455 385.427 528.017C385.379 529.079 385.301 530.165 385.204 531.238C384.594 537.904 386.255 544.581 389.907 550.14C393.763 555.998 397.983 564.333 397.983 572.755C397.983 588.265 381.339 609.441 366.592 592.664C351.846 575.887 357.394 572.755 357.978 548.298C358.562 523.841 334.336 519.132 334.336 519.132L350.338 516.522Z" fill="black"/>
<path d="M310.471 382.313C308.251 386.999 306.611 391.95 305.589 397.051C305.398 398.331 305.304 399.623 305.307 400.917C305.253 402.24 305.157 403.562 304.987 404.878C304.869 406.22 304.492 407.525 303.877 408.718C303.5 409.264 303.066 409.768 302.584 410.221C302.194 410.656 301.964 411.216 301.935 411.805C301.937 412.066 302.016 412.32 302.161 412.535C302.307 412.749 302.512 412.914 302.75 413.008C302.972 413.122 303.33 413.242 303.625 413.381C303.999 413.528 304.33 413.77 304.588 414.083C304.81 414.427 304.948 414.82 304.989 415.23C305.044 415.577 305.078 415.902 305.118 416.23C305.197 416.88 305.261 417.527 305.355 418.167C305.666 420.713 306.313 423.204 307.277 425.573C308.211 427.883 309.895 429.927 312.381 430.024C314.932 430.264 317.487 430.526 320.054 430.872L320.061 430.873C320.076 430.875 320.09 430.883 320.099 430.895C320.109 430.907 320.114 430.923 320.113 430.938C320.113 430.954 320.106 430.968 320.095 430.979C320.084 430.99 320.07 430.997 320.054 430.997C317.484 431.06 314.902 431.038 312.316 430.994C311.976 430.991 311.636 430.956 311.302 430.889L310.776 430.802C310.605 430.752 310.438 430.69 310.275 430.618C309.608 430.37 308.992 429.997 308.458 429.519C307.439 428.575 306.633 427.416 306.096 426.123C305.07 423.637 304.436 421.001 304.219 418.312C304.147 417.649 304.091 416.989 304.049 416.331C304.063 415.763 303.98 415.197 303.804 414.658C303.648 414.466 303.449 414.314 303.223 414.216C302.945 414.057 302.694 413.956 302.352 413.753C302.012 413.557 301.726 413.276 301.522 412.937C301.326 412.587 301.238 412.184 301.27 411.782C301.348 411.049 301.676 410.369 302.198 409.86C302.442 409.597 302.72 409.41 302.932 409.201C303.151 408.984 303.347 408.743 303.516 408.482C304.146 407.366 304.516 406.116 304.595 404.83C304.706 403.53 304.718 402.223 304.63 400.922C304.505 399.591 304.49 398.253 304.585 396.92C304.921 394.267 305.629 391.676 306.688 389.229C307.697 386.79 308.928 384.454 310.365 382.251C310.37 382.244 310.376 382.238 310.382 382.233C310.389 382.229 310.396 382.226 310.404 382.224C310.412 382.223 310.42 382.223 310.428 382.225C310.436 382.226 310.443 382.229 310.45 382.234C310.462 382.243 310.47 382.255 310.474 382.27C310.478 382.284 310.477 382.299 310.471 382.313Z" fill="black"/>
<path d="M301.712 400.024C302.459 401.852 303.083 403.725 303.773 405.574C304.381 407.453 305.055 409.308 305.605 411.208C305.611 411.229 305.611 411.25 305.605 411.271C305.599 411.291 305.586 411.31 305.57 411.323C305.554 411.337 305.534 411.345 305.513 411.347C305.492 411.349 305.471 411.344 305.453 411.334L305.376 411.291C304.395 410.735 303.54 409.971 302.87 409.052C302.276 408.248 301.808 407.356 301.481 406.407C301.152 405.458 300.966 404.463 300.929 403.457C300.882 402.313 301.07 401.172 301.483 400.107L301.515 400.024C301.523 400.005 301.537 399.987 301.554 399.975C301.572 399.963 301.592 399.957 301.613 399.957C301.634 399.957 301.655 399.963 301.673 399.975C301.69 399.987 301.704 400.004 301.712 400.023L301.712 400.024Z" fill="black"/>
<path d="M330.567 406.919C330.554 406.919 330.542 406.918 330.529 406.917C330.49 406.912 330.451 406.899 330.417 406.879C330.382 406.859 330.351 406.832 330.327 406.8C330.302 406.767 330.284 406.731 330.273 406.691C330.263 406.652 330.26 406.611 330.265 406.57C330.281 406.384 330.258 406.196 330.197 406.02C330.135 405.844 330.037 405.683 329.909 405.549C326.416 401.36 301.834 400.385 301.586 400.375C301.505 400.372 301.429 400.336 301.374 400.276C301.319 400.216 301.29 400.135 301.293 400.053C301.29 400.011 301.297 399.969 301.312 399.93C301.328 399.891 301.351 399.856 301.381 399.827C301.412 399.799 301.448 399.777 301.487 399.765C301.526 399.752 301.568 399.749 301.608 399.755C302.631 399.793 326.708 400.751 330.373 405.146C330.556 405.345 330.695 405.582 330.78 405.841C330.866 406.1 330.896 406.374 330.868 406.646C330.859 406.721 330.824 406.791 330.768 406.841C330.713 406.891 330.641 406.919 330.567 406.919Z" fill="black"/>
<path d="M328.677 416.518C335.028 424.012 348.853 427.355 348.853 427.355C355.094 424.448 355.204 398.835 353.123 384.183C351.043 369.531 333.523 373.11 328.981 374.788C324.44 376.466 310.826 378.031 310.826 378.031C310.826 378.031 314.032 405.993 320.821 407.447C320.821 407.447 326.755 401.15 328.757 406.088C329.076 406.915 329.207 407.805 329.14 408.692L328.677 416.518Z" fill="black"/>
<path d="M325.692 420.137C324.656 420.08 323.652 419.75 322.778 419.18C322.708 419.139 322.657 419.072 322.636 418.992C322.614 418.913 322.625 418.828 322.665 418.757C322.706 418.685 322.772 418.633 322.85 418.611C322.927 418.59 323.01 418.601 323.08 418.642C324.61 419.536 325.849 419.743 326.767 419.262C328.19 418.51 328.412 416.312 328.414 416.29C328.417 416.249 328.428 416.209 328.447 416.173C328.465 416.136 328.491 416.104 328.522 416.078C328.553 416.052 328.589 416.032 328.627 416.021C328.666 416.009 328.706 416.006 328.746 416.01C328.786 416.014 328.824 416.026 328.86 416.045C328.895 416.064 328.926 416.091 328.952 416.122C328.977 416.154 328.996 416.19 329.008 416.229C329.02 416.268 329.024 416.309 329.02 416.35C329.01 416.453 328.761 418.908 327.046 419.814C326.627 420.032 326.162 420.143 325.692 420.137Z" fill="black"/>
<path d="M305.01 419.826C305.23 420.44 305.634 420.967 306.165 421.334C306.424 421.481 306.709 421.574 307.004 421.606C307.299 421.638 307.597 421.608 307.881 421.519C309.117 421.102 310.3 420.533 311.404 419.826C310.523 420.92 309.342 421.721 308.013 422.125C307.653 422.231 307.275 422.25 306.907 422.181C306.539 422.112 306.192 421.957 305.892 421.729C305.62 421.495 305.401 421.203 305.249 420.875C305.096 420.547 305.015 420.189 305.01 419.826Z" fill="black"/>
<path d="M306.878 407.149C307.351 407.132 307.799 406.928 308.128 406.58C308.456 406.233 308.64 405.768 308.64 405.285C308.64 404.801 308.456 404.337 308.128 403.989C307.799 403.641 307.351 403.437 306.878 403.42C306.405 403.437 305.957 403.641 305.628 403.989C305.299 404.337 305.115 404.801 305.115 405.285C305.115 405.768 305.299 406.233 305.628 406.58C305.957 406.928 306.405 407.132 306.878 407.149Z" fill="black"/>
<path d="M239.133 592.067C239.606 592.05 240.054 591.847 240.383 591.499C240.712 591.151 240.896 590.687 240.896 590.203C240.896 589.72 240.712 589.255 240.383 588.908C240.054 588.56 239.606 588.356 239.133 588.339C238.66 588.356 238.212 588.56 237.883 588.908C237.554 589.255 237.371 589.72 237.371 590.203C237.371 590.687 237.554 591.151 237.883 591.499C238.212 591.847 238.66 592.05 239.133 592.067Z" fill="black"/>
<path d="M256.434 584.462C256.907 584.445 257.355 584.241 257.684 583.893C258.013 583.546 258.197 583.081 258.197 582.598C258.197 582.114 258.013 581.65 257.684 581.302C257.355 580.954 256.907 580.75 256.434 580.734C255.961 580.75 255.513 580.954 255.184 581.302C254.856 581.65 254.672 582.114 254.672 582.598C254.672 583.081 254.856 583.546 255.184 583.893C255.513 584.241 255.961 584.445 256.434 584.462Z" fill="black"/>
<path d="M249.645 598.331C250.118 598.314 250.566 598.11 250.895 597.762C251.223 597.415 251.407 596.95 251.407 596.467C251.407 595.983 251.223 595.519 250.895 595.171C250.566 594.823 250.118 594.619 249.645 594.603C249.172 594.619 248.724 594.823 248.395 595.171C248.066 595.519 247.882 595.983 247.882 596.467C247.882 596.95 248.066 597.415 248.395 597.762C248.724 598.11 249.172 598.314 249.645 598.331Z" fill="black"/>
<path d="M246.36 574.396C246.833 574.379 247.281 574.175 247.61 573.827C247.939 573.48 248.123 573.015 248.123 572.532C248.123 572.048 247.939 571.584 247.61 571.236C247.281 570.888 246.833 570.684 246.36 570.667C245.887 570.684 245.439 570.888 245.11 571.236C244.781 571.584 244.598 572.048 244.598 572.532C244.598 573.015 244.781 573.48 245.11 573.827C245.439 574.175 245.887 574.379 246.36 574.396Z" fill="black"/>
<path d="M265.851 570.146C266.324 570.129 266.772 569.925 267.101 569.577C267.43 569.229 267.614 568.765 267.614 568.281C267.614 567.798 267.43 567.333 267.101 566.986C266.772 566.638 266.324 566.434 265.851 566.417C265.378 566.434 264.93 566.638 264.601 566.986C264.273 567.333 264.089 567.798 264.089 568.281C264.089 568.765 264.273 569.229 264.601 569.577C264.93 569.925 265.378 570.129 265.851 570.146Z" fill="black"/>
<path d="M254.463 560.079C254.936 560.063 255.384 559.859 255.713 559.511C256.042 559.163 256.226 558.699 256.226 558.215C256.226 557.732 256.042 557.267 255.713 556.92C255.384 556.572 254.936 556.368 254.463 556.351C253.99 556.368 253.542 556.572 253.213 556.92C252.884 557.267 252.701 557.732 252.701 558.215C252.701 558.699 252.884 559.163 253.213 559.511C253.542 559.859 253.99 560.063 254.463 560.079Z" fill="black"/>
<path d="M255.339 572.83C255.812 572.813 256.26 572.609 256.589 572.261C256.918 571.914 257.102 571.449 257.102 570.966C257.102 570.482 256.918 570.018 256.589 569.67C256.26 569.322 255.812 569.119 255.339 569.102C254.866 569.119 254.418 569.322 254.089 569.67C253.76 570.018 253.577 570.482 253.577 570.966C253.577 571.449 253.76 571.914 254.089 572.261C254.418 572.609 254.866 572.813 255.339 572.83Z" fill="black"/>
<path d="M246.798 585.58C247.271 585.563 247.719 585.36 248.048 585.012C248.377 584.664 248.561 584.2 248.561 583.716C248.561 583.233 248.377 582.768 248.048 582.42C247.719 582.073 247.271 581.869 246.798 581.852C246.325 581.869 245.877 582.073 245.548 582.42C245.219 582.768 245.036 583.233 245.036 583.716C245.036 584.2 245.219 584.664 245.548 585.012C245.877 585.36 246.325 585.563 246.798 585.58Z" fill="black"/>
<path d="M263.047 588.525L261.039 591.502C260.655 591.334 260.338 591.038 260.14 590.661C259.943 590.285 259.876 589.851 259.952 589.431C260.028 589.011 260.241 588.63 260.557 588.35C260.873 588.07 261.272 587.909 261.69 587.892C261.949 587.881 262.207 587.932 262.443 588.043C262.679 588.153 262.885 588.318 263.047 588.525Z" fill="black"/>
<path d="M269.708 578.671L267.658 581.703C267.408 581.441 267.238 581.11 267.169 580.751C267.099 580.393 267.134 580.021 267.267 579.682C267.4 579.342 267.627 579.05 267.92 578.839C268.213 578.629 268.559 578.51 268.917 578.497C269.19 578.492 269.461 578.552 269.708 578.671Z" fill="black"/>
<path d="M297.241 528.688C297.714 528.671 298.163 528.467 298.491 528.12C298.82 527.772 299.004 527.307 299.004 526.824C299.004 526.34 298.82 525.876 298.491 525.528C298.163 525.18 297.714 524.977 297.241 524.96C296.768 524.977 296.32 525.18 295.992 525.528C295.663 525.876 295.479 526.34 295.479 526.824C295.479 527.307 295.663 527.772 295.992 528.12C296.32 528.467 296.768 528.671 297.241 528.688Z" fill="black"/>
<path d="M305.71 534.653C306.183 534.636 306.631 534.432 306.96 534.085C307.288 533.737 307.472 533.272 307.472 532.789C307.472 532.306 307.288 531.841 306.96 531.493C306.631 531.146 306.183 530.942 305.71 530.925C305.237 530.942 304.789 531.146 304.46 531.493C304.131 531.841 303.947 532.306 303.947 532.789C303.947 533.272 304.131 533.737 304.46 534.085C304.789 534.432 305.237 534.636 305.71 534.653Z" fill="black"/>
<path d="M314.469 528.091C314.942 528.075 315.391 527.871 315.719 527.523C316.048 527.175 316.232 526.711 316.232 526.227C316.232 525.744 316.048 525.279 315.719 524.932C315.391 524.584 314.942 524.38 314.469 524.363C313.996 524.38 313.548 524.584 313.22 524.932C312.891 525.279 312.707 525.744 312.707 526.227C312.707 526.711 312.891 527.175 313.22 527.523C313.548 527.871 313.996 528.075 314.469 528.091Z" fill="black"/>
<path d="M298.117 545.689C298.59 545.672 299.039 545.468 299.367 545.12C299.696 544.772 299.88 544.308 299.88 543.824C299.88 543.341 299.696 542.876 299.367 542.529C299.039 542.181 298.59 541.977 298.117 541.96C297.644 541.977 297.196 542.181 296.868 542.529C296.539 542.876 296.355 543.341 296.355 543.824C296.355 544.308 296.539 544.772 296.868 545.12C297.196 545.468 297.644 545.672 298.117 545.689Z" fill="black"/>
<path d="M314.469 544.495C314.942 544.479 315.391 544.275 315.719 543.927C316.048 543.579 316.232 543.115 316.232 542.631C316.232 542.148 316.048 541.683 315.719 541.336C315.391 540.988 314.942 540.784 314.469 540.767C313.996 540.784 313.548 540.988 313.22 541.336C312.891 541.683 312.707 542.148 312.707 542.631C312.707 543.115 312.891 543.579 313.22 543.927C313.548 544.275 313.996 544.479 314.469 544.495Z" fill="black"/>
<path d="M306.294 553.145C306.767 553.128 307.215 552.924 307.544 552.577C307.872 552.229 308.056 551.764 308.056 551.281C308.056 550.797 307.872 550.333 307.544 549.985C307.215 549.637 306.767 549.434 306.294 549.417C305.821 549.434 305.373 549.637 305.044 549.985C304.715 550.333 304.531 550.797 304.531 551.281C304.531 551.764 304.715 552.229 305.044 552.577C305.373 552.924 305.821 553.128 306.294 553.145Z" fill="black"/>
<path d="M298.701 562.093C299.174 562.076 299.623 561.872 299.951 561.524C300.28 561.176 300.464 560.712 300.464 560.229C300.464 559.745 300.28 559.281 299.951 558.933C299.623 558.585 299.174 558.381 298.701 558.364C298.228 558.381 297.78 558.585 297.452 558.933C297.123 559.281 296.939 559.745 296.939 560.229C296.939 560.712 297.123 561.176 297.452 561.524C297.78 561.872 298.228 562.076 298.701 562.093Z" fill="black"/>
<path d="M315.346 562.689C315.819 562.672 316.267 562.468 316.596 562.121C316.925 561.773 317.108 561.308 317.108 560.825C317.108 560.342 316.925 559.877 316.596 559.529C316.267 559.182 315.819 558.978 315.346 558.961C314.873 558.978 314.425 559.182 314.096 559.529C313.767 559.877 313.583 560.342 313.583 560.825C313.583 561.308 313.767 561.773 314.096 562.121C314.425 562.468 314.873 562.672 315.346 562.689Z" fill="black"/>
<path d="M299.577 577.602C300.05 577.585 300.498 577.381 300.827 577.034C301.156 576.686 301.34 576.221 301.34 575.738C301.34 575.254 301.156 574.79 300.827 574.442C300.498 574.094 300.05 573.891 299.577 573.874C299.104 573.891 298.656 574.094 298.327 574.442C297.999 574.79 297.815 575.254 297.815 575.738C297.815 576.221 297.999 576.686 298.327 577.034C298.656 577.381 299.104 577.585 299.577 577.602Z" fill="black"/>
<path d="M315.346 578.198C315.819 578.182 316.267 577.978 316.596 577.63C316.925 577.282 317.108 576.818 317.108 576.334C317.108 575.851 316.925 575.386 316.596 575.039C316.267 574.691 315.819 574.487 315.346 574.47C314.873 574.487 314.425 574.691 314.096 575.039C313.767 575.386 313.583 575.851 313.583 576.334C313.583 576.818 313.767 577.282 314.096 577.63C314.425 577.978 314.873 578.182 315.346 578.198Z" fill="black"/>
<path d="M298.993 591.322C299.466 591.305 299.915 591.101 300.243 590.753C300.572 590.406 300.756 589.941 300.756 589.458C300.756 588.974 300.572 588.51 300.243 588.162C299.915 587.814 299.466 587.61 298.993 587.594C298.52 587.61 298.072 587.814 297.743 588.162C297.415 588.51 297.231 588.974 297.231 589.458C297.231 589.941 297.415 590.406 297.743 590.753C298.072 591.101 298.52 591.305 298.993 591.322Z" fill="black"/>
<path d="M315.346 592.813C315.819 592.796 316.267 592.592 316.596 592.245C316.925 591.897 317.108 591.432 317.108 590.949C317.108 590.466 316.925 590.001 316.596 589.653C316.267 589.305 315.819 589.102 315.346 589.085C314.873 589.102 314.425 589.305 314.096 589.653C313.767 590.001 313.583 590.466 313.583 590.949C313.583 591.432 313.767 591.897 314.096 592.245C314.425 592.592 314.873 592.796 315.346 592.813Z" fill="black"/>
<path d="M299.285 606.533C299.758 606.516 300.207 606.312 300.535 605.964C300.864 605.617 301.048 605.152 301.048 604.669C301.048 604.185 300.864 603.721 300.535 603.373C300.207 603.025 299.758 602.821 299.285 602.805C298.812 602.821 298.364 603.025 298.035 603.373C297.707 603.721 297.523 604.185 297.523 604.669C297.523 605.152 297.707 605.617 298.035 605.964C298.364 606.312 298.812 606.516 299.285 606.533Z" fill="black"/>
<path d="M315.638 607.129C316.111 607.112 316.559 606.909 316.888 606.561C317.217 606.213 317.4 605.749 317.4 605.265C317.4 604.782 317.217 604.317 316.888 603.969C316.559 603.622 316.111 603.418 315.638 603.401C315.165 603.418 314.717 603.622 314.388 603.969C314.059 604.317 313.875 604.782 313.875 605.265C313.875 605.749 314.059 606.213 314.388 606.561C314.717 606.909 315.165 607.112 315.638 607.129Z" fill="black"/>
<path d="M307.17 617.866C307.643 617.85 308.091 617.646 308.42 617.298C308.748 616.95 308.932 616.486 308.932 616.002C308.932 615.519 308.748 615.054 308.42 614.707C308.091 614.359 307.643 614.155 307.17 614.138C306.697 614.155 306.249 614.359 305.92 614.707C305.591 615.054 305.407 615.519 305.407 616.002C305.407 616.486 305.591 616.95 305.92 617.298C306.249 617.646 306.697 617.85 307.17 617.866Z" fill="black"/>
<path d="M319.434 620.252C319.907 620.236 320.355 620.032 320.684 619.684C321.013 619.336 321.196 618.872 321.196 618.388C321.196 617.905 321.013 617.44 320.684 617.093C320.355 616.745 319.907 616.541 319.434 616.524C318.961 616.541 318.513 616.745 318.184 617.093C317.855 617.44 317.671 617.905 317.671 618.388C317.671 618.872 317.855 619.336 318.184 619.684C318.513 620.032 318.961 620.236 319.434 620.252Z" fill="black"/>
<path d="M324.106 533.758C324.579 533.741 325.027 533.538 325.356 533.19C325.684 532.842 325.868 532.378 325.868 531.894C325.868 531.411 325.684 530.946 325.356 530.599C325.027 530.251 324.579 530.047 324.106 530.03C323.633 530.047 323.185 530.251 322.856 530.599C322.527 530.946 322.343 531.411 322.343 531.894C322.343 532.378 322.527 532.842 322.856 533.19C323.185 533.538 323.633 533.741 324.106 533.758Z" fill="black"/>
<path d="M331.698 526.898C332.171 526.882 332.619 526.678 332.948 526.33C333.277 525.982 333.46 525.518 333.46 525.034C333.46 524.551 333.277 524.086 332.948 523.739C332.619 523.391 332.171 523.187 331.698 523.17C331.225 523.187 330.777 523.391 330.448 523.739C330.119 524.086 329.936 524.551 329.936 525.034C329.936 525.518 330.119 525.982 330.448 526.33C330.777 526.678 331.225 526.882 331.698 526.898Z" fill="black"/>
<path d="M341.042 531.671C341.515 531.654 341.963 531.45 342.292 531.102C342.62 530.754 342.804 530.29 342.804 529.806C342.804 529.323 342.62 528.858 342.292 528.511C341.963 528.163 341.515 527.959 341.042 527.942C340.569 527.959 340.121 528.163 339.792 528.511C339.463 528.858 339.279 529.323 339.279 529.806C339.279 530.29 339.463 530.754 339.792 531.102C340.121 531.45 340.569 531.654 341.042 531.671Z" fill="black"/>
<path d="M334.618 539.425C335.091 539.408 335.539 539.205 335.868 538.857C336.197 538.509 336.38 538.045 336.38 537.561C336.38 537.078 336.197 536.613 335.868 536.265C335.539 535.918 335.091 535.714 334.618 535.697C334.145 535.714 333.697 535.918 333.368 536.265C333.039 536.613 332.855 537.078 332.855 537.561C332.855 538.045 333.039 538.509 333.368 538.857C333.697 539.205 334.145 539.408 334.618 539.425Z" fill="black"/>
<path d="M329.07 551.355C329.543 551.338 329.991 551.135 330.32 550.787C330.649 550.439 330.833 549.975 330.833 549.491C330.833 549.008 330.649 548.543 330.32 548.196C329.991 547.848 329.543 547.644 329.07 547.627C328.597 547.644 328.149 547.848 327.82 548.196C327.491 548.543 327.308 549.008 327.308 549.491C327.308 549.975 327.491 550.439 327.82 550.787C328.149 551.135 328.597 551.338 329.07 551.355Z" fill="black"/>
<path d="M345.714 547.776C346.187 547.759 346.635 547.556 346.964 547.208C347.293 546.86 347.477 546.396 347.477 545.912C347.477 545.429 347.293 544.964 346.964 544.617C346.635 544.269 346.187 544.065 345.714 544.048C345.241 544.065 344.793 544.269 344.464 544.617C344.135 544.964 343.952 545.429 343.952 545.912C343.952 546.396 344.135 546.86 344.464 547.208C344.793 547.556 345.241 547.759 345.714 547.776Z" fill="black"/>
<path d="M339.29 557.022C339.763 557.005 340.211 556.802 340.54 556.454C340.868 556.106 341.052 555.642 341.052 555.158C341.052 554.675 340.868 554.21 340.54 553.863C340.211 553.515 339.763 553.311 339.29 553.294C338.817 553.311 338.369 553.515 338.04 553.863C337.711 554.21 337.527 554.675 337.527 555.158C337.527 555.642 337.711 556.106 338.04 556.454C338.369 556.802 338.817 557.005 339.29 557.022Z" fill="black"/>
<path d="M331.114 566.268C331.587 566.251 332.035 566.048 332.364 565.7C332.693 565.352 332.876 564.888 332.876 564.404C332.876 563.921 332.693 563.456 332.364 563.108C332.035 562.761 331.587 562.557 331.114 562.54C330.641 562.557 330.193 562.761 329.864 563.108C329.535 563.456 329.352 563.921 329.352 564.404C329.352 564.888 329.535 565.352 329.864 565.7C330.193 566.048 330.641 566.251 331.114 566.268Z" fill="black"/>
<path d="M348.342 562.391C348.815 562.374 349.263 562.17 349.592 561.823C349.921 561.475 350.104 561.01 350.104 560.527C350.104 560.043 349.921 559.579 349.592 559.231C349.263 558.883 348.815 558.68 348.342 558.663C347.869 558.68 347.421 558.883 347.092 559.231C346.763 559.579 346.58 560.043 346.58 560.527C346.58 561.01 346.763 561.475 347.092 561.823C347.421 562.17 347.869 562.374 348.342 562.391Z" fill="black"/>
<path d="M341.626 573.128C342.099 573.111 342.547 572.907 342.876 572.56C343.205 572.212 343.389 571.747 343.389 571.264C343.389 570.781 343.205 570.316 342.876 569.968C342.547 569.621 342.099 569.417 341.626 569.4C341.153 569.417 340.705 569.621 340.376 569.968C340.048 570.316 339.864 570.781 339.864 571.264C339.864 571.747 340.048 572.212 340.376 572.56C340.705 572.907 341.153 573.111 341.626 573.128Z" fill="black"/>
<path d="M332.282 581.777C332.755 581.761 333.203 581.557 333.532 581.209C333.861 580.861 334.044 580.397 334.044 579.913C334.044 579.43 333.861 578.965 333.532 578.618C333.203 578.27 332.755 578.066 332.282 578.049C331.809 578.066 331.361 578.27 331.032 578.618C330.703 578.965 330.52 579.43 330.52 579.913C330.52 580.397 330.703 580.861 331.032 581.209C331.361 581.557 331.809 581.761 332.282 581.777Z" fill="black"/>
<path d="M345.13 589.83C345.603 589.814 346.051 589.61 346.38 589.262C346.709 588.914 346.893 588.45 346.893 587.966C346.893 587.483 346.709 587.018 346.38 586.671C346.051 586.323 345.603 586.119 345.13 586.102C344.657 586.119 344.209 586.323 343.88 586.671C343.551 587.018 343.368 587.483 343.368 587.966C343.368 588.45 343.551 588.914 343.88 589.262C344.209 589.61 344.657 589.814 345.13 589.83Z" fill="black"/>
<path d="M351.262 578.198C351.735 578.182 352.183 577.978 352.512 577.63C352.841 577.282 353.024 576.818 353.024 576.334C353.024 575.851 352.841 575.386 352.512 575.039C352.183 574.691 351.735 574.487 351.262 574.47C350.789 574.487 350.341 574.691 350.012 575.039C349.683 575.386 349.5 575.851 349.5 576.334C349.5 576.818 349.683 577.282 350.012 577.63C350.341 577.978 350.789 578.182 351.262 578.198Z" fill="black"/>
<path d="M334.618 596.69C335.091 596.673 335.539 596.47 335.868 596.122C336.197 595.774 336.38 595.31 336.38 594.826C336.38 594.343 336.197 593.878 335.868 593.531C335.539 593.183 335.091 592.979 334.618 592.962C334.145 592.979 333.697 593.183 333.368 593.531C333.039 593.878 332.855 594.343 332.855 594.826C332.855 595.31 333.039 595.774 333.368 596.122C333.697 596.47 334.145 596.673 334.618 596.69Z" fill="black"/>
<path d="M348.05 606.234C348.523 606.218 348.971 606.014 349.3 605.666C349.629 605.318 349.812 604.854 349.812 604.37C349.812 603.887 349.629 603.422 349.3 603.075C348.971 602.727 348.523 602.523 348.05 602.506C347.577 602.523 347.129 602.727 346.8 603.075C346.471 603.422 346.288 603.887 346.288 604.37C346.288 604.854 346.471 605.318 346.8 605.666C347.129 606.014 347.577 606.218 348.05 606.234Z" fill="black"/>
<path d="M356.81 592.515C357.283 592.498 357.731 592.294 358.06 591.946C358.389 591.599 358.573 591.134 358.573 590.651C358.573 590.167 358.389 589.703 358.06 589.355C357.731 589.007 357.283 588.803 356.81 588.787C356.337 588.803 355.889 589.007 355.56 589.355C355.232 589.703 355.048 590.167 355.048 590.651C355.048 591.134 355.232 591.599 355.56 591.946C355.889 592.294 356.337 592.498 356.81 592.515Z" fill="black"/>
<path d="M336.078 615.48C336.551 615.464 336.999 615.26 337.328 614.912C337.657 614.564 337.84 614.1 337.84 613.616C337.84 613.133 337.657 612.668 337.328 612.321C336.999 611.973 336.551 611.769 336.078 611.752C335.605 611.769 335.157 611.973 334.828 612.321C334.499 612.668 334.315 613.133 334.315 613.616C334.315 614.1 334.499 614.564 334.828 614.912C335.157 615.26 335.605 615.464 336.078 615.48Z" fill="black"/>
<path d="M350.386 624.428C350.859 624.411 351.307 624.207 351.636 623.86C351.965 623.512 352.148 623.047 352.148 622.564C352.148 622.081 351.965 621.616 351.636 621.268C351.307 620.921 350.859 620.717 350.386 620.7C349.913 620.717 349.465 620.921 349.136 621.268C348.807 621.616 348.624 622.081 348.624 622.564C348.624 623.047 348.807 623.512 349.136 623.86C349.465 624.207 349.913 624.411 350.386 624.428Z" fill="black"/>
<path d="M338.122 630.393C338.595 630.376 339.043 630.173 339.372 629.825C339.701 629.477 339.884 629.013 339.884 628.529C339.884 628.046 339.701 627.581 339.372 627.233C339.043 626.886 338.595 626.682 338.122 626.665C337.649 626.682 337.201 626.886 336.872 627.233C336.543 627.581 336.359 628.046 336.359 628.529C336.359 629.013 336.543 629.477 336.872 629.825C337.201 630.173 337.649 630.376 338.122 630.393Z" fill="black"/>
<path d="M361.482 614.586C361.955 614.569 362.403 614.365 362.732 614.017C363.061 613.67 363.245 613.205 363.245 612.722C363.245 612.238 363.061 611.774 362.732 611.426C362.403 611.078 361.955 610.874 361.482 610.857C361.009 610.874 360.561 611.078 360.232 611.426C359.903 611.774 359.72 612.238 359.72 612.722C359.72 613.205 359.903 613.67 360.232 614.017C360.561 614.365 361.009 614.569 361.482 614.586Z" fill="black"/>
<path d="M370.534 605.638C371.007 605.621 371.456 605.417 371.784 605.07C372.113 604.722 372.297 604.257 372.297 603.774C372.297 603.29 372.113 602.826 371.784 602.478C371.456 602.13 371.007 601.927 370.534 601.91C370.061 601.927 369.613 602.13 369.285 602.478C368.956 602.826 368.772 603.29 368.772 603.774C368.772 604.257 368.956 604.722 369.285 605.07C369.613 605.417 370.061 605.621 370.534 605.638Z" fill="black"/>
<path d="M375.498 621.147C375.971 621.13 376.419 620.927 376.748 620.579C377.077 620.231 377.261 619.767 377.261 619.283C377.261 618.8 377.077 618.335 376.748 617.987C376.419 617.64 375.971 617.436 375.498 617.419C375.025 617.436 374.577 617.64 374.248 617.987C373.92 618.335 373.736 618.8 373.736 619.283C373.736 619.767 373.92 620.231 374.248 620.579C374.577 620.927 375.025 621.13 375.498 621.147Z" fill="black"/>
<path d="M383.091 610.41C383.564 610.393 384.012 610.189 384.34 609.842C384.669 609.494 384.853 609.029 384.853 608.546C384.853 608.063 384.669 607.598 384.34 607.25C384.012 606.902 383.564 606.699 383.091 606.682C382.618 606.699 382.169 606.902 381.841 607.25C381.512 607.598 381.328 608.063 381.328 608.546C381.328 609.029 381.512 609.494 381.841 609.842C382.169 610.189 382.618 610.393 383.091 610.41Z" fill="black"/>
<path d="M393.019 599.375C393.492 599.358 393.94 599.154 394.269 598.806C394.597 598.459 394.781 597.994 394.781 597.511C394.781 597.027 394.597 596.563 394.269 596.215C393.94 595.867 393.492 595.663 393.019 595.646C392.546 595.663 392.098 595.867 391.769 596.215C391.44 596.563 391.256 597.027 391.256 597.511C391.256 597.994 391.44 598.459 391.769 598.806C392.098 599.154 392.546 599.358 393.019 599.375Z" fill="black"/>
<path d="M397.107 614.884C397.58 614.867 398.028 614.663 398.357 614.316C398.685 613.968 398.869 613.503 398.869 613.02C398.869 612.536 398.685 612.072 398.357 611.724C398.028 611.376 397.58 611.173 397.107 611.156C396.634 611.173 396.186 611.376 395.857 611.724C395.528 612.072 395.344 612.536 395.344 613.02C395.344 613.503 395.528 613.968 395.857 614.316C396.186 614.663 396.634 614.867 397.107 614.884Z" fill="black"/>
<path d="M404.698 603.848C405.171 603.832 405.62 603.628 405.948 603.28C406.277 602.932 406.461 602.468 406.461 601.984C406.461 601.501 406.277 601.036 405.948 600.689C405.62 600.341 405.171 600.137 404.698 600.12C404.225 600.137 403.777 600.341 403.449 600.689C403.12 601.036 402.936 601.501 402.936 601.984C402.936 602.468 403.12 602.932 403.449 603.28C403.777 603.628 404.225 603.832 404.698 603.848Z" fill="black"/>
<path d="M412.583 593.111C413.056 593.094 413.504 592.891 413.833 592.543C414.161 592.195 414.345 591.731 414.345 591.247C414.345 590.764 414.161 590.299 413.833 589.951C413.504 589.604 413.056 589.4 412.583 589.383C412.11 589.4 411.662 589.604 411.333 589.951C411.004 590.299 410.82 590.764 410.82 591.247C410.82 591.731 411.004 592.195 411.333 592.543C411.662 592.891 412.11 593.094 412.583 593.111Z" fill="black"/>
<path d="M417.547 608.621C418.02 608.604 418.468 608.4 418.797 608.052C419.125 607.704 419.309 607.24 419.309 606.756C419.309 606.273 419.125 605.808 418.797 605.461C418.468 605.113 418.02 604.909 417.547 604.892C417.074 604.909 416.626 605.113 416.297 605.461C415.968 605.808 415.784 606.273 415.784 606.756C415.784 607.24 415.968 607.704 416.297 608.052C416.626 608.4 417.074 608.604 417.547 608.621Z" fill="black"/>
<path d="M422.511 598.48C422.984 598.463 423.432 598.259 423.761 597.911C424.09 597.564 424.273 597.099 424.273 596.616C424.273 596.132 424.09 595.668 423.761 595.32C423.432 594.972 422.984 594.769 422.511 594.752C422.038 594.769 421.59 594.972 421.261 595.32C420.932 595.668 420.749 596.132 420.749 596.616C420.749 597.099 420.932 597.564 421.261 597.911C421.59 598.259 422.038 598.463 422.511 598.48Z" fill="black"/>
<path d="M431.855 588.936C432.328 588.919 432.776 588.715 433.105 588.367C433.434 588.02 433.618 587.555 433.618 587.072C433.618 586.588 433.434 586.124 433.105 585.776C432.776 585.428 432.328 585.224 431.855 585.208C431.382 585.224 430.934 585.428 430.605 585.776C430.277 586.124 430.093 586.588 430.093 587.072C430.093 587.555 430.277 588.02 430.605 588.367C430.934 588.715 431.382 588.919 431.855 588.936Z" fill="black"/>
<path d="M437.111 606.234C437.584 606.218 438.032 606.014 438.361 605.666C438.69 605.318 438.874 604.854 438.874 604.37C438.874 603.887 438.69 603.422 438.361 603.075C438.032 602.727 437.584 602.523 437.111 602.506C436.638 602.523 436.19 602.727 435.861 603.075C435.532 603.422 435.349 603.887 435.349 604.37C435.349 604.854 435.532 605.318 435.861 605.666C436.19 606.014 436.638 606.218 437.111 606.234Z" fill="black"/>
<path d="M442.075 595.199C442.548 595.182 442.996 594.978 443.325 594.631C443.654 594.283 443.837 593.818 443.837 593.335C443.837 592.852 443.654 592.387 443.325 592.039C442.996 591.691 442.548 591.488 442.075 591.471C441.602 591.488 441.154 591.691 440.825 592.039C440.496 592.387 440.312 592.852 440.312 593.335C440.312 593.818 440.496 594.283 440.825 594.631C441.154 594.978 441.602 595.182 442.075 595.199Z" fill="black"/>
<path d="M418.715 583.269C419.188 583.252 419.636 583.048 419.965 582.7C420.294 582.353 420.478 581.888 420.478 581.405C420.478 580.921 420.294 580.457 419.965 580.109C419.636 579.761 419.188 579.558 418.715 579.541C418.242 579.558 417.794 579.761 417.465 580.109C417.136 580.457 416.953 580.921 416.953 581.405C416.953 581.888 417.136 582.353 417.465 582.7C417.794 583.048 418.242 583.252 418.715 583.269Z" fill="black"/>
<path d="M400.027 585.357C400.5 585.34 400.948 585.136 401.277 584.788C401.605 584.441 401.789 583.976 401.789 583.493C401.789 583.009 401.605 582.545 401.277 582.197C400.948 581.849 400.5 581.645 400.027 581.628C399.554 581.645 399.105 581.849 398.777 582.197C398.448 582.545 398.264 583.009 398.264 583.493C398.264 583.976 398.448 584.441 398.777 584.788C399.105 585.136 399.554 585.34 400.027 585.357Z" fill="black"/>
<path d="M407.327 574.023C407.8 574.006 408.248 573.802 408.577 573.454C408.906 573.107 409.089 572.642 409.089 572.159C409.089 571.675 408.906 571.211 408.577 570.863C408.248 570.515 407.8 570.312 407.327 570.295C406.854 570.312 406.406 570.515 406.077 570.863C405.748 571.211 405.564 571.675 405.564 572.159C405.564 572.642 405.748 573.107 406.077 573.454C406.406 573.802 406.854 574.006 407.327 574.023Z" fill="black"/>
<path d="M427.475 571.935C427.948 571.918 428.396 571.714 428.725 571.367C429.054 571.019 429.237 570.554 429.237 570.071C429.237 569.588 429.054 569.123 428.725 568.775C428.396 568.428 427.948 568.224 427.475 568.207C427.002 568.224 426.554 568.428 426.225 568.775C425.896 569.123 425.712 569.588 425.712 570.071C425.712 570.554 425.896 571.019 426.225 571.367C426.554 571.714 427.002 571.918 427.475 571.935Z" fill="black"/>
<path d="M439.447 577.602C439.92 577.585 440.368 577.381 440.697 577.034C441.026 576.686 441.209 576.221 441.209 575.738C441.209 575.254 441.026 574.79 440.697 574.442C440.368 574.094 439.92 573.891 439.447 573.874C438.974 573.891 438.526 574.094 438.197 574.442C437.868 574.79 437.685 575.254 437.685 575.738C437.685 576.221 437.868 576.686 438.197 577.034C438.526 577.381 438.974 577.585 439.447 577.602Z" fill="black"/>
<path d="M433.023 558.812C433.496 558.795 433.944 558.591 434.273 558.243C434.602 557.896 434.786 557.431 434.786 556.948C434.786 556.464 434.602 556 434.273 555.652C433.944 555.304 433.496 555.1 433.023 555.084C432.55 555.1 432.102 555.304 431.773 555.652C431.445 556 431.261 556.464 431.261 556.948C431.261 557.431 431.445 557.896 431.773 558.243C432.102 558.591 432.55 558.795 433.023 558.812Z" fill="black"/>
<path d="M415.503 560.9C415.976 560.883 416.424 560.679 416.753 560.331C417.081 559.983 417.265 559.519 417.265 559.035C417.265 558.552 417.081 558.088 416.753 557.74C416.424 557.392 415.976 557.188 415.503 557.171C415.03 557.188 414.582 557.392 414.253 557.74C413.924 558.088 413.74 558.552 413.74 559.035C413.74 559.519 413.924 559.983 414.253 560.331C414.582 560.679 415.03 560.883 415.503 560.9Z" fill="black"/>
<path d="M400.611 561.198C401.084 561.181 401.532 560.977 401.86 560.629C402.189 560.282 402.373 559.817 402.373 559.334C402.373 558.85 402.189 558.386 401.86 558.038C401.532 557.69 401.084 557.487 400.611 557.47C400.138 557.487 399.689 557.69 399.361 558.038C399.032 558.386 398.848 558.85 398.848 559.334C398.848 559.817 399.032 560.282 399.361 560.629C399.689 560.977 400.138 561.181 400.611 561.198Z" fill="black"/>
<path d="M404.991 549.268C405.464 549.251 405.912 549.047 406.241 548.699C406.57 548.351 406.753 547.887 406.753 547.403C406.753 546.92 406.57 546.456 406.241 546.108C405.912 545.76 405.464 545.556 404.991 545.539C404.518 545.556 404.07 545.76 403.741 546.108C403.412 546.456 403.229 546.92 403.229 547.403C403.229 547.887 403.412 548.351 403.741 548.699C404.07 549.047 404.518 549.251 404.991 549.268Z" fill="black"/>
<path d="M421.635 547.18C422.108 547.163 422.556 546.959 422.885 546.611C423.214 546.264 423.397 545.799 423.397 545.316C423.397 544.832 423.214 544.368 422.885 544.02C422.556 543.672 422.108 543.469 421.635 543.452C421.162 543.469 420.714 543.672 420.385 544.02C420.056 544.368 419.873 544.832 419.873 545.316C419.873 545.799 420.056 546.264 420.385 546.611C420.714 546.959 421.162 547.163 421.635 547.18Z" fill="black"/>
<path d="M388.93 549.566C389.403 549.549 389.852 549.345 390.18 548.997C390.509 548.65 390.693 548.185 390.693 547.702C390.693 547.218 390.509 546.754 390.18 546.406C389.852 546.058 389.403 545.854 388.93 545.838C388.457 545.854 388.009 546.058 387.681 546.406C387.352 546.754 387.168 547.218 387.168 547.702C387.168 548.185 387.352 548.65 387.681 548.997C388.009 549.345 388.457 549.549 388.93 549.566Z" fill="black"/>
<path d="M397.107 538.829C397.58 538.812 398.028 538.608 398.357 538.26C398.685 537.912 398.869 537.448 398.869 536.965C398.869 536.481 398.685 536.017 398.357 535.669C398.028 535.321 397.58 535.117 397.107 535.1C396.634 535.117 396.186 535.321 395.857 535.669C395.528 536.017 395.344 536.481 395.344 536.965C395.344 537.448 395.528 537.912 395.857 538.26C396.186 538.608 396.634 538.812 397.107 538.829Z" fill="black"/>
<path d="M412.291 539.127C412.764 539.11 413.212 538.906 413.541 538.558C413.869 538.211 414.053 537.746 414.053 537.263C414.053 536.779 413.869 536.315 413.541 535.967C413.212 535.619 412.764 535.416 412.291 535.399C411.818 535.416 411.37 535.619 411.041 535.967C410.712 536.315 410.528 536.779 410.528 537.263C410.528 537.746 410.712 538.211 411.041 538.558C411.37 538.906 411.818 539.11 412.291 539.127Z" fill="black"/>
<path d="M428.059 536.144C428.532 536.127 428.98 535.924 429.309 535.576C429.638 535.228 429.821 534.764 429.821 534.28C429.821 533.797 429.638 533.332 429.309 532.985C428.98 532.637 428.532 532.433 428.059 532.416C427.586 532.433 427.138 532.637 426.809 532.985C426.48 533.332 426.296 533.797 426.296 534.28C426.296 534.764 426.48 535.228 426.809 535.576C427.138 535.924 427.586 536.127 428.059 536.144Z" fill="black"/>
<path d="M437.987 544.197C438.46 544.18 438.908 543.977 439.237 543.629C439.566 543.281 439.75 542.817 439.75 542.333C439.75 541.85 439.566 541.385 439.237 541.037C438.908 540.69 438.46 540.486 437.987 540.469C437.514 540.486 437.066 540.69 436.737 541.037C436.408 541.385 436.225 541.85 436.225 542.333C436.225 542.817 436.408 543.281 436.737 543.629C437.066 543.977 437.514 544.18 437.987 544.197Z" fill="black"/>
<path d="M441.783 565.97C442.256 565.953 442.704 565.749 443.033 565.402C443.362 565.054 443.545 564.589 443.545 564.106C443.545 563.622 443.362 563.158 443.033 562.81C442.704 562.462 442.256 562.259 441.783 562.242C441.31 562.259 440.862 562.462 440.533 562.81C440.204 563.158 440.021 563.622 440.021 564.106C440.021 564.589 440.204 565.054 440.533 565.402C440.862 565.749 441.31 565.953 441.783 565.97Z" fill="black"/>
<path d="M418.423 527.495C418.896 527.478 419.344 527.274 419.673 526.927C420.001 526.579 420.185 526.114 420.185 525.631C420.185 525.147 420.001 524.683 419.673 524.335C419.344 523.987 418.896 523.784 418.423 523.767C417.95 523.784 417.501 523.987 417.173 524.335C416.844 524.683 416.66 525.147 416.66 525.631C416.66 526.114 416.844 526.579 417.173 526.927C417.501 527.274 417.95 527.478 418.423 527.495Z" fill="black"/>
<path d="M403.239 527.197C403.712 527.18 404.16 526.976 404.488 526.628C404.817 526.281 405.001 525.816 405.001 525.333C405.001 524.849 404.817 524.385 404.488 524.037C404.16 523.689 403.712 523.485 403.239 523.469C402.766 523.485 402.317 523.689 401.989 524.037C401.66 524.385 401.476 524.849 401.476 525.333C401.476 525.816 401.66 526.281 401.989 526.628C402.317 526.976 402.766 527.18 403.239 527.197Z" fill="black"/>
<path d="M386.01 530.477C386.484 530.461 386.932 530.257 387.26 529.909C387.589 529.561 387.773 529.097 387.773 528.613C387.773 528.13 387.589 527.665 387.26 527.318C386.932 526.97 386.484 526.766 386.01 526.749C385.537 526.766 385.089 526.97 384.761 527.318C384.432 527.665 384.248 528.13 384.248 528.613C384.248 529.097 384.432 529.561 384.761 529.909C385.089 530.257 385.537 530.461 386.01 530.477Z" fill="black"/>
<path d="M393.019 521.232C393.492 521.215 393.94 521.011 394.269 520.663C394.597 520.315 394.781 519.851 394.781 519.367C394.781 518.884 394.597 518.42 394.269 518.072C393.94 517.724 393.492 517.52 393.019 517.503C392.546 517.52 392.098 517.724 391.769 518.072C391.44 518.42 391.256 518.884 391.256 519.367C391.256 519.851 391.44 520.315 391.769 520.663C392.098 521.011 392.546 521.215 393.019 521.232Z" fill="black"/>
<path d="M409.371 517.354C409.844 517.337 410.292 517.134 410.621 516.786C410.95 516.438 411.133 515.974 411.133 515.49C411.133 515.007 410.95 514.542 410.621 514.194C410.292 513.847 409.844 513.643 409.371 513.626C408.898 513.643 408.45 513.847 408.121 514.194C407.792 514.542 407.608 515.007 407.608 515.49C407.608 515.974 407.792 516.438 408.121 516.786C408.45 517.134 408.898 517.337 409.371 517.354Z" fill="black"/>
<path d="M425.431 514.372C425.904 514.355 426.352 514.151 426.681 513.803C427.01 513.455 427.193 512.991 427.193 512.508C427.193 512.024 427.01 511.56 426.681 511.212C426.352 510.864 425.904 510.66 425.431 510.643C424.958 510.66 424.51 510.864 424.181 511.212C423.852 511.56 423.668 512.024 423.668 512.508C423.668 512.991 423.852 513.455 424.181 513.803C424.51 514.151 424.958 514.355 425.431 514.372Z" fill="black"/>
<path d="M430.103 520.933C430.576 520.916 431.024 520.713 431.353 520.365C431.681 520.017 431.865 519.553 431.865 519.069C431.865 518.586 431.681 518.121 431.353 517.773C431.024 517.426 430.576 517.222 430.103 517.205C429.63 517.222 429.182 517.426 428.853 517.773C428.524 518.121 428.34 518.586 428.34 519.069C428.34 519.553 428.524 520.017 428.853 520.365C429.182 520.713 429.63 520.916 430.103 520.933Z" fill="black"/>
<path d="M435.067 527.197C435.54 527.18 435.988 526.976 436.317 526.628C436.646 526.281 436.83 525.816 436.83 525.333C436.83 524.849 436.646 524.385 436.317 524.037C435.988 523.689 435.54 523.485 435.067 523.469C434.594 523.485 434.146 523.689 433.817 524.037C433.488 524.385 433.305 524.849 433.305 525.333C433.305 525.816 433.488 526.281 433.817 526.628C434.146 526.976 434.594 527.18 435.067 527.197Z" fill="black"/>
<path d="M399.151 511.389C399.624 511.372 400.072 511.168 400.401 510.821C400.729 510.473 400.913 510.008 400.913 509.525C400.913 509.042 400.729 508.577 400.401 508.229C400.072 507.882 399.624 507.678 399.151 507.661C398.678 507.678 398.229 507.882 397.901 508.229C397.572 508.577 397.388 509.042 397.388 509.525C397.388 510.008 397.572 510.473 397.901 510.821C398.229 511.168 398.678 511.372 399.151 511.389Z" fill="black"/>
<path d="M381.047 513.775C381.52 513.758 381.968 513.555 382.297 513.207C382.625 512.859 382.809 512.395 382.809 511.911C382.809 511.428 382.625 510.963 382.297 510.615C381.968 510.268 381.52 510.064 381.047 510.047C380.574 510.064 380.126 510.268 379.797 510.615C379.468 510.963 379.284 511.428 379.284 511.911C379.284 512.395 379.468 512.859 379.797 513.207C380.126 513.555 380.574 513.758 381.047 513.775Z" fill="black"/>
<path d="M415.795 507.81C416.268 507.793 416.716 507.589 417.045 507.242C417.373 506.894 417.557 506.429 417.557 505.946C417.557 505.463 417.373 504.998 417.045 504.65C416.716 504.302 416.268 504.099 415.795 504.082C415.322 504.099 414.874 504.302 414.545 504.65C414.216 504.998 414.032 505.463 414.032 505.946C414.032 506.429 414.216 506.894 414.545 507.242C414.874 507.589 415.322 507.793 415.795 507.81Z" fill="black"/>
<path d="M428.643 505.722C429.116 505.705 429.564 505.502 429.893 505.154C430.222 504.806 430.405 504.342 430.405 503.858C430.405 503.375 430.222 502.91 429.893 502.562C429.564 502.215 429.116 502.011 428.643 501.994C428.17 502.011 427.722 502.215 427.393 502.562C427.064 502.91 426.88 503.375 426.88 503.858C426.88 504.342 427.064 504.806 427.393 505.154C427.722 505.502 428.17 505.705 428.643 505.722Z" fill="black"/>
<path d="M363.234 520.635C363.707 520.618 364.155 520.414 364.484 520.067C364.813 519.719 364.997 519.254 364.997 518.771C364.997 518.288 364.813 517.823 364.484 517.475C364.155 517.127 363.707 516.924 363.234 516.907C362.761 516.924 362.313 517.127 361.984 517.475C361.655 517.823 361.472 518.288 361.472 518.771C361.472 519.254 361.655 519.719 361.984 520.067C362.313 520.414 362.761 520.618 363.234 520.635Z" fill="black"/>
<path d="M372.286 527.197C372.759 527.18 373.207 526.976 373.536 526.628C373.865 526.281 374.049 525.816 374.049 525.333C374.049 524.849 373.865 524.385 373.536 524.037C373.207 523.689 372.759 523.485 372.286 523.469C371.813 523.485 371.365 523.689 371.036 524.037C370.708 524.385 370.524 524.849 370.524 525.333C370.524 525.816 370.708 526.281 371.036 526.628C371.365 526.976 371.813 527.18 372.286 527.197Z" fill="black"/>
<path d="M367.906 537.039C368.379 537.022 368.828 536.818 369.156 536.471C369.485 536.123 369.669 535.658 369.669 535.175C369.669 534.692 369.485 534.227 369.156 533.879C368.828 533.532 368.379 533.328 367.906 533.311C367.433 533.328 366.985 533.532 366.657 533.879C366.328 534.227 366.144 534.692 366.144 535.175C366.144 535.658 366.328 536.123 366.657 536.471C366.985 536.818 367.433 537.022 367.906 537.039Z" fill="black"/>
<path d="M373.454 547.776C373.927 547.759 374.375 547.556 374.704 547.208C375.033 546.86 375.217 546.396 375.217 545.912C375.217 545.429 375.033 544.964 374.704 544.617C374.375 544.269 373.927 544.065 373.454 544.048C372.981 544.065 372.533 544.269 372.204 544.617C371.876 544.964 371.692 545.429 371.692 545.912C371.692 546.396 371.876 546.86 372.204 547.208C372.533 547.556 372.981 547.759 373.454 547.776Z" fill="black"/>
<path d="M369.658 556.426C370.131 556.409 370.58 556.205 370.908 555.857C371.237 555.51 371.421 555.045 371.421 554.562C371.421 554.078 371.237 553.614 370.908 553.266C370.58 552.918 370.131 552.714 369.658 552.698C369.185 552.714 368.737 552.918 368.409 553.266C368.08 553.614 367.896 554.078 367.896 554.562C367.896 555.045 368.08 555.51 368.409 555.857C368.737 556.205 369.185 556.409 369.658 556.426Z" fill="black"/>
<path d="M353.598 537.337C354.071 537.32 354.52 537.117 354.848 536.769C355.177 536.421 355.361 535.957 355.361 535.473C355.361 534.99 355.177 534.525 354.848 534.178C354.52 533.83 354.071 533.626 353.598 533.609C353.125 533.626 352.677 533.83 352.348 534.178C352.02 534.525 351.836 534.99 351.836 535.473C351.836 535.957 352.02 536.421 352.348 536.769C352.677 537.117 353.125 537.32 353.598 537.337Z" fill="black"/>
<path d="M356.518 552.25C356.991 552.233 357.439 552.029 357.768 551.682C358.097 551.334 358.281 550.869 358.281 550.386C358.281 549.903 358.097 549.438 357.768 549.09C357.439 548.743 356.991 548.539 356.518 548.522C356.045 548.539 355.597 548.743 355.268 549.09C354.94 549.438 354.756 549.903 354.756 550.386C354.756 550.869 354.94 551.334 355.268 551.682C355.597 552.029 356.045 552.233 356.518 552.25Z" fill="black"/>
<path d="M380.755 559.707C381.228 559.69 381.676 559.486 382.005 559.138C382.333 558.79 382.517 558.326 382.517 557.842C382.517 557.359 382.333 556.895 382.005 556.547C381.676 556.199 381.228 555.995 380.755 555.978C380.282 555.995 379.834 556.199 379.505 556.547C379.176 556.895 378.992 557.359 378.992 557.842C378.992 558.326 379.176 558.79 379.505 559.138C379.834 559.486 380.282 559.69 380.755 559.707Z" fill="black"/>
<path d="M371.994 568.058C372.467 568.041 372.916 567.837 373.244 567.489C373.573 567.142 373.757 566.677 373.757 566.194C373.757 565.71 373.573 565.246 373.244 564.898C372.916 564.55 372.467 564.346 371.994 564.33C371.521 564.346 371.073 564.55 370.744 564.898C370.416 565.246 370.232 565.71 370.232 566.194C370.232 566.677 370.416 567.142 370.744 567.489C371.073 567.837 371.521 568.041 371.994 568.058Z" fill="black"/>
<path d="M384.259 571.04C384.732 571.023 385.18 570.82 385.508 570.472C385.837 570.124 386.021 569.66 386.021 569.176C386.021 568.693 385.837 568.228 385.508 567.881C385.18 567.533 384.732 567.329 384.259 567.312C383.786 567.329 383.337 567.533 383.009 567.881C382.68 568.228 382.496 568.693 382.496 569.176C382.496 569.66 382.68 570.124 383.009 570.472C383.337 570.82 383.786 571.023 384.259 571.04Z" fill="black"/>
<path d="M376.958 576.707C377.431 576.69 377.879 576.486 378.208 576.139C378.537 575.791 378.721 575.326 378.721 574.843C378.721 574.36 378.537 573.895 378.208 573.547C377.879 573.2 377.431 572.996 376.958 572.979C376.485 572.996 376.037 573.2 375.708 573.547C375.38 573.895 375.196 574.36 375.196 574.843C375.196 575.326 375.38 575.791 375.708 576.139C376.037 576.486 376.485 576.69 376.958 576.707Z" fill="black"/>
<path d="M312.687 362.528C312.671 363.219 312.389 363.876 311.904 364.357C311.427 364.844 310.876 365.249 310.272 365.557C309.089 366.176 307.812 366.59 306.495 366.779C305.816 366.881 305.124 366.845 304.459 366.673C303.794 366.501 303.169 366.196 302.619 365.777C302.066 365.36 301.619 364.813 301.317 364.182C301.015 363.551 300.865 362.856 300.882 362.154C300.943 361.756 301.129 361.39 301.411 361.109C301.674 360.857 301.973 360.648 302.299 360.491C302.914 360.175 303.524 359.946 304.114 359.704C304.693 359.472 305.253 359.193 305.788 358.871C306.05 358.711 306.295 358.536 306.541 358.359C306.83 358.147 307.133 357.956 307.448 357.787C308.123 357.424 308.899 357.307 309.647 357.455C310.374 357.633 311.013 358.072 311.446 358.693C312.218 359.82 312.65 361.153 312.687 362.528ZM312.587 362.528C312.503 361.227 311.919 360.013 310.963 359.15C310.568 358.753 310.057 358.5 309.508 358.43C308.958 358.36 308.402 358.477 307.924 358.762C307.668 358.884 307.435 359.075 307.181 359.231C306.902 359.44 306.609 359.629 306.304 359.796C305.706 360.115 305.085 360.385 304.445 360.603C303.825 360.831 303.197 361.001 302.63 361.228C302.063 361.46 301.56 361.734 301.419 362.261C301.328 362.881 301.411 363.515 301.657 364.09C301.903 364.665 302.303 365.157 302.811 365.509C303.338 365.834 303.926 366.04 304.537 366.114C305.147 366.189 305.767 366.13 306.353 365.942C307.557 365.63 308.825 365.309 310.031 364.966C310.637 364.795 311.21 364.522 311.729 364.159C311.988 363.976 312.201 363.733 312.35 363.449C312.5 363.166 312.581 362.85 312.587 362.528Z" fill="black"/>
<path d="M303.594 341.645C303.581 342.218 303.454 342.782 303.221 343.303C302.988 343.825 302.655 344.292 302.24 344.678C301.417 345.461 300.474 346.102 299.45 346.577C297.425 347.531 295.281 348.2 293.079 348.564C291.959 348.766 290.811 348.738 289.702 348.48C288.593 348.222 287.546 347.74 286.622 347.062C285.699 346.378 284.957 345.471 284.463 344.421C283.97 343.37 283.741 342.211 283.797 341.048C283.906 340.424 284.21 339.853 284.663 339.421C285.101 339.023 285.595 338.695 286.128 338.448C287.154 337.942 288.195 337.575 289.206 337.169C290.208 336.78 291.179 336.311 292.109 335.766C292.569 335.495 292.999 335.188 293.429 334.879C293.902 334.535 294.396 334.222 294.91 333.945C295.982 333.358 297.217 333.159 298.414 333.38C299.584 333.652 300.624 334.332 301.357 335.302C302.066 336.203 302.61 337.227 302.963 338.325C303.34 339.392 303.553 340.512 303.594 341.645ZM303.494 341.645C303.445 340.531 303.177 339.438 302.705 338.432C302.264 337.431 301.643 336.524 300.873 335.758C300.158 335.024 299.239 334.532 298.242 334.348C297.254 334.216 296.252 334.417 295.386 334.919C294.932 335.172 294.493 335.449 294.068 335.75C293.608 336.096 293.126 336.41 292.625 336.691C291.632 337.233 290.6 337.693 289.536 338.069C288.495 338.459 287.437 338.768 286.459 339.185C285.981 339.379 285.529 339.634 285.115 339.944C284.733 340.251 284.459 340.676 284.334 341.155C284.209 342.236 284.373 343.332 284.81 344.325C285.247 345.318 285.939 346.172 286.814 346.795C287.715 347.377 288.725 347.76 289.779 347.921C290.834 348.081 291.909 348.015 292.937 347.726C295.023 347.231 297.166 346.672 299.208 345.985C300.235 345.648 301.2 345.139 302.065 344.48C302.498 344.15 302.853 343.723 303.101 343.232C303.348 342.74 303.483 342.198 303.494 341.645Z" fill="black"/>
<path d="M299.137 313.488C299.458 314.285 299.618 315.14 299.607 316.002C299.576 316.872 299.311 317.715 298.844 318.442C297.863 319.846 296.583 321.005 295.1 321.83C292.173 323.491 289.106 324.881 285.935 325.983C282.805 327.174 279.634 328.226 276.511 329.395C274.952 329.984 273.39 330.564 271.85 331.193C270.295 331.816 268.722 332.437 267.11 332.925C263.894 333.976 260.535 334.499 257.158 334.474C253.739 334.514 250.421 333.285 247.822 331.015C245.424 328.552 243.912 325.332 243.533 321.879C243.06 318.474 243.102 315.015 243.658 311.623C244.438 308.267 245.747 305.063 247.535 302.136C249.277 299.182 251.399 296.478 253.844 294.099C256.295 291.695 259.13 289.736 262.227 288.308C265.352 286.885 268.752 286.201 272.172 286.304C275.594 286.362 278.956 287.231 281.993 288.842C284.981 290.499 287.609 292.755 289.719 295.477C291.806 298.16 293.604 301.066 295.08 304.143C296.587 307.189 297.92 310.317 299.137 313.488ZM299.044 313.527C296.524 307.252 293.603 300.998 289.218 295.912C287.076 293.364 284.476 291.258 281.558 289.708C278.629 288.218 275.412 287.415 272.14 287.357C265.586 287.138 259.271 290.231 254.486 294.801C252.079 297.106 249.962 299.709 248.187 302.55C246.377 305.373 245.028 308.477 244.193 311.742C243.557 315.064 243.452 318.469 243.881 321.826C244.098 323.501 244.542 325.138 245.201 326.688C245.867 328.23 246.839 329.615 248.056 330.754C250.596 332.939 253.849 334.065 257.167 333.905C260.47 333.827 263.742 333.223 266.864 332.117C270.013 331.132 273.031 329.618 276.221 328.561C279.38 327.446 282.559 326.415 285.73 325.377C288.915 324.406 292.007 323.142 294.968 321.599C296.451 320.84 297.733 319.726 298.704 318.353C299.167 317.654 299.434 316.839 299.475 315.996C299.496 315.151 299.349 314.312 299.044 313.527V313.527Z" fill="black"/>
</g>
<defs>
<clipPath id="clip0">
<rect width="605" height="954" fill="white"/>
</clipPath>
</defs>
</svg>
