<svg width="23" height="22" viewBox="0 0 23 22" fill="none" xmlns="http://www.w3.org/2000/svg">
  <path fill-rule="evenodd" clip-rule="evenodd" d="M7.41151 0.616211H15.6672C19.4662 0.616211 22.547 3.58744 22.547 7.25139V15.2136C22.547 18.8776 19.4662 21.8488 15.6672 21.8488H7.41151C3.6125 21.8488 0.531738 18.8776 0.531738 15.2136V7.25139C0.531738 3.58744 3.6125 0.616211 7.41151 0.616211ZM15.6673 19.8582C18.3228 19.8582 20.4831 17.7748 20.4831 15.2136V7.2514C20.4831 4.69022 18.3228 2.60678 15.6673 2.60678H7.41154C4.75595 2.60678 2.5957 4.69022 2.5957 7.2514V15.2136C2.5957 17.7748 4.75595 19.8582 7.41154 19.8582H15.6673Z" fill="white" />
  <path fill-rule="evenodd" clip-rule="evenodd" d="M6.03564 11.2324C6.03564 8.30103 8.49998 5.92432 11.5395 5.92432C14.5789 5.92432 17.0433 8.30103 17.0433 11.2324C17.0433 14.1638 14.5789 16.5406 11.5395 16.5406C8.49998 16.5406 6.03564 14.1638 6.03564 11.2324ZM8.09955 11.2324C8.09955 13.0611 9.64337 14.55 11.5394 14.55C13.4355 14.55 14.9793 13.0611 14.9793 11.2324C14.9793 9.40246 13.4355 7.91486 11.5394 7.91486C9.64337 7.91486 8.09955 9.40246 8.09955 11.2324Z" fill="white" />
  <ellipse cx="17.4561" cy="5.52615" rx="0.733398" ry="0.707306" fill="white" />
</svg>
