<svg width="23" height="18" viewBox="0 0 23 18" fill="none" xmlns="http://www.w3.org/2000/svg">
<path d="M22.5038 2.58869C21.6852 2.93505 20.8128 3.16463 19.9033 3.2761C20.8389 2.73732 21.5531 1.89067 21.8888 0.870183C21.0164 1.3718 20.0533 1.72612 19.0268 1.92385C18.1985 1.07322 17.0179 0.546387 15.73 0.546387C13.2313 0.546387 11.2196 2.50244 11.2196 4.90039C11.2196 5.24542 11.2499 5.57718 11.3242 5.89301C7.57195 5.71652 4.25177 3.98208 2.02134 1.33995C1.63195 1.99153 1.40354 2.73732 1.40354 3.54018C1.40354 5.04769 2.20847 6.38402 3.40831 7.15768C2.68318 7.14441 1.97181 6.94137 1.36914 6.62156C1.36914 6.63483 1.36914 6.65208 1.36914 6.66933C1.36914 8.78463 2.9336 10.5416 4.98515 10.9464C4.61777 11.0432 4.21737 11.0897 3.80183 11.0897C3.51288 11.0897 3.22118 11.0738 2.94736 11.0154C3.53214 12.7392 5.19155 14.0065 7.16467 14.0476C5.6291 15.2062 3.67937 15.9042 1.56865 15.9042C1.19852 15.9042 0.843522 15.8882 0.488525 15.8445C2.48779 17.0879 4.85719 17.7979 7.41234 17.7979C15.7176 17.7979 20.2583 11.1627 20.2583 5.4113C20.2583 5.21888 20.2514 5.03309 20.2418 4.84864C21.1375 4.23555 21.8902 3.46985 22.5038 2.58869Z" fill="white"/>
</svg>
