<svg width="182" height="216" viewBox="0 0 182 216" fill="none" xmlns="http://www.w3.org/2000/svg">
<path fill-rule="evenodd" clip-rule="evenodd" d="M170.941 41.4504C189.283 58.8655 194.407 84.8373 193.06 110.088C191.77 134.284 184.562 160.019 163.939 172.735C144.755 184.564 121.747 172.992 99.8709 167.549C77.7314 162.041 51.26 161.803 40.0762 141.918C28.1958 120.793 36.6238 95.1472 46.7805 73.1501C57.6507 49.6075 71.7918 25.2232 96.9193 18.8079C123.217 12.0937 151.253 22.7579 170.941 41.4504Z" fill="#FFF1A6"/>
<g clip-path="url(#clip0)">
<path d="M129.82 32.4623C130.745 32.2608 131.691 32.6174 132.561 32.9883C149.22 40.0862 162.218 55.2488 166.687 72.7964C171.155 90.3441 166.993 109.877 155.758 124.078C144.523 138.279 126.473 146.825 108.368 146.514C108 148.617 107.632 150.72 107.264 152.823C107.263 151.041 107.235 149.154 106.3 147.637C105.365 146.12 103.174 145.231 101.742 146.292C99.7849 148.629 101.297 152.863 104.291 153.432C103.706 154.805 101.447 154.377 100.688 153.092C99.9291 151.806 100.101 150.205 99.9844 148.716C99.8674 147.228 99.1804 145.516 97.7161 145.224C93.369 144.357 89.1052 143.072 85.0025 141.394C82.3472 140.308 79.2868 138.175 79.909 135.375C80.3686 133.306 82.8162 132.198 84.9168 132.477C87.0175 132.755 88.8296 134.036 90.5464 135.278C91.4419 132.183 92.3375 129.089 93.233 125.994C90.4143 126.125 89.6231 121.995 87.2481 120.471C76.3823 113.5 69.1388 101.179 68.3322 88.2941C67.5256 75.4096 73.1759 62.2809 83.0875 54.0092C92.9991 45.7375 106.927 42.5275 119.459 45.6264C120.946 43.7972 123.726 43.1638 125.859 44.1681C127.853 43.1507 127.751 40.3283 127.5 38.1038C127.25 35.8792 127.633 32.9391 129.82 32.4623ZM94.654 136.265C93.8333 135.356 94.6387 135.894 94.6387 135.894L94.654 136.368V136.584C94.654 136.584 92.6642 135.814 91.7085 135.502C108.053 141.023 127.073 137.812 140.698 127.23C154.323 116.648 162.143 99.0151 160.84 81.8129C159.536 64.6108 149.149 48.3572 134.085 39.9492C133.725 39.7487 133.323 39.5458 132.921 39.633C132.404 39.7451 132.111 40.2775 131.884 40.7548C131.128 42.3453 130.372 43.9358 129.616 45.5263C131.397 46.5723 132.349 48.8569 131.837 50.8582C142.031 57.319 149.129 68.45 150.688 80.4178C152.247 92.3856 148.236 104.963 140.037 113.82C131.838 122.676 119.606 127.643 107.554 127.01C104.729 126.861 101.687 126.47 99.2527 127.911C96.4386 129.577 95.4277 133.088 94.654 136.265Z" fill="white"/>
<path d="M90.5298 62.0314C90.3005 62.0346 90.2013 62.3185 90.1645 62.5448C90.0247 63.4061 89.8848 64.2673 89.745 65.1285C90.8216 65.1065 92.0351 65.0231 92.7356 64.2052C91.7711 64.0428 91.0501 63.0004 91.2383 62.0406C91.5813 62.5704 92.0449 63.0217 92.5839 63.3504C92.8522 63.5141 93.1623 63.6741 93.2672 63.9704C93.4407 64.4604 92.953 64.9134 92.5273 65.2117C92.1017 65.5101 91.6256 65.9857 91.8266 66.465C91.433 66.0111 90.8566 65.7204 90.2576 65.6736C89.9147 65.6468 89.5356 65.6868 89.2614 65.4792C88.8194 65.1447 88.9703 64.4488 89.2145 63.9512C89.4587 63.4536 89.7561 62.8635 89.482 62.3817C89.2769 62.021 88.7968 61.843 88.6887 61.4425C88.5311 60.8584 89.2544 60.4511 89.8405 60.3014C90.2483 60.1973 90.6777 60.1049 91.0862 60.2063C91.4947 60.3077 91.8711 60.6622 91.856 61.0828C91.6616 61.6276 91.1081 62.0235 90.5298 62.0314ZM91.4858 60.9163C90.9006 60.585 90.1202 60.6378 89.5848 61.0448C89.4091 61.1784 89.2487 61.4123 89.3553 61.6057C90.1181 61.6543 90.8961 61.4026 91.4858 60.9163Z" fill="black"/>
<path d="M132.828 92.7779C132.571 92.6759 132.342 92.5021 132.175 92.2812C132.797 92.0095 133.307 91.491 133.568 90.8647C133.734 90.4663 134.329 90.4592 134.687 90.7011C135.044 90.9431 135.267 91.3381 135.592 91.6219C135.918 91.9056 136.46 92.048 136.758 91.7358C137.105 91.3718 137.78 91.6653 137.957 92.1365C138.134 92.6077 137.978 93.1314 137.823 93.6099C137.732 93.888 137.633 94.1792 137.417 94.3759C137.201 94.5726 136.827 94.6289 136.627 94.4156C135.842 93.5785 134.275 93.7143 133.645 94.6741C133.016 94.2949 132.672 93.4957 132.828 92.7779ZM133.964 91.4863C133.402 92.0544 133.211 92.9596 133.497 93.706C133.562 93.8779 133.783 94.0609 133.896 93.9162C134.419 93.2515 135.37 92.9607 136.175 93.2201C136.327 93.2691 136.462 93.068 136.419 92.9141C136.375 92.7602 136.232 92.6601 136.097 92.573C135.523 92.1996 134.948 91.8262 134.374 91.4527C134.307 91.4093 134.233 91.3641 134.154 91.3719C134.079 91.3793 134.017 91.4327 133.964 91.4863ZM137.059 94.1945C137.293 93.6557 137.452 93.0841 137.529 92.5015C137.547 92.3726 137.483 92.1792 137.363 92.2288C136.652 92.5577 136.48 93.666 137.059 94.1945Z" fill="black"/>
<path d="M114.93 93.1022C113.862 92.2812 112.509 91.623 112.064 90.3518C111.307 88.1902 108.905 87.0605 107.716 85.1029C106.713 83.45 106.682 81.3801 106.982 79.4697C107.733 74.6832 110.692 70.0286 115.224 68.3152C117.387 67.4975 119.747 67.3836 122.059 67.4073C124.048 67.4278 126.105 67.5608 127.877 68.4648C129.65 69.3689 131.073 71.2297 130.886 73.2106C130.811 74.0078 130.488 74.7724 130.473 75.573C130.432 77.7664 132.58 79.2787 134.48 80.3756C136.313 81.4336 138.145 82.4915 139.977 83.5495C140.922 84.0954 141.052 85.3835 141.072 86.475C141.126 89.4603 141.18 92.4456 141.235 95.4309C141.246 96.0275 141.256 96.6334 141.101 97.2098C140.935 97.832 140.587 98.3874 140.243 98.9321C136.819 104.361 133.103 110.058 127.324 112.854C126.059 113.466 124.725 113.921 123.395 114.374C122.152 114.798 120.91 115.221 119.667 115.645C118.749 115.958 117.802 116.275 116.834 116.22C115.865 116.165 114.857 115.647 114.517 114.739C114.32 114.211 114.367 113.626 114.449 113.069C114.73 111.172 115.391 109.333 116.38 107.69C117.761 105.398 118.59 102.726 118.43 100.055C118.269 97.3842 117.051 94.733 114.93 93.1022ZM110.676 86.7734C113.249 89.1664 115.535 91.8676 117.47 94.8006C118.136 95.8109 118.768 96.8622 119.123 98.0191C119.812 100.262 119.403 102.71 118.606 104.917C117.81 107.125 116.642 109.18 115.758 111.353C115.268 112.557 114.965 114.168 115.993 114.963C116.838 115.618 118.053 115.278 119.057 114.911C120.563 114.36 122.069 113.81 123.576 113.259C124.826 112.803 126.079 112.344 127.266 111.742C132.689 108.99 136.162 103.58 139.373 98.4153C139.664 97.9477 139.958 97.4723 140.109 96.9429C140.266 96.3922 140.261 95.81 140.254 95.2374C140.224 92.712 140.194 90.1867 140.164 87.6613C140.154 86.7728 140.135 85.8483 139.733 85.0558C139.017 83.6424 137.345 83.0717 135.907 82.4054C133.75 81.4056 131.82 79.919 130.303 78.0883C129.912 77.6163 129.537 77.0999 129.417 76.4988C129.203 75.4305 129.828 74.3805 129.921 73.2949C130.073 71.5171 128.731 69.8804 127.113 69.1278C125.496 68.3753 123.652 68.3203 121.868 68.3061C120.176 68.2926 118.463 68.3065 116.827 68.7337C111.953 70.006 108.617 74.8652 107.902 79.8514C107.699 81.2659 107.684 82.7708 108.316 84.0522C108.851 85.1354 109.791 85.9508 110.676 86.7734Z" fill="black"/>
<path d="M87.2114 162.165C89.1125 163.321 91.3712 163.704 93.5737 164.02C97.0773 164.521 100.597 164.906 104.127 165.173C108.673 165.518 113.512 165.603 117.467 163.334C117.759 163.166 118.057 162.973 118.217 162.676C118.702 161.775 117.595 160.8 116.587 160.62C115.58 160.44 114.416 160.543 113.68 159.832C115.162 159.096 117.028 159.197 118.422 160.09C119.816 160.982 120.689 162.635 120.641 164.289C120.601 165.646 119.991 166.952 120.054 168.308C120.131 169.962 118.445 171.11 116.907 171.721C112.015 173.663 106.605 173.713 101.342 173.636C96.6803 173.567 91.8379 173.375 87.6948 171.236C86.6529 170.698 85.6349 170.005 85.0589 168.984C84.5418 168.067 84.4335 166.983 84.336 165.935C84.1398 163.827 84.0161 161.47 85.3739 159.846C86.6684 158.298 88.8798 157.946 90.8929 157.8C91.865 157.73 92.2069 156.44 92.0293 155.481C91.8517 154.523 91.4286 153.502 91.8458 152.621C92.6787 150.862 95.5716 151.727 97.0585 150.472C97.5521 150.055 98.3453 150.797 98.1535 151.414C97.9618 152.03 97.2369 152.319 96.5912 152.331C95.9454 152.343 95.3025 152.165 94.6593 152.224C94.0161 152.283 93.3221 152.694 93.2677 153.338C99.196 155.717 105.89 156.142 112.071 154.532C111.007 153.229 109.303 152.477 107.624 152.568C107.651 152.153 108.115 151.919 108.523 151.843C110.374 151.501 112.279 152.796 112.987 154.539C113.696 156.283 113.364 158.321 112.48 159.982C111.677 159.732 111.74 158.596 111.87 157.765C112 156.933 111.658 155.732 110.832 155.892C105.185 156.986 99.2518 156.561 93.8187 154.674C93.404 154.53 93.1403 155.113 93.0897 155.549C92.9006 157.18 92.8038 159.078 94.0089 160.193C94.6004 160.739 95.405 160.983 96.1861 161.18C100.432 162.252 104.897 162.446 109.22 161.745C109.825 161.647 110.595 161.606 110.891 162.143C107.616 163.628 103.842 163.29 100.265 162.922C98.5739 162.749 96.8495 162.566 95.2991 161.87C93.7873 161.19 92.508 160.05 90.9624 159.452C89.4168 158.854 87.3459 159.009 86.503 160.436C86.4101 160.594 86.3342 160.766 86.321 160.948C86.283 161.477 86.7587 161.89 87.2114 162.165ZM119.037 168.691C119.726 167.151 119.092 165.386 118.888 163.712C114.192 166.919 108.015 166.642 102.359 166.049C99.0797 165.705 95.807 165.296 92.5437 164.824C90.4275 164.517 88.2046 164.136 86.5503 162.781C86.1062 162.417 85.6124 163.18 85.5389 163.749C85.3251 165.405 85.1393 167.206 85.9993 168.636C86.9423 170.205 88.8569 170.858 90.6343 171.297C98.4562 173.225 106.735 173.274 114.579 171.439C116.344 171.026 118.297 170.345 119.037 168.691Z" fill="black"/>
<path d="M128.703 32.1463C129.628 31.9448 130.574 32.3014 131.444 32.6723C148.103 39.7702 161.101 54.9328 165.57 72.4804C170.038 90.0281 165.876 109.561 154.641 123.762C143.406 137.963 125.356 146.509 107.251 146.198C106.883 148.301 106.515 150.404 106.147 152.507C106.146 150.725 106.118 148.838 105.182 147.321C104.247 145.804 102.056 144.915 100.624 145.976C98.6678 148.313 100.18 152.547 103.174 153.116C102.588 154.489 100.33 154.061 99.571 152.776C98.8119 151.49 98.9843 149.889 98.8672 148.4C98.7502 146.912 98.0632 145.2 96.5989 144.908C92.2518 144.041 87.988 142.756 83.8853 141.078C81.23 139.992 78.1696 137.859 78.7918 135.059C79.2514 132.99 81.699 131.882 83.7996 132.161C85.9003 132.439 87.7124 133.72 89.4292 134.962C90.3247 131.867 91.2203 128.773 92.1158 125.678C89.2971 125.809 88.5059 121.679 86.131 120.155C75.2651 113.184 68.0216 100.863 67.215 87.9781C66.4084 75.0936 72.0587 61.9649 81.9703 53.6932C91.8819 45.4215 105.81 42.2115 118.342 45.3104C119.829 43.4812 122.609 42.8478 124.741 43.8521C126.735 42.8347 126.634 40.0123 126.383 37.7878C126.133 35.5632 126.516 32.6231 128.703 32.1463V32.1463ZM146.171 99.5488C151.056 86.7113 148.759 71.3978 140.322 60.5584C139.711 59.7731 139.021 58.9752 138.077 58.6597C135.945 57.9471 133.813 57.2345 131.681 56.5219C131.912 57.4211 131.193 58.3441 130.325 58.6728C129.456 59.0016 128.491 58.8901 127.57 58.7729C125.93 58.564 124.236 58.3337 122.819 57.4805C121.403 56.6273 120.329 54.9756 120.672 53.3577C120.946 52.065 119.361 51.2367 118.089 50.8818C114.766 49.9556 111.443 49.0294 108.12 48.1031C107.396 47.9012 106.621 47.6666 106.158 47.0739C105.695 46.4813 105.787 45.4181 106.499 45.1771C100.931 45.3259 95.4003 46.7562 90.4579 49.3258C94.3981 51.3681 98.4132 53.4653 101.498 56.656C103.917 59.1585 105.736 62.513 105.442 65.9813C105.188 68.9865 103.356 71.7042 100.969 73.5477C98.5819 75.3912 95.6807 76.4513 92.7558 77.1865C88.4403 78.2712 83.2123 78.4419 80.243 75.1278C79.3793 74.1636 77.8357 74.4136 76.5838 74.7427C74.4714 75.2981 72.3589 75.8535 70.2465 76.409C69.7547 76.5383 69.1593 76.7895 69.1426 77.2978C69.0918 78.8393 70.2342 80.3376 71.7341 80.6968C73.2341 81.056 74.9312 80.2376 75.5842 78.8403C75.9776 77.9985 77.1634 77.8671 78.0322 78.1967C78.9011 78.5263 79.62 79.1725 80.4843 79.5138C81.8541 80.0547 83.4622 79.7835 84.787 80.4266C86.9967 81.4992 87.3732 84.5091 86.9518 86.929C86.1694 91.4205 83.6228 95.5805 79.9784 98.32C77.587 100.118 78.0021 103.844 79.2056 106.583C80.4091 109.322 82.1988 112.076 81.7809 115.038C80.1398 111.607 78.7501 108.055 77.6267 104.421C77.007 102.416 76.6523 99.8142 78.3612 98.5967C81.9922 96.0099 84.6863 92.1362 85.8481 87.8321C86.5445 85.2522 86.1982 81.7291 83.641 80.9536C82.6498 80.6531 81.5536 80.8763 80.5692 80.5541C79.7449 80.2843 79.0844 79.6601 78.2929 79.3054C77.5015 78.9507 76.3871 78.9811 75.9694 79.7412C74.5463 82.3311 70.1784 82.4371 68.6313 79.9193C66.8349 92.7469 71.6937 106.325 81.2205 115.101C90.7473 123.877 104.678 127.607 117.315 124.765C129.953 121.924 140.946 112.59 145.799 100.581C144.451 99.9795 143.687 98.4892 143.49 97.0259C143.293 95.5626 143.556 94.0826 143.701 92.6133C143.995 89.6585 143.811 86.6568 143.159 83.76C142.983 82.981 142.639 82.0741 141.857 81.9126C139.51 81.428 137.283 80.373 135.421 78.864C134.006 77.7178 132.819 75.4458 134.195 74.2541C134.837 73.6989 133.926 72.7844 133.595 72.0037C132.895 70.3553 135.038 69.0014 136.751 68.4789C138.759 67.8662 140.767 67.2536 142.776 66.6409C142.993 66.5748 143.222 66.5081 143.442 66.5618C144.083 66.7181 144.037 67.7518 143.499 68.1314C142.96 68.511 142.241 68.4495 141.583 68.4338C138.962 68.3716 136.331 69.3305 134.365 71.064C135.239 72.0311 135.464 73.5334 134.912 74.7143C134.247 76.1361 135.191 77.861 136.496 78.7325C137.802 79.604 139.395 79.9011 140.86 80.4639C142.326 81.0267 143.803 82.0267 144.157 83.5559C144.876 86.6537 145.032 89.8811 144.617 93.0339C144.303 95.4135 144.009 98.5059 146.171 99.5488ZM93.5368 135.949C92.7161 135.04 92.9189 133.598 93.4306 132.486C93.9422 131.373 94.7153 130.354 94.9318 129.148C95.1484 127.943 94.4951 126.439 93.2739 126.345C92.3797 129.292 91.4855 132.239 90.5914 135.186C106.936 140.707 125.956 137.496 139.581 126.914C153.206 116.332 161.026 98.6991 159.722 81.4969C158.419 64.2948 148.031 48.0412 132.968 39.6332C132.608 39.4327 132.206 39.2298 131.804 39.317C131.287 39.4291 130.994 39.9615 130.767 40.4387C130.011 42.0293 129.255 43.6198 128.499 45.2103C130.28 46.2562 131.232 48.5409 130.72 50.5422C140.914 57.003 148.012 68.134 149.571 80.1018C151.129 92.0696 147.119 104.647 138.92 113.504C130.72 122.36 118.489 127.327 106.436 126.694C103.612 126.545 100.569 126.154 98.1355 127.595C95.3214 129.261 94.3105 132.772 93.5368 135.949H93.5368ZM132.018 34.0663C131.088 33.6518 130.077 33.2535 129.079 33.4515C128.081 33.6494 127.194 34.7072 127.557 35.6577C145.058 42.8024 158.122 59.8261 160.496 78.5792C162.87 97.3324 154.46 117.075 139.292 128.355C124.124 139.635 102.797 142.008 85.5201 134.338C83.8422 133.593 81.5513 132.896 80.4443 134.361C79.7629 135.263 79.9911 136.61 80.6783 137.507C81.3655 138.405 82.4068 138.949 83.427 139.436C101.857 148.219 124.946 146.296 141.669 134.585C158.393 122.874 168.095 101.835 166.143 81.5122C164.192 61.1896 150.664 42.381 132.018 34.0663ZM69.8705 75.5942C72.021 75.0071 74.1715 74.4199 76.322 73.8328C77.8052 73.4278 79.6419 73.1173 80.6663 74.2639C82.3204 76.1154 84.882 76.9625 87.3644 77.0095C89.8468 77.0566 92.2847 76.3879 94.646 75.6208C97.8646 74.5752 101.293 73.1002 102.834 70.087C103.739 68.3161 104.669 66.435 104.546 64.4498C104.433 62.62 103.44 60.9774 102.475 59.4188C101.664 58.1091 100.832 56.7751 99.6469 55.7908C97.6251 54.1113 94.769 53.6108 92.9216 51.7412C91.8537 50.6605 90.1572 50.3971 88.6756 50.7333C87.1939 51.0696 85.8843 51.9195 84.6617 52.8215C77.6525 57.993 72.3695 65.4641 69.83 73.7962C69.6482 74.3926 69.4966 75.0954 69.8705 75.5942ZM130.912 56.1539C131.599 55.1673 133.148 55.5109 134.171 56.1427C135.193 56.7744 136.295 57.6296 137.459 57.3312C131.1 50.8812 122.582 46.598 113.612 45.3405C111.289 45.015 108.627 44.9945 106.958 46.6413C111.135 47.8941 115.312 49.1469 119.489 50.3997C120.038 50.5646 120.618 50.7486 120.995 51.1816C121.656 51.9428 121.42 53.0996 121.604 54.0913C121.868 55.5207 123.069 56.6333 124.411 57.1923C125.753 57.7512 127.235 57.8507 128.686 57.9432C129.19 57.9754 129.752 57.9892 130.133 57.657C130.562 57.2829 130.587 56.6213 130.912 56.1539ZM129.644 49.8233C130.034 48.9697 129.682 47.922 129.034 47.2433C128.386 46.5645 127.497 46.1782 126.626 45.8288C125.098 45.2163 123.514 44.6574 121.869 44.6131C121.456 44.602 121.002 44.64 120.706 44.9275C120.411 45.215 120.438 45.8262 120.833 45.9456C123.912 46.8769 126.877 48.182 129.644 49.8233ZM99.6305 125.715C96.6364 125.157 93.7222 124.172 91.003 122.8C90.7781 122.687 90.5387 122.567 90.2879 122.591C90.0371 122.615 89.7896 122.849 89.853 123.093C89.896 123.258 90.056 123.361 90.2031 123.448C91.7663 124.367 93.3428 125.292 95.0578 125.88C96.7729 126.469 98.6578 126.705 100.405 126.218C100.346 125.895 99.9535 125.775 99.6305 125.715ZM129.862 37.9238C129.627 37.5796 129.076 37.6045 128.751 37.8645C128.425 38.1245 128.268 38.5366 128.125 38.9283C127.529 40.5661 126.933 42.204 126.337 43.8418C126.282 43.9922 126.227 44.1494 126.245 44.3085C126.296 44.7707 126.952 44.9382 127.35 44.6975C127.748 44.4567 127.937 43.9892 128.1 43.5538C128.673 42.0262 129.246 40.4987 129.818 38.9712C129.946 38.6303 130.068 38.2245 129.862 37.9238V37.9238Z" fill="black"/>
</g>
<defs>
<clipPath id="clip0">
<rect width="141.568" height="141.568" fill="white" transform="translate(46.4521 32.088)"/>
</clipPath>
</defs>
</svg>
