<svg width="237" height="207" viewBox="0 0 237 207" fill="none" xmlns="http://www.w3.org/2000/svg">
<path fill-rule="evenodd" clip-rule="evenodd" d="M215.948 128.809C199.929 161.114 130.606 188.921 61.718 159.065C22.0946 141.892 7.10613 100.511 6.3213 81.3701C5.70412 66.318 16.9255 50.2698 23.6998 43.3748C38.0994 28.7184 114.949 10.4633 132.502 11.4009C157.282 10.7056 172.742 32.2121 192.247 33.2377C206.115 33.9668 247.645 64.8899 215.948 128.809Z" fill="#B0FF9C"/>
<path fill-rule="evenodd" clip-rule="evenodd" d="M119.385 79.04C119.304 80.241 119.403 81.4538 119.676 82.6261C119.791 83.1204 120.533 83.2117 120.919 82.8816C121.304 82.5514 121.407 82.0026 121.449 81.4966C121.51 80.7488 121.49 79.9942 121.39 79.2506C121.338 78.8663 121.259 78.4699 121.027 78.159C120.795 77.8481 120.371 77.649 120.009 77.7878C119.548 77.9647 119.418 78.5472 119.385 79.04Z" fill="white"/>
<path fill-rule="evenodd" clip-rule="evenodd" d="M61.0453 49.5669C65.2791 47.4702 70.335 47.0946 74.8321 48.5426C75.9621 46.3716 77.6265 44.4813 79.637 43.0856C80.0249 42.8163 80.58 42.5732 80.929 42.8912C80.7884 45.1222 80.6478 47.3598 80.7796 49.5912C80.8823 51.3282 81.1498 53.0553 81.1743 54.7951C81.245 59.8236 79.2735 64.6941 76.5919 68.9484C83.0302 73.2786 87.8838 79.9123 90.0625 87.3591C89.1515 87.8294 65.3102 88.658 52.4142 87.627C52.1155 87.8294 51.8361 87.3404 51.802 86.9812C51.4568 83.3479 51.2631 79.6486 52.0169 76.0776C52.7708 72.5066 54.5724 69.0357 57.5486 66.9233C54.7864 60.9097 55.8606 53.5323 52.491 47.8368C52.2909 47.4986 52.1225 46.9711 52.4728 46.7931C52.6027 46.727 52.7579 46.7475 52.9015 46.7719C55.2511 47.1705 57.4899 48.2038 59.3176 49.7331C59.789 50.1276 60.4945 49.8397 61.0453 49.5669Z" fill="white"/>
<path fill-rule="evenodd" clip-rule="evenodd" d="M152.405 86.9912C152.389 86.9912 154.853 83.2968 156.364 81.5781C157.744 80.0087 158.553 77.948 158.609 75.8591C153.838 75.6705 149.091 74.8823 144.515 73.5188C143.815 73.3102 143.092 73.0733 142.562 72.5711C141.322 71.3987 141.629 69.3542 142.268 67.7723C143.044 65.8521 144.171 64.0746 145.577 62.5543C146.058 62.0345 146.58 61.5326 146.895 60.8984C147.21 60.2642 147.276 59.4483 146.851 58.8819C146.135 57.9274 145.984 56.6737 145.91 55.4828C145.835 54.292 145.801 53.0539 145.26 51.9904C144.719 50.9268 143.491 50.1001 142.35 50.4488C142.073 50.0263 142.62 49.5386 143.101 49.3857C144.919 48.8082 146.955 49.3138 148.548 50.362C150.142 51.4101 151.351 52.9471 152.389 54.5468C152.794 55.1715 153.48 55.9051 154.141 55.5619C158.655 53.2183 164.163 52.8767 168.931 54.6447C169.594 54.8905 170.613 54.9957 170.748 54.3019C171.421 50.8466 174.305 47.9282 177.752 47.214C176.397 48.1855 176.315 50.1619 176.587 51.8068C176.858 53.4516 177.335 55.2039 176.659 56.7276C176.113 57.9575 177.488 59.1136 178.602 59.8691C180.283 61.0102 181.787 62.4129 183.042 64.0111C184.283 65.5925 185.318 67.6248 184.751 69.5538C184.009 72.0789 181.037 73.0785 178.48 73.7019C175.984 74.3105 173.487 74.9191 170.991 75.5276C170.945 77.9628 171.814 80.4046 173.389 82.2628C174.652 83.7533 176.488 85.2896 176.086 87.2016C176.927 88.5352 169.033 88.465 152.405 86.9912Z" fill="white"/>
<path fill-rule="evenodd" clip-rule="evenodd" d="M158.396 119.923C159.256 120.456 160.21 121.093 161.194 120.856C163.47 120.307 165.908 120.444 168.109 121.247C169.035 121.585 169.875 120.626 170.455 119.83C172.14 117.517 174.344 115.583 176.856 114.213C178.589 117.057 176.834 120.993 178.34 123.963C180.671 128.559 180.052 134.496 176.822 138.512C180.212 141.824 182.517 146.229 183.305 150.901C182.902 151.02 162.256 153.581 150.92 150.509C150.794 147.215 151.982 143.89 154.165 141.421C150.924 137.604 149.342 132.424 149.899 127.447C149.957 126.929 150.032 126.377 149.801 125.91C148.592 123.461 147.759 120.827 147.34 118.128C147.315 117.967 147.295 117.79 147.38 117.651C147.493 117.466 147.74 117.426 147.956 117.408C151.584 117.112 155.3 118.008 158.396 119.923Z" fill="white"/>
<path fill-rule="evenodd" clip-rule="evenodd" d="M60.2067 151.349C60.6192 148.88 61.0318 146.41 61.4443 143.94C61.5513 143.299 61.5363 142.441 60.9184 142.24C58.9911 141.614 57.3626 140.124 56.5675 138.26C56.317 137.673 55.5442 137.464 54.9297 137.637C54.3151 137.809 53.8248 138.262 53.3598 138.699C53.625 137.662 54.5776 136.839 55.6418 136.726C56.0031 136.117 55.4858 135.276 54.8003 135.099C54.1148 134.922 53.3929 135.231 52.8204 135.648C52.7758 134.988 53.5787 134.665 54.1871 134.406C54.7955 134.147 55.3897 133.328 54.8709 132.918C54.6448 132.739 54.3233 132.771 54.038 132.812C53.2131 132.93 52.3881 133.048 51.5632 133.166C51.657 132.502 52.5201 132.331 53.1889 132.28C53.8577 132.229 54.7213 131.903 54.6469 131.236C54.3601 128.667 54.9822 126.062 56.0204 123.695C56.8805 121.734 54.3493 119.77 54.5154 117.635C54.5283 117.469 54.5676 117.288 54.701 117.19C54.8603 117.072 55.0832 117.119 55.2724 117.177C56.5756 117.579 57.7839 118.285 58.7739 119.223C59.2545 119.679 60.0286 119.368 60.6331 119.098C62.8627 118.103 65.4759 118 67.777 118.817C69.8548 119.554 71.6978 115.998 73.757 116.786C73.2314 118.516 72.7058 120.245 72.1802 121.975C72.0352 122.452 71.898 123 72.1616 123.424C73.0497 124.85 73.5882 126.493 73.7172 128.168C73.8081 129.348 74.0366 130.943 75.2167 131.035C74.7027 131.261 74.1359 131.543 73.9579 132.075C73.78 132.608 74.3882 133.311 74.8488 132.989C75.2462 132.712 75.8885 132.944 76.0179 133.411C75.3369 133.344 74.5982 133.418 74.0659 133.848C73.5335 134.278 73.3247 135.147 73.7757 135.662C74.7657 135.254 75.9351 135.307 76.8837 135.804C76.3184 136.22 75.5418 136.097 74.8414 136.055C74.1409 136.013 73.2878 136.175 73.04 136.831C72.2127 139.022 70.1796 140.713 67.8745 141.127C66.739 141.331 66.5569 142.867 66.6505 144.016C66.8469 146.429 67.0432 148.841 67.2396 151.253C66.8351 151.637 62.1396 152.169 60.2067 151.349Z" fill="white"/>
<path fill-rule="evenodd" clip-rule="evenodd" d="M28.783 140.989C28.7026 142.19 28.8011 143.403 29.0744 144.575C29.1896 145.07 29.9314 145.161 30.317 144.831C30.7026 144.501 30.8053 143.952 30.8469 143.446C30.9083 142.698 30.8886 141.943 30.7883 141.2C30.7364 140.815 30.6568 140.419 30.425 140.108C30.1932 139.797 29.7695 139.598 29.4074 139.737C28.9463 139.914 28.8161 140.496 28.783 140.989Z" fill="white"/>
<path fill-rule="evenodd" clip-rule="evenodd" d="M122.039 147.61C122.182 147.69 122.162 147.922 122.041 148.034C121.919 148.146 121.744 148.17 121.58 148.188C121.008 148.254 120.379 148.307 119.906 147.98C120.146 147.809 120.387 147.637 120.628 147.465C120.477 147.248 120.18 147.204 119.917 147.172C119.654 147.14 119.355 147.077 119.227 146.845C119.099 146.614 119.378 146.245 119.588 146.406C120.237 146.903 121.192 146.959 121.895 146.543C122.358 146.268 122.796 145.792 123.324 145.895C122.955 146.614 122.224 147.135 121.424 147.249C121.442 147.528 121.786 147.73 122.039 147.61Z" fill="#00160A"/>
<path fill-rule="evenodd" clip-rule="evenodd" d="M30.2515 147.235C29.6793 147.302 29.0497 147.355 28.5759 147.027C28.8185 146.855 29.0612 146.683 29.3038 146.51C29.1366 146.299 28.8367 146.263 28.5697 146.226C28.3027 146.189 27.9989 146.107 27.8883 145.861C27.7777 145.616 28.1085 145.272 28.2972 145.464C28.7609 145.937 29.5312 145.967 30.1577 145.752C30.7843 145.538 31.319 145.124 31.8902 144.789C31.9048 145.634 30.9149 146.079 30.1002 146.305C30.1191 146.58 30.4603 146.778 30.7086 146.657C30.8527 146.737 30.833 146.968 30.7119 147.08C30.5908 147.192 30.4152 147.216 30.2515 147.235Z" fill="#00160A"/>
<path fill-rule="evenodd" clip-rule="evenodd" d="M29.002 145.566C28.1069 145.232 27.9266 144.067 27.8899 143.113C27.8655 142.481 27.8412 141.85 27.8169 141.219C27.8032 140.865 27.7906 140.504 27.895 140.165C28.0692 139.601 28.5867 139.159 29.1709 139.075C29.7552 138.991 30.3765 139.269 30.7029 139.761C30.8895 140.042 30.9805 140.374 31.0518 140.704C31.2039 141.407 31.2798 142.127 31.2779 142.846C31.2761 143.543 31.1903 144.272 30.8033 144.852C30.4164 145.431 29.6552 145.809 29.002 145.566H29.002ZM29.8039 145.041C30.2672 144.895 30.4374 144.335 30.5031 143.854C30.6171 143.019 30.6266 142.17 30.5315 141.332C30.4837 140.91 30.4014 140.473 30.142 140.137C29.8826 139.801 29.3971 139.605 29.0187 139.797C28.5493 140.035 28.4954 140.672 28.5041 141.198C28.5156 141.884 28.527 142.57 28.5385 143.256C28.5456 143.682 28.557 144.127 28.7547 144.505C28.9523 144.883 29.397 145.169 29.8039 145.041Z" fill="#00160A"/>
<path fill-rule="evenodd" clip-rule="evenodd" d="M119.869 139.881C120.505 139.475 121.406 139.766 121.886 140.35C122.365 140.933 122.508 141.721 122.553 142.475C122.578 142.911 122.576 143.35 122.547 143.786C122.505 144.399 122.401 145.03 122.061 145.542C121.721 146.054 121.095 146.417 120.495 146.285C119.979 146.172 119.589 145.723 119.403 145.229C119.216 144.735 119.198 144.196 119.182 143.668C119.167 143.165 119.152 142.663 119.137 142.16C119.111 141.324 119.164 140.332 119.869 139.881ZM120.626 145.708C120.973 145.793 121.34 145.581 121.538 145.282C121.735 144.984 121.796 144.618 121.833 144.262C121.915 143.479 121.905 142.686 121.805 141.905C121.753 141.505 121.67 141.092 121.424 140.772C121.178 140.453 120.724 140.26 120.358 140.429C119.919 140.632 119.819 141.203 119.798 141.687C119.757 142.603 119.787 143.522 119.887 144.433C119.944 144.955 120.116 145.582 120.626 145.708Z" fill="#00160A"/>
<path fill-rule="evenodd" clip-rule="evenodd" d="M119.791 141.621C119.711 142.822 119.809 144.035 120.082 145.207C120.198 145.702 120.939 145.793 121.325 145.463C121.711 145.133 121.813 144.584 121.855 144.078C121.916 143.33 121.897 142.575 121.796 141.832C121.744 141.447 121.665 141.051 121.433 140.74C121.201 140.429 120.778 140.23 120.415 140.369C119.954 140.546 119.824 141.128 119.791 141.621Z" fill="white"/>
<path fill-rule="evenodd" clip-rule="evenodd" d="M118.517 83.8056C118.583 83.5899 118.861 83.5113 119.08 83.5628C119.3 83.6143 119.487 83.7545 119.694 83.8432C120.467 84.1744 121.352 83.7434 122.009 83.2188C122.23 83.0426 122.585 82.8654 122.751 83.0932C122.355 83.7661 121.65 84.248 120.879 84.372C120.902 84.6482 121.24 84.8453 121.492 84.7298C121.634 84.8109 121.613 85.0406 121.493 85.1513C121.372 85.262 121.198 85.286 121.035 85.3049C120.468 85.3708 119.846 85.4246 119.37 85.1091C119.624 84.9093 119.878 84.7095 120.132 84.5096C119.543 84.4302 118.977 84.1834 118.517 83.8056Z" fill="#00160A"/>
<path fill-rule="evenodd" clip-rule="evenodd" d="M147.956 117.408C151.584 117.112 155.3 118.008 158.396 119.923C159.256 120.456 160.21 121.093 161.194 120.856C163.47 120.307 165.908 120.444 168.109 121.247C169.035 121.585 169.875 120.626 170.455 119.83C172.14 117.517 174.344 115.583 176.856 114.213C178.589 117.057 176.834 120.993 178.34 123.963C180.671 128.559 180.052 134.496 176.822 138.512C180.212 141.824 182.517 146.229 183.305 150.901C182.902 151.02 182.637 150.494 182.54 150.086C181.67 146.434 179.943 142.989 177.537 140.108C176.974 139.434 176.053 138.735 175.309 139.204C169.404 142.933 161.917 144.059 155.176 142.233C154.064 141.931 153.274 143.282 152.917 144.377C152.251 146.421 151.585 148.465 150.92 150.509C150.794 147.215 151.982 143.89 154.165 141.421C150.924 137.604 149.342 132.424 149.899 127.447C149.957 126.929 150.032 126.377 149.801 125.91C148.592 123.461 147.759 120.827 147.34 118.128C147.315 117.967 147.295 117.79 147.38 117.651C147.493 117.466 147.74 117.426 147.956 117.408ZM162.674 123.951C161.392 125.128 160.335 126.549 159.576 128.115C159.128 126.613 159.371 124.92 160.223 123.605C159.07 124.036 158.003 124.694 157.101 125.531C157.102 124.28 157.737 123.046 158.756 122.319C158.315 122.332 157.874 122.344 157.433 122.357C157.892 121.788 158.539 121.372 159.248 121.191C156.001 118.876 151.931 117.741 147.955 118.043C148.656 122.188 150.33 126.164 152.804 129.562C151.747 129.13 150.883 128.247 150.474 127.181C150.021 131.453 151.108 135.872 153.492 139.446C153.936 140.111 154.432 140.757 155.077 141.232C156.145 142.019 157.514 142.26 158.836 142.38C164.121 142.863 169.542 141.74 174.2 139.197C175.096 138.709 175.973 138.161 176.683 137.429C177.622 136.459 178.224 135.206 178.612 133.914C179.629 130.522 179.198 126.721 177.446 123.643C177.13 124.588 176.813 125.532 176.497 126.476C176.363 126.874 175.771 127.29 175.658 126.885C177.229 123.162 177.566 118.929 176.604 115.004C173.015 117.386 170.008 120.637 167.914 124.4C167.826 123.524 168.051 122.619 168.539 121.886C166.274 123.621 164.31 125.75 162.763 128.148C162.482 126.769 162.452 125.34 162.674 123.951Z" fill="#00160A"/>
<path fill-rule="evenodd" clip-rule="evenodd" d="M26.7301 84.5121C27.0359 84.5657 27.3661 84.4484 27.5697 84.214C26.9517 84.1039 26.3603 83.8476 25.8574 83.4721C26.0578 83.129 26.571 83.3352 26.941 83.4799C27.8372 83.8304 28.9561 83.4703 29.4796 82.6629C29.6204 82.4457 29.9976 82.6945 29.9562 82.9501C29.9148 83.2056 29.6629 83.3636 29.4359 83.488C29.0022 83.7257 28.5684 83.9633 28.1347 84.201C28.4911 84.2332 28.8343 84.3961 29.0845 84.652C28.6118 85.0371 27.9458 85.0446 27.3362 85.0337C27.1707 85.0307 26.9958 85.0251 26.8557 84.9369C26.7156 84.8487 26.6334 84.6464 26.7301 84.5121Z" fill="#00160A"/>
<path fill-rule="evenodd" clip-rule="evenodd" d="M118.995 77.786C119.486 77.0182 120.721 76.8846 121.365 77.5299C121.734 77.9003 121.889 78.431 121.986 78.9449C122.119 79.6409 122.173 80.3517 122.147 81.0597C122.124 81.7122 122.023 82.3889 121.655 82.9283C121.287 83.4676 120.591 83.8277 119.968 83.6331C119.035 83.3418 118.824 82.1384 118.778 81.162C118.754 80.646 118.729 80.13 118.705 79.614C118.675 78.9872 118.657 78.3147 118.995 77.786ZM119.385 79.04C119.305 80.241 119.403 81.4538 119.676 82.6261C119.792 83.1205 120.533 83.2118 120.919 82.8816C121.305 82.5514 121.407 82.0026 121.449 81.4967C121.51 80.7488 121.491 79.9942 121.39 79.2506C121.338 78.8663 121.259 78.4699 121.027 78.159C120.795 77.8481 120.372 77.649 120.009 77.7878C119.548 77.9647 119.418 78.5472 119.385 79.04Z" fill="#00160A"/>
<path fill-rule="evenodd" clip-rule="evenodd" d="M26.887 78.4211C26.8066 79.6221 26.9051 80.8349 27.1784 82.0072C27.2936 82.5016 28.0354 82.5929 28.421 82.2627C28.8066 81.9325 28.9093 81.3837 28.9509 80.8778C29.0123 80.1299 28.9926 79.3754 28.8922 78.6317C28.8404 78.2474 28.7608 77.851 28.529 77.5401C28.2972 77.2292 27.8735 77.0301 27.5114 77.169C27.0503 77.3458 26.9201 77.9283 26.887 78.4211Z" fill="white"/>
<path fill-rule="evenodd" clip-rule="evenodd" d="M27.0711 83.2129C26.3946 82.875 26.2093 82.0095 26.1351 81.257C26.0628 80.5232 26.0215 79.7864 26.0111 79.0492C26.0042 78.5566 26.0164 78.0418 26.2477 77.6068C26.4993 77.1338 27.0099 76.8096 27.5449 76.783C28.08 76.7564 28.6202 77.0286 28.9173 77.4743C29.1123 77.7668 29.2025 78.1156 29.271 78.4604C29.4121 79.1707 29.4751 79.8965 29.4585 80.6205C29.4424 81.324 29.3382 82.0601 28.9224 82.6279C28.5067 83.1956 27.7006 83.5274 27.0711 83.2129ZM26.8905 81.9527C26.9397 82.1866 27.0078 82.4314 27.1815 82.5956C27.5226 82.9179 28.1254 82.7572 28.4135 82.3868C28.7015 82.0164 28.7543 81.5191 28.7733 81.0502C28.8013 80.3581 28.7795 79.6639 28.708 78.975C28.6675 78.5841 28.6058 78.1806 28.3912 77.8514C28.1766 77.5222 27.7687 77.288 27.3897 77.3917C26.7901 77.5558 26.6744 78.3431 26.6766 78.9647C26.6802 79.9651 26.6847 80.9737 26.8905 81.9527Z" fill="#00160A"/>
<path fill-rule="evenodd" clip-rule="evenodd" d="M152.405 86.9912C152.557 84.7078 154.853 83.2968 156.364 81.5781C157.744 80.0087 158.553 77.948 158.609 75.8591C153.838 75.6705 149.091 74.8823 144.515 73.5188C143.815 73.3102 143.092 73.0733 142.562 72.5711C141.322 71.3987 141.629 69.3542 142.268 67.7723C143.044 65.8521 144.171 64.0746 145.577 62.5543C146.058 62.0345 146.58 61.5326 146.895 60.8984C147.21 60.2642 147.276 59.4483 146.851 58.8819C146.135 57.9274 145.984 56.6737 145.91 55.4828C145.835 54.292 145.801 53.0539 145.26 51.9904C144.719 50.9268 143.491 50.1001 142.35 50.4488C142.073 50.0263 142.62 49.5386 143.101 49.3857C144.919 48.8082 146.955 49.3138 148.548 50.362C150.142 51.4101 151.351 52.9471 152.389 54.5468C152.794 55.1715 153.48 55.9051 154.141 55.5619C158.655 53.2183 164.163 52.8767 168.931 54.6447C169.594 54.8905 170.613 54.9957 170.748 54.3019C171.421 50.8466 174.305 47.9282 177.752 47.214C176.397 48.1855 176.315 50.1619 176.587 51.8068C176.858 53.4516 177.335 55.2039 176.659 56.7276C176.113 57.9575 177.488 59.1136 178.602 59.8691C180.283 61.0102 181.787 62.4129 183.042 64.0111C184.283 65.5925 185.318 67.6248 184.751 69.5538C184.009 72.0789 181.037 73.0785 178.48 73.7019C175.984 74.3105 173.487 74.9191 170.991 75.5276C170.945 77.9628 171.814 80.4046 173.389 82.2628C174.652 83.7533 176.488 85.2896 176.086 87.2016C175.232 85.1685 173.629 83.5616 172.342 81.771C171.055 79.9804 170.04 77.7397 170.622 75.6127C169.483 75.2051 168.287 76.0196 167.425 76.8693C166.564 77.7191 165.655 78.7208 164.446 78.7887C162.456 78.9006 161.213 76.4718 159.268 76.0373C159.223 77.3398 158.882 78.6311 158.279 79.7862C157.637 81.0145 156.715 82.07 155.802 83.1126C154.669 84.4055 153.537 85.6983 152.405 86.9912ZM154.259 56.1001C153.049 56.6887 154.924 58.9883 153.841 59.7867C153.283 56.7638 151.704 53.9388 149.421 51.8808C147.938 50.5442 145.971 49.4911 144.009 49.8625C145.156 50.313 145.854 51.505 146.154 52.7001C146.455 53.8951 146.444 55.1457 146.653 56.36C147.021 58.4976 148.09 60.5085 149.657 62.0089C148.943 61.9995 148.252 61.5611 147.94 60.9197C145.743 62.8941 143.979 65.3458 142.803 68.0551C142.34 69.1238 141.978 70.3983 142.552 71.4122C143.036 72.2676 144.038 72.665 144.972 72.9678C148.336 74.0572 151.836 74.7279 155.364 74.9598C157.472 75.0983 159.749 75.1335 161.434 76.4078C162.046 76.8708 162.549 77.48 163.216 77.8594C163.884 78.2389 164.825 78.3163 165.345 77.7513C167.373 75.5455 170.457 74.6904 173.404 74.1478C176.351 73.6053 179.428 73.2423 181.998 71.7003C182.962 71.1215 183.876 70.3203 184.188 69.2397C184.612 67.7705 183.821 66.2371 182.926 64.9968C181.123 62.4954 178.776 60.3878 176.097 58.8621C175.98 59.3261 175.693 59.7452 175.303 60.0222C175.177 59.4969 175.406 58.9611 175.59 58.4532C176.727 55.3138 176.209 51.8474 175.677 48.5512C172.189 50.5637 170.377 55.0905 171.513 58.9539C170.848 59.0775 170.533 58.1454 170.598 57.4721C170.663 56.7988 170.716 55.9192 170.092 55.6577C165.074 53.5541 159.153 53.7195 154.259 56.1001Z" fill="#00160A"/>
<path fill-rule="evenodd" clip-rule="evenodd" d="M61.8467 127.851C62.197 128.443 62.2357 129.208 61.9469 129.832C61.7937 130.163 61.2754 130.152 61.0153 129.896C60.7552 129.641 60.6868 129.253 60.6364 128.892C60.5908 128.565 60.5512 128.22 60.6758 127.914C60.8005 127.609 61.1491 127.368 61.4596 127.48C61.6312 127.542 61.7538 127.694 61.8467 127.851Z" fill="#00160A"/>
<path fill-rule="evenodd" clip-rule="evenodd" d="M67.2396 151.253C66.1298 148.436 65.7593 145.332 66.1751 142.333C65.1295 143.479 63.2 143.674 61.9459 142.761C62.2459 145.711 61.6309 148.748 60.2067 151.349C60.6192 148.88 61.0318 146.41 61.4443 143.94C61.5513 143.299 61.5363 142.441 60.9184 142.24C58.9911 141.614 57.3626 140.124 56.5675 138.26C56.317 137.673 55.5442 137.464 54.9297 137.637C54.3151 137.809 53.8248 138.262 53.3598 138.699C53.625 137.662 54.5776 136.839 55.6418 136.726C56.0031 136.117 55.4858 135.276 54.8003 135.099C54.1148 134.922 53.3929 135.231 52.8204 135.648C52.7758 134.988 53.5787 134.665 54.1871 134.406C54.7955 134.147 55.3897 133.328 54.8709 132.918C54.6448 132.739 54.3233 132.771 54.038 132.812C53.2131 132.93 52.3881 133.048 51.5632 133.166C51.657 132.502 52.5201 132.331 53.1889 132.28C53.8577 132.228 54.7213 131.903 54.6469 131.236C54.3601 128.667 54.9822 126.062 56.0204 123.695C56.8805 121.734 54.3493 119.77 54.5154 117.635C54.5283 117.469 54.5676 117.288 54.701 117.19C54.8603 117.072 55.0832 117.119 55.2724 117.177C56.5756 117.579 57.7839 118.285 58.7739 119.223C59.2545 119.679 60.0286 119.368 60.6331 119.098C62.8627 118.103 65.4759 118 67.777 118.817C69.8548 119.554 71.6978 115.998 73.757 116.786C73.2314 118.516 72.7058 120.245 72.1802 121.975C72.0352 122.452 71.898 123 72.1616 123.423C73.0497 124.85 73.5882 126.493 73.7172 128.168C73.8081 129.348 74.0366 130.943 75.2167 131.035C74.7027 131.261 74.1359 131.543 73.9579 132.075C73.78 132.608 74.3882 133.311 74.8488 132.989C75.2462 132.712 75.8885 132.944 76.0179 133.411C75.3369 133.344 74.5982 133.418 74.0659 133.848C73.5335 134.278 73.3247 135.147 73.7757 135.662C74.7657 135.254 75.9351 135.307 76.8837 135.804C76.3184 136.22 75.5418 136.097 74.8414 136.055C74.1409 136.013 73.2878 136.175 73.04 136.831C72.2127 139.022 70.1796 140.713 67.8745 141.127C66.739 141.331 66.5569 142.867 66.6505 144.016C66.8469 146.429 67.0432 148.841 67.2396 151.253ZM68.1562 133.915C67.7925 134.248 67.1655 134.594 66.8961 134.181C68.4521 132.512 70.5854 131.391 72.8429 131.057C73.3035 130.989 73.4056 130.374 73.3727 129.91C73.2106 127.624 72.5549 125.376 71.4634 123.361C71.2997 123.785 70.7815 124.033 70.3489 123.896C71.6394 121.957 72.4885 119.726 72.8136 117.42C70.7479 118.276 68.9126 119.681 67.5467 121.452C67.3564 120.772 67.6605 119.985 68.258 119.61C65.5332 118.61 62.4016 118.777 59.7985 120.061C59.8663 120.484 59.934 120.906 60.0018 121.329C58.7249 119.782 57.0607 118.557 55.2041 117.798C55.8077 120.052 56.6876 122.232 57.8178 124.273C57.327 124.379 56.794 123.954 56.7884 123.451C55.7629 125.683 55.1991 128.125 55.1428 130.58C55.1266 131.286 55.4109 132.241 56.1131 132.168C58.0298 131.97 60.0196 132.636 61.4298 133.949C60.1209 133.571 58.8119 133.193 57.503 132.815C56.9396 132.652 56.2936 132.5 55.7999 132.816C55.3061 133.132 55.3648 134.113 55.951 134.124C57.4862 133.677 59.2212 133.978 60.5163 134.915C59.0004 134.578 57.4148 134.557 55.8903 134.853C55.5099 135.771 56.8016 136.489 57.7949 136.484C58.7883 136.479 60.0321 136.372 60.5143 137.24C59.2965 137.177 58.0786 137.114 56.8608 137.05C57.1949 139.22 59.0603 141.063 61.2342 141.372C61.649 141.43 61.9212 141.817 62.2299 142.1C63.458 143.226 65.8165 142.461 66.1495 140.828C68.9783 140.741 71.6725 138.86 72.7281 136.234C71.2932 136.438 69.8583 136.641 68.4234 136.845C68.7592 136.197 69.5572 135.949 70.2828 135.873C71.0085 135.798 71.7757 135.823 72.4192 135.479C73.0626 135.135 73.4807 134.228 73.0201 133.662C71.2272 134.292 69.4343 134.922 67.6414 135.552C68.238 134.663 69.1785 134.011 70.2205 133.765C70.947 133.593 71.7191 133.61 72.4143 133.338C73.1095 133.066 73.7304 132.35 73.5337 131.63C71.5525 131.756 69.6223 132.577 68.1562 133.915Z" fill="#00160A"/>
<path fill-rule="evenodd" clip-rule="evenodd" d="M66.3594 126.483C66.1187 126.47 65.8276 126.424 65.7388 126.2C66.3249 125.536 67.5946 125.747 67.9342 126.565C67.4093 126.538 66.8843 126.51 66.3594 126.483Z" fill="#00160A"/>
<path fill-rule="evenodd" clip-rule="evenodd" d="M65.4593 138.929C65.6472 139.156 65.6082 139.512 65.4316 139.747C65.2549 139.983 64.9722 140.115 64.6884 140.193C64.2752 140.307 63.7859 140.305 63.4713 140.014C63.0161 139.593 63.2352 138.736 63.7948 138.468C64.3544 138.201 65.0634 138.452 65.4593 138.929ZM63.8274 139.059C63.6851 139.324 63.987 139.65 64.2876 139.65C64.5881 139.651 64.8472 139.451 65.0799 139.261C64.774 138.927 64.2286 138.843 63.8368 139.071L63.8274 139.059Z" fill="#00160A"/>
<path fill-rule="evenodd" clip-rule="evenodd" d="M67.0317 129.858C66.6621 130.044 66.1952 129.746 66.0555 129.356C65.9158 128.966 66.0095 128.535 66.117 128.136C66.1783 127.908 66.2606 127.659 66.4658 127.542C66.7412 127.386 67.1094 127.565 67.2695 127.838C67.4295 128.111 67.4373 128.444 67.4407 128.761C67.4452 129.174 67.4003 129.672 67.0317 129.858Z" fill="#00160A"/>
<path fill-rule="evenodd" clip-rule="evenodd" d="M60.3822 138.947C61.4932 139.09 62.6643 138.553 63.2797 137.617C63.8951 136.681 63.9248 135.392 63.353 134.429C63.0505 133.919 62.5905 133.284 62.9567 132.819C63.1426 132.582 63.4729 132.521 63.7734 132.505C64.1018 132.487 64.4509 132.508 64.7252 132.69C64.9996 132.871 65.1594 133.259 64.9925 133.543C64.3334 134.662 64.4343 136.181 65.2355 137.203C66.0368 138.225 67.4872 138.686 68.7316 138.314C68.9592 138.246 69.3323 138.269 69.2874 138.502C69.2765 138.558 69.2373 138.605 69.1972 138.646C68.4941 139.373 67.2755 139.254 66.3701 138.805C65.5284 138.387 64.8063 137.732 64.3091 136.935C63.8643 137.693 63.4053 138.469 62.7242 139.025C62.0431 139.582 61.0826 139.882 60.2665 139.554C60.0428 139.464 59.8108 139.195 59.9724 139.016C60.0693 138.909 60.2389 138.929 60.3822 138.947Z" fill="#00160A"/>
<path fill-rule="evenodd" clip-rule="evenodd" d="M62.3511 126.212C62.4069 126.387 62.1624 126.493 61.9797 126.513C61.6332 126.55 61.2867 126.587 60.9403 126.625C60.6727 126.654 60.2884 126.575 60.318 126.308C60.7942 125.806 61.6342 125.701 62.2191 126.071C62.2747 126.106 62.3312 126.149 62.3511 126.212Z" fill="#00160A"/>
<path fill-rule="evenodd" clip-rule="evenodd" d="M155.829 145.635C155.76 144.977 155.776 144.203 156.298 143.796C156.756 143.439 157.407 143.523 157.979 143.625C158.888 143.788 159.796 143.95 160.705 144.113C161.415 144.24 162.175 144.362 162.835 144.071C163.362 143.839 163.966 144.088 164.541 144.093C165.011 144.097 165.464 143.936 165.906 143.777C167.263 143.29 168.619 142.804 169.976 142.317C170.225 142.227 170.502 142.138 170.748 142.238C171.12 142.39 171.204 142.871 171.233 143.272C171.265 143.73 171.298 144.187 171.331 144.644C171.371 145.203 171.408 145.787 171.189 146.302C170.969 146.818 170.409 147.235 169.866 147.095C168.466 146.734 167.041 146.466 165.605 146.295C165.316 146.261 164.939 146.281 164.844 146.556C164.626 147.188 163.724 147.086 163.065 146.975C161.555 146.72 159.946 147.118 158.729 148.047C158.403 148.296 158.098 148.584 157.722 148.747C157.346 148.911 156.865 148.919 156.566 148.638C156.363 148.446 156.282 148.161 156.217 147.888C156.039 147.147 155.909 146.394 155.829 145.635ZM162.643 145.109C160.81 144.762 158.968 144.461 157.12 144.208C156.828 144.168 156.557 144.409 156.461 144.687C156.365 144.965 156.402 145.27 156.444 145.561C156.537 146.201 156.65 146.837 156.782 147.47C156.823 147.668 156.871 147.875 157.005 148.026C157.14 148.177 157.39 148.245 157.547 148.118C158.549 147.304 159.735 146.718 160.99 146.417C161.368 146.327 161.76 146.259 162.094 146.061C162.427 145.863 162.696 145.494 162.643 145.109ZM167.859 143.693C166.884 143.962 165.847 144.268 165.191 145.039C164.992 145.273 164.951 145.771 165.259 145.76C166.792 145.702 168.335 145.941 169.779 146.46C170.085 146.57 170.432 146.35 170.577 146.058C170.722 145.766 170.717 145.426 170.709 145.1C170.694 144.486 170.679 143.871 170.664 143.257C170.662 143.159 170.648 143.041 170.56 142.997C170.501 142.968 170.43 142.985 170.367 143.003C169.531 143.233 168.695 143.463 167.859 143.693ZM163.092 145.973C163.135 146.117 163.197 146.262 163.311 146.361C163.59 146.601 164.061 146.429 164.249 146.111C164.436 145.793 164.417 145.398 164.374 145.031C164.323 144.592 163.667 144.448 163.334 144.74C163.002 145.032 162.967 145.548 163.092 145.973Z" fill="#00160A"/>
<path fill-rule="evenodd" clip-rule="evenodd" d="M174.012 134.185C173.201 134.086 172.363 134.213 171.617 134.548C171.424 134.635 171.237 134.351 171.32 134.157C171.404 133.963 171.622 133.87 171.821 133.8C172.972 133.395 174.435 133.195 175.256 134.098C174.904 134.338 174.435 134.237 174.012 134.185Z" fill="#00160A"/>
<path fill-rule="evenodd" clip-rule="evenodd" d="M165.153 138.488C165.172 139.115 164.578 139.625 163.961 139.736C163.344 139.848 162.716 139.664 162.116 139.482C161.593 139.323 161.431 138.59 161.706 138.118C161.982 137.647 162.54 137.414 163.079 137.326C163.523 137.253 163.994 137.261 164.402 137.45C164.81 137.64 165.139 138.039 165.153 138.488ZM162.259 138.639C162.289 138.826 162.509 138.908 162.693 138.953C163.052 139.041 163.421 139.13 163.786 139.075C164.152 139.021 164.516 138.789 164.611 138.432C164.068 137.871 163.1 137.794 162.476 138.262C162.354 138.354 162.236 138.488 162.259 138.639Z" fill="#00160A"/>
<path fill-rule="evenodd" clip-rule="evenodd" d="M155.763 135.29C154.68 135.293 153.597 135.295 152.514 135.298C152.285 135.298 151.963 135.178 152.04 134.963C153.172 134.471 154.484 134.412 155.655 134.799C155.871 134.87 156.105 135.161 155.905 135.267C155.862 135.29 155.811 135.29 155.763 135.29Z" fill="#00160A"/>
<path fill-rule="evenodd" clip-rule="evenodd" d="M167.746 131.169C167.808 130.782 167.914 130.334 168.272 130.174C168.617 130.021 169.036 130.24 169.234 130.561C169.432 130.882 169.466 131.274 169.494 131.651C169.006 131.695 168.517 131.74 168.029 131.784C167.767 131.808 167.705 131.428 167.746 131.169Z" fill="#00160A"/>
<path fill-rule="evenodd" clip-rule="evenodd" d="M171.987 135.794C171.829 135.761 171.667 135.726 171.536 135.633C171.441 135.566 171.367 135.471 171.326 135.363C172.43 134.897 173.836 135.319 174.501 136.315C173.663 136.141 172.825 135.967 171.987 135.794Z" fill="#00160A"/>
<path fill-rule="evenodd" clip-rule="evenodd" d="M169.716 129.067C169.996 128.618 170.696 128.828 171.119 129.146C171.536 129.459 171.91 129.831 172.225 130.246C172.212 130.491 171.832 130.435 171.627 130.302C170.99 129.89 170.353 129.478 169.716 129.067Z" fill="#00160A"/>
<path fill-rule="evenodd" clip-rule="evenodd" d="M154.402 136.474C154.849 136.321 155.295 136.169 155.742 136.016C155.921 135.955 156.112 135.893 156.296 135.938C156.479 135.983 156.638 136.183 156.567 136.358C155.69 136.686 154.801 136.984 153.904 137.251C153.761 137.128 153.79 136.885 153.914 136.743C154.037 136.601 154.224 136.535 154.402 136.474Z" fill="#00160A"/>
<path fill-rule="evenodd" clip-rule="evenodd" d="M158.107 130.844C158.278 130.959 158.365 131.16 158.445 131.35C158.55 131.602 158.657 131.875 158.6 132.142C158.543 132.41 158.243 132.641 157.997 132.521C157.718 132.385 157.416 132.884 157.141 132.739C157.011 132.671 156.986 132.499 156.977 132.353C156.951 131.959 156.93 131.541 157.117 131.193C157.304 130.846 157.78 130.623 158.107 130.844Z" fill="#00160A"/>
<path fill-rule="evenodd" clip-rule="evenodd" d="M154.7 130.668C155.112 129.656 156.292 129.023 157.362 129.239C157.508 129.269 157.688 129.378 157.636 129.517C157.609 129.59 157.527 129.626 157.453 129.653C156.536 129.991 155.618 130.33 154.7 130.668Z" fill="#00160A"/>
<path fill-rule="evenodd" clip-rule="evenodd" d="M160.165 135.781C159.935 135.81 159.641 135.788 159.554 135.572C159.709 135.449 159.894 135.318 160.087 135.363C160.28 135.408 160.35 135.744 160.156 135.785L160.165 135.781Z" fill="#00160A"/>
<path fill-rule="evenodd" clip-rule="evenodd" d="M164.783 135.45C165.026 135.41 165.154 135.069 164.997 134.879C164.841 134.689 164.482 134.749 164.395 134.979C164.309 135.21 164.541 135.491 164.783 135.45Z" fill="#00160A"/>
<path fill-rule="evenodd" clip-rule="evenodd" d="M159.392 137.096C159.052 137.047 158.615 136.826 158.72 136.498C159.094 136.283 159.559 136.467 159.986 136.529C160.414 136.591 160.992 136.357 160.921 135.93C160.993 136.11 161.064 136.29 161.136 136.47C161.571 136.353 161.978 136.13 162.309 135.825C162.497 135.653 162.664 135.356 162.497 135.164C162.112 134.717 162.531 133.881 163.119 133.922C163.707 133.963 164.006 134.849 163.562 135.238C163.447 135.338 163.563 135.523 163.682 135.619C164.514 136.287 165.674 136.525 166.702 136.237C167.162 136.109 167.749 135.92 168.041 136.297C166.575 137.356 164.347 137.172 163.075 135.887C162.359 137.055 160.748 137.292 159.392 137.096Z" fill="#00160A"/>
<path fill-rule="evenodd" clip-rule="evenodd" d="M166.3 135.087C166.442 135.15 166.464 135.379 166.337 135.469C166.211 135.558 166.002 135.461 165.989 135.307C166.042 135.192 166.166 135.114 166.293 135.115L166.3 135.087Z" fill="#00160A"/>
<path fill-rule="evenodd" clip-rule="evenodd" d="M160.977 135.248C161.125 135.475 161.559 135.193 161.411 134.965C161.263 134.738 160.829 135.021 160.977 135.248Z" fill="#00160A"/>
<path fill-rule="evenodd" clip-rule="evenodd" d="M148.654 67.6215C148.085 67.6848 147.471 67.8236 146.967 67.5513C147.563 66.9906 148.453 66.8815 149.271 66.9219C150.656 66.9903 152.023 67.4111 153.207 68.1339C152.959 68.5919 152.272 68.3668 151.8 68.1448C150.826 67.686 149.724 67.5027 148.654 67.6215Z" fill="#00160A"/>
<path fill-rule="evenodd" clip-rule="evenodd" d="M168.668 62.8608C168.577 62.5184 168.573 62.2385 168.885 62.0714C169.34 61.8282 170.775 61.8507 170.93 62.2047C171.085 62.5586 170.495 64.186 169.667 64.186C169.336 64.186 168.759 63.2032 168.668 62.8608Z" fill="#00160A"/>
<path fill-rule="evenodd" clip-rule="evenodd" d="M177.775 66.8929C175.993 67.0038 174.228 67.393 172.565 68.0421C172.337 68.1311 171.986 68.1658 171.934 67.9266C172.225 67.4386 172.808 67.2198 173.353 67.0605C174.573 66.7039 175.829 66.4702 177.096 66.3642C177.279 66.3489 177.474 66.3388 177.634 66.4289C177.795 66.5189 177.889 66.7489 177.775 66.8929Z" fill="#00160A"/>
<path fill-rule="evenodd" clip-rule="evenodd" d="M178.135 68.8917C176.725 69.0177 175.316 69.1437 173.907 69.2698C173.65 69.2927 173.265 69.121 173.413 68.9095C174.863 68.4565 176.385 68.2359 177.903 68.2586C178.279 68.2642 178.714 68.3182 178.912 68.6377C178.712 68.8319 178.412 68.867 178.135 68.8917Z" fill="#00160A"/>
<path fill-rule="evenodd" clip-rule="evenodd" d="M157.411 64.3037C157.113 64.655 156.507 64.5544 156.187 64.2224C155.867 63.8904 155.758 63.4142 155.662 62.9633C155.612 62.7282 155.567 62.4609 155.707 62.2655C155.854 62.0604 157.899 62.0458 157.996 62.2217C158.093 62.3975 158.033 62.5458 157.996 62.6824C157.929 62.9304 157.628 64.0494 157.411 64.3037Z" fill="#00160A"/>
<path fill-rule="evenodd" clip-rule="evenodd" d="M146.737 69.8781C148.514 69.1461 150.498 68.923 152.393 69.242C152.596 69.2761 152.819 69.3297 152.934 69.5001C153.05 69.6705 152.939 69.9751 152.735 69.9461C150.533 69.633 148.143 69.6558 146.269 70.8538C146.072 70.7418 146.058 70.443 146.184 70.2547C146.31 70.0665 146.528 69.9643 146.737 69.8781Z" fill="#00160A"/>
<path fill-rule="evenodd" clip-rule="evenodd" d="M159.785 71.6291C159.693 71.3659 159.89 71.0435 160.166 71.0039C160.276 71.0757 160.348 71.2024 160.354 71.3337C160.268 71.5366 160.042 71.6707 159.823 71.6489L159.785 71.6291Z" fill="#00160A"/>
<path fill-rule="evenodd" clip-rule="evenodd" d="M156.91 60.2227C157.218 60.2274 157.64 60.4335 157.505 60.7103C156.167 60.7888 154.845 61.143 153.647 61.7443C153.47 61.7266 153.387 61.4921 153.455 61.3281C153.523 61.1642 153.685 61.0619 153.841 60.9771C154.777 60.469 155.845 60.2065 156.91 60.2227Z" fill="#00160A"/>
<path fill-rule="evenodd" clip-rule="evenodd" d="M164.379 71.4043C164.574 71.1944 164.967 71.2289 165.122 71.4697C164.97 71.7601 164.459 71.7313 164.341 71.4257L164.379 71.4043Z" fill="#00160A"/>
<path fill-rule="evenodd" clip-rule="evenodd" d="M165.735 71.2645C165.871 71.0671 166.256 71.2379 166.201 71.4711C166.144 71.5885 166.016 71.6682 165.886 71.6681C165.736 71.6105 165.662 71.409 165.739 71.2678L165.735 71.2645Z" fill="#00160A"/>
<path fill-rule="evenodd" clip-rule="evenodd" d="M161.131 70.1915C160.996 70.3889 160.61 70.2181 160.665 69.9849C160.722 69.8675 160.85 69.7878 160.98 69.7879C161.131 69.8455 161.205 70.047 161.128 70.1882L161.131 70.1915Z" fill="#00160A"/>
<path fill-rule="evenodd" clip-rule="evenodd" d="M158.857 70.7307C158.845 70.9596 159.13 71.1442 159.334 71.04C159.538 70.9357 159.556 70.5967 159.363 70.4721C159.171 70.3474 158.869 70.5018 158.857 70.7307Z" fill="#00160A"/>
<path fill-rule="evenodd" clip-rule="evenodd" d="M164.661 70.5879C164.856 70.7337 165.187 70.5919 165.216 70.3504C165.245 70.1089 164.957 69.893 164.733 69.9888C164.509 70.0845 164.467 70.4421 164.661 70.5879Z" fill="#00160A"/>
<path fill-rule="evenodd" clip-rule="evenodd" d="M168.274 60.9077C169.419 60.0793 171.003 60.4593 172.354 60.8729C172.566 60.9377 172.83 61.1319 172.708 61.3163C172.635 61.4263 172.476 61.4226 172.345 61.4066C170.988 61.2403 169.631 61.074 168.274 60.9077Z" fill="#00160A"/>
<path fill-rule="evenodd" clip-rule="evenodd" d="M163.156 70.5883C163.568 71.8682 165.048 72.6982 166.355 72.382C166.93 72.243 167.586 71.9305 168.058 72.2875C167.231 72.9795 166.068 73.2486 165.022 72.9899C163.975 72.7312 163.071 71.9511 162.662 70.9536C161.852 72.0831 160.567 72.8601 159.19 73.053C158.985 73.0818 158.751 73.0903 158.596 72.9527C158.44 72.8151 158.481 72.4871 158.688 72.4727C159.825 72.3935 160.927 71.8945 161.736 71.0928C162.175 70.6576 162.537 69.958 162.185 69.4491C161.858 68.9749 161.595 68.4566 161.405 67.9126C161.335 67.711 161.28 67.4688 161.41 67.299C161.505 67.1735 161.672 67.1303 161.826 67.095C162.294 66.9879 162.777 66.8802 163.249 66.9695C163.72 67.0588 164.179 67.3996 164.248 67.8741C164.396 68.8767 162.846 69.6237 163.156 70.5883Z" fill="#00160A"/>
<path fill-rule="evenodd" clip-rule="evenodd" d="M69.8817 67.1319C69.9833 66.8366 70.5333 66.9387 70.522 67.2509C70.4068 67.5442 69.8613 67.4363 69.8665 67.1212L69.8817 67.1319Z" fill="#00160A"/>
<path fill-rule="evenodd" clip-rule="evenodd" d="M64.9187 68.4901C64.8561 68.1751 64.2544 68.2947 64.3171 68.6097C64.3797 68.9247 64.9813 68.8051 64.9187 68.4901Z" fill="#00160A"/>
<path fill-rule="evenodd" clip-rule="evenodd" d="M65.7723 69.0236C65.9164 68.846 66.1704 68.7661 66.3903 68.8293C66.4622 68.9188 66.4849 69.0457 66.4485 69.1546C66.2854 69.221 66.1223 69.2874 65.9593 69.3538C65.8902 69.2496 65.8211 69.1454 65.752 69.0412L65.7723 69.0236Z" fill="#00160A"/>
<path fill-rule="evenodd" clip-rule="evenodd" d="M65.8445 68.2768C65.735 68.2005 65.6614 68.0748 65.6484 67.942C65.7674 67.695 66.1884 67.6921 66.3108 67.9375C66.1983 68.0993 66.0317 68.2228 65.8442 68.2834L65.8445 68.2768Z" fill="#00160A"/>
<path fill-rule="evenodd" clip-rule="evenodd" d="M62.0105 69.0905C61.8475 69.303 61.4796 69.027 61.5237 68.7628C61.5677 68.4986 61.8149 68.3267 62.0242 68.1596C62.4709 67.8031 62.8309 67.3382 63.3172 67.0381C63.8035 66.7379 64.4999 66.6513 64.9055 67.0539C63.7643 67.419 62.7397 68.1398 62.0105 69.0905Z" fill="#00160A"/>
<path fill-rule="evenodd" clip-rule="evenodd" d="M60.616 66.2019C61.2774 65.5829 62.0998 65.1375 62.9795 64.9216C63.1673 64.8756 63.3726 64.8413 63.5483 64.922C63.724 65.0028 63.8352 65.2445 63.7173 65.3978C62.5979 65.5965 61.5444 66.1512 60.747 66.9616C60.602 67.109 60.3269 66.9311 60.3196 66.7245C60.3122 66.5178 60.465 66.3432 60.616 66.2019Z" fill="#00160A"/>
<path fill-rule="evenodd" clip-rule="evenodd" d="M68.9901 67.3332C68.97 67.1814 69.23 67.2643 69.3076 67.3962C69.2019 67.5539 69.0962 67.7116 68.9905 67.8693C68.7709 67.7984 68.7608 67.422 68.9762 67.3394L68.9901 67.3332Z" fill="#00160A"/>
<path fill-rule="evenodd" clip-rule="evenodd" d="M75.5315 66.508C74.5745 66.2133 73.6174 65.9186 72.6604 65.6239C72.4366 65.555 72.1915 65.4694 72.0779 65.2646C73.399 64.9656 74.8517 65.3195 75.8874 66.1925C75.931 66.2293 75.9761 66.2703 75.9904 66.3256C76.0409 66.5213 75.7248 66.5675 75.5315 66.508Z" fill="#00160A"/>
<path fill-rule="evenodd" clip-rule="evenodd" d="M69.1933 68.2288C69.2998 68.1011 69.5262 68.1046 69.6287 68.2355C69.7313 68.3664 69.6804 68.5871 69.5309 68.6599C69.3084 68.6379 69.1173 68.4375 69.106 68.2142L69.1933 68.2288Z" fill="#00160A"/>
<path fill-rule="evenodd" clip-rule="evenodd" d="M74.8561 68.583C73.8635 68.2346 72.8709 67.8862 71.8782 67.5378C71.7971 67.5093 71.7111 67.4774 71.6591 67.409C71.5448 67.2587 71.677 67.0249 71.8572 66.9687C72.0374 66.9125 72.2308 66.9755 72.4089 67.0379C72.9437 67.2254 73.4786 67.4129 74.0134 67.6005C74.4713 67.761 75.0353 68.1321 74.8561 68.583Z" fill="#00160A"/>
<path fill-rule="evenodd" clip-rule="evenodd" d="M204.852 25.4809C208.456 26.9404 210.908 30.4538 212.045 34.172C213.182 37.8902 213.193 41.8459 213.195 45.7341C213.207 74.542 213.218 103.35 213.23 132.158C213.23 136.372 213.197 140.752 211.369 144.55C209.693 148.031 206.52 150.76 202.827 151.897C200.148 152.722 197.294 152.728 194.49 152.728C141.398 152.718 88.3065 152.709 35.2146 152.7C32.5695 152.699 29.7413 152.645 27.564 151.143C24.0773 148.738 23.7325 143.81 23.7312 139.574C23.7208 106.66 23.7104 73.7449 23.7 40.8302C23.7 38.3837 23.7086 35.8773 24.5539 33.5816C26.0131 29.619 29.8034 26.8799 33.8329 25.6172C37.8624 24.3545 42.1625 24.3479 46.3851 24.352C55.9402 24.3629 65.4954 24.3733 75.0505 24.3837C115.838 24.4282 156.626 24.4727 197.414 24.5172C199.931 24.52 202.52 24.5362 204.852 25.4809ZM116.025 152.036C116.003 131.091 115.98 110.147 115.957 89.202C85.8324 89.2142 55.7073 89.2265 25.5822 89.2387C25.323 89.2388 25.0327 89.2515 24.854 89.4393C24.6861 89.6156 24.6761 89.885 24.6759 90.1284C24.6624 107.704 24.6489 125.279 24.6353 142.855C24.6353 143.771 24.6353 144.695 24.8286 145.589C25.4696 148.55 28.1689 150.714 31.062 151.612C33.9551 152.51 37.0527 152.374 40.0798 152.261C51.8006 151.823 63.5333 151.862 75.2622 151.901C88.8499 151.946 102.438 151.991 116.025 152.036ZM116.799 89.2937C116.817 110.183 116.834 131.072 116.852 151.961C143.257 151.937 169.662 151.912 196.067 151.888C198.053 151.886 200.06 151.881 201.991 151.42C206.535 150.333 210.293 146.608 211.631 142.132C212.422 139.487 212.422 136.681 212.416 133.921C212.382 119.008 212.348 104.096 212.314 89.1835C180.475 89.2202 148.637 89.257 116.799 89.2937ZM116.789 25.4527C116.817 46.3965 116.844 67.3402 116.872 88.284C148.42 88.2862 179.968 88.2883 211.516 88.2905C211.778 88.2905 212.08 88.2724 212.24 88.0642C212.355 87.9149 212.36 87.7113 212.36 87.5229C212.365 72.2568 212.37 56.9907 212.374 41.7246C212.374 39.471 212.372 37.1887 211.807 35.0071C210.262 29.0457 204.127 24.6317 197.984 25.0619C193.429 25.3809 188.858 25.3853 184.291 25.3896C161.791 25.4106 139.29 25.4317 116.789 25.4527ZM116.024 88.2031C115.999 67.2618 115.974 46.3206 115.949 25.3793C89.9374 25.37 63.9261 25.3608 37.9149 25.3515C31.7804 25.3493 25.9935 30.1777 24.8967 36.2134C24.6108 37.7871 24.6125 39.397 24.6147 40.9965C24.6411 56.736 24.667 72.4755 24.693 88.215C55.1364 88.3414 85.5803 88.3374 116.024 88.2031Z" fill="#00160A"/>
<path fill-rule="evenodd" clip-rule="evenodd" d="M68.2554 67.3349C68.0704 67.8192 68.3056 68.3798 68.6777 68.7408C69.2201 69.267 70.0557 69.4687 70.7785 69.248C71.2986 69.0891 71.9288 68.7553 72.3138 69.1394C71.1669 70.2947 68.9893 70.1319 68.0269 68.819C67.7262 69.6029 67.0379 70.2271 66.2284 70.45C65.4188 70.6729 64.508 70.489 63.8484 69.9695C64.3331 69.5677 65.0519 69.8812 65.6815 69.8848C66.3473 69.8886 66.9984 69.4811 67.286 68.8807C67.5736 68.2802 67.4831 67.5174 67.0628 67.0011C66.6342 66.4744 66.3024 65.8692 66.0889 65.2246C66.0395 65.0752 65.9963 64.9128 66.0441 64.7629C66.142 64.4561 66.5359 64.3834 66.8575 64.3673C67.5167 64.3342 68.1766 64.3164 68.8367 64.3137C69.1537 64.3124 69.5381 64.3553 69.6712 64.643C69.759 64.8326 69.6957 65.0554 69.6187 65.2496C69.4181 65.7556 69.1295 66.2265 68.7698 66.635C68.5773 66.8537 68.3593 67.0628 68.2554 67.3349Z" fill="#00160A"/>
<path fill-rule="evenodd" clip-rule="evenodd" d="M73.8982 54.4483C72.9227 54.2669 71.895 54.3762 70.9794 54.7586C70.8522 54.8118 70.7054 54.87 70.5826 54.8072C70.4327 54.7306 70.4172 54.5062 70.5105 54.366C70.6037 54.2259 70.7672 54.1519 70.9243 54.0916C72.5436 53.4707 74.4327 53.5977 75.9543 54.4295C75.3745 54.8332 74.5927 54.5775 73.8982 54.4483Z" fill="#00160A"/>
<path fill-rule="evenodd" clip-rule="evenodd" d="M73.4205 59.3791C73.3383 59.5401 73.2392 59.7058 73.078 59.7878C72.8389 59.9094 72.5285 59.7957 72.3654 59.5827C72.2022 59.3697 72.1628 59.0847 72.1827 58.8172C72.2233 58.2708 72.6962 57.6575 73.2119 57.8426C73.7648 58.0411 73.6878 58.8559 73.4205 59.3791Z" fill="#00160A"/>
<path fill-rule="evenodd" clip-rule="evenodd" d="M63.9511 58.4449C64.0092 58.9094 63.8038 59.4296 63.3791 59.6264C62.9543 59.8232 62.35 59.5566 62.3046 59.0907C62.2888 58.9286 62.3361 58.7676 62.3857 58.6125C62.5303 58.1598 62.8273 57.6277 63.3007 57.6682C63.665 57.6993 63.9056 58.0821 63.9511 58.4449Z" fill="#00160A"/>
<path fill-rule="evenodd" clip-rule="evenodd" d="M59.8141 55.1162C59.7384 54.8734 60.0324 54.688 60.2752 54.6121C61.7053 54.1651 63.2513 54.0943 64.7164 54.4085C64.9318 54.4547 65.1691 54.5262 65.2766 54.7186C65.3842 54.9109 65.2196 55.2259 65.0103 55.1571C63.5712 54.6841 61.9732 54.7106 60.5506 55.231C60.2877 55.3271 59.8975 55.3835 59.8141 55.1162Z" fill="#00160A"/>
<path fill-rule="evenodd" clip-rule="evenodd" d="M80.929 42.8912C80.7884 45.1222 80.6478 47.3598 80.7796 49.5912C80.8823 51.3282 81.1498 53.0553 81.1743 54.7951C81.245 59.8236 79.2735 64.6941 76.5919 68.9484C83.0302 73.2786 87.8838 79.9123 90.0625 87.3591C89.1344 86.7802 88.7352 85.6579 88.3455 84.6357C86.1935 78.991 82.4065 73.9805 77.5633 70.3698C76.8687 69.852 75.6881 69.4606 75.304 70.2371C74.4362 71.9915 73.1536 73.539 71.5907 74.7172C71.0237 75.1446 70.3891 75.5671 69.946 76.1037C69.9499 76.1476 69.9517 76.1918 69.9517 76.2364C69.9517 77.1439 69.216 77.8796 68.3085 77.8796C67.6916 77.8796 67.1541 77.5397 66.8731 77.0369C62.7823 75.2384 59.4536 71.7469 57.8879 67.5571C54.8968 69.6314 53.1722 73.1613 52.511 76.7406C51.8498 80.32 52.1308 83.9981 52.4142 87.627C52.1155 87.8294 51.8361 87.3404 51.802 86.9813C51.4568 83.3479 51.2631 79.6486 52.0169 76.0776C52.7708 72.5066 54.5724 69.0358 57.5486 66.9234C54.7864 60.9097 55.8606 53.5323 52.491 47.8368C52.2909 47.4986 52.1225 46.9711 52.4728 46.7931C52.6027 46.727 52.7579 46.7475 52.9015 46.7719C55.2511 47.1705 57.4899 48.2038 59.3176 49.7331C59.789 50.1276 60.4945 49.8397 61.0453 49.5669C65.2791 47.4702 70.335 47.0946 74.8321 48.5426C75.9621 46.3716 77.6265 44.4813 79.637 43.0856C80.0249 42.8163 80.58 42.5732 80.929 42.8912ZM66.4057 72.2348C67.8548 72.3618 69.331 72.4873 70.7511 72.172C73.9993 71.4509 76.3297 68.577 77.8179 65.6011C79.522 62.1934 80.4767 58.4135 80.595 54.6053C79.5444 55.4503 78.4938 56.2953 77.4432 57.1403C76.8209 57.6407 76.1412 58.2568 76.1532 59.0552C76.1702 60.1906 75.4668 61.305 74.4347 61.7782C73.4025 62.2513 72.0991 62.0568 71.25 61.3029C70.2918 60.452 69.7476 58.9116 68.4711 58.7994C66.9657 58.6671 66.2485 60.5973 65.0372 61.5009C63.4936 62.6523 61.0022 61.7878 60.2317 60.0229C60.0851 59.6872 60.1375 59.0914 59.8017 58.887C58.731 58.2352 57.5486 58.2114 56.1533 58.2578C56.4019 61.298 57.1379 64.2978 58.3245 67.1079C58.8503 68.353 59.4911 69.5963 60.5232 70.469C62.113 71.8133 64.3316 72.0529 66.4057 72.2348ZM75.1281 49.2319C74.6598 50.1256 73.8741 51.244 72.932 50.8832C73.5371 50.3647 74.0599 49.7503 74.4749 49.07C69.7865 47.7335 64.5926 48.2665 60.2733 50.5273C60.645 50.9773 61.1023 51.3563 61.6133 51.6382C61.0726 52.1533 60.2383 51.5221 59.7267 50.9781C57.9855 49.1268 55.6051 47.8882 53.0897 47.5247C54.1219 49.181 55.0762 52.4622 55.9526 57.3684C57.3728 57.6895 58.3273 57.8552 58.8163 57.8657C59.379 57.8777 60.0645 57.8193 60.3105 57.313C60.9604 55.9756 62.5879 55.1955 64.0375 55.5265C65.4871 55.8575 66.6146 57.2667 66.6196 58.7536C67.5598 58.1377 68.8177 58.04 69.8418 58.5032C69.9485 57.2377 70.9071 56.0882 72.1327 55.7559C73.3584 55.4235 74.7663 55.9313 75.4977 56.9694C75.8159 57.421 76.52 57.0893 76.942 56.7328C77.8165 55.9942 78.691 55.2556 79.5655 54.5169C80.0582 54.1007 80.6002 53.5608 80.4969 52.9241C79.9854 49.771 79.9215 46.5456 80.3078 43.3748C78.1435 44.8722 76.3496 46.9008 75.1281 49.2319ZM72.893 71.9338C70.7883 73.3633 68.0104 73.1141 65.4846 72.8083C64.1048 72.6412 62.6771 72.458 61.4909 71.7337C61.2471 71.5848 60.9275 71.4145 60.7023 71.5902C62.1165 73.3549 63.9476 74.7833 66.0035 75.7254C66.309 75.8654 66.7595 75.9479 66.9043 75.6446C67.2373 74.9472 68.2479 74.6888 68.8748 75.1408C69.3848 75.5085 70.0898 75.1554 70.5937 74.7795C71.7253 73.9354 72.7582 72.959 73.6646 71.8766C73.5319 71.6138 73.1365 71.7684 72.893 71.9338ZM60.9577 60.0869C61.5922 61.1578 63.0398 61.6625 64.2026 61.2182C65.3654 60.7739 66.1075 59.4325 65.8662 58.2114C65.6248 56.9902 64.4282 56.0319 63.1838 56.0634C61.9394 56.0948 60.7927 57.1122 60.6133 58.344C60.5263 58.9415 60.65 59.5675 60.9577 60.0869ZM70.624 58.2352C70.4746 59.1198 70.821 60.0524 71.4486 60.6934C71.9097 61.1644 72.5451 61.4971 73.2038 61.4727C74.3812 61.4291 75.2376 60.3033 75.6008 59.1825C75.6955 58.8902 75.77 58.5794 75.7124 58.2775C75.6376 57.8857 75.3531 57.5692 75.0559 57.3032C74.31 56.6356 73.3038 56.1296 72.3283 56.3538C71.4539 56.5547 70.7735 57.3506 70.624 58.2352Z" fill="#00160A"/>
</svg>
