<svg width="237" height="198" viewBox="0 0 237 198" fill="none" xmlns="http://www.w3.org/2000/svg">
<path fill-rule="evenodd" clip-rule="evenodd" d="M107.267 52.0701C106.759 51.3597 105.48 50.6854 104.361 50.7408C103.241 50.7963 102.187 51.2592 101.182 51.7513C101.949 52.3108 102.812 52.7412 103.723 53.0185C104.011 53.1062 104.664 53.3647 106.071 52.7837" fill="#E7EAEE"/>
<path fill-rule="evenodd" clip-rule="evenodd" d="M28.8685 129.292C6.29425e-05 90.1241 77.3328 79.5899 123.269 49.5206C148.301 33.1352 159.749 15.2109 181.384 15.6977C225.613 16.6927 227.423 100.24 218.031 115.249C182.615 171.841 40.8173 145.504 28.8685 129.292Z" fill="#FFC2B5"/>
<path fill-rule="evenodd" clip-rule="evenodd" d="M120.396 76.2422C130.043 76.2422 139.859 77.1539 148.517 81.4808C149.538 81.9908 150.715 82.9385 150.347 84.0301C150.209 84.44 149.871 84.7438 149.536 85.0119C145.612 88.1462 140.398 88.9423 135.434 89.5053C133.505 89.7241 131.574 89.9241 129.639 90.0862C114.291 91.3716 98.7484 90.2432 83.7373 86.7538C82.8535 86.5484 81.8241 86.1986 81.5786 85.3136C81.2803 84.2377 82.3595 83.3185 83.3151 82.7614C90.7094 78.4509 99.1597 76.0191 107.685 75.7486C106.168 75.9849 127.866 76.2979 120.396 76.2422Z" fill="white"/>
<path fill-rule="evenodd" clip-rule="evenodd" d="M175.745 45.6176C173.754 49.6261 172.09 53.8736 171.631 58.3321C171.611 58.5243 171.596 58.7292 171.685 58.9003C171.866 59.2462 172.342 59.2634 172.729 59.2379C181.694 58.6473 190.961 60.4116 198.567 65.2289C201.167 66.8754 203.555 68.86 206.252 70.3406C206.37 70.4059 206.506 70.4722 206.636 70.4342C206.767 70.3958 206.846 70.2651 206.912 70.1448C208.551 67.1659 210.002 64.0827 211.255 60.9196C211.699 59.7983 212.122 58.65 212.232 57.4478C212.509 54.4213 210.518 51.333 207.661 50.3576C200.338 47.8575 193.014 45.3575 185.691 42.8574C184.353 42.4005 182.996 41.9397 181.586 41.8377C180.177 41.7356 178.684 42.0307 177.597 42.9407C176.761 43.641 176.232 44.6376 175.745 45.6176Z" fill="white"/>
<path d="M148.823 140.788C148.809 141.543 150.62 142.104 151.173 141.588C151.727 141.072 151.792 140.234 151.821 139.48C152.216 129.308 152.295 119.446 152.085 109.269L178.813 116.185L177.618 143.206C177.582 143.971 178.768 144.256 179.346 143.752C179.925 143.247 180.019 142.399 180.073 141.635C180.623 133.764 180.721 125.856 181.154 117.991C181.384 113.824 186.746 113.824 191.957 108.685C194.551 106.126 196.765 102.596 196.765 102.596C197.177 112.152 197.972 121.733 197.256 131.272C197.201 131.997 198.325 132.291 198.88 131.819C199.412 131.367 199.523 130.607 199.578 129.906L199.585 129.818C200.323 119.833 201.176 98.4654 202.24 84.4687C202.643 79.1692 203.784 74.0919 204.452 71.0796C204.747 69.75 203.824 69.7729 201.977 68.9433C201.22 68.6038 199.53 71.0939 198.764 78.1618L198.726 78.5338C198.449 81.3457 198.207 86.6527 198.001 94.4549C197.667 96.2428 195.652 96.6561 191.957 95.6947L191.812 95.6566C188.025 94.6466 182.215 92.8024 174.384 90.1241L174.33 89.3858C173.476 77.5242 173.767 69.2347 175.202 64.5173L175.247 64.3726C177.502 57.1915 173.737 60.1605 173.309 60.7341C170.445 64.5747 169.828 69.4828 169.846 73.9076L169.901 87.2105C169.901 88.5994 169.834 90.0493 169.073 91.2008C168.42 92.1892 167.351 92.8061 166.305 93.3737L153.377 100.365C152.186 101.014 151 101.701 150.062 102.675C149.03 103.746 148.328 105.239 148.567 106.705C148.726 107.683 149.125 108.444 149.765 108.988L149.531 115.83C149.175 126.487 148.939 134.806 148.823 140.788Z" fill="white"/>
<path d="M85.6486 141.42C85.6632 142.175 84.4842 142.42 83.9308 141.904C83.3775 141.388 83.312 140.55 83.2827 139.796C82.8882 129.624 82.4936 119.446 82.703 109.269C73.7771 111.94 64.8511 114.611 55.9252 117.283C56.3401 125.924 56.7549 134.565 57.1698 143.206C57.2066 143.971 56.02 144.256 55.4418 143.751C54.8635 143.247 54.7687 142.399 54.7152 141.635C54.1647 133.764 53.804 125.879 53.6338 117.991C53.6126 117.008 52.8348 116.229 52.1107 115.563C47.4147 111.24 42.7187 106.918 38.0227 102.596C37.6108 112.152 37.7638 121.733 38.4805 131.272C38.535 131.997 37.4113 132.291 36.8565 131.819C36.3017 131.348 36.2051 130.543 36.1515 129.818C34.9964 114.197 35.7797 98.4804 34.6142 82.8598C34.334 79.105 33.9284 75.3032 32.5481 71.7987C35.0195 71.2245 63.8895 65.2837 61.4436 61.5286C64.7399 64.4899 64.9601 69.4828 64.9418 73.9076C64.9238 78.2496 64.9058 82.5916 64.8878 86.9336C64.8817 88.4047 64.903 89.9725 65.7148 91.2008C66.3941 92.2287 67.5233 92.8548 68.6084 93.4416C72.7567 95.6847 76.905 97.9279 81.0533 100.171C82.3625 100.879 83.6943 101.604 84.726 102.675C85.7576 103.746 86.4598 105.239 86.2215 106.705C85.9831 108.172 84.5894 109.471 83.1135 109.274C84.6773 109.607 84.5262 109.254 85.0229 108.988C85.2315 119.799 85.4401 130.609 85.6486 141.42Z" fill="white"/>
<path d="M34.4691 74.5615C34.0394 73.2619 33.6097 71.9624 33.1799 70.6628C33.7785 70.8121 55.1 63.2804 59.0215 62.1417C59.4048 62.0304 59.6219 61.9802 59.6371 62.0042C62.2112 66.0752 62.2709 71.1879 62.2495 76.0034C62.2296 80.4755 62.2097 84.9476 62.1898 89.4197C62.1854 90.4049 61.9869 91.6546 61.0309 91.8952C55.3743 93.3185 49.798 95.0603 44.3372 97.1096C42.7268 97.714 41.0431 98.3563 39.3362 98.1427C38.439 98.0304 37.5897 97.6856 36.7525 97.344C36.2093 97.1224 35.5738 96.7712 35.5754 96.1849C35.5881 91.3925 35.6008 86.6 35.6135 81.8076C35.6169 80.5372 35.6197 79.2598 35.4129 78.0062C35.2189 76.8303 34.8433 75.6931 34.4691 74.5615Z" fill="white"/>
<path fill-rule="evenodd" clip-rule="evenodd" d="M24.0179 61.1981L26.9048 68.6723C27.1825 69.3914 27.4917 70.1521 28.1213 70.6001C29.1731 71.3484 30.6266 70.9281 31.8287 70.4548C34.2744 69.4919 36.6732 68.4165 39.072 67.3411L39.0721 67.341L39.0721 67.341C41.6784 66.1726 44.2845 65.0042 46.9506 63.9802C52.0704 62.0138 57.5019 60.5752 62.9838 60.8229C63.859 60.8624 64.5785 60.0371 64.7337 59.1786C64.8889 58.3201 64.6261 57.4474 64.3661 56.6144L62.406 50.3334C61.7382 48.1936 61.0369 45.9914 59.5881 44.2767C58.1392 42.562 55.7357 41.4425 53.6016 42.154L27.7747 50.7642C24.7343 51.7778 22.67 55.1196 23.133 58.2785C23.2807 59.2866 23.6506 60.2472 24.0179 61.1981ZM58.1058 43.6233C60.2132 45.452 61.2124 48.2091 62.0832 50.8538C62.8293 53.1198 63.5431 55.3991 64.0859 57.7216C64.2057 58.2343 64.3171 58.7709 64.1901 59.2818C64.063 59.7928 63.6239 60.2663 63.0953 60.2552C57.897 60.1458 52.746 61.3533 47.8442 63.0797C44.2544 64.3439 40.7738 65.8855 37.2932 67.4271L37.2931 67.4271L37.2931 67.4272C36.021 67.9906 34.749 68.5539 33.4716 69.1038C32.4429 69.5466 31.3975 69.9845 30.2903 70.1576C29.3967 70.2973 28.2425 70.0914 28.0037 69.2228C27.5874 67.709 26.968 66.2646 26.3481 64.8193C25.9402 63.8682 25.5321 62.9166 25.1816 61.9446C24.2984 59.4954 23.791 56.7705 24.6317 54.3066C24.8922 53.5432 25.2927 52.8043 25.9166 52.2903C26.4697 51.8347 27.1601 51.5843 27.8358 51.3432C36.1762 48.3681 44.5744 45.5541 53.0244 42.9034C53.948 42.6136 54.9127 42.3224 55.8693 42.4718C56.7096 42.6031 57.4646 43.0669 58.1058 43.6233ZM33.1801 70.6628L34.4693 74.5615C34.8435 75.6931 35.2191 76.8303 35.4131 78.0062C35.6199 79.2597 35.6171 80.5372 35.6137 81.8076L35.5756 96.1848C35.574 96.7712 36.2095 97.1224 36.7527 97.344C37.5899 97.6856 38.4391 98.0304 39.3364 98.1426C41.0229 98.3537 42.6867 97.7292 44.2795 97.1313L44.3373 97.1096C49.7981 95.0602 55.3745 93.3184 61.0311 91.8952C61.9871 91.6546 62.1856 90.4048 62.19 89.4197L62.2496 76.0034C62.271 71.1879 62.2114 66.0752 59.6373 62.0042C59.4667 61.7345 59.1777 61.4345 58.8827 61.5567C60.3118 64.0477 61.2057 66.8437 61.4865 69.7014C61.6157 71.016 61.6167 72.3395 61.6175 73.6605L61.628 89.4427C61.6285 90.2381 61.4744 91.2473 60.7041 91.4477C55.813 92.7203 50.9083 93.9972 46.202 95.8387C46.0166 95.9112 45.8304 95.9848 45.6436 96.0586C43.3027 96.9837 40.8597 97.9491 38.4051 97.4969C37.2496 97.284 35.9861 96.4997 36.0091 95.3258L36.1855 86.3197C36.2795 81.5179 36.3437 76.5515 34.4781 72.1254C34.2152 71.5017 33.8372 70.8267 33.1801 70.6628ZM63.2001 93.7932C57.0879 94.8174 51.0872 96.4701 45.3305 98.7148C44.3874 99.0826 43.451 99.4661 42.5145 99.8497L42.5145 99.8497L42.5145 99.8497L42.5144 99.8497L42.5144 99.8497L42.5144 99.8497L42.5143 99.8497L42.5143 99.8497L42.5142 99.8498L42.5142 99.8498L42.5142 99.8498L42.5141 99.8498L42.5141 99.8498L42.5141 99.8498L42.514 99.8498L42.514 99.8498L42.514 99.8498L42.5139 99.8499L42.5139 99.8499L42.5139 99.8499L42.5138 99.8499L41.179 100.397C40.876 100.099 41.3301 99.6487 41.7218 99.4742C48.2034 96.5856 55.0913 94.5606 62.133 93.4732C62.5337 93.4114 63.0637 93.4216 63.2001 93.7932ZM54.3709 51.3761C54.3022 51.7044 54.4289 52.0521 54.6403 52.3084C54.8707 52.5878 55.263 52.7809 55.5857 52.6249C56.0362 52.407 56.0035 51.7129 55.7373 51.2811C55.584 51.0323 55.3507 50.8037 55.0644 50.7857C54.7377 50.765 54.4396 51.0478 54.3709 51.3761ZM55.3318 52.1535C55.099 52.2578 54.7962 52.0288 54.8246 51.7699C54.8529 51.511 55.1976 51.3565 55.402 51.5111C55.6065 51.6657 55.5645 52.0492 55.3318 52.1535ZM41.0526 56.4621C40.7098 56.0702 40.6374 55.3541 41.0283 55.0201C41.1039 54.9556 41.1937 54.9083 41.289 54.896C41.5054 54.868 41.7054 55.0189 41.8672 55.1783C42.2262 55.5322 42.5211 56.1467 42.2188 56.5588C41.9426 56.9351 41.3577 56.8109 41.0526 56.4621ZM41.6778 55.5976C41.5956 55.5124 41.4963 55.4209 41.384 55.4383C41.1687 55.4716 41.1736 55.822 41.2782 56.03C41.3961 56.2646 41.6841 56.4819 41.8633 56.2994C42.0472 56.1121 41.8603 55.7867 41.6778 55.5976ZM34.6476 57.8492C34.4527 58.011 34.4286 58.2891 34.451 58.5341C34.4772 58.8205 34.5531 59.1139 34.7443 59.3368C34.9355 59.5598 35.2631 59.6945 35.5505 59.6042C35.8273 59.5172 36.0052 59.2396 36.0225 58.9632C36.0397 58.6868 35.9205 58.4162 35.7545 58.1886C35.5045 57.846 34.978 57.5749 34.6476 57.8492ZM35.0238 58.2888C35.1934 58.1744 35.496 58.3655 35.388 58.5344L35.4756 58.7088C35.6941 58.7343 35.6526 59.1021 35.4383 59.1499C35.2241 59.1977 35.0197 59.0221 34.9335 58.8297C34.8522 58.6479 34.8542 58.4031 35.0238 58.2888ZM46.9473 47.9606C47.1687 48.0006 47.3939 48.0761 47.5506 48.237C47.7073 48.3979 47.7741 48.6618 47.6559 48.8526C47.5538 49.0174 47.3509 49.0859 47.162 49.1317C46.8855 49.1988 46.591 49.2427 46.3196 49.1577C46.0481 49.0726 45.8097 48.8254 45.8205 48.542C45.8386 48.063 46.474 47.8751 46.9473 47.9606ZM46.7654 48.4442C46.5703 48.3351 46.2864 48.4584 46.2337 48.675C46.5614 48.8721 47.0043 48.8589 47.3197 48.6427C47.2535 48.4399 46.9803 48.3373 46.7963 48.4461L46.7654 48.4442ZM84.7007 140.788L84.0749 108.356C83.5782 108.622 83.5267 109.3 83.5387 109.862L84.2146 141.324C83.3025 141.386 82.949 140.173 82.9106 139.262C82.4804 129.061 82.232 118.852 82.1655 108.642C83.6415 108.839 85.0351 107.54 85.2735 106.073C85.5119 104.607 84.8097 103.114 83.778 102.043C82.7463 100.972 81.4145 100.247 80.1053 99.5391L67.6604 92.8096C66.5753 92.2229 65.4461 91.5967 64.7668 90.5688C63.9551 89.3406 63.9338 87.7727 63.9398 86.3016L63.9938 73.2757C64.0121 68.8508 63.792 63.858 60.4957 60.8966C62.9415 64.6518 63.5749 69.3012 63.5923 73.7792C63.5989 75.4673 63.527 77.1565 63.4552 78.8451V78.8452C63.3365 81.6359 63.2179 84.425 63.4534 87.2051C63.5649 88.5215 63.7754 89.8843 64.5224 90.9753C65.1236 91.8534 66.0219 92.4797 66.9233 93.0474C69.0612 94.3939 71.3361 95.5286 73.6077 96.6616C77.1698 98.4383 80.7239 100.211 83.7293 102.79C84.4885 103.442 85.0533 104.923 84.0868 105.185C74.4488 107.794 64.9298 110.84 55.569 114.311C54.8446 114.58 54.098 114.022 53.5269 113.502L38.4982 99.8333C37.956 99.3401 37.0135 99.6646 36.6207 100.283C36.2278 100.901 36.2275 101.68 36.2399 102.412L36.7263 131.231C35.7092 130.252 35.5675 128.701 35.4992 127.293C35.1779 120.667 35.1028 114.029 35.0277 107.392C34.9192 97.7977 34.8107 88.2055 33.9584 78.6525C33.7219 76.0015 33.3522 73.1741 31.6001 71.1667C32.9804 74.6712 33.386 78.473 33.6662 82.2278C34.2505 90.0592 34.345 97.9148 34.4395 105.77C34.5335 113.583 34.6275 121.397 35.2035 129.186C35.2571 129.911 35.3537 130.716 35.9085 131.187C36.4633 131.659 37.587 131.365 37.5325 130.64C36.8158 121.101 36.6628 111.52 37.0747 101.964L51.1627 114.931C51.8868 115.597 52.6646 116.376 52.6858 117.359C52.856 125.247 53.2167 133.132 53.7672 141.003C53.8207 141.767 53.9155 142.615 54.4938 143.119C55.072 143.624 56.2586 143.339 56.2218 142.574L54.9772 116.651L81.755 108.637C81.5456 118.814 81.9402 128.992 82.3347 139.164C82.364 139.918 82.4295 140.756 82.9829 141.272C83.5362 141.788 84.7152 141.543 84.7007 140.788ZM52.6502 115.783L37.3939 101.299C37.1334 101.052 36.8517 100.684 37.0319 100.374C37.2726 99.9593 37.9079 100.25 38.2634 100.573L54.4623 115.253C64.3496 111.721 74.3592 108.529 84.4673 105.685C84.7434 106.064 84.5892 106.628 84.253 106.955C83.9169 107.281 83.4498 107.429 83.001 107.566L55.442 115.969C55.095 116.075 54.7173 116.204 54.5303 116.514C54.3833 116.758 54.3888 117.061 54.3995 117.345C54.5148 120.417 54.7104 123.486 54.9059 126.555C55.2621 132.144 55.6181 137.731 55.4888 143.326C53.8257 140.41 53.7227 136.894 53.6618 133.539L53.3858 118.328C53.3693 117.421 53.3096 116.409 52.6502 115.783ZM33.5692 54.1661C33.4594 54.2355 33.3271 54.2598 33.1979 54.2606C32.8076 54.263 32.4069 54.0302 32.2733 53.6572C32.1396 53.2842 32.3427 52.8026 32.7201 52.7016C33.0102 52.6239 33.3203 52.7712 33.5318 52.9876C33.8452 53.3083 33.9466 53.9273 33.5692 54.1661ZM33.0325 53.1663C32.7859 53.1056 32.6264 53.5038 32.7953 53.6964C32.9643 53.889 33.2754 53.8695 33.4986 53.7467L33.0399 53.1754L33.0325 53.1663ZM59.2592 47.9566L58.6627 47.4988C58.544 47.4077 58.4159 47.313 58.2707 47.3087C58.027 47.3015 57.8316 47.5726 57.8282 47.8385C57.8248 48.1044 57.9676 48.3489 58.1425 48.5343C58.3881 48.7946 58.7518 48.9752 59.073 48.8456C59.3942 48.716 59.5393 48.1715 59.2592 47.9566ZM58.2041 47.9666C58.2654 47.8183 58.4921 47.8057 58.5668 47.9466L58.5988 47.9755C58.8404 48.0025 59.0329 48.2785 58.9922 48.5395C58.674 48.4722 58.3835 48.261 58.2041 47.9666ZM48.7863 58.7318C48.6915 58.5511 48.6292 58.3365 48.6855 58.139C48.8012 57.7333 49.3441 57.644 49.708 57.8277C50.1746 58.0634 50.4443 58.7906 50.063 59.1581C49.6839 59.5235 49.0345 59.2049 48.7863 58.7318ZM49.3446 58.7448L49.7017 58.9102C49.8704 58.7618 49.8503 58.44 49.6645 58.316C49.4787 58.192 49.1921 58.3091 49.1353 58.5322L49.3444 58.7446L49.3446 58.7448ZM49.8766 54.195C50.0234 53.8596 49.8397 53.4692 49.5374 53.2245C49.3607 53.0815 49.1249 52.9714 48.8858 53.0016C48.5378 53.0456 48.3167 53.3854 48.3518 53.6891C48.3869 53.9929 48.6145 54.2547 48.8719 54.4627C49.1745 54.7072 49.7297 54.5303 49.8766 54.195ZM49.1818 53.4708C49.3137 53.5367 49.3859 53.6642 49.4417 53.7871L49.4246 53.8406C49.626 53.8997 49.4582 54.2061 49.2477 54.1795C49.0373 54.1529 48.9163 53.9618 48.836 53.7909C48.8016 53.7179 48.7683 53.6367 48.7971 53.5619C48.8452 53.4366 49.05 53.4049 49.1818 53.4708ZM55.7766 58.1839C55.61 57.9179 55.5394 57.5393 55.7314 57.293C56.0287 56.9117 56.6296 57.1689 56.9436 57.5349C57.0653 57.6768 57.1776 57.8423 57.1942 58.0327C57.2239 58.374 56.9068 58.6752 56.5815 58.6843C56.2562 58.6934 55.9558 58.47 55.7766 58.1839ZM56.5556 57.8034L56.2439 57.5787C56.1165 57.701 56.0919 57.9249 56.1894 58.0747C56.2869 58.2244 56.494 58.2809 56.6482 58.1998C56.7551 58.088 56.6951 57.86 56.5488 57.8222L56.5556 57.8034ZM52.8576 45.9008C52.7726 46.0162 52.7647 46.164 52.7763 46.3023C52.804 46.633 52.9431 46.9745 53.2378 47.1708C53.5326 47.3672 54.0013 47.3621 54.2263 47.1006C54.5156 46.7644 54.2621 46.2603 53.9095 45.978C53.6099 45.738 53.0795 45.5993 52.8576 45.9008ZM53.3541 46.2544C53.5013 46.1516 53.7743 46.2856 53.7148 46.4451L53.8117 46.4709C53.8929 46.6237 53.8903 46.811 53.8048 46.962C53.6285 46.9089 53.4461 46.8417 53.3325 46.7085C53.2189 46.5752 53.2069 46.3571 53.3541 46.2544ZM27.2524 54.5066C27.467 54.1735 27.9999 54.2118 28.3408 54.4247C28.6695 54.6299 28.9105 55.1009 28.638 55.3724C28.4996 55.5104 28.2802 55.536 28.0821 55.5206C27.8151 55.4999 27.5424 55.4122 27.36 55.2223C27.1776 55.0325 27.1108 54.7266 27.2524 54.5066ZM27.9717 54.69L27.6329 54.8528C27.7648 55.0693 28.0573 55.1805 28.3063 55.1087C28.3412 54.9276 28.1815 54.7352 27.9912 54.729L27.9717 54.69ZM39.1568 50.9617C39.4486 51.1652 39.8526 51.1295 40.1619 50.9554C40.2787 50.8896 40.3922 50.7974 40.4324 50.6668C40.5081 50.4212 40.297 50.1833 40.0853 50.0457C39.7534 49.8299 39.2697 49.7222 39.0018 50.0174C38.7612 50.2825 38.865 50.7583 39.1568 50.9617ZM39.2801 50.4485C39.2639 50.302 39.4666 50.1738 39.5622 50.2837L39.5806 50.2485C39.751 50.2456 39.9186 50.3525 39.9917 50.5109C39.8704 50.5896 39.7422 50.6706 39.5991 50.6791C39.456 50.6876 39.2963 50.5951 39.2801 50.4485ZM36.6058 63.2144C36.8996 63.0077 37.3634 63.1164 37.5348 63.4321C37.7062 63.7478 37.545 64.1963 37.2118 64.3304C36.9242 64.4462 36.56 64.315 36.412 64.0425C36.264 63.7699 36.3523 63.3928 36.6058 63.2144ZM37.17 63.963C37.2393 63.7261 37.0146 63.455 36.7691 63.4795C36.7035 63.7216 36.9074 63.9977 37.1579 64.006L37.17 63.963ZM31.4474 65.4014C31.3062 65.5208 31.2747 65.745 31.2863 65.9433C31.3183 66.4904 31.7884 67.0792 32.2313 66.8496C32.4858 66.7176 32.6005 66.3497 32.5254 66.0461C32.4504 65.7425 32.2206 65.5093 31.9616 65.3889C31.7957 65.3118 31.591 65.2802 31.4474 65.4014ZM31.9878 65.8994C32.1388 65.9426 32.2086 66.1842 32.109 66.3189L32.2136 66.4555C32.0098 66.4906 31.7426 66.43 31.7028 66.2025C31.6727 66.0306 31.8368 65.8561 31.9878 65.8994ZM30.5011 61.6322C30.4375 61.703 30.3577 61.7594 30.2695 61.796C30.1124 61.8611 29.9291 61.8608 29.7723 61.7951C29.4407 61.6562 29.2857 61.2087 29.4611 60.8968C29.6365 60.5849 30.1015 60.481 30.3946 60.6883C30.6877 60.8955 30.7408 61.3658 30.5011 61.6322ZM30.1713 61.5559C30.3773 61.4036 30.2382 61.004 29.9815 61.0105C29.867 61.0795 29.7806 61.193 29.7449 61.3211C29.8626 61.4302 30.0095 61.5079 30.1663 61.5442L30.1713 61.5559ZM61.9233 56.5362C61.8415 56.2533 61.7068 55.9223 61.3789 55.852C61.0271 55.7764 60.6928 56.0906 60.6732 56.403C60.6535 56.7179 60.905 57.0486 61.2657 57.0991C61.6264 57.1497 62.0118 56.8421 61.9233 56.5362ZM61.4096 56.4404C61.5148 56.5617 61.3699 56.7682 61.1966 56.7441L61.2169 56.6844C61.1041 56.6595 61.046 56.5268 61.1116 56.4438C61.1772 56.3608 61.3416 56.3589 61.4096 56.4404ZM59.4194 51.8787C59.3354 51.4744 59.7328 51.0489 60.1414 51.1057C60.6076 51.1706 60.8461 51.8447 60.5246 52.189C60.203 52.5333 59.5153 52.3402 59.4194 51.8787ZM59.9844 52.0632C60.1629 52.105 60.3615 51.9402 60.3427 51.7575C60.3239 51.5749 60.0805 51.4561 59.9309 51.5622C59.7812 51.6683 59.8245 51.9496 60.0017 51.9967L59.9844 52.0632ZM44.2146 60.0808C44.1733 59.9379 44.0839 59.8106 43.9656 59.7264C43.5695 59.4444 42.9291 59.8418 42.9789 60.3388C43.0286 60.8357 43.7339 61.087 44.0657 60.7261C44.2196 60.5586 44.2787 60.3028 44.2146 60.0808ZM43.4202 60.4074C43.3802 60.2555 43.5376 60.0895 43.684 60.1293C43.8304 60.1692 43.8897 60.3942 43.7834 60.5063C43.6771 60.6183 43.4603 60.5593 43.4202 60.4074Z" fill="#00160A"/>
<path fill-rule="evenodd" clip-rule="evenodd" d="M183.066 44.8624C183.133 44.9126 183.177 44.9817 183.21 45.0527C183.361 45.3736 183.269 45.7939 182.926 45.9753C182.582 46.1567 182.03 45.9628 182.016 45.6172C182.012 45.5068 182.057 45.3996 182.109 45.2984C182.193 45.1322 182.302 44.9668 182.477 44.8649C182.652 44.763 182.906 44.7434 183.066 44.8624ZM182.838 45.3802C182.943 45.3511 182.91 45.1833 182.799 45.1855C182.515 45.2597 182.383 45.5998 182.558 45.8055C182.698 45.692 182.797 45.5413 182.837 45.3795L182.838 45.3802ZM195.941 50.437C196.201 50.5322 196.494 50.3974 196.709 50.2308C196.946 50.0481 197.152 49.8041 197.181 49.5192C197.211 49.2342 197.005 48.9178 196.699 48.8906C196.485 48.8715 196.286 48.9896 196.12 49.1171C195.897 49.288 195.69 49.4983 195.623 49.7599C195.555 50.0214 195.672 50.339 195.941 50.437ZM196.907 49.45L196.316 49.9992L196.304 50.0188L196.075 49.8667C196.148 49.6968 196.228 49.5181 196.385 49.4086C196.542 49.299 196.801 49.2957 196.907 49.45ZM202.378 53.5084C202.147 53.2776 202.242 52.8674 202.403 52.5777C202.52 52.3683 202.673 52.1654 202.889 52.0812C203.105 51.997 203.391 52.0775 203.476 52.3029C203.529 52.4434 203.496 52.6021 203.458 52.7477C203.387 53.0133 203.291 53.2862 203.093 53.4669C202.895 53.6475 202.568 53.698 202.378 53.5084ZM203.165 52.7045C203.188 52.6573 203.208 52.6051 203.2 52.553C203.191 52.499 203.148 52.4529 203.098 52.442C202.772 52.5384 202.55 52.9221 202.617 53.2711C202.851 53.1509 203.047 52.9488 203.165 52.7045ZM200.222 58.9093C200.567 59.176 201.057 58.8098 201.268 58.4323C201.41 58.1777 201.516 57.9041 201.584 57.6216C201.625 57.4473 201.63 57.222 201.469 57.1361C201.391 57.0946 201.296 57.101 201.209 57.1164C200.626 57.2197 200.135 57.7089 200.041 58.2812C200.004 58.5065 200.039 58.7678 200.222 58.9093ZM201.183 57.6612C201.212 57.7482 201.15 57.8364 201.091 57.9077L200.5 58.6293C200.399 58.2039 200.658 57.7246 201.075 57.5667C201.125 57.5761 201.168 57.6138 201.183 57.6612ZM149.907 102.71C149.589 103.47 149.898 104.544 150.703 104.727C158.878 106.581 166.95 108.889 174.868 111.637C177.492 112.547 180.413 113.502 182.962 112.4C183.952 111.972 184.79 111.265 185.612 110.567L194.183 103.292C191.31 107.141 187.755 110.484 183.733 113.118C182.77 113.748 181.751 114.35 180.617 114.546C179.205 114.79 177.77 114.384 176.395 113.981L152.328 106.934C151.366 106.653 150.162 105.73 150.776 104.94C149.981 105.233 150.039 106.36 150.247 107.179L176.284 114.765C177.518 115.124 178.797 115.488 180.07 115.311C181.334 115.135 182.46 114.443 183.53 113.749C188.083 110.793 192.543 107.324 195.065 102.525C195.139 102.385 195.212 102.243 195.286 102.099C195.946 100.817 196.649 99.4524 197.978 98.9616C198.207 109.728 198.036 120.503 197.465 131.257C197.426 131.978 198.558 132.235 199.089 131.744C199.62 131.253 199.68 130.45 199.704 129.728L201.091 88.0814C201.286 82.2273 201.53 76.1671 204.136 70.9175C201.072 75.6945 200.8 81.674 200.621 87.3417L199.301 129.081C199.268 130.116 199.092 131.37 198.134 131.768L198.641 98.485C197.022 98.3391 195.866 99.9208 194.906 101.233L194.888 101.258C192.101 105.068 188.188 107.88 184.344 110.626C182.724 111.783 180.742 112.999 178.869 112.321C169.529 108.94 160.004 106.064 150.352 103.711C151.588 101.89 153.435 100.58 155.292 99.3932C158.622 97.2652 162.123 95.402 165.749 93.8271L166.003 93.7171C167.684 92.9897 169.434 92.2323 170.545 90.79C172.039 88.8497 172.004 86.1835 171.941 83.7379C171.855 80.3785 171.844 77.0172 171.906 73.6572C171.992 69.0747 172.26 64.3234 174.395 60.2646C171.925 62.4352 171.683 66.1235 171.62 69.4057L171.309 85.4971C171.271 87.5062 171.125 89.7597 169.624 91.1001C169.059 91.6043 168.356 91.9207 167.665 92.2319L167.617 92.2535C162.074 94.7492 156.726 97.676 151.639 100.999C150.948 101.45 150.226 101.951 149.907 102.71ZM179.146 143.03C178.766 143.36 177.967 143.182 177.994 142.691C178.482 133.782 179.023 124.876 179.617 115.973C179.353 115.803 179.116 116.224 179.097 116.527L177.666 139.501C177.591 140.702 177.517 141.917 177.748 143.099C177.882 143.781 178.985 143.869 179.493 143.374C180.001 142.878 180.065 142.118 180.1 141.425L181.383 115.956C181.399 115.632 181.246 115.168 180.921 115.26L179.601 141.664C179.577 142.155 179.527 142.7 179.146 143.03ZM152.944 108.311L151.934 138.895C151.912 139.557 150.893 139.787 150.361 139.373C149.83 138.959 149.695 138.237 149.623 137.578C149.292 134.506 149.555 131.413 149.818 128.331C149.858 127.854 149.899 127.377 149.937 126.901C150.43 120.78 150.555 114.63 150.311 108.494C150.304 108.315 150.587 108.252 150.724 108.37C150.861 108.489 150.882 108.687 150.892 108.866C151.245 114.807 150.831 120.752 150.417 126.696C150.257 128.997 150.097 131.297 149.982 133.598C149.903 135.166 149.848 136.762 150.257 138.28C150.338 138.579 150.456 138.899 150.728 139.059C150.999 139.219 151.45 139.083 151.46 138.774L152.45 108.968C152.46 108.65 152.635 108.211 152.944 108.311ZM205.985 59.9621C206.05 59.947 206.121 59.9389 206.183 59.9689C206.283 60.0177 206.325 60.149 206.34 60.2688C206.406 60.8101 206.062 61.3754 205.584 61.5106C205.381 61.5682 205.097 61.4884 205.085 61.256C205.057 60.6639 205.461 60.0826 205.985 59.9621ZM205.924 60.7298C206.018 60.6378 206.06 60.4835 206.025 60.3491C205.708 60.4273 205.456 60.759 205.441 61.1191C205.643 61.0828 205.826 60.9361 205.921 60.7351L205.924 60.7298ZM186.974 57.5032C186.916 57.3987 186.834 57.3077 186.736 57.239C186.399 57.002 185.879 57.088 185.636 57.4211C185.392 57.7543 185.467 58.2776 185.793 58.5295C186.119 58.7814 186.642 58.7188 186.9 58.3969C187.098 58.1497 187.129 57.7799 186.974 57.5032ZM186.406 58.2338C186.169 58.27 185.947 57.9917 186.035 57.7675C186.122 57.5434 186.473 57.4898 186.622 57.6777C186.772 57.8657 186.643 58.1976 186.406 58.2338ZM204.29 64.415C204.369 64.4543 204.439 64.5282 204.45 64.6203C204.458 64.6856 204.437 64.7504 204.416 64.8122L204.302 65.1452C204.225 65.37 204.143 65.6028 203.982 65.7701C203.822 65.9373 203.558 66.0177 203.369 65.889C203.042 65.6667 203.212 65.1204 203.458 64.8004C203.664 64.5308 203.994 64.2676 204.29 64.415ZM203.877 65.2697C203.996 65.1578 204.042 64.9652 203.987 64.8062C203.661 64.9034 203.466 65.3372 203.599 65.6691L203.887 65.2827L203.877 65.2697ZM192.976 58.9088C192.95 58.8492 192.917 58.7904 192.868 58.7486C192.708 58.6145 192.465 58.7134 192.3 58.8401C192.087 59.0033 191.899 59.2183 191.833 59.4805C191.768 59.7427 191.853 60.0548 192.082 60.1945C192.48 60.4373 193.001 60.0074 193.065 59.542C193.095 59.3281 193.063 59.1059 192.976 58.9088ZM192.312 59.874C192.157 59.8112 192.135 59.5551 192.277 59.466L192.274 59.4666L192.632 59.1158C192.768 59.3955 192.606 59.7799 192.312 59.874ZM179.937 56.9189C179.857 57.0004 179.755 57.0596 179.645 57.0882C179.194 57.2058 178.723 56.6669 178.891 56.2235C179.058 55.78 179.761 55.7008 180.019 56.0964C180.181 56.345 180.145 56.7083 179.937 56.9189ZM179.572 56.24C179.424 56.2125 179.268 56.3441 179.266 56.4976C179.264 56.6512 179.418 56.7861 179.567 56.7617C179.726 56.6198 179.749 56.3463 179.617 56.1784L179.572 56.24ZM208.326 55.4801C208.659 55.3069 208.806 54.8567 208.871 54.4419C208.929 54.0723 208.474 53.831 208.183 53.999C207.892 54.167 207.751 54.5476 207.634 54.8979C207.502 55.2909 207.993 55.6534 208.326 55.4801ZM208.399 54.3488C208.528 54.3864 208.56 54.628 208.446 54.7079L208.446 54.7043C208.436 54.9108 208.245 55.0793 208.07 55.0372C208.078 54.7653 208.204 54.5012 208.399 54.3488ZM194.208 55.8406C193.872 55.8392 193.642 55.3896 193.725 55.0258C193.808 54.662 194.109 54.4063 194.426 54.281C194.653 54.1912 194.907 54.4114 194.958 54.6741C195.01 54.9368 194.909 55.2088 194.771 55.4293C194.638 55.6433 194.441 55.8415 194.208 55.8406ZM194.579 55.051L194.616 54.7666C194.308 54.7082 193.999 55.0662 194.063 55.4085C194.127 55.4582 194.209 55.4766 194.285 55.4578C194.345 55.3004 194.441 55.16 194.56 55.053L194.579 55.051ZM186.976 53.6285C187.328 53.6354 187.572 53.3346 187.663 53.0529C187.733 52.8357 187.732 52.5649 187.514 52.4312C187.271 52.2821 186.914 52.4044 186.711 52.5899C186.53 52.7548 186.41 52.9782 186.447 53.1989C186.484 53.4196 186.708 53.6232 186.976 53.6285ZM187.122 52.7443C187.261 52.7018 187.397 52.8832 187.289 52.9671L187.28 52.9524C187.227 53.0803 187.123 53.1934 186.988 53.2698C186.851 53.1049 186.917 52.8491 187.122 52.7443ZM200.016 62.4829C200.027 62.4248 200.037 62.363 200.015 62.3078C199.982 62.2233 199.887 62.1803 199.797 62.167C199.408 62.1096 199.07 62.4444 198.888 62.7919C198.727 63.0991 198.683 63.5685 199.001 63.7086C199.306 63.8429 199.619 63.5295 199.764 63.2308C199.88 62.9937 199.965 62.7416 200.016 62.4829ZM199.285 62.9931C199.226 62.8911 199.284 62.7416 199.397 62.7062L199.385 62.7156C199.469 62.7078 199.529 62.8155 199.496 62.8924C199.463 62.9693 199.368 63.0049 199.285 62.9931ZM189.857 48.173C189.669 48.3478 189.46 48.5088 189.218 48.57C189.143 48.5891 189.086 48.4982 189.058 48.4199C188.907 47.9882 188.93 47.4381 189.254 47.138C189.579 46.838 190.214 47.0256 190.232 47.487C190.242 47.7619 190.05 47.9938 189.857 48.173ZM189.778 47.4009C189.488 47.3796 189.284 47.77 189.37 48.0702C189.629 47.9901 189.817 47.7023 189.802 47.4122L189.778 47.4009ZM181.383 50.3023C181.37 50.0785 181.215 49.8504 181.005 49.8372C180.834 49.8265 180.681 49.955 180.583 50.1042C180.43 50.3371 180.375 50.6684 180.524 50.9043C180.673 51.1401 181.06 51.1794 181.195 50.9342C181.302 50.7409 181.396 50.5262 181.383 50.3023ZM180.798 50.8302L180.772 50.5288L180.777 50.5253C180.817 50.3947 180.902 50.2801 181.011 50.2071C181.117 50.428 181.012 50.7335 180.798 50.8302ZM174.675 54.7742C174.821 55.0161 174.726 55.3438 174.59 55.5925C174.544 55.6773 174.49 55.7628 174.409 55.8079C174.239 55.9037 174.028 55.775 173.92 55.602C173.76 55.3474 173.753 54.9712 173.943 54.7435C174.133 54.5158 174.52 54.5163 174.675 54.7742ZM174.147 55.1544C174.147 55.2424 174.243 55.3118 174.316 55.2763C174.39 55.2408 174.408 55.1156 174.349 55.0565C174.287 55.0103 174.188 55.0748 174.195 55.1563L174.147 55.1544ZM176.149 50.4683C176.459 50.4809 176.722 50.1271 176.623 49.8325C176.599 49.7614 176.558 49.6962 176.505 49.6436C176.284 49.4256 175.852 49.5103 175.729 49.7958C175.606 50.0814 175.84 50.4556 176.149 50.4683ZM176.221 49.8214C176.36 49.8243 176.269 50.0833 176.133 50.056L176.134 50.0615C176.081 49.9788 176.128 49.8503 176.221 49.8214Z" fill="#00160A"/>
<path fill-rule="evenodd" clip-rule="evenodd" d="M206.217 49.297C207.904 49.873 209.659 50.4921 210.892 51.7861C212.436 53.4074 212.881 55.8483 212.58 58.0751C212.279 60.3018 211.327 62.3781 210.386 64.4158C209.323 66.7187 208.259 69.0216 207.196 71.3246C203.691 69.6264 200.677 67.063 197.325 65.0763C190.011 60.7417 181.274 59.2968 172.798 59.6963C172.085 59.7299 171.158 59.6285 170.983 58.9315C170.93 58.7241 170.965 58.5056 171.001 58.2948C171.82 53.5336 173.412 48.9085 175.697 44.6599C176.036 44.03 176.395 43.4012 176.887 42.8848C178.025 41.6924 179.763 41.2394 181.403 41.312C183.043 41.3846 184.624 41.9208 186.179 42.4519C192.858 44.7336 199.538 47.0153 206.217 49.297ZM175.745 45.6176C173.754 49.6261 172.09 53.8736 171.631 58.3321C171.611 58.5243 171.596 58.7292 171.685 58.9003C171.866 59.2462 172.342 59.2634 172.729 59.2379C181.694 58.6473 190.961 60.4115 198.567 65.2289C201.167 66.8754 203.555 68.8599 206.252 70.3406C206.37 70.4059 206.506 70.4722 206.636 70.4341C206.767 70.3958 206.846 70.2651 206.912 70.1448C208.551 67.1659 210.002 64.0827 211.255 60.9196C211.699 59.7983 212.122 58.6499 212.232 57.4478C212.509 54.4213 210.518 51.333 207.661 50.3576C200.338 47.8575 193.014 45.3575 185.691 42.8574C184.353 42.4004 182.996 41.9397 181.586 41.8377C180.177 41.7356 178.684 42.0307 177.597 42.9407C176.761 43.641 176.232 44.6376 175.745 45.6176Z" fill="#00160A"/>
<path fill-rule="evenodd" clip-rule="evenodd" d="M116.239 64.4068C115.808 64.6486 115.248 64.2746 115.085 63.8117C114.958 63.4511 114.987 63.0638 115.016 62.6787C115.024 62.5694 115.032 62.4603 115.037 62.352C115.081 61.3282 114.796 60.3332 114.512 59.3404C114.424 59.031 114.335 58.7219 114.257 58.4122C112.953 53.2643 114.594 47.486 118.415 43.7662C118.905 44.6969 120.21 44.9422 121.204 44.5793C122.198 44.2165 122.949 43.4099 123.654 42.6272C124.36 41.8445 125.099 41.0309 126.084 40.6456C125.347 40.5198 124.579 40.5703 123.865 40.7916C123.755 39.7908 122.698 38.9963 121.696 39.1617C121.011 39.2746 120.468 38.6341 120.042 38.0915C119.616 37.5488 118.935 36.983 118.308 37.2772C119.115 37.7598 119.05 38.9467 118.71 39.8173C118.648 39.9761 118.58 40.1359 118.512 40.2967C118.206 41.0169 117.892 41.7544 118.082 42.4937C118.264 43.1973 117.69 43.8463 117.197 44.3841C114.434 47.4022 112.948 51.5342 113.162 55.6036C112.349 54.5102 111.317 53.5778 110.143 52.8772C109.924 52.7466 109.698 52.6222 109.472 52.4976C108.67 52.0559 107.863 51.6112 107.341 50.8784C106.725 50.014 105.585 49.6401 104.517 49.6722C103.45 49.7044 102.427 50.0809 101.427 50.4528C101.15 50.556 100.826 50.7172 100.805 51.01C100.789 51.2283 100.957 51.414 101.122 51.5598C102.699 52.9554 105.159 53.2701 107.042 52.3172C107.728 51.9705 108.557 52.304 109.213 52.7026C113.024 55.0176 115.159 59.7635 114.349 64.1186C113.714 64.3562 113.03 64.3246 112.343 64.2929C111.966 64.2755 111.587 64.258 111.214 64.2852C110.164 64.362 108.962 65.1231 109.146 66.1503C109.573 68.5313 109.999 70.9784 109.527 73.351C109.39 74.0393 109.18 74.7094 108.969 75.3798C108.817 75.8626 108.665 76.3456 108.541 76.8357C108.229 78.0645 108.091 79.3366 108.133 80.603C108.145 80.9426 108.173 81.2954 108.343 81.5902C108.595 82.0252 109.099 82.2438 109.579 82.4032C111.126 82.9176 112.782 83.1127 114.408 82.9724C115.637 82.8663 117.023 82.4313 117.49 81.2993C117.785 80.5844 117.629 79.7753 117.48 79.0173C116.772 75.4158 116.322 71.6023 117.563 68.1454C117.606 68.0262 117.651 67.9066 117.696 67.7865C117.961 67.0797 118.232 66.3574 118.117 65.6217C117.982 64.761 117.004 63.9774 116.239 64.4068ZM112.823 75.3119L111.829 77.4226C111.713 77.6703 111.642 78.0463 111.899 78.1463C112.591 77.1811 113.083 76.0757 113.335 74.9185C113.428 74.4927 113.814 74.1762 114.232 74.0423C114.65 73.9083 115.101 73.9258 115.54 73.9539C115.786 73.9697 116.058 74.0003 116.223 74.1817C116.354 74.3256 116.386 74.5307 116.412 74.723L117.1 79.859C117.161 80.3103 117.219 80.7858 117.046 81.2076C116.754 81.9206 115.918 82.236 115.156 82.3842C113.283 82.7486 111.305 82.5678 109.531 81.8702C109.28 81.7717 109.024 81.656 108.855 81.4484C108.629 81.1717 108.602 80.7892 108.597 80.4334C108.567 78.1298 109.096 75.8209 110.126 73.7557L112.53 74.6275C112.677 74.6806 112.839 74.7488 112.896 74.893C112.948 75.029 112.885 75.1797 112.823 75.3119ZM113.018 74.0888C112.859 74.2697 112.557 74.3506 112.374 74.195C111.748 73.6647 110.879 73.4279 110.067 73.5663C110.358 71.8479 110.142 70.1108 109.926 68.3706C109.823 67.541 109.72 66.7106 109.672 65.8812C109.666 65.7844 109.663 65.6794 109.719 65.6C109.811 65.47 110.004 65.476 110.163 65.4957L113.952 65.9666C114.081 65.9827 114.215 66.0003 114.327 66.0685C114.64 66.2607 114.608 66.7149 114.537 67.0734L113.276 73.4261C113.229 73.6612 113.177 73.9079 113.018 74.0888ZM113.911 72.5899C114.482 70.4012 114.871 68.1659 115.072 65.914C116 66.0665 116.982 65.8709 117.778 65.3751C117.619 66.1192 117.42 66.8593 117.222 67.5991C116.749 69.3578 116.277 71.115 116.342 72.9222L116.342 72.9387C116.348 73.0918 116.354 73.2503 116.291 73.3897C116.225 73.534 116.058 73.6474 115.907 73.5966C115.202 73.3593 114.382 73.4852 113.783 73.9231C113.676 73.4892 113.794 73.0363 113.907 72.6035L113.911 72.5899ZM118.858 43.4032C118.457 42.8159 118.374 42.0442 118.574 41.3635C118.667 41.0453 118.819 40.7334 118.969 40.4235C119.27 39.8024 119.567 39.1894 119.387 38.5498C119.335 38.3654 119.274 38.11 119.449 38.0307C120.147 38.6319 120.606 39.4981 120.708 40.4083C120.739 40.6744 120.734 40.9616 120.587 41.1857C120.442 41.4052 120.195 41.5172 119.95 41.6289C119.863 41.6681 119.777 41.7073 119.695 41.7511C119.381 41.9196 119.091 42.2943 119.267 42.6028C120.78 41.4997 122.719 40.9852 124.586 41.1912C124.085 41.5065 123.625 41.8844 123.22 42.313C123.079 42.4618 122.941 42.6192 122.801 42.7776C122.199 43.4617 121.58 44.165 120.699 44.2736C119.989 44.361 119.259 43.9904 118.858 43.4032ZM104.361 50.1089C105.48 50.0534 106.759 50.7278 107.267 51.4381L106.071 52.1517C104.734 52.7038 104.078 52.4979 103.769 52.4008C103.753 52.3957 103.738 52.3909 103.723 52.3865C102.813 52.1092 101.949 51.6788 101.182 51.1193C102.187 50.6272 103.241 50.1643 104.361 50.1089ZM123.229 40.6025C123.172 40.6789 123.071 40.7054 122.978 40.7269L121.444 41.0812C121.37 41.0983 121.291 41.1152 121.22 41.0904C121.03 41.0251 121.044 40.7539 121.119 40.5695C121.193 40.385 121.284 40.1547 121.149 40.0079C120.985 39.8299 121.29 39.5925 121.532 39.5743C122.105 39.5312 122.693 39.7472 123.099 40.1501C123.221 40.2713 123.331 40.4642 123.229 40.6025ZM114.513 65.0708C114.642 65.2194 114.567 65.5226 114.369 65.512C113.154 65.447 111.945 65.2628 110.767 64.9629C111.809 64.7193 112.898 64.7998 113.966 64.8817C114.163 64.8969 114.383 64.9223 114.513 65.0708ZM117.242 64.94C117.296 65.0614 117.221 65.2213 117.093 65.2594C116.461 65.4476 115.806 65.5606 115.147 65.5952C114.978 65.4847 115.028 65.2036 115.19 65.0827C115.351 64.9617 115.57 64.9549 115.772 64.9531L117.242 64.94ZM120.364 76.6542C129.544 76.7227 139.201 76.917 147.136 81.5986C147.898 82.0479 147.908 83.2439 147.376 83.9565C146.845 84.6691 145.969 85.01 145.132 85.2921C142.495 86.1818 139.777 86.828 137.024 87.2201C134.421 87.5909 131.792 87.7343 129.166 87.8528C113.843 88.5443 98.2952 88.3734 83.4503 84.4628C83.3894 83.9187 83.8735 83.4859 84.3172 83.1736C91.084 78.4095 99.5423 77.0172 107.685 75.7486C99.1597 76.0191 90.7094 78.4509 83.3151 82.7614C82.3595 83.3185 81.2803 84.2377 81.5786 85.3136C81.8241 86.1986 82.8535 86.5484 83.7373 86.7538C98.7484 90.2432 114.291 91.3716 129.639 90.0861C131.574 89.9241 133.505 89.7241 135.434 89.5053C140.398 88.9423 145.612 88.1462 149.536 85.0118C149.871 84.7438 150.209 84.4399 150.347 84.0301C150.715 82.9385 149.538 81.9908 148.517 81.4808C139.859 77.1539 129.944 75.454 120.364 76.6542ZM149.496 82.7242C149.986 83.3459 149.987 84.4273 149.298 84.8089C147.051 86.0535 144.768 87.2948 142.291 87.9537C140.98 88.3024 139.632 88.4829 138.287 88.6551C135.676 88.9894 133.061 89.2958 130.439 89.5321C114.554 90.9632 98.4447 89.7943 82.923 86.0843C82.1989 85.9113 81.8868 84.9371 82.1883 84.2475C82.4251 83.706 82.9189 83.3359 83.4685 83.109C83.087 83.4281 82.9846 84.1646 83.3065 84.6162C83.7337 85.2155 84.5186 85.401 85.2349 85.5404C93.7159 87.1914 102.299 88.4264 110.933 88.623C113.701 88.686 116.469 88.6423 119.237 88.5985C127.401 88.4695 135.648 88.3299 143.575 86.3431C145.177 85.9413 146.857 85.4044 147.926 84.1288C148.13 83.886 148.312 83.6084 148.358 83.2934C148.455 82.6292 147.942 82.0499 147.469 81.5803C148.216 81.8265 149.006 82.1026 149.496 82.7242ZM83.9277 82.9544C83.7481 82.9448 83.5934 83.0045 83.4685 83.109C83.6188 83.0469 83.7732 82.9956 83.9277 82.9544ZM84.4248 82.6942C84.3002 82.7228 84.1526 82.5737 84.2297 82.4705L84.2932 82.5374C84.3501 82.3846 84.5699 82.3268 84.6928 82.4323C84.6277 82.5438 84.5494 82.6656 84.4248 82.6942ZM136.389 139.963C137.054 142.066 138.682 144.039 140.843 144.314C141.624 144.414 142.211 143.266 141.681 142.675C141.151 142.085 139.969 142.57 139.993 143.368C138.636 142.829 137.684 141.526 137.204 140.129C136.724 138.732 136.649 137.23 136.579 135.752L136.293 129.754C136.197 127.74 136.019 125.528 134.615 124.1C134.31 123.79 133.958 123.531 133.607 123.272C133.157 122.941 132.708 122.611 132.36 122.175C131.546 121.154 131.427 119.749 131.386 118.436C131.161 111.212 132.265 103.947 134.624 97.126C134.778 96.6791 134.938 96.2333 135.098 95.7873L135.098 95.7872L135.098 95.7872L135.098 95.7872L135.098 95.7871C135.745 93.9878 136.392 92.1851 136.681 90.2972C136.317 90.2035 136.064 90.6495 135.949 91.0116L133.623 98.3175C133.016 100.224 132.408 102.133 131.957 104.083C130.895 108.665 130.711 113.404 130.53 118.108C130.487 119.244 130.455 120.439 130.969 121.449C131.341 122.18 131.952 122.727 132.566 123.276C133.012 123.674 133.459 124.074 133.818 124.547C134.61 125.591 134.921 126.923 135.148 128.22C135.447 129.931 135.635 131.661 135.71 133.397C135.728 133.819 135.74 134.242 135.752 134.666C135.801 136.461 135.851 138.262 136.389 139.963ZM140.509 143.129C140.575 142.877 140.956 142.786 141.119 142.989L141.163 142.952C141.324 143.156 141.215 143.515 140.966 143.582C140.717 143.65 140.443 143.382 140.509 143.129ZM90.7017 146.136C90.5958 145.458 91.3833 145.014 92.0447 144.88L92.1252 144.864C92.7698 144.735 93.5194 144.584 93.758 143.972C94.7181 141.508 94.7688 138.787 94.8193 136.083C94.8791 132.875 94.9385 129.692 96.5131 126.988C97.2682 125.692 98.3293 124.606 99.4685 123.643C99.5556 123.569 99.6438 123.496 99.7323 123.422C100.655 122.65 101.622 121.842 101.946 120.686C102.128 120.041 102.084 119.355 102.038 118.685L101.159 105.733C101.047 104.08 100.934 102.425 100.712 100.783C100.255 97.4194 99.3381 94.1368 98.2796 90.9165C99.1132 91.3951 99.4896 92.3971 99.7668 93.3297C101.365 98.7099 101.738 104.376 102.101 109.985L102.669 118.77C102.773 120.376 102.685 122.352 101.28 123.091C99.0506 124.265 97.2769 126.31 96.4091 128.708C95.5766 131.008 95.5758 133.495 95.575 135.965V135.965C95.5748 136.524 95.5746 137.082 95.5647 137.637C95.5114 140.644 95.0602 143.874 93.0346 146.062C92.7009 146.423 92.3019 146.761 91.8211 146.837C91.3403 146.912 90.7781 146.625 90.7017 146.136ZM91.1455 146.118C91.1224 146.261 91.2649 146.387 91.4067 146.397C91.5485 146.408 91.6826 146.336 91.8047 146.262C92.1952 146.025 92.5555 145.736 92.8738 145.405C92.6261 145.216 92.2732 145.222 91.9884 145.346C91.7036 145.471 91.4741 145.696 91.2621 145.926C91.2108 145.982 91.1577 146.043 91.1455 146.118ZM119.136 125.045C119.084 129.218 119.625 133.374 120.165 137.512C120.315 138.664 120.471 139.836 120.943 140.895C121.156 141.374 121.575 141.892 122.081 141.776C122.239 141.74 122.377 141.643 122.495 141.53C122.954 141.088 123.096 140.271 122.665 139.801C122.233 139.33 121.259 139.577 121.23 140.219C120.385 135.676 119.845 131.075 119.614 126.457C119.589 125.943 119.534 125.362 119.136 125.045ZM122.329 140.122C122.351 140.21 122.303 140.298 122.257 140.376L121.884 141.011L121.637 140.963C121.609 140.709 121.664 140.446 121.791 140.225C121.91 140.02 122.271 139.891 122.329 140.122ZM119.211 117.509C119.083 116.12 119.135 114.721 119.198 113.328C119.522 106.1 120.116 98.8852 120.98 91.7038C121.001 91.5315 121.041 91.3304 121.196 91.2582C121.517 91.1085 121.695 91.6467 121.655 92.0046C120.693 100.606 120.06 109.247 119.829 117.9C119.824 118.09 119.542 118.152 119.4 118.029C119.259 117.906 119.228 117.698 119.211 117.509Z" fill="#00160A"/>
<path d="M122.978 124.915C121.057 124.784 119.137 124.654 117.216 124.524C114.567 124.345 111.91 124.164 109.306 123.658C107.487 123.304 105.7 122.792 103.971 122.129C103.784 122.057 103.588 121.977 103.461 121.822C103.22 121.524 103.341 121.056 103.62 120.794C103.899 120.531 104.289 120.425 104.664 120.335C112.58 118.427 120.891 119.655 128.909 121.09C129.515 121.199 130.141 121.316 130.657 121.65C131.173 121.984 131.557 122.595 131.432 123.192C131.286 123.893 130.542 124.293 129.853 124.514C127.655 125.219 125.283 125.071 122.978 124.915" fill="white"/>
<path fill-rule="evenodd" clip-rule="evenodd" d="M122.978 124.915C121.057 124.784 119.137 124.654 117.216 124.524C114.567 124.345 111.91 124.164 109.306 123.658C107.487 123.304 105.7 122.792 103.971 122.129C103.784 122.057 103.588 121.977 103.461 121.822C103.22 121.524 103.341 121.056 103.62 120.794C103.899 120.531 104.289 120.425 104.664 120.335C112.58 118.427 120.891 119.655 128.909 121.09C129.515 121.199 130.141 121.316 130.657 121.65C131.173 121.984 131.557 122.595 131.432 123.192C131.286 123.893 130.542 124.293 129.853 124.514C127.655 125.219 125.283 125.071 122.978 124.915M103.793 121.587C110.023 123.715 116.721 123.985 123.307 124.235C124.924 124.297 126.542 124.358 128.159 124.318C128.798 124.302 129.492 124.248 129.967 123.826C130.442 123.403 130.469 122.479 129.877 122.242C126.438 120.861 122.66 120.605 118.955 120.373C114.546 120.096 110.087 119.832 105.735 120.585C104.991 120.714 104.162 120.934 103.793 121.587Z" fill="#00160A"/>
<path fill-rule="evenodd" clip-rule="evenodd" d="M198.653 95.3435C199.032 93.2449 199.235 91.1138 199.256 88.9807C199.29 85.7058 198.9 82.4302 199.084 79.1605C199.269 75.8907 200.101 72.5209 202.24 70.0558C202.044 71.4127 201.621 72.7361 200.995 73.9534C199.763 76.3488 199.721 79.1636 199.706 81.8617C199.684 86.013 199.661 90.1644 199.638 94.3157C199.631 95.5819 198.764 96.7402 197.647 97.32C196.53 97.8997 195.209 97.9676 193.969 97.7652C192.984 97.6044 192.032 97.2836 191.086 96.964C185.477 95.0704 179.868 93.1768 174.259 91.2831C173.809 91.1309 173.277 90.8791 173.244 90.4009C172.751 83.1506 172.723 75.8682 173.161 68.6143C173.35 65.4931 173.768 62.0681 176.049 59.9486C175.357 61.4183 174.661 62.8974 174.236 64.4667C173.676 66.5303 173.599 68.6911 173.525 70.829C173.302 77.2991 173.081 83.7995 173.839 90.2282C173.875 90.5331 173.982 90.9123 174.284 90.9524C176.781 91.2836 179.174 92.1494 181.544 93.0097C184.829 94.2019 188.114 95.3942 191.398 96.5864C192.197 96.8764 193.007 97.1689 193.853 97.2414C195.064 97.3453 196.263 96.9931 197.428 96.6448C197.774 96.5412 198.143 96.4228 198.368 96.1372C198.543 95.9143 198.602 95.6232 198.653 95.3435Z" fill="#00160A"/>
<path fill-rule="evenodd" clip-rule="evenodd" d="M193.392 98.8165C188.414 98.4966 183.805 96.2837 179.04 94.8399C177.365 94.3322 175.661 93.918 173.959 93.504C172.853 93.235 171.746 92.9659 170.64 92.6968C172.803 92.1429 175.073 92.8417 177.195 93.5336C182.594 95.2946 187.993 97.0556 193.392 98.8165Z" fill="#00160A"/>
<path fill-rule="evenodd" clip-rule="evenodd" d="M105.491 50.9372C105.655 50.9424 105.802 50.965 106.036 51.0214L107.391 51.376C107.464 51.3948 107.532 51.412 107.591 51.4269C107.675 51.4481 107.727 51.534 107.705 51.6186C107.684 51.7033 107.598 51.7546 107.514 51.7333L107.026 51.6077L106.104 51.3642L106.035 51.3466C105.776 51.2816 105.636 51.2579 105.481 51.253L105.442 51.2535C105.155 51.2637 103.803 51.3971 102.931 51.454C102.844 51.4597 102.769 51.3937 102.764 51.3067C102.758 51.2196 102.824 51.1444 102.911 51.1387L103.241 51.1153C104.108 51.0499 105.247 50.9392 105.472 50.937L105.491 50.9372Z" fill="#00160A"/>
<path fill-rule="evenodd" clip-rule="evenodd" d="M105.307 50.3759C105.372 50.3176 105.472 50.323 105.53 50.388L106.041 50.9571C106.099 51.0221 106.094 51.122 106.029 51.1803C105.964 51.2385 105.864 51.2331 105.806 51.1682L105.295 50.599C105.237 50.5341 105.242 50.4342 105.307 50.3759Z" fill="#00160A"/>
<path fill-rule="evenodd" clip-rule="evenodd" d="M106.002 50.9527C106.072 51.0039 106.088 51.1027 106.037 51.1733L105.562 51.8291C105.51 51.8998 105.412 51.9155 105.341 51.8643C105.27 51.8131 105.255 51.7143 105.306 51.6437L105.781 50.9879C105.832 50.9172 105.931 50.9015 106.002 50.9527Z" fill="#00160A"/>
<path fill-rule="evenodd" clip-rule="evenodd" d="M103.501 50.5993C103.541 50.5221 103.637 50.4926 103.714 50.5334L104.529 50.9641C104.606 51.0049 104.636 51.1005 104.595 51.1776C104.554 51.2548 104.459 51.2843 104.382 51.2435L103.566 50.8128C103.489 50.772 103.46 50.6764 103.501 50.5993Z" fill="#00160A"/>
<path fill-rule="evenodd" clip-rule="evenodd" d="M104.525 51.0211C104.581 51.0879 104.573 51.1876 104.506 51.2437L103.666 51.9482C103.599 52.0042 103.499 51.9955 103.443 51.9286C103.387 51.8618 103.396 51.7621 103.462 51.706L104.303 51.0015C104.369 50.9455 104.469 50.9542 104.525 51.0211Z" fill="#00160A"/>
<path fill-rule="evenodd" clip-rule="evenodd" d="M111.899 78.1463C111.642 78.0463 111.713 77.6703 111.829 77.4226C112.161 76.719 112.492 76.0154 112.823 75.3119C112.885 75.1797 112.948 75.029 112.895 74.893C112.839 74.7488 112.677 74.6806 112.53 74.6275C111.729 74.3369 110.928 74.0463 110.126 73.7557C109.096 75.8209 108.567 78.1298 108.597 80.4334C108.602 80.7892 108.629 81.1717 108.855 81.4484C109.024 81.656 109.28 81.7717 109.531 81.8702C111.305 82.5678 113.283 82.7486 115.156 82.3842C115.918 82.236 116.754 81.9206 117.046 81.2076C117.219 80.7858 117.161 80.3103 117.1 79.859C116.871 78.147 116.641 76.435 116.412 74.723C116.386 74.5307 116.354 74.3256 116.223 74.1817C116.058 74.0003 115.786 73.9697 115.54 73.9539C115.101 73.9258 114.65 73.9083 114.232 74.0423C113.814 74.1762 113.428 74.4927 113.335 74.9185C113.083 76.0757 112.591 77.1811 111.899 78.1463Z" fill="#E7EAEE"/>
<path fill-rule="evenodd" clip-rule="evenodd" d="M110.067 73.5663C110.879 73.4279 111.748 73.6647 112.374 74.195C112.557 74.3507 112.86 74.2697 113.018 74.0888C113.177 73.9079 113.229 73.6612 113.276 73.4261C113.696 71.3085 114.116 69.191 114.537 67.0734C114.608 66.7149 114.64 66.2607 114.327 66.0685C114.215 66.0004 114.081 65.9827 113.952 65.9666C112.689 65.8096 111.426 65.6527 110.163 65.4958C110.004 65.476 109.811 65.47 109.719 65.6001C109.663 65.6794 109.666 65.7844 109.672 65.8813C109.821 68.4502 110.497 71.0286 110.067 73.5663Z" fill="white"/>
<path fill-rule="evenodd" clip-rule="evenodd" d="M117.778 65.3751C116.982 65.8709 116 66.0665 115.072 65.914C114.87 68.1659 114.482 70.4012 113.911 72.5899C113.797 73.0268 113.675 73.4846 113.782 73.9231C114.382 73.4852 115.202 73.3593 115.907 73.5966C116.058 73.6474 116.225 73.534 116.29 73.3897C116.356 73.2453 116.347 73.0803 116.342 72.9222C116.25 70.3548 117.241 67.8883 117.778 65.3751Z" fill="white"/>
<path fill-rule="evenodd" clip-rule="evenodd" d="M110.767 64.9629C111.945 65.2628 113.154 65.447 114.369 65.512C114.567 65.5226 114.642 65.2194 114.513 65.0708C114.383 64.9223 114.163 64.8969 113.966 64.8817C112.898 64.7998 111.809 64.7193 110.767 64.9629Z" fill="white"/>
<path fill-rule="evenodd" clip-rule="evenodd" d="M115.147 65.5952C115.806 65.5606 116.461 65.4476 117.093 65.2594C117.221 65.2213 117.296 65.0613 117.242 64.94C116.752 64.9443 116.262 64.9487 115.772 64.9531C115.57 64.9549 115.351 64.9617 115.19 65.0826C115.028 65.2036 114.978 65.4847 115.147 65.5952" fill="white"/>
<path fill-rule="evenodd" clip-rule="evenodd" d="M118.574 41.3635C118.374 42.0442 118.457 42.8159 118.858 43.4032C119.259 43.9904 119.989 44.361 120.699 44.2736C121.785 44.1399 122.472 43.104 123.22 42.313C123.625 41.8844 124.085 41.5065 124.586 41.1912C122.719 40.9852 120.78 41.4997 119.267 42.6028C119.091 42.2943 119.381 41.9196 119.695 41.7511C120.01 41.5826 120.391 41.4823 120.587 41.1857C120.734 40.9616 120.739 40.6744 120.709 40.4083C120.606 39.4981 120.147 38.6319 119.449 38.0307C119.274 38.11 119.335 38.3654 119.387 38.5498C119.657 39.5086 118.855 40.4076 118.574 41.3635Z" fill="#FFB61D"/>
<path fill-rule="evenodd" clip-rule="evenodd" d="M122.978 40.7269C123.071 40.7054 123.172 40.6789 123.229 40.6025C123.331 40.4642 123.221 40.2713 123.099 40.1501C122.693 39.7472 122.105 39.5312 121.532 39.5743C121.29 39.5925 120.985 39.8299 121.149 40.0079C121.283 40.1547 121.193 40.385 121.118 40.5695C121.044 40.7539 121.03 41.0251 121.219 41.0905C121.291 41.1152 121.37 41.0983 121.444 41.0813C121.955 40.9631 122.467 40.845 122.978 40.7269Z" fill="#FFB61D"/>
</svg>
