<svg width="1440" height="500" viewBox="0 0 1440 500" fill="none" xmlns="http://www.w3.org/2000/svg">
<g clip-path="url(#clip0)">
<rect width="1440" height="500" fill="#FEFEFE"/>
<rect x="680" y="339" width="253" height="140" rx="20" fill="#FFE698"/>
<rect x="1064" y="202" width="182" height="154" rx="20" fill="#FFE698"/>
<rect x="1028" y="-27" width="475" height="160" rx="20" fill="#FFE698"/>
<rect x="1304" y="301" width="273" height="160" rx="20" fill="#FFE698"/>
<path d="M839.013 210.97C838.586 211.138 838.127 211.209 837.669 211.178C836.605 210.976 835.582 210.599 834.639 210.064C832.184 204.785 829.733 199.506 827.285 194.227C816.498 170.771 805.723 147.315 795.193 123.736L779.421 88.3627C774.29 76.5185 769.037 64.7233 764.004 52.8175C769.795 64.368 775.365 76.0164 781.058 87.6034L797.758 122.548C808.887 145.845 819.748 169.264 830.62 192.683C832.465 196.701 834.31 200.718 836.154 204.736C835.226 204.76 834.615 204.944 834.53 205.226C834.395 205.655 835.653 206.12 838.072 208.925C838.39 209.611 838.695 210.284 839.013 210.97Z" fill="black"/>
<path d="M893.904 334.092C888.125 322.554 882.542 310.906 876.862 299.319L860.162 264.374C854.958 253.485 849.81 242.575 844.72 231.646C846.174 231.879 847.542 232.074 848.727 232.234C848.739 232.222 848.739 232.222 848.739 232.234C853.43 242.535 858.085 252.852 862.703 263.186L878.474 298.559C883.617 310.404 888.87 322.199 893.904 334.092Z" fill="black"/>
<path d="M895.26 204.179L911.474 206.647C916.845 207.45 922.155 208.321 927.472 209.162L926.788 209.591L927.984 205.307C928.025 205.159 928.117 205.031 928.243 204.945C928.37 204.859 928.523 204.82 928.675 204.836L928.689 204.838L933.087 205.308C934.636 205.395 936.158 205.75 937.585 206.358C940.499 207.639 942.804 210.002 944.018 212.95C944.319 213.678 944.551 214.433 944.713 215.205C944.795 215.59 944.856 215.979 944.903 216.37C944.956 216.74 944.984 217.071 945.057 217.415C945.278 218.763 945.788 220.048 946.55 221.181C947.378 222.259 948.435 223.138 949.644 223.754C950.854 224.37 952.186 224.707 953.542 224.741L952.854 224.99C956.891 221.337 961.312 218.136 966.04 215.443C970.699 212.71 975.537 210.296 980.521 208.217C983.027 207.223 985.518 206.194 988.076 205.345C990.603 204.41 993.185 203.646 995.76 202.867C998.327 202.06 1000.96 201.482 1003.55 200.779C1006.17 200.163 1008.81 199.649 1011.43 199.059L1011.17 199.248C1011.81 198.054 1012.32 196.796 1012.7 195.495C1013.1 194.209 1013.29 192.864 1013.24 191.517C1013.21 190.196 1012.77 188.918 1011.99 187.857C1011.12 186.851 1010 186.097 1008.74 185.675L1008.72 185.663C1008.68 185.649 1008.65 185.629 1008.63 185.604C1004.9 181.963 1001.11 178.394 997.344 174.797C993.573 171.204 989.781 167.634 985.968 164.087L974.488 153.494C970.639 150.015 966.792 146.423 962.797 143.247L962.784 143.236C962.634 143.117 962.537 142.942 962.515 142.751C962.493 142.56 962.548 142.368 962.667 142.217C962.703 142.172 962.744 142.131 962.789 142.095L972.486 134.534L972.188 135.405L963.685 103.77L965.206 104.338C960.987 107.265 956.806 110.269 952.628 113.264C948.449 116.261 944.304 119.301 940.192 122.386C936.091 125.481 932.028 128.627 928.085 131.9C926.116 133.539 924.186 135.22 922.324 136.951C921.395 137.816 920.485 138.703 919.649 139.627C918.82 140.464 918.121 141.421 917.576 142.465L917.637 142.159C917.523 144.379 917.274 146.591 916.891 148.781C916.521 150.977 915.98 153.14 915.275 155.251C914.58 157.41 913.56 159.449 912.251 161.298C910.893 163.25 908.886 164.654 906.59 165.258L906.774 165.186C905.369 166.131 904.132 167.305 903.115 168.661C902.567 169.331 902.092 170.065 901.603 170.784C901.177 171.546 900.681 172.27 900.309 173.064C898.715 176.212 897.546 179.559 896.831 183.016C896.38 184.73 896.18 186.497 895.868 188.245C895.647 190.005 895.492 191.778 895.337 193.55C895.283 195.324 895.187 197.116 895.168 198.881L895.26 204.179ZM895.113 204.311L894.786 198.903C894.742 197.099 894.778 195.32 894.77 193.523C894.864 191.735 894.959 189.942 895.121 188.155C895.38 186.379 895.502 184.577 895.927 182.823C896.577 179.26 897.697 175.8 899.255 172.532C899.622 171.701 900.119 170.931 900.546 170.127C901.039 169.361 901.52 168.581 902.083 167.857C903.175 166.324 904.527 164.995 906.076 163.93C906.115 163.904 906.159 163.884 906.205 163.872L906.26 163.858C908.199 163.289 909.877 162.058 911.005 160.378C912.19 158.643 913.104 156.738 913.717 154.728C914.364 152.691 914.852 150.606 915.176 148.494C915.514 146.38 915.723 144.248 915.803 142.11L915.804 142.075C915.808 141.981 915.828 141.889 915.865 141.803C916.467 140.535 917.269 139.373 918.241 138.362C919.119 137.363 920.044 136.437 920.985 135.533C922.863 133.722 924.832 132.035 926.81 130.366C930.783 127.048 934.856 123.875 938.964 120.753C947.19 114.519 955.564 108.499 964.084 102.693L964.091 102.689C964.308 102.541 964.575 102.485 964.833 102.534C965.091 102.583 965.319 102.733 965.466 102.951C965.53 103.046 965.577 103.15 965.606 103.261L973.788 134.981L973.791 134.993C973.832 135.15 973.825 135.315 973.771 135.469C973.717 135.622 973.62 135.756 973.49 135.853L963.662 143.241L963.654 142.09C967.754 145.469 971.46 149.07 975.277 152.64L986.566 163.453L1009.06 185.156L1008.94 185.085C1010.32 185.534 1011.55 186.35 1012.5 187.445C1013.39 188.61 1013.89 190.019 1013.94 191.481C1014 192.906 1013.82 194.332 1013.41 195.697C1013.03 197.06 1012.5 198.378 1011.84 199.631C1011.82 199.676 1011.79 199.717 1011.74 199.748C1011.7 199.78 1011.66 199.803 1011.61 199.815L1011.58 199.821C1008.98 200.435 1006.37 201.033 1003.78 201.698C1001.22 202.459 998.621 203.093 996.092 203.956C993.553 204.79 991.01 205.606 988.527 206.589C986.012 207.487 983.568 208.563 981.113 209.602C976.243 211.764 971.5 214.203 966.908 216.909C964.631 218.283 962.384 219.713 960.238 221.276C958.083 222.791 956.023 224.439 954.072 226.211L954.044 226.238C953.956 226.32 953.852 226.383 953.738 226.421C953.624 226.46 953.503 226.473 953.384 226.461C951.81 226.322 950.273 225.91 948.84 225.243C947.374 224.539 946.118 223.462 945.197 222.117C944.313 220.786 943.726 219.278 943.477 217.697C943.4 217.318 943.367 216.91 943.318 216.548C943.28 216.205 943.229 215.863 943.161 215.525C943.025 214.848 942.827 214.185 942.569 213.545C941.529 210.952 939.526 208.864 936.983 207.721C935.695 207.158 934.323 206.816 932.923 206.709L928.536 206.143L929.242 205.674L927.953 209.932L927.949 209.946C927.906 210.087 927.813 210.207 927.687 210.284C927.562 210.36 927.413 210.388 927.268 210.361C921.857 209.364 916.439 208.395 911.083 207.359L895.113 204.311Z" fill="black"/>
<path d="M963.225 142.668C961.662 141.836 960.153 140.932 958.646 140.026C957.134 139.129 955.657 138.18 954.167 137.254L949.729 134.434C948.994 133.957 948.245 133.508 947.488 133.072C946.76 132.589 945.961 132.224 945.12 131.99C946.882 132.247 948.577 132.853 950.104 133.773C951.684 134.573 953.198 135.483 954.692 136.419C956.177 137.37 957.646 138.344 959.063 139.395C960.487 140.435 961.893 141.5 963.225 142.668Z" fill="black"/>
<path d="M972.627 134.103C972.693 134.014 972.784 133.947 972.889 133.91C972.993 133.873 973.107 133.867 973.214 133.895C973.4 133.923 973.582 133.969 973.759 134.033C974.1 134.157 974.433 134.304 974.755 134.472C975.398 134.8 976.01 135.175 976.616 135.556C977.824 136.324 978.998 137.14 980.16 137.97C982.478 139.638 984.711 141.412 986.945 143.184C991.423 146.717 995.704 150.473 1000 154.22C1000.1 154.303 1000.18 154.408 1000.23 154.526C1000.27 154.644 1000.3 154.771 1000.29 154.899L1000.29 154.925C1000.15 156.871 1000.06 158.818 1000.02 160.749C999.934 162.634 1000.1 164.522 1000.5 166.365C1000.75 167.237 1001.14 168.065 1001.64 168.818L1002 169.447C1002.06 169.542 1002.15 169.618 1002.25 169.666C1002.6 169.833 1002.98 169.928 1003.36 169.944C1005.25 169.987 1007.13 169.748 1008.94 169.235L1008.96 169.232C1009.08 169.203 1009.21 169.212 1009.33 169.259C1009.44 169.305 1009.54 169.387 1009.61 169.493L1010.07 170.185C1010.23 170.401 1010.4 170.592 1010.57 170.791C1010.72 170.952 1010.89 171.081 1011.09 171.167C1011.28 171.254 1011.49 171.296 1011.71 171.292C1012.16 171.168 1012.55 170.879 1012.8 170.482C1013.13 170.041 1013.4 169.558 1013.59 169.047L1013.6 169.037C1013.63 168.958 1013.68 168.89 1013.75 168.842C1013.82 168.794 1013.91 168.769 1013.99 168.768C1014.08 168.768 1014.16 168.793 1014.23 168.841C1014.3 168.888 1014.35 168.956 1014.39 169.035L1014.69 169.798C1014.81 170.033 1014.94 170.262 1015.09 170.483C1015.2 170.674 1015.36 170.833 1015.55 170.941C1015.74 171.05 1015.96 171.104 1016.18 171.099C1016.65 170.97 1017.08 170.686 1017.38 170.291C1017.74 169.878 1018.05 169.425 1018.3 168.941C1018.33 168.901 1018.35 168.866 1018.39 168.837C1018.42 168.808 1018.46 168.787 1018.51 168.773C1018.55 168.76 1018.59 168.755 1018.64 168.759C1018.68 168.764 1018.73 168.776 1018.77 168.797C1018.82 168.827 1018.86 168.869 1018.9 168.92C1019.16 169.372 1019.47 169.799 1019.81 170.196C1019.96 170.373 1020.14 170.52 1020.34 170.627C1020.54 170.734 1020.76 170.799 1020.99 170.818C1021.22 170.776 1021.43 170.684 1021.62 170.55C1021.8 170.416 1021.96 170.241 1022.07 170.04C1022.36 169.609 1022.59 169.139 1022.75 168.644C1022.76 168.59 1022.8 168.541 1022.84 168.503C1022.88 168.466 1022.94 168.441 1022.99 168.432C1023.05 168.422 1023.11 168.429 1023.16 168.45C1023.22 168.472 1023.26 168.507 1023.3 168.553C1023.68 169.173 1024.26 169.635 1024.95 169.858C1025.58 169.969 1026.17 169.453 1026.58 168.837C1026.99 168.208 1027.25 167.49 1027.34 166.742C1027.42 165.995 1027.4 165.162 1027.42 164.378C1027.43 162.808 1027.25 161.243 1026.87 159.718C1026.7 158.998 1026.39 158.319 1025.96 157.72C1025.8 157.47 1025.58 157.263 1025.32 157.114C1025.06 156.966 1024.77 156.882 1024.47 156.868L1024.41 156.876C1024.38 156.879 1024.35 156.878 1024.33 156.874C1024.09 156.837 1023.86 156.729 1023.68 156.563C1023.56 156.47 1023.46 156.37 1023.36 156.263C1023.17 156.066 1023.01 155.87 1022.85 155.673C1022.54 155.278 1022.24 154.88 1021.96 154.478C1021.39 153.675 1020.86 152.86 1020.34 152.04C1019.29 150.397 1018.31 148.729 1017.33 147.053C1016.39 145.342 1015.34 143.783 1014.3 142.144L1011.19 137.274C1009.09 134.037 1007 130.794 1004.85 127.592C1002.73 124.367 1000.61 121.145 998.415 117.982C996.256 114.789 993.956 111.708 991.69 108.608C989.452 105.522 986.944 102.644 984.195 100.006C982.894 98.7279 981.325 97.7546 979.604 97.1565C978.759 97.028 977.895 97.1275 977.102 97.4448C976.219 97.7551 975.363 98.1365 974.542 98.5852C971.198 100.471 968.045 102.678 965.127 105.176C965.117 105.185 965.106 105.192 965.094 105.196C965.082 105.2 965.069 105.202 965.056 105.201C965.043 105.2 965.03 105.197 965.019 105.191C965.007 105.186 964.996 105.178 964.988 105.168C964.972 105.149 964.963 105.124 964.964 105.098C964.965 105.073 964.976 105.049 964.993 105.031C967.75 102.282 970.789 99.8343 974.059 97.7274C974.908 97.208 975.798 96.7587 976.72 96.3838C977.71 95.9396 978.803 95.7777 979.878 95.916C981.855 96.4588 983.675 97.4638 985.189 98.8485C988.1 101.471 990.77 104.351 993.167 107.453C995.589 110.494 997.869 113.639 1000.08 116.821C1001.2 118.404 1002.29 120.001 1003.37 121.611C1004.45 123.214 1005.55 124.814 1006.58 126.446C1008.69 129.696 1010.73 132.982 1012.78 136.262L1015.83 141.218C1016.83 142.855 1017.87 144.547 1018.75 146.252C1019.66 147.945 1020.61 149.622 1021.57 151.283C1022.05 152.113 1022.54 152.938 1023.05 153.739C1023.31 154.139 1023.57 154.532 1023.84 154.905C1023.98 155.09 1024.12 155.273 1024.26 155.431C1024.32 155.504 1024.38 155.574 1024.45 155.64C1024.5 155.703 1024.59 155.701 1024.42 155.684L1024.28 155.69C1024.79 155.677 1025.29 155.798 1025.74 156.04C1026.18 156.283 1026.56 156.638 1026.83 157.072C1027.32 157.796 1027.66 158.609 1027.83 159.466C1028.16 161.084 1028.29 162.737 1028.22 164.387C1028.17 165.209 1028.16 165.992 1028.06 166.843C1027.95 167.699 1027.64 168.518 1027.15 169.232C1026.9 169.601 1026.59 169.922 1026.23 170.181C1025.83 170.465 1025.33 170.583 1024.85 170.509C1023.99 170.255 1023.26 169.688 1022.79 168.92L1023.34 168.829C1023.16 169.383 1022.9 169.908 1022.56 170.387C1022.4 170.66 1022.17 170.895 1021.91 171.075C1021.65 171.255 1021.35 171.376 1021.03 171.43C1020.71 171.425 1020.4 171.353 1020.11 171.218C1019.82 171.083 1019.56 170.888 1019.35 170.646C1018.96 170.22 1018.62 169.757 1018.32 169.266L1018.91 169.244C1018.63 169.786 1018.3 170.294 1017.91 170.759C1017.51 171.293 1016.94 171.672 1016.29 171.833C1015.94 171.866 1015.58 171.802 1015.26 171.646C1014.94 171.491 1014.66 171.251 1014.47 170.952C1014.29 170.692 1014.13 170.423 1013.98 170.155L1013.6 169.329L1014.39 169.317C1014.19 169.922 1013.91 170.496 1013.55 171.025C1013.18 171.644 1012.59 172.097 1011.89 172.289C1011.52 172.338 1011.14 172.302 1010.78 172.183C1010.43 172.064 1010.1 171.865 1009.83 171.601C1009.6 171.368 1009.37 171.132 1009.16 170.884L1008.61 170.117L1009.28 170.374C1007.34 171.022 1005.31 171.37 1003.27 171.404C1002.68 171.4 1002.09 171.271 1001.55 171.027C1001.2 170.864 1000.9 170.611 1000.69 170.294L1000.29 169.663C999.674 168.8 999.206 167.84 998.904 166.822C998.426 164.83 998.213 162.784 998.271 160.737C998.258 158.736 998.416 156.757 998.588 154.786L998.868 155.491C996.773 153.579 994.659 151.681 992.526 149.797L986.133 144.16C983.998 142.286 981.834 140.448 979.64 138.648C978.547 137.744 977.442 136.855 976.305 136.014C975.736 135.594 975.155 135.191 974.562 134.817C974.269 134.628 973.964 134.458 973.649 134.308C973.362 134.177 972.948 134.021 972.799 134.2L972.786 134.216C972.77 134.234 972.748 134.247 972.724 134.25C972.699 134.253 972.675 134.247 972.655 134.233C972.635 134.219 972.621 134.198 972.615 134.174C972.61 134.15 972.614 134.125 972.627 134.103V134.103Z" fill="black"/>
<path d="M972.598 133.72C973.975 132.165 975.483 130.731 977.105 129.434C977.91 128.787 978.72 128.148 979.562 127.548C980.394 126.933 981.272 126.381 982.157 125.821C980.85 127.444 979.364 128.913 977.727 130.2C976.13 131.53 974.413 132.709 972.598 133.72Z" fill="black"/>
<path d="M1024.37 156.283C1023.78 156.21 1023.62 156.874 1023.51 157.341C1023.41 157.863 1023.34 158.391 1023.31 158.921C1023.24 159.989 1023.24 161.076 1023.23 162.16L1023.21 165.433C1023.19 166.528 1023.16 167.629 1023.04 168.74C1022.51 166.587 1022.24 164.374 1022.25 162.154C1022.25 161.034 1022.35 159.917 1022.55 158.816C1022.66 158.254 1022.83 157.706 1023.05 157.18C1023.19 156.915 1023.36 156.669 1023.56 156.45C1023.65 156.33 1023.79 156.247 1023.93 156.217C1024.08 156.186 1024.24 156.21 1024.37 156.283Z" fill="black"/>
<path d="M1018.16 157.741C1018.58 159.599 1018.82 161.494 1018.88 163.399C1018.97 165.303 1018.88 167.211 1018.61 169.096C1018.18 167.239 1017.94 165.343 1017.89 163.438C1017.8 161.535 1017.89 159.627 1018.16 157.741Z" fill="black"/>
<path d="M1008.87 165.969C1009.01 165.945 1009.18 165.92 1009.35 165.884C1009.3 167.182 1009.25 168.493 1009.18 169.803C1009.18 169.821 1009.17 169.837 1009.15 169.849C1009.14 169.86 1009.12 169.866 1009.1 169.864C1009.09 169.863 1009.08 169.855 1009.07 169.844C1009.06 169.832 1009.05 169.818 1009.06 169.803C1008.98 168.529 1008.92 167.256 1008.87 165.969Z" fill="black"/>
<path d="M1023.19 157.702C1023.19 157.71 1023.19 157.718 1023.19 157.727C1023.19 157.736 1023.19 157.744 1023.19 157.753C1023.19 157.761 1023.18 157.768 1023.17 157.774C1023.17 157.78 1023.16 157.784 1023.15 157.787C1023.14 157.792 1023.13 157.793 1023.12 157.791C1023.11 157.789 1023.1 157.783 1023.09 157.775C1022.72 157.402 1022.32 157.066 1021.88 156.771C1021.52 156.523 1021.09 156.402 1020.66 156.428C1020.26 156.507 1019.89 156.708 1019.6 157.003C1019.26 157.314 1018.97 157.668 1018.73 158.057L1018.69 158.106C1018.65 158.176 1018.6 158.238 1018.53 158.286C1018.46 158.335 1018.39 158.37 1018.31 158.39C1018.23 158.409 1018.15 158.412 1018.07 158.399C1017.99 158.386 1017.91 158.357 1017.84 158.314C1017.76 158.269 1017.69 158.206 1017.64 158.13C1017.43 157.732 1017.13 157.384 1016.77 157.106C1016.41 156.828 1016 156.626 1015.57 156.513C1015.08 156.506 1014.61 156.633 1014.2 156.88C1013.78 157.126 1013.44 157.483 1013.22 157.91C1013.2 157.948 1013.16 157.978 1013.12 157.995C1013.1 158.007 1013.08 158.011 1013.06 158.008C1013.05 158.006 1013.04 158.002 1013.04 157.995C1013.02 157.999 1012.99 157.994 1012.98 157.983C1012.95 157.965 1012.92 157.94 1012.9 157.91C1012.6 157.273 1012.09 156.755 1011.46 156.44C1011.21 156.353 1010.94 156.35 1010.69 156.432C1010.44 156.513 1010.22 156.676 1010.07 156.893C1009.88 157.111 1009.74 157.365 1009.65 157.64C1009.61 157.785 1009.58 157.932 1009.56 158.081V158.632L1009.51 160.702C1009.34 160.715 1009.18 160.727 1009.02 160.727C1008.91 160.727 1008.8 160.739 1008.69 160.739L1008.63 158.632L1008.61 158.069C1008.61 157.848 1008.63 157.626 1008.66 157.408C1008.75 156.955 1008.95 156.53 1009.24 156.17C1009.55 155.798 1009.98 155.543 1010.46 155.448C1010.7 155.408 1010.95 155.419 1011.19 155.48C1011.42 155.542 1011.65 155.651 1011.84 155.803C1012.35 156.27 1012.77 156.837 1013.06 157.469C1013.31 157.073 1013.6 156.707 1013.93 156.379C1014.36 155.914 1014.95 155.626 1015.58 155.57C1016.23 155.539 1016.87 155.734 1017.4 156.121C1017.64 156.305 1017.87 156.501 1018.09 156.697C1018.3 156.448 1018.54 156.223 1018.79 156.024C1019.31 155.591 1019.97 155.364 1020.65 155.387C1020.97 155.41 1021.28 155.497 1021.57 155.645C1021.86 155.792 1022.11 155.996 1022.32 156.244C1022.71 156.667 1023 157.162 1023.19 157.702Z" fill="black"/>
<path d="M1013.77 160.592C1013.46 160.58 1013.16 160.568 1012.83 160.568C1012.84 159.707 1012.91 158.847 1013.04 157.996C1013.04 157.934 1013.05 157.872 1013.06 157.812C1013.09 157.873 1013.1 157.934 1013.12 157.996C1013.4 158.845 1013.61 159.713 1013.77 160.592Z" fill="black"/>
<path d="M1013.99 169.178C1013.52 167.779 1013.21 166.333 1013.06 164.867C1013.45 164.72 1013.83 164.561 1014.18 164.389C1014.3 165.988 1014.24 167.595 1013.99 169.178Z" fill="black"/>
<path d="M954.288 229.515L953.457 225.595C953.457 225.595 967.115 209.954 1009.11 199.812L1011.51 199.445C1013.17 200.517 1014.77 201.678 1016.3 202.923C1013.5 203.389 1010.69 203.927 1007.89 204.43C1005.12 205.079 1002.32 205.691 999.562 206.389L995.445 207.553L993.38 208.141L991.352 208.814L988.884 209.635C988.758 209.58 988.616 209.567 988.481 209.598C988.399 209.619 988.321 209.657 988.254 209.71C988.186 209.763 988.131 209.829 988.09 209.904L987.284 210.174C985.94 210.652 984.621 211.178 983.277 211.681C979.795 213.089 976.35 214.62 972.991 216.31C972.649 215.233 972.343 214.143 972.099 213.028C972.182 214.197 972.345 215.36 972.588 216.507C970.987 217.327 969.387 218.185 967.835 219.103L964.195 221.369C963.034 222.202 961.813 222.949 960.689 223.831C958.374 225.51 956.23 227.414 954.288 229.515Z" fill="black"/>
<path d="M1136.12 299.16C1136.12 299.16 1135.64 290.145 1056.11 324.318C1056.11 324.318 1035.85 305.21 1034.82 257.013C1034.75 253.632 1034.86 250.251 1035.03 246.883C1035.25 241.776 1034.81 236.661 1033.71 231.67C1033.39 232.001 1033.07 232.356 1032.73 232.687C1032.38 233.001 1032.01 233.295 1031.63 233.569C1030.86 234.133 1030.03 234.594 1029.14 234.941C1028.22 235.255 1027.26 235.437 1026.29 235.48C1025.3 235.525 1024.31 235.388 1023.36 235.075C1023.29 235.048 1023.23 235.004 1023.18 234.946C1023.13 234.889 1023.1 234.819 1023.08 234.745L1023.07 234.696C1022.71 232.849 1022.25 231.025 1021.68 229.233C1021.14 227.432 1020.51 225.644 1019.9 223.856L1017.96 218.503L1015.96 213.187L1015.95 213.151C1015.91 213.06 1015.91 212.959 1015.95 212.87C1015.99 212.781 1016.06 212.71 1016.15 212.673H1016.17C1017.39 212.232 1018.61 211.791 1019.84 211.399C1021.08 210.983 1022.31 210.566 1023.56 210.186C1021.39 207.52 1018.96 205.086 1016.3 202.923L1007.99 204.895C1005.26 205.642 1002.5 206.328 999.759 207.124C996.265 208.19 992.771 209.268 989.326 210.468C989.436 210.921 989.644 211.73 989.937 212.857C989.973 213.014 989.948 213.179 989.866 213.318C989.784 213.457 989.652 213.56 989.497 213.604C989.445 213.617 989.392 213.625 989.338 213.628C989.202 213.629 989.07 213.583 988.964 213.498C988.857 213.414 988.783 213.296 988.752 213.163C988.483 212.109 988.288 211.338 988.166 210.872C986.651 211.411 985.136 211.987 983.645 212.6C980.127 213.971 976.666 215.486 973.261 217.144C973.323 217.315 973.371 217.499 973.432 217.67C973.95 219.181 974.571 220.654 975.289 222.08C976.697 224.918 978.54 227.517 980.75 229.784C981.854 230.905 983.052 231.929 984.329 232.846C985.646 233.717 987.031 234.479 988.471 235.124C991.401 236.4 994.492 237.265 997.658 237.697C997.291 237.684 996.912 237.66 996.546 237.635C996.598 237.706 996.64 237.785 996.668 237.868L997.45 240.636C997.474 240.713 997.481 240.793 997.473 240.872C997.465 240.952 997.44 241.029 997.402 241.099C997.363 241.169 997.31 241.23 997.247 241.279C997.184 241.328 997.112 241.363 997.035 241.383C996.98 241.404 996.922 241.412 996.864 241.408C996.732 241.406 996.604 241.362 996.499 241.283C996.393 241.204 996.316 241.093 996.277 240.967L995.495 238.199C995.464 238.091 995.464 237.976 995.494 237.868C995.524 237.76 995.584 237.662 995.666 237.586C995.532 237.574 995.385 237.574 995.239 237.562C994.426 237.55 993.617 237.463 992.82 237.305C991.209 237.026 989.629 236.587 988.104 235.994C986.561 235.422 985.083 234.687 983.694 233.802C979.572 231.014 976.357 227.074 974.447 222.472C973.75 220.826 973.19 219.126 972.773 217.389C971.233 218.148 969.719 218.932 968.216 219.765L964.539 221.908C963.354 222.68 962.12 223.391 960.972 224.236C958.592 225.793 956.356 227.559 954.289 229.515C956.684 234.132 958.956 238.799 961.204 243.49C963.44 248.181 965.59 252.909 967.752 257.637C968.155 258.544 968.558 259.45 968.961 260.356C969.059 260.369 972.492 268.342 974.007 271.919C976.035 276.696 978.026 281.497 979.907 286.348C979.907 286.348 1009.73 370.826 1052.33 372.724C1052.33 372.724 1075.05 370.826 1136.12 346.622C1136.12 346.622 1143.22 304.855 1136.12 299.16ZM990.193 218.76C989.925 217.744 989.68 216.813 989.461 215.968C989.424 215.81 989.45 215.645 989.532 215.506C989.613 215.367 989.745 215.265 989.9 215.221C989.978 215.2 990.059 215.195 990.139 215.206C990.219 215.217 990.295 215.244 990.365 215.285C990.434 215.326 990.495 215.38 990.543 215.445C990.591 215.51 990.626 215.583 990.646 215.662C990.865 216.507 991.11 217.438 991.378 218.442C991.399 218.52 991.404 218.601 991.393 218.681C991.382 218.761 991.355 218.838 991.314 218.908C991.273 218.977 991.219 219.038 991.155 219.086C991.09 219.134 991.017 219.169 990.939 219.189C990.887 219.203 990.834 219.211 990.78 219.214C990.646 219.213 990.516 219.168 990.411 219.086C990.305 219.004 990.228 218.89 990.193 218.76ZM991.672 224.334L990.927 221.541C990.886 221.383 990.91 221.216 990.993 221.076C991.075 220.936 991.21 220.835 991.367 220.794C991.524 220.754 991.69 220.777 991.83 220.86C991.97 220.942 992.071 221.077 992.112 221.234L992.844 224.003C992.868 224.081 992.875 224.163 992.866 224.244C992.857 224.325 992.831 224.403 992.792 224.474C992.752 224.544 992.698 224.606 992.634 224.656C992.569 224.706 992.496 224.742 992.417 224.762C992.365 224.773 992.311 224.777 992.258 224.774C992.126 224.776 991.996 224.734 991.89 224.654C991.784 224.574 991.707 224.462 991.672 224.334H991.672ZM992.417 227.101C992.377 226.946 992.4 226.78 992.479 226.641C992.559 226.501 992.69 226.399 992.844 226.354C993.002 226.314 993.168 226.337 993.309 226.417C993.45 226.496 993.555 226.628 993.602 226.783L994.347 229.515L993.174 229.882L992.417 227.101ZM995.471 235.859C995.415 235.873 995.358 235.882 995.3 235.884C995.166 235.883 995.037 235.838 994.931 235.756C994.825 235.674 994.749 235.56 994.714 235.431L993.944 232.662C993.922 232.584 993.915 232.503 993.924 232.422C993.934 232.341 993.959 232.263 993.999 232.193C994.039 232.122 994.092 232.06 994.156 232.01C994.22 231.961 994.293 231.924 994.372 231.903C994.449 231.881 994.529 231.875 994.609 231.885C994.688 231.895 994.765 231.92 994.834 231.96C994.903 232 994.964 232.054 995.013 232.117C995.061 232.181 995.097 232.254 995.117 232.332L995.886 235.1C995.931 235.256 995.913 235.423 995.835 235.566C995.757 235.708 995.626 235.814 995.471 235.859H995.471ZM998.464 246.932C998.331 246.933 998.202 246.891 998.096 246.811C997.99 246.732 997.913 246.619 997.878 246.491L997.071 243.735C997.029 243.579 997.049 243.413 997.126 243.271C997.203 243.13 997.333 243.023 997.487 242.975C997.564 242.951 997.645 242.943 997.725 242.95C997.805 242.958 997.883 242.983 997.954 243.021C998.025 243.06 998.087 243.113 998.137 243.177C998.187 243.241 998.223 243.314 998.244 243.392L999.05 246.148C999.073 246.225 999.081 246.306 999.072 246.386C999.064 246.466 999.04 246.544 999.001 246.615C998.962 246.685 998.91 246.748 998.847 246.798C998.785 246.848 998.712 246.885 998.635 246.907C998.58 246.927 998.522 246.935 998.464 246.932ZM1000.09 252.444C999.959 252.442 999.833 252.4 999.728 252.323C999.623 252.246 999.544 252.139 999.503 252.015L998.684 249.259C998.66 249.182 998.651 249.1 998.659 249.02C998.667 248.939 998.69 248.861 998.728 248.789C998.766 248.718 998.818 248.654 998.88 248.603C998.942 248.551 999.014 248.513 999.092 248.489C999.169 248.466 999.25 248.458 999.331 248.466C999.411 248.474 999.489 248.498 999.56 248.537C999.631 248.575 999.694 248.628 999.745 248.691C999.796 248.754 999.834 248.826 999.857 248.904L1000.68 251.66C1000.72 251.814 1000.7 251.98 1000.63 252.123C1000.55 252.265 1000.43 252.371 1000.27 252.419C1000.21 252.439 1000.15 252.447 1000.09 252.444L1000.09 252.444ZM1001.75 257.943C1001.62 257.945 1001.49 257.905 1001.39 257.827C1001.29 257.749 1001.21 257.64 1001.18 257.515L1000.33 254.771C1000.31 254.694 1000.3 254.612 1000.31 254.531C1000.31 254.451 1000.34 254.372 1000.37 254.3C1000.41 254.228 1000.46 254.164 1000.52 254.112C1000.59 254.06 1000.66 254.021 1000.74 253.997C1000.81 253.972 1000.89 253.964 1000.97 253.971C1001.06 253.978 1001.13 254.002 1001.2 254.039C1001.28 254.077 1001.34 254.129 1001.39 254.191C1001.44 254.254 1001.48 254.326 1001.51 254.403L1002.34 257.159C1002.38 257.314 1002.37 257.48 1002.29 257.622C1002.22 257.764 1002.09 257.871 1001.93 257.919C1001.87 257.939 1001.81 257.947 1001.75 257.943V257.943ZM1003.45 263.443C1003.32 263.443 1003.19 263.401 1003.09 263.324C1002.99 263.246 1002.91 263.138 1002.87 263.014L1002.02 260.27C1001.99 260.193 1001.98 260.112 1001.99 260.03C1001.99 259.949 1002.02 259.87 1002.06 259.798C1002.09 259.726 1002.15 259.662 1002.21 259.611C1002.27 259.559 1002.34 259.521 1002.42 259.499C1002.58 259.453 1002.74 259.469 1002.88 259.545C1003.03 259.621 1003.13 259.749 1003.18 259.903L1004.03 262.647C1004.06 262.723 1004.07 262.803 1004.06 262.883C1004.05 262.963 1004.03 263.041 1003.99 263.111C1003.95 263.182 1003.9 263.245 1003.84 263.295C1003.78 263.346 1003.71 263.384 1003.63 263.406C1003.57 263.43 1003.51 263.443 1003.45 263.443L1003.45 263.443ZM1005.2 268.918C1005.06 268.918 1004.94 268.876 1004.83 268.799C1004.73 268.722 1004.65 268.614 1004.61 268.489C1004.32 267.583 1004.02 266.664 1003.73 265.758C1003.7 265.681 1003.7 265.599 1003.7 265.518C1003.71 265.438 1003.73 265.359 1003.77 265.287C1003.81 265.215 1003.86 265.152 1003.92 265.1C1003.98 265.048 1004.06 265.01 1004.13 264.986C1004.29 264.939 1004.45 264.953 1004.6 265.027C1004.74 265.1 1004.85 265.226 1004.9 265.378C1005.18 266.297 1005.48 267.203 1005.77 268.109C1005.8 268.186 1005.81 268.267 1005.8 268.347C1005.79 268.428 1005.77 268.506 1005.74 268.578C1005.7 268.65 1005.65 268.714 1005.59 268.766C1005.53 268.818 1005.46 268.857 1005.38 268.881C1005.32 268.905 1005.26 268.918 1005.2 268.918V268.918ZM1006.97 274.368C1006.84 274.369 1006.71 274.329 1006.61 274.255C1006.5 274.18 1006.42 274.074 1006.38 273.952L1005.49 271.221C1005.44 271.066 1005.45 270.899 1005.53 270.755C1005.6 270.611 1005.73 270.502 1005.88 270.451C1006.03 270.401 1006.2 270.414 1006.34 270.487C1006.49 270.56 1006.6 270.687 1006.65 270.841L1007.54 273.56C1007.57 273.637 1007.58 273.717 1007.57 273.798C1007.57 273.879 1007.55 273.958 1007.51 274.03C1007.47 274.102 1007.42 274.166 1007.36 274.218C1007.3 274.27 1007.23 274.308 1007.15 274.332C1007.09 274.356 1007.03 274.368 1006.97 274.369V274.368ZM1008.8 279.831C1008.67 279.832 1008.54 279.792 1008.44 279.718C1008.33 279.643 1008.25 279.537 1008.21 279.415C1007.91 278.509 1007.6 277.59 1007.3 276.683C1007.27 276.607 1007.26 276.527 1007.26 276.446C1007.27 276.365 1007.29 276.286 1007.32 276.213C1007.36 276.14 1007.4 276.075 1007.46 276.021C1007.52 275.968 1007.6 275.927 1007.67 275.901C1007.75 275.875 1007.83 275.864 1007.91 275.87C1007.99 275.875 1008.07 275.897 1008.14 275.933C1008.21 275.97 1008.28 276.02 1008.33 276.082C1008.38 276.143 1008.42 276.215 1008.44 276.292C1008.75 277.198 1009.07 278.104 1009.37 279.023C1009.4 279.115 1009.41 279.212 1009.4 279.307C1009.38 279.402 1009.34 279.493 1009.29 279.571C1009.23 279.65 1009.16 279.714 1009.07 279.759C1008.99 279.804 1008.9 279.829 1008.8 279.831ZM1010.67 285.257C1010.54 285.256 1010.42 285.217 1010.32 285.145C1010.22 285.073 1010.14 284.971 1010.09 284.853C1009.78 283.947 1009.46 283.041 1009.15 282.134C1009.13 282.058 1009.11 281.977 1009.12 281.897C1009.12 281.816 1009.14 281.736 1009.17 281.663C1009.21 281.59 1009.26 281.524 1009.32 281.47C1009.38 281.416 1009.45 281.374 1009.52 281.347C1009.6 281.32 1009.68 281.309 1009.76 281.314C1009.84 281.319 1009.92 281.339 1009.99 281.375C1010.06 281.411 1010.13 281.46 1010.18 281.521C1010.24 281.582 1010.28 281.653 1010.3 281.73C1010.62 282.636 1010.92 283.543 1011.24 284.437C1011.27 284.512 1011.28 284.593 1011.28 284.673C1011.28 284.754 1011.26 284.833 1011.22 284.906C1011.19 284.979 1011.14 285.045 1011.08 285.099C1011.02 285.153 1010.95 285.194 1010.88 285.221C1010.81 285.245 1010.74 285.257 1010.67 285.257V285.257ZM1012.6 290.671C1012.47 290.669 1012.35 290.629 1012.25 290.557C1012.15 290.485 1012.07 290.384 1012.02 290.267C1011.71 289.373 1011.38 288.467 1011.06 287.56C1011.03 287.485 1011.02 287.404 1011.02 287.324C1011.03 287.243 1011.04 287.164 1011.08 287.091C1011.11 287.019 1011.16 286.953 1011.22 286.899C1011.28 286.845 1011.35 286.803 1011.43 286.776C1011.58 286.726 1011.74 286.735 1011.89 286.804C1012.04 286.872 1012.15 286.994 1012.21 287.144C1012.53 288.05 1012.85 288.956 1013.17 289.85C1013.2 289.926 1013.21 290.006 1013.21 290.087C1013.21 290.167 1013.19 290.246 1013.15 290.319C1013.12 290.392 1013.07 290.458 1013.01 290.512C1012.95 290.566 1012.88 290.608 1012.81 290.635C1012.74 290.66 1012.67 290.672 1012.6 290.671V290.671ZM1014.6 296.061C1014.48 296.06 1014.36 296.023 1014.25 295.953C1014.15 295.883 1014.07 295.784 1014.03 295.669C1013.7 294.774 1013.36 293.868 1013.03 292.974C1013 292.898 1012.98 292.818 1012.99 292.737C1012.99 292.656 1013.01 292.576 1013.04 292.502C1013.07 292.428 1013.12 292.361 1013.18 292.306C1013.24 292.25 1013.3 292.207 1013.38 292.178C1013.46 292.149 1013.54 292.136 1013.62 292.139C1013.7 292.142 1013.78 292.162 1013.85 292.196C1013.92 292.23 1013.99 292.279 1014.04 292.339C1014.09 292.399 1014.14 292.469 1014.16 292.545C1014.5 293.439 1014.83 294.334 1015.18 295.228C1015.23 295.381 1015.22 295.548 1015.16 295.696C1015.09 295.844 1014.97 295.961 1014.82 296.024C1014.75 296.048 1014.68 296.06 1014.6 296.061V296.061ZM1016.9 301.377C1016.83 301.401 1016.75 301.413 1016.68 301.413C1016.56 301.416 1016.44 301.381 1016.33 301.313C1016.23 301.245 1016.15 301.148 1016.1 301.034C1015.75 300.152 1015.41 299.258 1015.05 298.351C1015.02 298.276 1015.01 298.195 1015.01 298.114C1015.01 298.033 1015.03 297.953 1015.07 297.879C1015.1 297.804 1015.15 297.738 1015.2 297.682C1015.26 297.626 1015.33 297.582 1015.41 297.553C1015.48 297.524 1015.56 297.51 1015.64 297.513C1015.73 297.515 1015.8 297.533 1015.88 297.566C1015.95 297.599 1016.02 297.647 1016.07 297.706C1016.13 297.765 1016.17 297.834 1016.2 297.91C1016.54 298.804 1016.89 299.698 1017.24 300.58C1017.27 300.655 1017.29 300.735 1017.28 300.816C1017.28 300.896 1017.27 300.976 1017.24 301.05C1017.2 301.124 1017.16 301.191 1017.1 301.247C1017.04 301.303 1016.97 301.347 1016.9 301.377L1016.9 301.377ZM1019.07 306.692C1019 306.726 1018.91 306.743 1018.83 306.741C1018.71 306.742 1018.59 306.706 1018.49 306.638C1018.39 306.57 1018.31 306.474 1018.27 306.361C1017.9 305.492 1017.53 304.598 1017.18 303.704C1017.12 303.554 1017.12 303.387 1017.18 303.238C1017.24 303.089 1017.36 302.971 1017.51 302.91C1017.66 302.848 1017.83 302.848 1017.97 302.91C1018.12 302.971 1018.24 303.089 1018.3 303.238C1018.67 304.132 1019.04 305.014 1019.4 305.896C1019.46 306.046 1019.46 306.213 1019.4 306.361C1019.34 306.51 1019.22 306.629 1019.07 306.692V306.692ZM1021.35 311.971C1021.27 312.005 1021.19 312.022 1021.1 312.02C1020.98 312.021 1020.87 311.988 1020.77 311.925C1020.67 311.862 1020.59 311.772 1020.54 311.665C1020.16 310.796 1019.77 309.914 1019.39 309.02C1019.33 308.87 1019.32 308.701 1019.38 308.55C1019.44 308.399 1019.56 308.277 1019.71 308.212C1019.86 308.147 1020.03 308.144 1020.18 308.204C1020.33 308.263 1020.45 308.38 1020.51 308.529C1020.89 309.424 1021.27 310.293 1021.65 311.163C1021.68 311.236 1021.7 311.315 1021.71 311.396C1021.71 311.476 1021.7 311.556 1021.67 311.632C1021.64 311.707 1021.6 311.776 1021.54 311.834C1021.49 311.892 1021.42 311.939 1021.35 311.971H1021.35ZM1023.75 317.189C1023.67 317.228 1023.58 317.249 1023.48 317.251C1023.37 317.248 1023.26 317.213 1023.16 317.15C1023.06 317.088 1022.98 316.999 1022.93 316.895C1022.53 316.05 1022.13 315.168 1021.72 314.286C1021.69 314.214 1021.67 314.136 1021.67 314.056C1021.66 313.976 1021.67 313.896 1021.7 313.82C1021.73 313.745 1021.77 313.676 1021.82 313.617C1021.88 313.558 1021.94 313.511 1022.02 313.478C1022.09 313.443 1022.17 313.424 1022.25 313.42C1022.33 313.417 1022.41 313.43 1022.49 313.458C1022.57 313.487 1022.64 313.53 1022.7 313.586C1022.76 313.642 1022.8 313.709 1022.84 313.784C1023.23 314.654 1023.63 315.523 1024.05 316.369C1024.11 316.516 1024.12 316.686 1024.07 316.84C1024.01 316.994 1023.9 317.119 1023.75 317.189ZM1026.33 322.334C1026.24 322.371 1026.14 322.392 1026.04 322.395C1025.93 322.395 1025.82 322.364 1025.72 322.306C1025.63 322.248 1025.55 322.164 1025.5 322.064C1025.06 321.231 1024.63 320.374 1024.19 319.492C1024.16 319.42 1024.14 319.341 1024.13 319.261C1024.13 319.18 1024.14 319.1 1024.16 319.023C1024.19 318.947 1024.23 318.877 1024.28 318.817C1024.34 318.756 1024.4 318.707 1024.47 318.672C1024.54 318.636 1024.62 318.615 1024.7 318.61C1024.78 318.605 1024.86 318.616 1024.94 318.642C1025.02 318.669 1025.09 318.709 1025.15 318.763C1025.21 318.816 1025.26 318.881 1025.29 318.953C1025.72 319.823 1026.16 320.668 1026.59 321.501C1026.66 321.645 1026.68 321.814 1026.63 321.97C1026.58 322.126 1026.47 322.256 1026.33 322.334ZM1029.12 327.356C1029.02 327.403 1028.92 327.428 1028.81 327.429C1028.7 327.431 1028.6 327.405 1028.51 327.354C1028.41 327.302 1028.34 327.227 1028.28 327.135C1027.81 326.314 1027.33 325.482 1026.85 324.612C1026.78 324.469 1026.76 324.301 1026.81 324.145C1026.85 323.989 1026.96 323.858 1027.1 323.78C1027.24 323.703 1027.41 323.684 1027.57 323.73C1027.72 323.776 1027.85 323.881 1027.93 324.024C1028.39 324.881 1028.87 325.714 1029.33 326.51C1029.42 326.652 1029.44 326.82 1029.4 326.979C1029.36 327.137 1029.26 327.273 1029.12 327.356L1029.12 327.356ZM1032.22 332.181C1032.12 332.251 1032 332.289 1031.88 332.292C1031.78 332.292 1031.68 332.267 1031.59 332.22C1031.5 332.173 1031.43 332.105 1031.37 332.022C1030.84 331.263 1030.31 330.454 1029.77 329.609C1029.69 329.471 1029.66 329.304 1029.7 329.145C1029.73 328.987 1029.83 328.848 1029.97 328.761C1030.1 328.674 1030.27 328.644 1030.43 328.679C1030.59 328.714 1030.73 328.811 1030.81 328.948C1031.33 329.781 1031.85 330.577 1032.38 331.336C1032.47 331.47 1032.5 331.633 1032.47 331.792C1032.44 331.95 1032.35 332.09 1032.22 332.181L1032.22 332.181ZM1035.81 336.652C1035.69 336.761 1035.53 336.818 1035.37 336.811C1035.21 336.804 1035.05 336.734 1034.94 336.615C1034.33 335.929 1033.7 335.182 1033.09 334.374C1033.04 334.31 1033 334.238 1032.98 334.16C1032.95 334.082 1032.95 334 1032.96 333.92C1032.97 333.84 1032.99 333.762 1033.03 333.692C1033.07 333.622 1033.13 333.56 1033.19 333.51C1033.25 333.461 1033.33 333.425 1033.41 333.404C1033.48 333.383 1033.56 333.378 1033.64 333.389C1033.72 333.399 1033.8 333.426 1033.87 333.467C1033.94 333.508 1034 333.562 1034.05 333.627C1034.65 334.398 1035.26 335.133 1035.85 335.795C1035.9 335.853 1035.94 335.922 1035.97 335.997C1036 336.072 1036.01 336.151 1036.01 336.231C1036 336.311 1035.98 336.389 1035.95 336.461C1035.92 336.534 1035.87 336.598 1035.81 336.652L1035.81 336.652ZM1040.22 340.241C1040.13 340.379 1040 340.478 1039.84 340.517C1039.68 340.556 1039.52 340.531 1039.38 340.449C1038.54 339.931 1037.75 339.336 1037.02 338.673C1036.96 338.621 1036.91 338.558 1036.87 338.486C1036.84 338.415 1036.82 338.337 1036.81 338.257C1036.8 338.178 1036.81 338.097 1036.84 338.022C1036.87 337.946 1036.91 337.876 1036.96 337.816C1037.07 337.693 1037.22 337.617 1037.38 337.606C1037.54 337.594 1037.7 337.648 1037.83 337.754C1038.5 338.366 1039.24 338.916 1040.01 339.396C1040.08 339.438 1040.14 339.493 1040.19 339.558C1040.24 339.623 1040.27 339.697 1040.29 339.775C1040.31 339.854 1040.31 339.935 1040.3 340.015C1040.29 340.095 1040.26 340.172 1040.22 340.241H1040.22ZM1045.08 342.397C1045.05 342.397 1045.01 342.384 1044.97 342.384C1044 342.207 1043.05 341.966 1042.11 341.662C1041.96 341.611 1041.83 341.502 1041.76 341.357C1041.69 341.212 1041.67 341.044 1041.72 340.89C1041.78 340.738 1041.88 340.612 1042.03 340.538C1042.17 340.465 1042.34 340.451 1042.49 340.498C1043.38 340.784 1044.28 341.01 1045.19 341.172C1045.34 341.201 1045.48 341.285 1045.57 341.407C1045.66 341.529 1045.7 341.682 1045.69 341.834C1045.68 341.987 1045.61 342.129 1045.49 342.233C1045.38 342.336 1045.23 342.395 1045.08 342.397ZM1050.77 342.911H1050.76C1049.75 342.899 1048.78 342.85 1047.87 342.764C1047.79 342.758 1047.71 342.737 1047.64 342.7C1047.56 342.664 1047.5 342.613 1047.45 342.552C1047.4 342.49 1047.36 342.419 1047.33 342.342C1047.31 342.265 1047.3 342.183 1047.31 342.103C1047.31 342.023 1047.33 341.944 1047.37 341.873C1047.41 341.801 1047.46 341.738 1047.52 341.687C1047.58 341.635 1047.65 341.597 1047.73 341.573C1047.8 341.55 1047.89 341.543 1047.96 341.551C1048.86 341.625 1049.8 341.674 1050.79 341.686C1050.95 341.694 1051.1 341.763 1051.21 341.879C1051.32 341.995 1051.38 342.15 1051.39 342.311C1051.38 342.471 1051.32 342.624 1051.2 342.736C1051.09 342.849 1050.93 342.911 1050.77 342.911L1050.77 342.911ZM1056.55 342.715C1055.56 342.789 1054.6 342.85 1053.66 342.886H1053.63C1053.47 342.886 1053.32 342.824 1053.21 342.711C1053.09 342.599 1053.03 342.446 1053.02 342.286C1053.02 342.126 1053.08 341.971 1053.19 341.854C1053.3 341.737 1053.45 341.668 1053.61 341.662C1054.54 341.625 1055.48 341.564 1056.46 341.49C1056.62 341.481 1056.77 341.534 1056.89 341.64C1057.01 341.745 1057.09 341.894 1057.1 342.055C1057.12 342.215 1057.07 342.374 1056.96 342.497C1056.86 342.621 1056.71 342.699 1056.55 342.715ZM1062.28 342.054C1061.32 342.201 1060.36 342.323 1059.42 342.433H1059.35C1059.2 342.433 1059.06 342.378 1058.94 342.279C1058.83 342.18 1058.76 342.043 1058.74 341.895C1058.72 341.733 1058.77 341.57 1058.87 341.442C1058.97 341.314 1059.12 341.231 1059.28 341.209C1060.21 341.11 1061.15 340.988 1062.1 340.841C1062.26 340.821 1062.42 340.864 1062.55 340.963C1062.68 341.061 1062.77 341.206 1062.8 341.368C1062.82 341.527 1062.78 341.688 1062.68 341.817C1062.58 341.946 1062.44 342.031 1062.28 342.054L1062.28 342.054ZM1067.96 341.086C1067.01 341.27 1066.06 341.441 1065.13 341.6C1065.09 341.611 1065.06 341.615 1065.02 341.613C1064.88 341.612 1064.74 341.561 1064.63 341.469C1064.52 341.378 1064.45 341.251 1064.42 341.11C1064.39 340.95 1064.43 340.786 1064.53 340.653C1064.62 340.52 1064.76 340.429 1064.92 340.4C1065.85 340.241 1066.79 340.069 1067.73 339.886C1067.89 339.858 1068.06 339.894 1068.19 339.985C1068.32 340.076 1068.42 340.216 1068.45 340.375C1068.48 340.535 1068.45 340.699 1068.35 340.832C1068.26 340.965 1068.12 341.057 1067.96 341.086L1067.96 341.086ZM1073.59 339.898C1072.65 340.106 1071.71 340.314 1070.79 340.51C1070.74 340.52 1070.7 340.525 1070.65 340.523C1070.5 340.525 1070.35 340.47 1070.24 340.369C1070.13 340.269 1070.06 340.129 1070.04 339.979C1070.03 339.828 1070.07 339.677 1070.16 339.556C1070.25 339.434 1070.38 339.351 1070.53 339.322C1071.46 339.126 1072.39 338.918 1073.31 338.698C1073.47 338.663 1073.64 338.691 1073.77 338.778C1073.91 338.864 1074.01 339.001 1074.05 339.159C1074.08 339.316 1074.06 339.483 1073.97 339.621C1073.89 339.759 1073.75 339.859 1073.59 339.898ZM1079.18 338.514C1078.24 338.759 1077.31 338.992 1076.39 339.224C1076.34 339.238 1076.3 339.246 1076.25 339.249C1076.1 339.249 1075.95 339.194 1075.84 339.094C1075.73 338.994 1075.65 338.857 1075.64 338.708C1075.62 338.558 1075.66 338.407 1075.74 338.284C1075.83 338.16 1075.95 338.072 1076.1 338.036C1077.02 337.803 1077.94 337.57 1078.87 337.338C1078.95 337.316 1079.03 337.31 1079.11 337.32C1079.19 337.33 1079.27 337.355 1079.33 337.395C1079.4 337.435 1079.47 337.488 1079.51 337.552C1079.56 337.616 1079.6 337.689 1079.62 337.767C1079.64 337.845 1079.64 337.926 1079.63 338.006C1079.62 338.086 1079.59 338.163 1079.55 338.232C1079.51 338.302 1079.46 338.363 1079.39 338.411C1079.33 338.459 1079.26 338.494 1079.18 338.514L1079.18 338.514ZM1084.71 336.995C1083.8 337.264 1082.87 337.522 1081.95 337.779C1081.9 337.789 1081.85 337.793 1081.79 337.791C1081.64 337.792 1081.5 337.738 1081.39 337.64C1081.28 337.543 1081.21 337.408 1081.19 337.261C1081.17 337.114 1081.2 336.965 1081.28 336.842C1081.37 336.718 1081.49 336.629 1081.63 336.591C1082.55 336.346 1083.47 336.088 1084.38 335.819C1084.46 335.797 1084.54 335.79 1084.62 335.799C1084.7 335.808 1084.78 335.833 1084.85 335.872C1084.92 335.911 1084.98 335.964 1085.03 336.027C1085.08 336.09 1085.12 336.163 1085.14 336.241C1085.16 336.318 1085.17 336.399 1085.16 336.479C1085.15 336.559 1085.12 336.637 1085.08 336.707C1085.04 336.777 1084.99 336.838 1084.93 336.888C1084.86 336.937 1084.79 336.974 1084.71 336.995L1084.71 336.995ZM1090.22 335.366C1089.31 335.648 1088.39 335.929 1087.47 336.199C1087.42 336.213 1087.36 336.221 1087.3 336.223C1087.17 336.225 1087.04 336.183 1086.93 336.103C1086.83 336.023 1086.75 335.91 1086.72 335.782C1086.69 335.705 1086.69 335.624 1086.69 335.544C1086.7 335.464 1086.73 335.386 1086.77 335.316C1086.8 335.245 1086.86 335.183 1086.92 335.133C1086.98 335.082 1087.05 335.045 1087.13 335.023C1088.05 334.754 1088.95 334.472 1089.87 334.202C1090.02 334.155 1090.19 334.171 1090.33 334.247C1090.47 334.323 1090.58 334.452 1090.62 334.606C1090.67 334.761 1090.66 334.927 1090.58 335.07C1090.5 335.212 1090.38 335.319 1090.22 335.366ZM1095.71 333.627C1094.8 333.92 1093.89 334.215 1092.98 334.508C1092.92 334.529 1092.86 334.537 1092.8 334.533C1092.65 334.534 1092.51 334.484 1092.4 334.39C1092.29 334.297 1092.22 334.166 1092.19 334.023C1092.17 333.879 1092.2 333.732 1092.27 333.608C1092.35 333.484 1092.47 333.39 1092.6 333.345C1093.52 333.051 1094.42 332.757 1095.34 332.463C1095.49 332.416 1095.66 332.43 1095.8 332.503C1095.95 332.576 1096.06 332.702 1096.11 332.855C1096.13 332.932 1096.14 333.014 1096.14 333.094C1096.13 333.175 1096.11 333.254 1096.07 333.326C1096.03 333.398 1095.98 333.461 1095.92 333.513C1095.86 333.565 1095.78 333.603 1095.71 333.627L1095.71 333.627ZM1101.16 331.814L1098.44 332.733C1098.38 332.752 1098.31 332.76 1098.25 332.757C1098.1 332.759 1097.96 332.709 1097.85 332.616C1097.74 332.522 1097.66 332.392 1097.64 332.247C1097.61 332.103 1097.64 331.956 1097.72 331.831C1097.8 331.706 1097.91 331.613 1098.05 331.569L1100.76 330.65C1100.92 330.598 1101.09 330.608 1101.23 330.679C1101.38 330.75 1101.49 330.876 1101.55 331.03C1101.59 331.186 1101.58 331.354 1101.51 331.5C1101.43 331.646 1101.31 331.758 1101.16 331.814L1101.16 331.814ZM1106.58 329.915C1105.69 330.234 1104.78 330.553 1103.87 330.871C1103.8 330.895 1103.74 330.907 1103.67 330.907C1103.54 330.908 1103.42 330.868 1103.32 330.793C1103.21 330.718 1103.14 330.613 1103.1 330.491C1103.07 330.416 1103.06 330.335 1103.06 330.255C1103.06 330.174 1103.08 330.095 1103.12 330.022C1103.15 329.949 1103.2 329.884 1103.26 329.83C1103.32 329.776 1103.39 329.734 1103.46 329.707C1104.38 329.401 1105.27 329.07 1106.16 328.752C1106.32 328.699 1106.49 328.709 1106.63 328.779C1106.78 328.85 1106.89 328.975 1106.94 329.128C1107 329.281 1106.99 329.449 1106.92 329.597C1106.85 329.744 1106.73 329.858 1106.58 329.915ZM1111.98 327.943C1111.09 328.274 1110.2 328.605 1109.28 328.936C1109.21 328.96 1109.14 328.972 1109.07 328.972C1108.95 328.974 1108.82 328.935 1108.72 328.863C1108.62 328.79 1108.54 328.687 1108.5 328.568C1108.44 328.415 1108.45 328.248 1108.52 328.101C1108.59 327.955 1108.71 327.841 1108.86 327.784C1109.77 327.454 1110.67 327.123 1111.55 326.792C1111.7 326.737 1111.87 326.745 1112.02 326.814C1112.16 326.883 1112.28 327.007 1112.33 327.159C1112.36 327.234 1112.38 327.314 1112.38 327.394C1112.37 327.475 1112.36 327.554 1112.32 327.627C1112.29 327.7 1112.24 327.766 1112.18 327.82C1112.12 327.875 1112.05 327.917 1111.98 327.944L1111.98 327.943ZM1117.34 325.91C1116.47 326.253 1115.57 326.596 1114.67 326.939C1114.6 326.963 1114.52 326.975 1114.45 326.976C1114.32 326.975 1114.2 326.938 1114.1 326.868C1114 326.798 1113.92 326.699 1113.87 326.584C1113.82 326.431 1113.83 326.263 1113.89 326.115C1113.96 325.967 1114.08 325.85 1114.23 325.788C1115.14 325.445 1116.03 325.102 1116.91 324.771C1116.99 324.743 1117.07 324.73 1117.15 324.732C1117.23 324.735 1117.31 324.753 1117.38 324.786C1117.45 324.819 1117.52 324.866 1117.57 324.925C1117.63 324.983 1117.67 325.051 1117.7 325.126C1117.72 325.201 1117.74 325.281 1117.73 325.36C1117.73 325.44 1117.71 325.519 1117.68 325.592C1117.65 325.665 1117.6 325.73 1117.54 325.785C1117.49 325.839 1117.42 325.882 1117.34 325.91V325.91ZM1122.69 323.815C1121.83 324.159 1120.95 324.514 1120.03 324.869C1119.96 324.904 1119.88 324.921 1119.8 324.918C1119.68 324.918 1119.56 324.88 1119.46 324.81C1119.36 324.74 1119.28 324.641 1119.24 324.526C1119.18 324.375 1119.18 324.207 1119.24 324.058C1119.31 323.909 1119.43 323.791 1119.58 323.73C1120.49 323.375 1121.39 323.019 1122.25 322.676C1122.4 322.62 1122.57 322.624 1122.71 322.688C1122.86 322.752 1122.98 322.871 1123.03 323.019C1123.07 323.094 1123.08 323.174 1123.08 323.255C1123.08 323.336 1123.07 323.416 1123.03 323.491C1123 323.565 1122.95 323.632 1122.9 323.688C1122.84 323.744 1122.77 323.787 1122.69 323.816L1122.69 323.815ZM1128.03 321.672C1127.18 322.015 1126.28 322.382 1125.37 322.75C1125.3 322.783 1125.22 322.799 1125.14 322.799C1125 322.798 1124.86 322.749 1124.75 322.659C1124.64 322.569 1124.57 322.445 1124.54 322.306C1124.51 322.168 1124.53 322.024 1124.6 321.9C1124.67 321.775 1124.77 321.677 1124.9 321.623C1125.83 321.243 1126.71 320.888 1127.57 320.533C1127.72 320.475 1127.88 320.478 1128.03 320.542C1128.18 320.605 1128.3 320.725 1128.36 320.874C1128.42 321.023 1128.42 321.19 1128.36 321.34C1128.3 321.489 1128.18 321.608 1128.03 321.672H1128.03ZM1133.33 319.455C1132.53 319.798 1131.64 320.178 1130.68 320.57C1130.61 320.603 1130.53 320.62 1130.45 320.619C1130.33 320.618 1130.21 320.582 1130.11 320.514C1130.01 320.447 1129.93 320.351 1129.89 320.239C1129.86 320.165 1129.84 320.086 1129.84 320.005C1129.84 319.925 1129.86 319.845 1129.89 319.771C1129.92 319.697 1129.96 319.63 1130.02 319.573C1130.08 319.517 1130.14 319.473 1130.22 319.443C1131.17 319.051 1132.05 318.671 1132.86 318.328C1133.01 318.266 1133.18 318.266 1133.33 318.328C1133.48 318.39 1133.6 318.509 1133.66 318.659C1133.7 318.733 1133.71 318.812 1133.71 318.893C1133.71 318.973 1133.7 319.053 1133.67 319.127C1133.64 319.202 1133.59 319.269 1133.53 319.326C1133.48 319.382 1133.41 319.426 1133.33 319.455L1133.33 319.455ZM1138.62 317.177C1138.1 317.409 1137.19 317.802 1135.98 318.328C1135.91 318.363 1135.82 318.38 1135.74 318.377C1135.6 318.378 1135.46 318.329 1135.35 318.24C1135.24 318.15 1135.17 318.025 1135.14 317.886C1135.11 317.746 1135.13 317.602 1135.2 317.477C1135.27 317.352 1135.38 317.255 1135.51 317.201C1136.71 316.687 1137.61 316.295 1138.13 316.062C1138.21 316.029 1138.29 316.011 1138.37 316.008C1138.45 316.006 1138.53 316.019 1138.6 316.048C1138.68 316.077 1138.75 316.12 1138.8 316.176C1138.86 316.231 1138.91 316.298 1138.94 316.372C1138.97 316.445 1138.99 316.525 1138.99 316.605C1138.99 316.686 1138.98 316.766 1138.95 316.841C1138.92 316.916 1138.88 316.984 1138.82 317.042C1138.76 317.099 1138.7 317.145 1138.62 317.177ZM1023.56 210.186C1022.38 210.762 1021.2 211.289 1020.01 211.828C1018.95 212.318 1017.89 212.771 1016.81 213.224C1017.56 214.841 1018.3 216.458 1018.96 218.111C1019.71 219.875 1020.39 221.651 1021.03 223.452C1021.69 225.24 1022.27 227.065 1022.81 228.902C1023.32 230.65 1023.72 232.43 1024 234.23C1024.73 234.497 1025.51 234.645 1026.29 234.671C1027.19 234.69 1028.08 234.578 1028.94 234.341C1029.82 234.092 1030.66 233.739 1031.45 233.287C1032.25 232.814 1033 232.273 1033.71 231.67C1032.05 223.811 1028.57 216.453 1023.56 210.186ZM973.31 272.225L968.485 261.618C968.436 261.593 966.86 258.041 966.86 258.041L960.507 243.809C958.419 239.056 956.317 234.304 954.29 229.515C954.29 229.515 863.472 335.231 814.24 417.811C814.24 417.811 825.284 426.189 836.743 434.003V433.991L838.331 431.602C838.377 431.535 838.435 431.478 838.503 431.434C838.57 431.389 838.646 431.359 838.726 431.344C838.805 431.329 838.887 431.33 838.966 431.347C839.045 431.364 839.12 431.397 839.186 431.443C839.253 431.487 839.311 431.544 839.355 431.611C839.4 431.678 839.43 431.753 839.445 431.832C839.46 431.911 839.459 431.992 839.441 432.07C839.424 432.149 839.391 432.223 839.345 432.288L837.757 434.677L837.745 434.689C847.444 441.254 857.205 447.232 860.626 447.232C860.626 447.232 910.335 366.073 918.85 353.739C927.377 341.392 974.703 296.783 979.907 286.348C977.659 281.669 975.485 276.941 973.31 272.225ZM842.534 427.524L840.945 429.9C840.89 429.986 840.814 430.056 840.724 430.106C840.635 430.155 840.534 430.181 840.432 430.182C840.314 430.181 840.198 430.142 840.102 430.071C840.035 430.028 839.977 429.972 839.931 429.905C839.886 429.839 839.854 429.764 839.838 429.685C839.822 429.606 839.822 429.525 839.838 429.446C839.854 429.367 839.886 429.293 839.931 429.226L841.52 426.838C841.612 426.703 841.753 426.61 841.912 426.578C842.072 426.546 842.238 426.578 842.375 426.666C842.442 426.712 842.499 426.77 842.543 426.838C842.587 426.906 842.618 426.982 842.633 427.062C842.647 427.142 842.646 427.224 842.629 427.303C842.612 427.382 842.58 427.457 842.534 427.524ZM845.734 422.759L844.134 425.135C844.08 425.219 844.006 425.288 843.918 425.335C843.831 425.382 843.732 425.406 843.633 425.405C843.511 425.41 843.391 425.376 843.291 425.307C843.157 425.217 843.063 425.078 843.031 424.92C842.999 424.761 843.031 424.597 843.12 424.462L844.72 422.073C844.81 421.939 844.948 421.845 845.106 421.813C845.264 421.781 845.429 421.813 845.563 421.902C845.698 421.994 845.79 422.136 845.822 422.296C845.854 422.456 845.823 422.622 845.734 422.759H845.734ZM848.923 417.994L847.322 420.371C847.268 420.454 847.193 420.522 847.106 420.569C847.018 420.616 846.921 420.64 846.822 420.64C846.7 420.646 846.58 420.611 846.48 420.542C846.345 420.45 846.252 420.308 846.221 420.148C846.189 419.988 846.22 419.822 846.308 419.685L847.909 417.308C847.998 417.174 848.137 417.081 848.295 417.049C848.453 417.017 848.617 417.048 848.752 417.137C848.886 417.23 848.979 417.371 849.011 417.531C849.043 417.691 849.011 417.857 848.923 417.994L848.923 417.994ZM852.111 413.218L850.511 415.606C850.456 415.689 850.382 415.757 850.294 415.804C850.207 415.851 850.109 415.876 850.01 415.875C849.889 415.875 849.771 415.841 849.668 415.777C849.534 415.685 849.441 415.544 849.409 415.384C849.377 415.223 849.409 415.057 849.497 414.92L851.097 412.544C851.141 412.476 851.198 412.418 851.264 412.373C851.33 412.328 851.405 412.296 851.484 412.28C851.562 412.263 851.643 412.263 851.722 412.278C851.801 412.293 851.876 412.324 851.943 412.368C852.01 412.413 852.067 412.47 852.112 412.537C852.157 412.604 852.188 412.679 852.203 412.758C852.219 412.837 852.219 412.918 852.203 412.997C852.187 413.076 852.156 413.151 852.111 413.218L852.111 413.218ZM855.3 408.453L853.699 410.841C853.655 410.908 853.598 410.966 853.532 411.01C853.465 411.055 853.39 411.085 853.312 411.1C853.233 411.115 853.152 411.114 853.074 411.097C852.996 411.08 852.922 411.047 852.857 411.001C852.722 410.911 852.629 410.772 852.597 410.613C852.565 410.455 852.596 410.29 852.685 410.155L854.286 407.779C854.329 407.712 854.386 407.654 854.452 407.609C854.518 407.563 854.593 407.532 854.671 407.516C854.75 407.5 854.831 407.5 854.909 407.516C854.988 407.531 855.062 407.563 855.129 407.608C855.263 407.697 855.357 407.836 855.389 407.995C855.421 408.153 855.389 408.318 855.3 408.453L855.3 408.453ZM858.488 403.688L856.9 406.077C856.842 406.159 856.765 406.226 856.676 406.273C856.587 406.32 856.488 406.345 856.387 406.346C856.277 406.345 856.169 406.313 856.075 406.256C855.981 406.198 855.904 406.116 855.853 406.018C855.802 405.92 855.778 405.81 855.784 405.7C855.79 405.589 855.825 405.483 855.886 405.391L857.474 403.002C857.566 402.87 857.706 402.779 857.864 402.749C858.022 402.72 858.186 402.754 858.319 402.844C858.452 402.934 858.545 403.073 858.576 403.231C858.608 403.389 858.576 403.554 858.488 403.688V403.688ZM861.677 398.923L860.089 401.3C860.033 401.386 859.957 401.456 859.867 401.505C859.778 401.554 859.678 401.581 859.576 401.581C859.453 401.579 859.334 401.541 859.233 401.471C859.167 401.427 859.109 401.37 859.065 401.303C859.02 401.236 858.99 401.161 858.975 401.082C858.96 401.004 858.961 400.922 858.978 400.844C858.996 400.766 859.028 400.691 859.075 400.626L860.663 398.238C860.755 398.103 860.896 398.01 861.056 397.978C861.215 397.946 861.381 397.977 861.518 398.066C861.585 398.112 861.642 398.17 861.686 398.238C861.731 398.306 861.761 398.382 861.776 398.462C861.791 398.541 861.789 398.623 861.772 398.702C861.755 398.782 861.723 398.857 861.677 398.923V398.923ZM864.865 394.159L863.277 396.535C863.234 396.603 863.177 396.662 863.111 396.707C863.044 396.753 862.969 396.785 862.891 396.802C862.812 396.819 862.73 396.819 862.651 396.804C862.572 396.789 862.497 396.758 862.43 396.714C862.362 396.669 862.305 396.611 862.26 396.544C862.215 396.477 862.184 396.402 862.169 396.322C862.153 396.243 862.153 396.161 862.17 396.082C862.186 396.003 862.218 395.928 862.263 395.861L863.851 393.473C863.944 393.338 864.084 393.245 864.244 393.213C864.404 393.181 864.57 393.213 864.706 393.301C864.773 393.347 864.831 393.405 864.875 393.473C864.919 393.541 864.95 393.617 864.964 393.697C864.979 393.777 864.978 393.859 864.961 393.938C864.944 394.017 864.911 394.092 864.865 394.159L864.865 394.159ZM868.066 389.382L866.465 391.77C866.407 391.853 866.331 391.92 866.241 391.967C866.152 392.014 866.053 392.039 865.953 392.04C865.835 392.044 865.719 392.009 865.623 391.942C865.488 391.849 865.396 391.708 865.364 391.548C865.332 391.388 865.363 391.222 865.452 391.084L867.052 388.708C867.141 388.573 867.28 388.479 867.438 388.447C867.596 388.415 867.761 388.447 867.895 388.537C868.029 388.626 868.123 388.765 868.155 388.924C868.187 389.082 868.155 389.247 868.066 389.382H868.066ZM871.254 384.617L869.654 387.006C869.598 387.087 869.524 387.155 869.437 387.202C869.349 387.249 869.252 387.274 869.153 387.275C869.032 387.275 868.914 387.241 868.811 387.177C868.677 387.085 868.584 386.943 868.552 386.783C868.52 386.623 868.552 386.457 868.64 386.32L870.24 383.943C870.33 383.809 870.469 383.716 870.626 383.684C870.784 383.652 870.948 383.684 871.083 383.773C871.217 383.863 871.31 384.001 871.342 384.16C871.375 384.318 871.343 384.482 871.254 384.617V384.617ZM874.443 379.852L872.843 382.241C872.788 382.324 872.713 382.392 872.626 382.439C872.539 382.486 872.441 382.511 872.342 382.51C872.219 382.512 872.099 382.473 872 382.4C871.865 382.311 871.772 382.171 871.74 382.013C871.708 381.855 871.74 381.69 871.829 381.555L873.429 379.167C873.521 379.034 873.661 378.944 873.819 378.914C873.977 378.884 874.14 378.918 874.273 379.008C874.406 379.098 874.499 379.237 874.531 379.395C874.562 379.553 874.531 379.717 874.443 379.852V379.852ZM877.631 375.088L876.031 377.476C875.987 377.543 875.93 377.601 875.864 377.645C875.797 377.69 875.722 377.721 875.643 377.736C875.565 377.75 875.484 377.749 875.406 377.732C875.327 377.715 875.253 377.682 875.188 377.635C875.054 377.546 874.96 377.407 874.928 377.248C874.896 377.09 874.928 376.925 875.017 376.79L876.617 374.402C876.662 374.335 876.719 374.278 876.785 374.234C876.852 374.189 876.927 374.159 877.005 374.144C877.084 374.129 877.165 374.13 877.243 374.147C877.321 374.164 877.395 374.197 877.46 374.243C877.595 374.332 877.688 374.471 877.72 374.63C877.752 374.788 877.72 374.953 877.631 375.088L877.631 375.088ZM880.82 370.323L879.232 372.699C879.176 372.785 879.1 372.856 879.011 372.905C878.921 372.954 878.821 372.98 878.719 372.981C878.596 372.98 878.477 372.942 878.377 372.871C878.242 372.781 878.149 372.642 878.117 372.484C878.085 372.325 878.117 372.16 878.206 372.026L879.806 369.637C879.896 369.503 880.035 369.411 880.192 369.378C880.35 369.346 880.514 369.378 880.649 369.466C880.783 369.558 880.876 369.7 880.908 369.86C880.94 370.02 880.908 370.186 880.82 370.323L880.82 370.323ZM884.008 365.558L882.42 367.934C882.364 368.019 882.288 368.088 882.198 368.135C882.108 368.182 882.008 368.206 881.907 368.204C881.786 368.208 881.666 368.174 881.565 368.106C881.498 368.062 881.441 368.005 881.397 367.938C881.353 367.871 881.322 367.796 881.307 367.717C881.293 367.639 881.294 367.557 881.311 367.479C881.328 367.401 881.36 367.327 881.406 367.261L882.994 364.872C883.039 364.804 883.096 364.746 883.163 364.7C883.23 364.655 883.306 364.623 883.385 364.607C883.465 364.591 883.547 364.591 883.626 364.607C883.706 364.623 883.781 364.655 883.848 364.7C883.915 364.745 883.973 364.804 884.017 364.872C884.062 364.94 884.092 365.016 884.107 365.096C884.122 365.175 884.121 365.257 884.104 365.337C884.087 365.416 884.055 365.492 884.008 365.558H884.008ZM887.197 360.782L885.609 363.17C885.55 363.252 885.474 363.32 885.384 363.366C885.295 363.413 885.196 363.438 885.096 363.439C884.975 363.436 884.858 363.402 884.754 363.341C884.687 363.296 884.629 363.237 884.585 363.17C884.541 363.102 884.51 363.026 884.496 362.946C884.481 362.866 884.482 362.784 884.499 362.705C884.516 362.626 884.549 362.551 884.595 362.484L886.183 360.108C886.275 359.973 886.416 359.88 886.576 359.848C886.735 359.816 886.901 359.848 887.038 359.936C887.105 359.981 887.162 360.038 887.207 360.104C887.251 360.171 887.282 360.246 887.297 360.325C887.312 360.404 887.31 360.485 887.293 360.564C887.276 360.642 887.243 360.716 887.197 360.782L887.197 360.782ZM890.385 356.017L888.797 358.405C888.739 358.488 888.662 358.555 888.573 358.602C888.484 358.649 888.385 358.674 888.284 358.675C888.167 358.673 888.053 358.639 887.954 358.577C887.887 358.532 887.829 358.474 887.783 358.407C887.738 358.339 887.707 358.263 887.691 358.184C887.675 358.104 887.675 358.022 887.691 357.942C887.707 357.863 887.738 357.787 887.783 357.719L889.371 355.343C889.464 355.209 889.604 355.116 889.764 355.084C889.924 355.051 890.09 355.083 890.227 355.172C890.294 355.216 890.351 355.273 890.395 355.34C890.44 355.406 890.47 355.482 890.485 355.56C890.5 355.639 890.499 355.72 890.482 355.799C890.464 355.877 890.432 355.951 890.385 356.017V356.017ZM893.586 351.252L891.986 353.641C891.93 353.723 891.855 353.79 891.768 353.837C891.681 353.884 891.584 353.909 891.485 353.91C891.362 353.911 891.242 353.872 891.143 353.8C891.008 353.71 890.915 353.571 890.883 353.413C890.851 353.254 890.883 353.089 890.972 352.955L892.572 350.566C892.664 350.434 892.804 350.343 892.962 350.314C893.12 350.284 893.283 350.318 893.416 350.408C893.549 350.498 893.642 350.637 893.674 350.795C893.705 350.953 893.674 351.117 893.586 351.252V351.252ZM896.775 346.488L895.174 348.876C895.118 348.958 895.044 349.025 894.957 349.072C894.869 349.119 894.772 349.144 894.673 349.145C894.55 349.147 894.43 349.108 894.331 349.035C894.197 348.946 894.103 348.807 894.071 348.648C894.039 348.49 894.071 348.325 894.16 348.19L895.76 345.802C895.805 345.735 895.862 345.677 895.928 345.633C895.995 345.589 896.07 345.558 896.148 345.543C896.227 345.528 896.308 345.529 896.386 345.546C896.464 345.564 896.538 345.596 896.603 345.642C896.738 345.732 896.831 345.871 896.863 346.03C896.896 346.188 896.864 346.353 896.774 346.488L896.775 346.488ZM899.963 341.723L898.363 344.099C898.31 344.184 898.236 344.253 898.148 344.301C898.06 344.348 897.961 344.371 897.862 344.369C897.74 344.374 897.62 344.34 897.52 344.271C897.386 344.181 897.293 344.042 897.261 343.883C897.229 343.725 897.26 343.56 897.349 343.425L898.949 341.037C899.039 340.902 899.177 340.809 899.335 340.777C899.493 340.745 899.657 340.777 899.792 340.865C899.926 340.958 900.019 341.099 900.051 341.259C900.083 341.42 900.051 341.586 899.963 341.723L899.963 341.723ZM903.579 337.374L901.698 339.542C901.644 339.61 901.575 339.665 901.497 339.701C901.418 339.737 901.332 339.754 901.246 339.751C901.129 339.752 901.014 339.72 900.916 339.658C900.817 339.595 900.738 339.506 900.689 339.4C900.64 339.293 900.622 339.175 900.639 339.059C900.655 338.943 900.705 338.835 900.782 338.746L902.651 336.578C902.756 336.455 902.906 336.379 903.067 336.367C903.228 336.355 903.388 336.407 903.511 336.512C903.634 336.618 903.71 336.767 903.723 336.929C903.736 337.091 903.684 337.251 903.579 337.374ZM907.33 333.039L905.448 335.206C905.393 335.272 905.323 335.325 905.245 335.361C905.167 335.397 905.082 335.415 904.996 335.415C904.848 335.417 904.705 335.364 904.593 335.268C904.47 335.16 904.395 335.008 904.384 334.846C904.372 334.683 904.426 334.522 904.532 334.398L906.401 332.23C906.51 332.11 906.661 332.037 906.822 332.025C906.984 332.014 907.144 332.065 907.268 332.169C907.391 332.276 907.466 332.428 907.478 332.591C907.489 332.754 907.436 332.915 907.329 333.039L907.33 333.039ZM911.08 328.703L909.199 330.871C909.143 330.936 909.074 330.989 908.996 331.025C908.918 331.061 908.833 331.079 908.747 331.079C908.599 331.081 908.455 331.028 908.343 330.932C908.221 330.824 908.146 330.672 908.134 330.51C908.123 330.347 908.176 330.186 908.282 330.062L910.151 327.894C910.258 327.771 910.41 327.695 910.573 327.683C910.735 327.672 910.896 327.726 911.019 327.833C911.142 327.94 911.218 328.092 911.229 328.255C911.24 328.418 911.187 328.579 911.08 328.703ZM914.83 324.367L912.949 326.535C912.893 326.6 912.824 326.653 912.746 326.689C912.668 326.725 912.583 326.743 912.497 326.743C912.349 326.745 912.206 326.692 912.094 326.596C911.971 326.488 911.896 326.336 911.885 326.173C911.873 326.011 911.926 325.85 912.033 325.726L913.902 323.558C914.009 323.435 914.16 323.359 914.323 323.347C914.486 323.336 914.646 323.39 914.769 323.497C914.892 323.604 914.968 323.756 914.98 323.919C914.991 324.082 914.937 324.243 914.83 324.367H914.83ZM918.581 320.031L916.7 322.199C916.644 322.264 916.575 322.317 916.497 322.353C916.418 322.389 916.333 322.407 916.247 322.407C916.1 322.409 915.956 322.356 915.844 322.26C915.722 322.152 915.646 322 915.635 321.837C915.624 321.674 915.677 321.514 915.783 321.39L917.652 319.222C917.759 319.099 917.911 319.023 918.074 319.011C918.236 319 918.397 319.054 918.52 319.161C918.643 319.268 918.719 319.42 918.73 319.583C918.742 319.746 918.688 319.907 918.581 320.031H918.581ZM922.331 315.682L920.45 317.85C920.4 317.914 920.337 317.966 920.266 318.003C920.194 318.041 920.116 318.063 920.036 318.069C919.955 318.075 919.875 318.064 919.799 318.037C919.723 318.01 919.653 317.967 919.595 317.912C919.534 317.86 919.484 317.796 919.448 317.725C919.413 317.653 919.391 317.575 919.385 317.496C919.38 317.416 919.39 317.336 919.415 317.26C919.441 317.184 919.481 317.114 919.534 317.054L921.403 314.886C921.51 314.763 921.661 314.688 921.824 314.676C921.986 314.665 922.147 314.718 922.27 314.825C922.331 314.877 922.381 314.941 922.416 315.012C922.452 315.083 922.474 315.161 922.479 315.241C922.485 315.321 922.475 315.401 922.449 315.477C922.424 315.553 922.384 315.623 922.331 315.683V315.682ZM926.082 311.346L924.2 313.514C924.15 313.577 924.088 313.63 924.016 313.667C923.945 313.705 923.867 313.727 923.786 313.733C923.706 313.739 923.625 313.728 923.549 313.701C923.473 313.674 923.404 313.631 923.345 313.576C923.285 313.524 923.235 313.46 923.199 313.389C923.163 313.317 923.142 313.239 923.136 313.16C923.13 313.08 923.141 313 923.166 312.924C923.191 312.848 923.232 312.778 923.284 312.718L925.153 310.55C925.261 310.427 925.412 310.352 925.574 310.34C925.737 310.329 925.897 310.382 926.021 310.489C926.081 310.541 926.131 310.604 926.167 310.676C926.203 310.747 926.224 310.825 926.23 310.905C926.236 310.985 926.226 311.065 926.2 311.141C926.175 311.217 926.134 311.287 926.082 311.347L926.082 311.346ZM929.832 307.011L927.951 309.178C927.897 309.246 927.828 309.3 927.75 309.337C927.671 309.373 927.585 309.39 927.499 309.387C927.382 309.388 927.267 309.356 927.169 309.294C927.07 309.231 926.991 309.142 926.942 309.035C926.893 308.929 926.875 308.811 926.892 308.695C926.908 308.579 926.958 308.47 927.035 308.382L928.904 306.214C929.011 306.091 929.162 306.016 929.325 306.004C929.487 305.993 929.648 306.046 929.771 306.153C929.832 306.205 929.882 306.268 929.917 306.34C929.953 306.411 929.975 306.489 929.981 306.569C929.986 306.649 929.976 306.729 929.951 306.805C929.925 306.881 929.885 306.951 929.832 307.011L929.832 307.011ZM933.583 302.674L931.701 304.842C931.648 304.91 931.579 304.965 931.5 305.001C931.422 305.037 931.336 305.054 931.249 305.051C931.132 305.052 931.018 305.02 930.919 304.957C930.82 304.895 930.742 304.805 930.692 304.699C930.643 304.593 930.626 304.475 930.642 304.359C930.659 304.243 930.708 304.134 930.785 304.046L932.654 301.878C932.706 301.817 932.77 301.767 932.841 301.73C932.913 301.694 932.991 301.672 933.071 301.666C933.151 301.659 933.231 301.669 933.308 301.694C933.384 301.719 933.455 301.759 933.516 301.811C933.576 301.863 933.627 301.927 933.663 301.999C933.699 302.07 933.721 302.149 933.727 302.229C933.734 302.309 933.724 302.39 933.699 302.466C933.674 302.543 933.635 302.613 933.583 302.674ZM937.333 298.338L935.452 300.506C935.346 300.627 935.197 300.702 935.037 300.713C934.877 300.724 934.718 300.672 934.597 300.567C934.474 300.46 934.399 300.308 934.387 300.145C934.376 299.982 934.429 299.821 934.536 299.698L936.405 297.53C936.511 297.406 936.663 297.331 936.826 297.319C936.988 297.308 937.149 297.361 937.272 297.469C937.395 297.576 937.471 297.728 937.482 297.891C937.494 298.054 937.44 298.215 937.333 298.338ZM941.084 294.002L939.202 296.17C939.147 296.236 939.077 296.289 938.999 296.325C938.921 296.361 938.836 296.379 938.75 296.378C938.602 296.38 938.459 296.328 938.347 296.231C938.224 296.124 938.149 295.972 938.138 295.809C938.126 295.646 938.18 295.485 938.286 295.362L940.155 293.194C940.262 293.07 940.413 292.995 940.576 292.983C940.739 292.972 940.899 293.025 941.022 293.133C941.146 293.24 941.221 293.392 941.233 293.555C941.244 293.718 941.19 293.879 941.083 294.002H941.084ZM944.834 289.666L942.953 291.834C942.895 291.898 942.826 291.95 942.748 291.985C942.67 292.021 942.586 292.041 942.501 292.042C942.353 292.044 942.21 291.992 942.098 291.896C941.975 291.788 941.9 291.636 941.888 291.473C941.877 291.31 941.93 291.149 942.036 291.026L943.906 288.858C944.013 288.735 944.164 288.66 944.326 288.649C944.488 288.638 944.648 288.692 944.771 288.799C944.894 288.905 944.97 289.057 944.981 289.219C944.993 289.382 944.94 289.543 944.834 289.666ZM948.584 285.33L946.703 287.498C946.597 287.619 946.448 287.693 946.288 287.705C946.128 287.716 945.97 287.664 945.848 287.56C945.725 287.452 945.65 287.3 945.639 287.137C945.627 286.974 945.68 286.814 945.787 286.69L947.656 284.522C947.709 284.46 947.773 284.41 947.846 284.374C947.918 284.337 947.997 284.315 948.077 284.309C948.158 284.304 948.239 284.314 948.316 284.339C948.393 284.365 948.464 284.406 948.525 284.459C948.586 284.512 948.636 284.577 948.672 284.649C948.708 284.722 948.73 284.801 948.735 284.882C948.741 284.963 948.73 285.044 948.704 285.121C948.679 285.198 948.638 285.269 948.584 285.33H948.584ZM952.335 280.982L950.453 283.162C950.395 283.227 950.323 283.279 950.243 283.315C950.163 283.351 950.077 283.37 949.989 283.37C949.846 283.37 949.707 283.318 949.598 283.224C949.476 283.116 949.4 282.964 949.389 282.801C949.378 282.638 949.431 282.478 949.537 282.354L951.406 280.186C951.514 280.063 951.665 279.988 951.827 279.976C951.99 279.965 952.15 280.018 952.274 280.125C952.334 280.177 952.384 280.24 952.42 280.312C952.456 280.383 952.477 280.461 952.483 280.541C952.489 280.621 952.479 280.701 952.453 280.777C952.428 280.853 952.387 280.923 952.335 280.983V280.982ZM956.085 276.646L954.204 278.814C954.149 278.882 954.08 278.936 954.002 278.974C953.924 279.013 953.839 279.033 953.752 279.035C953.678 279.036 953.604 279.023 953.534 278.995C953.465 278.968 953.402 278.927 953.349 278.875C953.288 278.823 953.238 278.76 953.203 278.688C953.167 278.617 953.145 278.539 953.14 278.459C953.134 278.38 953.144 278.3 953.169 278.224C953.195 278.148 953.235 278.078 953.288 278.018L955.157 275.85C955.264 275.727 955.415 275.652 955.578 275.64C955.74 275.629 955.901 275.682 956.024 275.789C956.085 275.841 956.135 275.904 956.171 275.976C956.207 276.047 956.228 276.125 956.234 276.205C956.239 276.285 956.229 276.365 956.204 276.441C956.178 276.517 956.138 276.587 956.085 276.647L956.085 276.646ZM959.836 272.31L957.954 274.478C957.899 274.544 957.83 274.597 957.752 274.633C957.673 274.669 957.588 274.687 957.502 274.686C957.386 274.688 957.271 274.656 957.172 274.593C957.073 274.531 956.995 274.441 956.946 274.335C956.896 274.229 956.879 274.11 956.896 273.995C956.912 273.879 956.962 273.77 957.038 273.682L958.907 271.514C959.014 271.391 959.166 271.315 959.328 271.304C959.491 271.293 959.651 271.346 959.775 271.453C959.835 271.505 959.885 271.568 959.921 271.64C959.957 271.711 959.979 271.789 959.984 271.869C959.99 271.949 959.98 272.029 959.954 272.105C959.929 272.181 959.888 272.251 959.836 272.311L959.836 272.31ZM963.586 267.974L961.705 270.142C961.648 270.209 961.577 270.263 961.496 270.299C961.416 270.335 961.329 270.352 961.241 270.35C961.125 270.35 961.012 270.316 960.915 270.252C960.818 270.189 960.741 270.099 960.693 269.993C960.646 269.888 960.63 269.771 960.646 269.656C960.663 269.541 960.713 269.434 960.789 269.346L962.658 267.178C962.765 267.055 962.916 266.98 963.079 266.968C963.241 266.957 963.402 267.01 963.525 267.117C963.586 267.169 963.636 267.232 963.672 267.304C963.708 267.375 963.729 267.453 963.735 267.533C963.74 267.613 963.73 267.693 963.705 267.769C963.679 267.845 963.639 267.915 963.586 267.975L963.586 267.974ZM967.337 263.638L965.455 265.806C965.396 265.871 965.325 265.923 965.245 265.959C965.165 265.995 965.079 266.014 964.991 266.014C964.875 266.014 964.762 265.98 964.665 265.916C964.568 265.853 964.491 265.763 964.444 265.658C964.396 265.552 964.38 265.435 964.397 265.32C964.414 265.205 964.463 265.097 964.539 265.01L966.408 262.83C966.517 262.709 966.668 262.636 966.83 262.624C966.991 262.613 967.151 262.665 967.275 262.768C967.398 262.876 967.474 263.028 967.485 263.191C967.497 263.354 967.443 263.515 967.337 263.639V263.638Z" fill="black"/>
<path d="M921.453 165.837C921.361 165.837 921.271 165.811 921.193 165.762C919.256 164.479 917.032 163.697 914.72 163.486C912.407 163.275 910.079 163.642 907.943 164.553C907.827 164.613 907.692 164.625 907.568 164.585C907.444 164.546 907.34 164.459 907.28 164.343C907.22 164.227 907.207 164.092 907.246 163.968C907.285 163.843 907.371 163.739 907.486 163.678C909.77 162.663 912.272 162.244 914.76 162.462C917.248 162.68 919.641 163.526 921.714 164.923C921.805 164.98 921.875 165.064 921.914 165.165C921.952 165.265 921.957 165.375 921.928 165.479C921.898 165.582 921.836 165.673 921.75 165.737C921.664 165.802 921.56 165.837 921.453 165.837Z" fill="black"/>
<path d="M928.613 205.491C928.827 202.913 929.139 200.396 929.395 197.865C929.685 195.336 929.881 192.814 930.211 190.245C930.625 192.8 930.68 195.4 930.375 197.97C930.13 200.545 929.537 203.075 928.613 205.491Z" fill="black"/>
<path d="M932.205 179.547C932.164 179.547 932.123 179.542 932.083 179.532C931.956 179.5 931.847 179.419 931.781 179.306C931.714 179.193 931.694 179.059 931.726 178.932C933.309 172.663 926.963 167.321 926.899 167.268C926.799 167.185 926.735 167.065 926.723 166.934C926.71 166.804 926.75 166.674 926.833 166.573C926.916 166.472 927.036 166.408 927.166 166.395C927.296 166.382 927.426 166.422 927.527 166.505C927.809 166.74 934.417 172.305 932.682 179.173C932.655 179.28 932.594 179.375 932.507 179.442C932.421 179.51 932.314 179.547 932.205 179.547Z" fill="black"/>
<path d="M864.777 121.411C865.329 120.955 866.025 120.713 866.74 120.73C867.455 120.746 868.14 121.02 868.67 121.501C868.67 121.501 870.875 116.265 885.247 117.257C885.247 117.257 884.202 121.068 882.926 121.345C881.651 121.623 886.623 126.7 890.011 125.695C890.011 125.695 897.733 132.987 895.068 142.271C892.441 151.421 889.843 154.711 884.329 150.346C884.159 150.211 883.977 150.091 883.785 149.991C882.305 149.226 875.815 146.12 874.542 149.766C874.277 150.572 874.342 151.45 874.721 152.209C876.437 155.788 883.649 168.776 894.623 160.579C894.623 160.579 907.656 152.157 901.575 140.248C900.939 139.04 900.152 137.919 899.235 136.91C898.336 135.87 897.658 134.658 897.243 133.347C896.828 132.036 896.684 130.653 896.821 129.284C896.939 127.35 897.756 125.524 899.118 124.149C900.447 122.853 902.38 121.983 904.496 124.336C905.373 125.316 905.982 126.508 906.262 127.794C906.459 128.386 906.52 129.015 906.439 129.634C906.358 130.253 906.138 130.845 905.796 131.367L907.478 133.411C907.837 131.958 908.397 130.562 909.141 129.264C910.419 127.243 911.006 124.86 910.811 122.474C910.448 118.702 908.738 113.324 902.982 107.876C902.982 107.876 894.569 97.3872 883.655 100.03C872.741 102.672 863.939 107.667 864.777 121.411Z" fill="black"/>
<path d="M886.465 132.76C884.539 133.282 882.623 133.708 880.742 134.245C879.796 134.494 878.874 134.803 877.962 135.135C877.037 135.451 876.168 135.915 875.39 136.509C876 135.693 876.807 135.045 877.734 134.625C878.632 134.168 879.575 133.806 880.547 133.545C881.51 133.278 882.491 133.078 883.482 132.947C884.47 132.804 885.467 132.742 886.465 132.76Z" fill="black"/>
<path d="M868.058 136.574C868.831 136.496 869.612 136.604 870.336 136.89C870.717 137.044 871.061 137.279 871.344 137.579C871.627 137.878 871.842 138.236 871.974 138.626C872.159 139.409 872.172 140.223 872.012 141.012L871.661 143.264C871.355 144.712 871.262 146.197 871.383 147.672C871.412 148.019 871.519 148.355 871.695 148.655C871.871 148.954 872.112 149.211 872.4 149.405C873.062 149.735 873.807 149.861 874.541 149.766C873.789 150.007 872.978 149.991 872.236 149.721C871.873 149.524 871.559 149.248 871.317 148.913C871.075 148.578 870.911 148.193 870.837 147.787C870.586 146.247 870.623 144.674 870.946 143.148L871.335 140.911C871.501 140.215 871.537 139.494 871.442 138.785C871.141 137.392 869.52 136.715 868.058 136.574Z" fill="black"/>
<path d="M864.775 121.41L866.547 130.116C866.881 131.553 867.205 132.992 867.587 134.41C867.795 135.112 868.002 135.817 868.268 136.492C868.498 137.17 868.81 137.817 869.199 138.418L869.157 138.378C869.703 138.808 870.209 139.285 870.671 139.805C870.901 140.066 871.111 140.345 871.298 140.639C871.503 140.927 871.598 141.278 871.567 141.63C871.54 141.293 871.401 140.974 871.173 140.725C870.96 140.464 870.727 140.221 870.475 139.998C869.97 139.552 869.44 139.135 868.888 138.749C868.872 138.738 868.857 138.725 868.845 138.71C867.967 137.467 867.323 136.074 866.946 134.599C866.512 133.171 866.158 131.721 865.886 130.253C865.307 127.336 864.936 124.381 864.775 121.41Z" fill="black"/>
<path d="M877.855 144.81C878.16 144.964 878.422 145.193 878.616 145.475C878.81 145.757 878.93 146.084 878.966 146.424C878.977 146.781 878.867 147.132 878.653 147.418C878.551 147.552 878.435 147.676 878.308 147.787C878.169 147.882 878.025 147.964 877.888 148.049C878.322 147.624 878.578 147.049 878.604 146.441C878.591 146.148 878.51 145.861 878.367 145.604C878.223 145.323 878.051 145.058 877.855 144.81Z" fill="black"/>
<path d="M905.793 131.367C905.759 132.087 905.703 132.789 905.706 133.478C905.706 133.815 905.727 134.151 905.768 134.485C905.786 134.643 905.816 134.799 905.858 134.951C905.929 135.164 905.955 135.388 905.935 135.611C905.891 135.83 905.805 136.038 905.68 136.223C905.556 136.408 905.397 136.567 905.211 136.69C904.899 136.912 904.554 137.084 904.188 137.199C903.497 137.45 902.753 137.522 902.026 137.408C902.702 137.248 903.355 137.004 903.972 136.684C904.54 136.376 905.171 135.948 905.217 135.515C905.264 135.383 905.094 134.929 905.086 134.55C905.065 134.177 905.087 133.803 905.152 133.435C905.26 132.717 905.476 132.019 905.793 131.367Z" fill="black"/>
<path d="M907.475 133.411C908.213 134.216 908.955 134.998 909.725 135.744C910.485 136.49 911.289 137.19 912.134 137.839C912.963 138.49 913.86 139.049 914.81 139.504C915.779 139.947 916.819 140.215 917.881 140.296C916.783 140.493 915.654 140.399 914.604 140.024C913.554 139.65 912.571 139.107 911.694 138.417C910.819 137.744 910.022 136.975 909.319 136.124C908.604 135.292 907.985 134.382 907.475 133.411Z" fill="black"/>
<path d="M904.607 165.369C903.676 165.467 902.735 165.36 901.85 165.055C900.96 164.771 900.11 164.376 899.319 163.878C898.53 163.388 897.792 162.819 897.116 162.182L896.146 161.193C895.86 160.827 895.558 160.48 895.292 160.102L897.472 161.751C898.215 162.264 898.929 162.807 899.699 163.259C900.454 163.734 901.237 164.16 902.046 164.534C902.864 164.914 903.723 165.194 904.607 165.369Z" fill="black"/>
<path d="M880.378 139.058C880.66 139.048 880.928 138.929 881.124 138.726C881.32 138.522 881.429 138.25 881.429 137.967C881.429 137.685 881.32 137.413 881.124 137.209C880.928 137.006 880.66 136.887 880.378 136.877C880.096 136.887 879.829 137.006 879.633 137.209C879.437 137.413 879.328 137.685 879.328 137.967C879.328 138.25 879.437 138.522 879.633 138.726C879.829 138.929 880.096 139.048 880.378 139.058Z" fill="black"/>
<path d="M846.514 458.121C843.998 454.544 838.574 455.585 834.872 456.871C833.044 457.542 831.09 457.799 829.151 457.624C827.212 457.448 825.336 456.844 823.658 455.854C816.45 451.396 816.853 443.435 817.464 439.883C817.781 438.195 817.541 436.449 816.78 434.91C813.005 427.757 803.977 436.575 803.977 436.575C805.362 437.33 806.59 438.345 807.593 439.564C808.634 440.776 809.449 442.166 810 443.667C810.568 445.167 810.869 446.755 810.891 448.359C810.942 449.945 810.638 451.523 810 452.976C809.845 450.025 809.248 447.114 808.228 444.341C807.724 442.981 807.107 441.666 806.384 440.409C805.687 439.123 804.808 437.923 803.977 436.575C803.977 436.575 799.542 435.706 793.324 434.456C794.374 435.589 795.273 436.853 796 438.217C796.748 439.573 797.358 441.001 797.82 442.479C798.302 443.995 798.529 445.58 798.492 447.17C798.476 447.986 798.323 448.794 798.04 449.559C797.756 450.327 797.244 450.99 796.574 451.457C797.168 450.133 797.327 448.653 797.026 447.232C796.779 445.811 796.44 444.407 796.012 443.03C795.169 440.225 794.118 437.458 793.324 434.456C789.977 433.783 786.104 432.999 782.134 432.19C783.333 433.226 784.356 434.451 785.164 435.816C785.997 437.174 786.65 438.636 787.106 440.164C787.553 441.727 787.723 443.356 787.607 444.978C787.473 446.599 786.884 448.149 785.909 449.449C786.159 447.968 786.237 446.464 786.141 444.966C785.977 443.519 785.691 442.089 785.286 440.691C784.877 439.259 784.395 437.849 783.844 436.465L782.134 432.19C775.488 430.819 768.562 429.386 763.333 428.222C749.198 425.099 748.148 431.37 748.148 431.37C748.697 430.77 749.356 430.284 750.09 429.937C750.851 429.551 751.731 429.476 752.546 429.729C753.351 430.021 754.044 430.561 754.525 431.272C755.056 431.93 755.45 432.688 755.685 433.501C755.924 434.316 756.035 435.163 756.015 436.012C755.961 436.831 755.851 437.645 755.685 438.449C755.487 439.986 755.566 441.546 755.917 443.055C756.742 446.061 758.363 448.787 760.609 450.943C762.863 453.098 765.384 454.955 768.109 456.467L768.158 456.491C773.424 458.819 778.579 461.342 783.685 464.012C786.239 465.384 788.755 466.805 791.235 468.336L793.068 469.512L794.864 470.786C795.45 471.226 796.024 471.716 796.598 472.182C797.136 472.684 797.734 473.284 798.199 473.774C800.187 475.769 802.364 477.565 804.698 479.139C807.047 480.765 809.477 482.269 811.979 483.647C814.483 485.023 817.06 486.262 819.699 487.358C821.018 487.9 822.373 488.346 823.755 488.693C825.131 489.092 826.567 489.237 827.994 489.122C825.107 489.411 822.193 489.008 819.492 487.945C816.742 487.03 814.063 485.912 811.478 484.602C808.883 483.307 806.359 481.876 803.916 480.315C801.402 478.784 799.07 476.972 796.965 474.913C794.964 472.947 792.713 471.254 790.27 469.879C787.839 468.409 785.335 467.025 782.806 465.678C777.748 463.008 772.581 460.484 767.389 458.071L767.364 458.059L767.315 458.035C764.452 456.396 761.829 454.368 759.521 452.008C757.18 449.594 755.545 446.582 754.794 443.3C754.468 441.648 754.447 439.95 754.732 438.29C754.922 437.523 755.073 436.746 755.185 435.963C755.254 435.196 755.2 434.423 755.026 433.673C754.852 432.921 754.537 432.211 754.097 431.578C753.705 430.92 753.121 430.398 752.424 430.084C751.662 429.894 750.862 429.913 750.11 430.14C749.358 430.366 748.68 430.791 748.148 431.37C737.898 446.117 762.942 461.403 783.844 469.916C804.747 478.416 809.487 486.721 809.487 486.721C816.939 497.977 823.743 497.254 828.483 494.119C830.294 492.843 831.786 491.166 832.846 489.218C833.905 487.27 834.502 485.104 834.592 482.887C834.97 477.265 840.199 471.594 840.199 471.594C840.199 471.594 850.546 463.853 846.514 458.121ZM826.467 472.562C825.466 475.219 821.776 473.419 815.534 473.933C810.159 474.387 807.214 468.336 808.204 465.678C809.206 463.008 814.104 462.395 819.15 464.294C824.183 466.192 827.469 469.892 826.467 472.562V472.562Z" fill="black"/>
<path d="M817.459 439.883C817.616 439.935 817.783 439.951 817.948 439.929C818.112 439.907 818.269 439.848 818.407 439.755C818.703 439.599 818.983 439.411 819.24 439.195C819.768 438.772 820.272 438.319 820.749 437.838C821.698 436.858 822.632 435.86 823.528 434.818C825.355 432.765 827.108 430.638 829.082 428.655C827.725 431.094 826.11 433.38 824.265 435.473C823.342 436.531 822.337 437.513 821.26 438.411C820.71 438.862 820.12 439.261 819.497 439.602C819.178 439.77 818.842 439.904 818.495 440C818.326 440.07 818.143 440.096 817.962 440.075C817.781 440.055 817.608 439.988 817.459 439.883Z" fill="black"/>
<path d="M841.111 455.672C842.588 453.399 844.179 451.202 845.878 449.09C847.561 446.974 849.267 444.902 851.068 442.85C849.861 445.296 848.379 447.595 846.651 449.703C844.979 451.849 843.126 453.846 841.111 455.672Z" fill="black"/>
<path d="M1205.75 329.046C1195.72 308.787 1197.65 299.417 1197.65 299.417C1199.51 286.042 1193.94 282.061 1188.32 281.265C1186.12 281.015 1183.89 281.278 1181.81 282.032C1179.73 282.786 1177.85 284.011 1176.32 285.613C1172.33 289.569 1164.65 290.353 1164.65 290.353C1164.65 290.353 1151.79 289.263 1151.02 296.245C1150.54 300.605 1155.28 303.41 1158.91 304.916C1160.73 305.628 1162.36 306.732 1163.7 308.151C1165.03 309.57 1166.04 311.268 1166.65 313.123C1169.1 321.256 1163.53 326.951 1160.73 329.205C1159.38 330.255 1158.4 331.722 1157.96 333.382C1156.05 341.258 1168.64 340.633 1168.64 340.633C1168.11 339.149 1167.86 337.579 1167.9 336.003C1167.93 334.402 1168.24 332.818 1168.82 331.324C1169.38 329.822 1170.2 328.433 1171.25 327.221C1172.26 325.996 1173.54 325.016 1174.98 324.355C1173.13 326.665 1171.65 329.242 1170.58 331.998C1170.07 333.353 1169.67 334.745 1169.37 336.162C1169.04 337.608 1168.91 339.077 1168.64 340.633C1168.64 340.633 1171.39 344.234 1175.22 349.292C1175.18 347.751 1175.35 346.21 1175.71 344.712C1176.03 343.193 1176.52 341.714 1177.16 340.302C1177.8 338.849 1178.68 337.512 1179.75 336.346C1180.3 335.742 1180.95 335.237 1181.67 334.852C1182.39 334.467 1183.22 334.313 1184.03 334.411C1182.71 335.007 1181.61 336.012 1180.9 337.277C1180.14 338.504 1179.46 339.781 1178.87 341.098C1177.65 343.757 1176.61 346.524 1175.22 349.293V349.305C1177.29 352.036 1179.66 355.184 1182.1 358.418C1181.89 356.853 1181.94 355.265 1182.23 353.714C1182.5 352.139 1182.98 350.606 1183.65 349.158C1184.35 347.692 1185.3 346.357 1186.45 345.214C1187.63 344.092 1189.1 343.323 1190.69 342.997C1189.51 343.935 1188.46 345.012 1187.55 346.206C1186.71 347.396 1185.98 348.659 1185.36 349.979C1184.7 351.289 1184.2 352.685 1183.65 354.094L1182.1 358.418V358.43C1186.18 363.868 1190.42 369.552 1193.57 373.888C1202.09 385.634 1207.02 381.617 1207.02 381.617C1224.44 377.391 1215.78 349.305 1205.75 329.046ZM1184.7 316.038C1182.2 317.361 1178.12 314.581 1175.6 309.803C1173.08 305.027 1173.07 300.078 1175.58 298.743C1178.08 297.42 1179.66 301.217 1184.68 304.978C1188.99 308.211 1187.21 314.703 1184.7 316.038ZM1209.93 368.278C1209.08 369.731 1207.97 371.018 1206.67 372.075C1206.01 372.516 1205.38 372.999 1204.79 373.52C1204.23 374.047 1203.76 374.658 1203.39 375.333C1203.02 376.007 1202.78 376.748 1202.7 377.513C1202.56 378.266 1202.65 379.045 1202.96 379.742C1203.4 380.38 1203.99 380.889 1204.68 381.219C1205.38 381.549 1206.15 381.686 1206.91 381.617C1206.14 381.706 1205.36 381.635 1204.61 381.408C1203.79 381.191 1203.08 380.659 1202.63 379.926C1202.24 379.171 1202.07 378.313 1202.17 377.464C1202.22 376.62 1202.43 375.794 1202.78 375.027C1203.14 374.257 1203.62 373.55 1204.2 372.932C1204.77 372.349 1205.39 371.808 1206.04 371.316C1207.21 370.303 1208.19 369.082 1208.91 367.714C1210.3 364.919 1210.89 361.796 1210.61 358.687C1210.36 355.546 1209.69 352.453 1208.62 349.489C1206.23 344.259 1204.01 338.951 1201.98 333.566C1200.97 330.847 1200.02 328.103 1199.18 325.322L1198.58 323.216L1198.08 321.072C1197.92 320.349 1197.82 319.602 1197.7 318.867C1197.63 318.132 1197.58 317.287 1197.55 316.614C1197.38 313.8 1196.94 311.011 1196.22 308.285C1195.55 305.505 1194.73 302.766 1193.75 300.078C1192.79 297.382 1191.68 294.741 1190.43 292.166C1189.8 290.879 1189.08 289.638 1188.27 288.454C1187.5 287.246 1186.51 286.185 1185.37 285.319C1187.73 287.026 1189.64 289.267 1190.97 291.859C1192.42 294.373 1193.69 296.988 1194.77 299.686C1195.86 302.377 1196.8 305.124 1197.59 307.917C1198.47 310.735 1199.02 313.645 1199.23 316.589C1199.43 319.387 1200 322.146 1200.91 324.796C1201.77 327.515 1202.72 330.222 1203.73 332.904C1205.76 338.269 1207.96 343.585 1210.26 348.84V348.864L1210.28 348.925C1211.34 352.054 1211.97 355.314 1212.14 358.614C1212.3 361.977 1211.53 365.319 1209.93 368.278Z" fill="black"/>
<path d="M1162.16 330.967C1160.07 330.773 1157.97 330.686 1155.87 330.706C1153.78 330.718 1151.7 330.79 1149.61 330.922C1147.52 331.031 1145.44 331.239 1143.35 331.427C1141.27 331.639 1139.17 331.863 1137.06 332.051C1138.07 331.715 1139.09 331.447 1140.11 331.153C1141.14 330.919 1142.18 330.663 1143.22 330.481C1145.31 330.094 1147.42 329.834 1149.54 329.701C1151.66 329.571 1153.79 329.589 1155.91 329.754C1158.04 329.897 1160.14 330.305 1162.16 330.967Z" fill="black"/>
<path d="M1153.45 301.668C1150.86 302.471 1148.22 303.099 1145.55 303.548C1142.89 304.011 1140.25 304.409 1137.52 304.657C1138.76 304.068 1140.04 303.596 1141.37 303.245C1142.67 302.869 1144 302.593 1145.34 302.343C1148.01 301.84 1150.73 301.614 1153.45 301.668Z" fill="black"/>
<path d="M1001.8 155.129C1002.4 155.075 1003 155.152 1003.57 155.354C1004.14 155.556 1004.66 155.879 1005.09 156.3C1005.52 156.758 1005.82 157.329 1005.94 157.948C1006.06 158.553 1006.1 159.173 1006.04 159.788L1006.02 159.634C1006.25 159.881 1006.55 160.054 1006.88 160.128C1007.28 160.235 1007.69 160.292 1008.1 160.299C1008.93 160.35 1009.8 160.23 1010.7 160.208C1011.59 160.178 1012.46 160.082 1013.37 160.107C1013.84 160.103 1014.31 160.145 1014.77 160.233C1015.29 160.309 1015.79 160.528 1016.2 160.864C1016.42 161.068 1016.59 161.325 1016.69 161.613C1016.78 161.9 1016.8 162.207 1016.75 162.506C1016.62 163.047 1016.31 163.527 1015.87 163.862C1015.13 164.433 1014.3 164.879 1013.42 165.182C1012.58 165.508 1011.71 165.761 1010.83 165.94C1010.39 166.035 1009.95 166.12 1009.51 166.185C1009.28 166.216 1009.07 166.256 1008.82 166.28L1008.48 166.3L1008.29 166.3L1008.18 166.291L1008.1 166.275C1008.06 166.247 1008.02 166.292 1007.89 166.109L1007.91 166.141C1007.93 166.227 1008.12 166.258 1008.09 166.249C1008.11 166.251 1008.12 166.249 1008.13 166.244L1008.09 166.256C1008.05 166.274 1008.01 166.295 1007.97 166.317L1007.69 166.478L1007.14 166.841L1006.05 167.606L1003.87 169.19C1004.51 168.558 1005.17 167.951 1005.84 167.353L1006.86 166.467C1007.04 166.321 1007.22 166.182 1007.4 166.047L1007.7 165.847C1007.75 165.812 1007.81 165.78 1007.87 165.751L1007.99 165.704C1008.03 165.694 1008.07 165.688 1008.11 165.687C1008.16 165.69 1008.21 165.703 1008.25 165.726C1008.3 165.749 1008.34 165.782 1008.37 165.822L1008.39 165.854C1008.28 165.695 1008.26 165.748 1008.25 165.727C1008.24 165.724 1008.24 165.725 1008.25 165.725L1008.3 165.725L1008.44 165.715L1008.76 165.676L1009.38 165.546C1009.81 165.454 1010.23 165.346 1010.65 165.226C1011.48 164.987 1012.3 164.706 1013.1 164.383C1013.89 164.097 1014.62 163.687 1015.27 163.168C1015.54 162.966 1015.74 162.679 1015.82 162.352C1015.85 162.214 1015.84 162.071 1015.79 161.937C1015.74 161.804 1015.66 161.686 1015.56 161.593C1014.88 161.206 1014.12 161.02 1013.34 161.055C1012.49 161.012 1011.6 161.088 1010.73 161.099C1009.86 161.1 1008.97 161.206 1008.04 161.133C1007.57 161.096 1007.1 160.999 1006.65 160.844C1006.39 160.771 1006.14 160.646 1005.92 160.478C1005.71 160.309 1005.53 160.099 1005.39 159.86C1005.38 159.823 1005.37 159.782 1005.37 159.741L1005.38 159.706C1005.46 159.159 1005.47 158.603 1005.39 158.055C1005.32 157.515 1005.11 157.003 1004.78 156.566C1004.41 156.137 1003.95 155.788 1003.44 155.541C1002.92 155.294 1002.37 155.154 1001.8 155.129Z" fill="black"/>
<path d="M1080.5 109.158C1088.88 106.51 1097.3 104.014 1105.76 101.669C1114.2 99.2913 1122.69 97.0521 1131.18 94.8398C1139.68 92.6718 1148.19 90.5337 1156.73 88.5336C1165.27 86.5 1173.84 84.62 1182.46 82.8934C1174.08 85.5431 1165.66 88.0404 1157.21 90.3851C1148.76 92.7625 1140.28 95.0016 1131.79 97.211C1123.28 99.3761 1114.77 101.514 1106.23 103.514C1097.69 105.546 1089.12 107.428 1080.5 109.158Z" fill="black"/>
<path d="M1045.41 142.829C1053.79 140.182 1062.2 137.685 1070.66 135.34C1079.11 132.962 1087.59 130.723 1096.08 128.511C1104.58 126.343 1113.09 124.205 1121.64 122.205C1130.17 120.171 1138.75 118.291 1147.36 116.564C1138.98 119.214 1130.57 121.712 1122.11 124.056C1113.66 126.434 1105.18 128.673 1096.69 130.882C1088.19 133.047 1079.68 135.185 1071.13 137.185C1062.6 139.217 1054.02 141.099 1045.41 142.829Z" fill="black"/>
<path d="M1109.6 145.705C1114.21 143.838 1118.87 142.203 1123.57 140.65C1128.26 139.083 1132.98 137.652 1137.72 136.249C1142.47 134.889 1147.23 133.559 1152.02 132.366C1156.81 131.159 1161.63 130.034 1166.52 129.144C1161.92 131.014 1157.25 132.65 1152.55 134.202C1147.87 135.769 1143.14 137.199 1138.4 138.6C1133.65 139.957 1128.89 141.287 1124.1 142.479C1119.3 143.686 1114.49 144.812 1109.6 145.705Z" fill="black"/>
<path d="M673.251 107.365C673.251 107.365 668.255 71.7797 650.737 47.8786C633.219 23.9775 753.984 29.5678 753.984 29.5678L772.533 71.2952C772.533 71.2952 684.418 74.7114 673.251 107.365Z" fill="black"/>
<path d="M893.295 223.06C893.643 221.571 894.012 220.089 894.387 218.608C894.765 217.128 895.116 215.64 895.516 214.167L897.87 205.312L897.872 205.305C897.908 205.168 897.99 205.048 898.103 204.964C898.217 204.879 898.355 204.836 898.496 204.841C900.802 204.923 902.943 205.18 905.15 205.439C907.339 205.715 909.52 206.024 911.699 206.345C913.873 206.692 916.047 207.037 918.211 207.44C920.379 207.819 922.533 208.276 924.692 208.699L924.72 208.704C924.863 208.732 924.989 208.814 925.074 208.932C925.158 209.05 925.195 209.196 925.176 209.341C924.582 213.82 923.782 218.245 922.966 222.671C922.139 227.093 921.289 231.514 920.158 235.879C919.611 238.065 918.998 240.24 918.26 242.382C917.552 244.557 916.625 246.655 915.495 248.643C914.901 249.667 914.178 250.609 913.342 251.446C912.426 252.338 911.259 252.927 909.998 253.131C907.67 253.26 905.336 253.033 903.077 252.457C894.325 250.299 885.756 247.454 877.45 243.948C873.296 242.237 869.165 240.477 865.058 238.667C860.971 236.808 856.883 234.958 852.861 232.958L852.94 232.98L848.728 232.32C848.717 232.318 848.706 232.314 848.696 232.308C848.687 232.302 848.678 232.295 848.671 232.285C848.665 232.276 848.66 232.266 848.657 232.255C848.655 232.244 848.654 232.232 848.656 232.221C848.66 232.199 848.671 232.18 848.689 232.166C848.706 232.153 848.728 232.146 848.75 232.148L852.991 232.468C853.012 232.47 853.033 232.474 853.053 232.482L853.071 232.49C857.233 234.153 861.379 235.857 865.557 237.474C869.713 239.144 873.887 240.765 878.078 242.338C882.258 243.933 886.456 245.471 890.672 246.949C894.891 248.4 899.125 249.838 903.432 250.854C905.514 251.415 907.664 251.683 909.82 251.649C910.787 251.517 911.69 251.089 912.407 250.425C913.176 249.691 913.853 248.864 914.421 247.964C916.675 244.133 918.389 240.007 919.512 235.703C920.714 231.382 921.68 226.999 922.407 222.573C923.126 218.146 923.617 213.673 924.005 209.22L924.489 209.862L917.97 208.892L911.462 207.887C909.295 207.545 907.127 207.206 904.957 206.905C902.805 206.611 900.582 206.278 898.496 206.15L899.123 205.679L896.357 214.413C895.905 215.871 895.403 217.315 894.928 218.766C894.45 220.217 893.966 221.666 893.461 223.108C893.453 223.13 893.438 223.147 893.419 223.157C893.399 223.167 893.376 223.17 893.354 223.163C893.333 223.157 893.315 223.143 893.304 223.124C893.293 223.104 893.289 223.082 893.295 223.06Z" fill="#020202"/>
<path d="M848.824 232.222L848.824 232.234L848.65 232.236C848.65 232.253 848.656 232.27 848.667 232.283C848.678 232.297 848.692 232.306 848.709 232.312C848.725 232.317 848.743 232.317 848.76 232.312C848.786 232.301 848.787 232.296 848.787 232.296L848.713 232.321C846.077 232.082 843.447 231.793 840.821 231.403C838.18 231.008 835.57 230.429 833.009 229.67C831.609 229.31 830.34 228.557 829.351 227.5C828.407 226.353 827.865 224.926 827.81 223.44C827.756 222.038 827.909 220.637 828.263 219.28C828.59 217.938 829.054 216.633 829.646 215.385L829.81 216.304C827.263 213.922 824.738 211.516 822.258 209.061L822.33 209.119C821.308 208.4 820.49 207.428 819.954 206.297C819.806 205.961 819.742 205.593 819.768 205.226C819.794 204.859 819.909 204.504 820.102 204.192C820.296 203.9 820.548 203.651 820.842 203.46C821.136 203.27 821.466 203.142 821.811 203.085C822.476 202.975 823.159 203.103 823.739 203.447L825.181 204.359C826.132 204.967 827.099 205.549 828.066 206.13C829.998 207.295 831.963 208.407 833.966 209.431C834.955 209.945 835.978 210.388 837.03 210.756C837.265 210.842 837.514 210.883 837.764 210.878C838.03 210.873 838.296 210.848 838.558 210.803C838.664 210.785 838.767 210.751 838.862 210.701C838.941 210.644 838.908 210.668 838.918 210.639C838.855 210.428 838.748 210.234 838.604 210.069C837.905 209.202 837.148 208.383 836.339 207.619C835.935 207.235 835.519 206.87 835.089 206.512C834.871 206.329 834.656 206.162 834.419 205.935C834.317 205.852 834.234 205.748 834.176 205.63C834.118 205.512 834.087 205.383 834.084 205.251C834.1 205.103 834.156 204.961 834.245 204.842C834.334 204.722 834.454 204.629 834.592 204.572C835.185 204.337 835.819 204.226 836.457 204.244C837.044 204.237 837.632 204.269 838.215 204.339C841.734 204.739 845.035 206.249 847.644 208.651C849.423 210.178 850.95 211.977 852.17 213.981L851.736 213.629C856.316 215.15 860.93 216.591 865.529 218.05C870.132 219.464 874.745 220.993 879.361 222.102C879.91 222.236 880.467 222.336 881.028 222.402C881.566 222.397 882.102 222.33 882.624 222.2C883.849 221.976 885.089 221.847 886.333 221.813C888.84 221.712 891.341 222.133 893.678 223.05C895.961 223.993 898.09 225.274 899.993 226.852C901.883 228.395 903.65 230.039 905.544 231.538C905.553 231.545 905.561 231.554 905.567 231.564C905.572 231.574 905.576 231.585 905.577 231.596C905.579 231.607 905.578 231.619 905.575 231.63C905.572 231.641 905.567 231.651 905.56 231.66C905.547 231.677 905.528 231.688 905.506 231.692C905.485 231.696 905.463 231.692 905.445 231.68C903.4 230.366 901.525 228.812 899.552 227.441C897.638 226.034 895.53 224.915 893.293 224.118C891.069 223.388 888.726 223.092 886.39 223.248C885.22 223.318 884.057 223.479 882.911 223.728L882.049 223.907C881.88 223.947 881.709 223.977 881.537 223.999C881.336 224.025 881.132 224.03 880.93 224.013C880.288 223.963 879.65 223.871 879.02 223.739C876.593 223.264 874.268 222.584 871.929 221.93C869.595 221.268 867.281 220.548 864.974 219.813C860.356 218.349 855.786 216.761 851.212 215.171L851.202 215.168C851.024 215.106 850.873 214.982 850.777 214.819C849.666 212.936 848.284 211.227 846.676 209.748C845.101 208.238 843.249 207.049 841.221 206.248C840.202 205.856 839.146 205.568 838.069 205.387C837.535 205.297 836.995 205.241 836.454 205.22C835.961 205.183 835.466 205.237 834.992 205.379C834.904 205.403 834.92 205.474 834.964 205.302C834.926 205.125 834.951 205.264 835.038 205.331C835.202 205.503 835.423 205.696 835.631 205.885C836.054 206.268 836.472 206.666 836.87 207.079C837.665 207.908 838.414 208.779 839.114 209.69C839.34 209.955 839.487 210.278 839.54 210.622C839.54 210.749 839.505 210.873 839.439 210.982C839.374 211.09 839.279 211.179 839.167 211.237C839.012 211.319 838.845 211.375 838.672 211.402C838.377 211.449 838.079 211.474 837.781 211.475C837.465 211.478 837.152 211.423 836.856 211.314C835.78 210.92 834.735 210.45 833.727 209.905C831.707 208.873 829.737 207.762 827.757 206.668L824.799 205.005L823.331 204.18C822.919 203.962 822.443 203.897 821.987 203.996C821.775 204.042 821.575 204.13 821.398 204.257C821.222 204.383 821.074 204.544 820.962 204.731C820.868 204.908 820.819 205.106 820.821 205.307C820.823 205.508 820.876 205.706 820.974 205.881C821.477 206.771 822.191 207.523 823.053 208.07L823.109 208.114L823.125 208.128C825.744 210.433 828.317 212.787 830.868 215.166C830.987 215.277 831.069 215.424 831.1 215.584C831.132 215.745 831.112 215.911 831.044 216.06L831.032 216.085C829.902 218.343 829.3 220.83 829.273 223.357C829.275 224.541 829.668 225.692 830.391 226.629C831.208 227.52 832.249 228.175 833.405 228.523C835.876 229.388 838.405 230.078 840.972 230.59C843.538 231.193 846.145 231.614 848.737 232.146L848.663 232.171C848.675 232.16 848.689 232.151 848.704 232.146C848.722 232.14 848.742 232.14 848.759 232.145C848.777 232.151 848.793 232.162 848.805 232.176C848.817 232.192 848.824 232.211 848.824 232.231C848.826 232.243 848.825 232.254 848.822 232.265C848.819 232.276 848.814 232.287 848.807 232.296C848.8 232.305 848.791 232.313 848.781 232.319C848.771 232.324 848.76 232.328 848.749 232.329C848.737 232.331 848.726 232.33 848.715 232.327C848.704 232.324 848.693 232.319 848.684 232.312C848.675 232.305 848.667 232.296 848.662 232.286C848.656 232.276 848.652 232.265 848.651 232.254L848.65 232.234L848.651 232.222C848.652 232.199 848.661 232.178 848.678 232.163C848.694 232.148 848.715 232.139 848.737 232.139C848.76 232.139 848.781 232.148 848.797 232.163C848.813 232.178 848.823 232.199 848.824 232.222L848.824 232.222Z" fill="#020202"/>
</g>
<defs>
<clipPath id="clip0">
<rect width="1440" height="500" fill="white"/>
</clipPath>
</defs>
</svg>
