<svg width="680" height="895" viewBox="0 0 680 895" fill="none" xmlns="http://www.w3.org/2000/svg">
<path d="M302.155 452.428C302.229 451.647 302.302 450.852 302.361 450.056C302.774 452.384 303.187 454.727 303.702 457.026L305.868 467.238C306.62 470.627 307.342 474.031 308.005 477.435C308.023 477.529 308.072 477.615 308.144 477.679C308.216 477.743 308.307 477.781 308.403 477.788H308.417C308.86 477.832 309.287 477.877 309.729 477.936L309.877 481.988L308.462 482.548C303.157 484.67 296.084 480.78 296.084 480.78C296.447 479.713 296.616 478.59 296.585 477.464C297.638 474.785 298.51 472.038 299.193 469.242C299.901 466.486 300.5 463.706 300.991 460.901C301.492 458.087 301.875 455.272 302.155 452.428Z" fill="#020202"/>
<path d="M352.55 367.729V367.714C352.27 367.125 352.138 366.815 352.138 366.815L352.123 366.801C349.481 365.419 346.61 364.53 343.65 364.178C343.606 364.178 343.561 364.163 343.532 364.163C341.348 363.766 339.144 363.491 336.93 363.338C336.878 363.325 336.823 363.32 336.769 363.323C330.918 362.925 325.039 363.426 322.269 365.828L322.254 365.842C319.718 367.965 317.061 369.938 314.297 371.751C314.223 371.796 314.164 371.855 314.09 371.899C308.786 375.465 303.466 378.618 302.965 378.913C302.95 378.928 302.936 378.943 302.921 378.943C297.837 382.155 295.023 387.71 293.475 392.764C293.431 392.897 293.402 393.015 293.358 393.147C293.36 393.178 293.355 393.208 293.343 393.236C293.284 395.638 293.151 398.025 292.96 400.412C292.635 404.405 292.115 408.379 291.398 412.333C291.044 414.323 290.602 416.282 290.101 418.242C289.596 420.262 288.88 422.223 287.964 424.092C287.522 425.021 286.992 425.949 286.506 426.804C285.141 429.256 284.219 431.93 283.78 434.702C283.193 438.464 283.323 442.304 284.162 446.019C285.557 451.826 287.913 457.359 291.132 462.39C291.157 462.416 291.177 462.445 291.191 462.478C291.25 462.567 291.309 462.67 291.368 462.758C291.442 462.876 291.53 463.009 291.604 463.141C291.648 463.2 291.678 463.259 291.722 463.318C291.738 463.334 291.748 463.355 291.752 463.377C291.795 463.468 291.844 463.557 291.899 463.642C292.046 463.907 292.223 464.202 292.4 464.526C292.68 465.057 293.004 465.661 293.343 466.339V466.353C293.52 466.692 293.682 467.046 293.859 467.4C293.991 467.665 294.109 467.945 294.227 468.225C294.36 468.52 294.492 468.829 294.61 469.139C294.653 469.218 294.688 469.302 294.713 469.389C294.89 469.831 295.067 470.288 295.229 470.745C295.258 470.833 295.288 470.907 295.317 470.995C295.435 471.334 295.553 471.673 295.656 472.027C295.661 472.062 295.671 472.097 295.686 472.13C295.696 472.148 295.701 472.168 295.701 472.189C295.719 472.22 295.729 472.256 295.73 472.292C295.819 472.587 295.907 472.896 295.995 473.206C295.98 473.22 295.995 473.22 295.995 473.235V473.25C296.084 473.589 296.158 473.928 296.231 474.281C296.276 474.487 296.319 474.709 296.349 474.93C296.393 475.195 296.437 475.46 296.467 475.725C296.511 476.123 296.555 476.506 296.57 476.889C296.529 474.203 296.652 471.516 296.939 468.844C297.218 466.014 297.602 463.185 298.088 460.386C298.574 457.586 299.173 454.801 299.886 452.03C300.401 450.041 300.961 448.067 301.639 446.107C301.094 442.894 300.711 439.653 300.328 436.411C299.627 429.455 299.406 422.458 299.664 415.472C299.81 411.969 300.184 408.479 300.784 405.024C300.932 404.169 301.094 403.3 301.33 402.446C301.536 401.591 301.713 400.736 301.993 399.911C302.436 398.199 303.116 396.558 304.012 395.034C304.03 395.001 304.06 394.977 304.095 394.966C304.131 394.955 304.17 394.958 304.203 394.975C304.233 394.995 304.255 395.025 304.266 395.06C304.277 395.095 304.275 395.132 304.262 395.166V395.181C303.088 398.412 302.393 401.798 302.199 405.23C301.879 408.654 301.737 412.092 301.772 415.531C301.801 422.412 302.332 429.279 302.95 436.16L304.026 446.461C304.439 449.894 304.748 453.342 305.264 456.775C305.765 460.194 306.192 463.642 306.841 467.046C307.489 470.347 308.137 473.618 308.845 476.904C315.505 477.493 322.239 477.715 328.915 477.641C332.304 477.582 335.693 477.493 339.038 477.184C340.685 477.033 342.322 476.797 343.945 476.477C345.236 476.257 346.484 475.835 347.643 475.224L351.887 439.608L353.95 421.498C354.245 418.478 354.525 415.457 354.746 412.436C355.011 409.401 355.114 406.38 355.1 403.344V403.33C355.102 403.291 355.118 403.255 355.146 403.228C355.173 403.201 355.209 403.185 355.247 403.182C355.284 403.182 355.319 403.195 355.347 403.22C355.374 403.244 355.391 403.278 355.394 403.315C356.025 409.399 356.178 415.523 355.851 421.631C355.659 427.731 355.218 433.817 354.716 439.903C354.171 445.974 353.596 452.045 352.83 458.087C352.123 464.143 351.209 470.155 350.34 476.197L350.325 476.3C350.302 476.456 350.246 476.606 350.163 476.741C350.079 476.875 349.969 476.991 349.839 477.081C348.269 478.143 346.472 478.824 344.593 479.07V481.988C361.392 481.251 371.677 474.87 377.262 469.801V469.787C378.668 468.53 379.969 467.16 381.152 465.69C381.731 464.983 382.258 464.234 382.729 463.45C375.788 430.642 365.681 398.585 352.55 367.729ZM312.882 471.909C312.31 471.888 311.767 471.647 311.37 471.234C310.972 470.822 310.749 470.271 310.749 469.698C310.749 469.125 310.972 468.575 311.37 468.163C311.767 467.75 312.31 467.508 312.882 467.488C313.455 467.508 313.997 467.75 314.395 468.163C314.793 468.575 315.015 469.125 315.015 469.698C315.015 470.271 314.793 470.822 314.395 471.234C313.997 471.647 313.455 471.888 312.882 471.909ZM323.492 472.439C322.919 472.419 322.377 472.177 321.979 471.765C321.581 471.353 321.358 470.802 321.358 470.229C321.358 469.656 321.581 469.105 321.979 468.693C322.377 468.281 322.919 468.039 323.492 468.019C324.064 468.039 324.606 468.281 325.004 468.693C325.402 469.105 325.625 469.656 325.625 470.229C325.625 470.802 325.402 471.353 325.004 471.765C324.606 472.177 324.064 472.419 323.492 472.439ZM332.51 472.439C331.937 472.419 331.395 472.177 330.997 471.765C330.599 471.353 330.377 470.802 330.377 470.229C330.377 469.656 330.599 469.105 330.997 468.693C331.395 468.281 331.937 468.039 332.51 468.019C333.082 468.039 333.625 468.281 334.023 468.693C334.421 469.105 334.643 469.656 334.643 470.229C334.643 470.802 334.421 471.353 334.023 471.765C333.625 472.177 333.082 472.419 332.51 472.439H332.51ZM341.528 471.909C340.956 471.888 340.413 471.647 340.015 471.234C339.617 470.822 339.395 470.271 339.395 469.698C339.395 469.125 339.617 468.575 340.015 468.163C340.413 467.75 340.956 467.508 341.528 467.488C342.101 467.508 342.643 467.75 343.041 468.163C343.439 468.575 343.661 469.125 343.661 469.698C343.661 470.271 343.439 470.822 343.041 471.234C342.643 471.647 342.101 471.888 341.528 471.909H341.528Z" fill="#020202"/>
<path d="M-40.298 523.749C-49.9941 523.881 -59.6899 524.323 -69.3564 525.134C-67.8362 522.978 -66.8145 520.512 -66.3655 517.913C-65.5698 510.487 -54.5181 503.59 -54.5181 503.59L-54.562 501.601L-44.8811 499.877C-43.2787 502.75 -40.9834 505.177 -38.204 506.938C-35.4246 508.698 -32.2492 509.736 -28.9666 509.956C-17.8265 510.545 21.9889 492.804 26.9988 490.328C63.0714 510.221 45.8309 534.358 45.8309 534.358C43.7726 533.045 41.5603 531.991 39.2442 531.219C36.9453 530.394 34.5879 529.746 32.2301 529.142C27.4853 528.007 22.6814 527.196 17.8482 526.533C8.21112 525.193 -1.48462 524.544 -11.1955 524.087C-20.8915 523.704 -30.5872 523.572 -40.298 523.749Z" fill="#020202"/>
<path d="M30.9769 591.384H-97.4873C-97.4873 591.384 -95.4097 566.29 -96.7062 562.989C-90.6059 543.361 -77.7709 534.889 -77.7709 534.889C-74.6058 531.966 -71.783 528.693 -69.357 525.134C-59.6613 525.472 -49.98 525.772 -40.3133 526.032C-30.6324 526.327 -20.9658 526.592 -11.3139 527.035C-6.48063 527.211 -1.66208 527.462 3.15645 527.757C7.975 528.022 12.7935 528.405 17.597 528.817C22.386 529.274 27.1902 529.775 31.9349 530.556C36.7232 531.16 41.4016 532.44 45.8304 534.358C56.705 538.867 57.2357 554.781 57.2357 554.781C60.4184 585.549 30.9769 591.384 30.9769 591.384Z" fill="#020202"/>
<path d="M-56.1691 481.73C-54.6359 484.812 -52.9268 487.791 -51.1215 490.681C-49.3375 493.56 -47.3548 496.31 -45.1877 498.913C-43.0751 501.47 -40.623 503.727 -37.8994 505.62C-35.2573 507.493 -32.1734 508.646 -28.9508 508.966L-29.1467 508.982C-20.737 507.599 -12.5057 505.292 -4.60221 502.103C3.33844 498.964 11.0934 495.398 18.9172 492.029L42.2334 481.528C46.1393 479.812 49.9735 477.944 53.9139 476.282C57.7942 474.499 61.6947 472.749 65.6556 471.101C65.6915 471.086 65.7322 471.085 65.7687 471.099C65.8052 471.113 65.8345 471.142 65.8502 471.178C65.8638 471.21 65.8656 471.246 65.8551 471.28C65.8447 471.314 65.8229 471.343 65.7933 471.362C62.16 473.635 58.4714 475.815 54.7536 477.945C51.0233 480.052 47.2225 482.025 43.4284 484.017C35.7967 487.911 28.0172 491.528 20.0347 494.663C12.1203 497.957 3.99632 500.742 -4.19271 503.264L-16.4371 507.142C-20.5254 508.448 -24.5459 509.858 -28.7851 510.931C-28.819 510.94 -28.8537 510.945 -28.8887 510.946L-28.9817 510.948C-32.6793 511.001 -36.3023 509.906 -39.3508 507.813C-42.3074 505.79 -44.9139 503.299 -47.0674 500.436C-49.1968 497.648 -51.0526 494.661 -52.6093 491.517C-54.1725 488.409 -55.4562 485.168 -56.4453 481.833C-56.4562 481.795 -56.4518 481.755 -56.433 481.721C-56.4142 481.686 -56.3825 481.661 -56.3449 481.65C-56.3108 481.641 -56.2747 481.644 -56.2427 481.659C-56.2106 481.674 -56.1847 481.699 -56.1691 481.73Z" fill="#020202"/>
<path d="M-35.8428 441.279C-34.5891 444.143 -33.196 446.94 -31.7801 449.716C-30.346 452.484 -28.8217 455.204 -27.1505 457.818C-25.5224 460.432 -23.6539 462.887 -21.5694 465.153C-20.565 466.248 -19.4119 467.196 -18.1439 467.969C-17.0182 468.703 -15.6539 468.977 -14.3323 468.734C-14.2914 468.724 -14.2498 468.717 -14.2078 468.713L-14.1559 468.709C-8.2732 468.174 -2.43092 467.262 3.33466 465.978C9.11002 464.744 14.8087 463.174 20.4019 461.278C25.9859 459.408 31.4261 457.133 36.6793 454.472L40.569 452.405C41.8469 451.684 43.0694 450.873 44.3275 450.12L46.2054 448.975C46.8159 448.572 47.4004 448.13 47.9994 447.71L51.5745 445.158L51.3641 445.359L58.1961 437.414L61.6237 433.451L63.3751 431.453C64.0301 430.739 64.7584 430.095 65.548 429.533C67.9298 427.844 70.7881 426.957 73.7078 427.003C74.6817 427.027 75.4798 427.094 76.3744 427.138L86.8331 427.801L92.0621 428.138L94.6767 428.306C95.1758 428.319 95.6723 428.383 96.1586 428.496C96.6818 428.638 97.1787 428.863 97.6303 429.162C98.5268 429.769 99.1949 430.658 99.5286 431.688C99.8327 432.688 99.8299 433.755 99.5204 434.753C99.0119 436.651 97.8092 438.289 96.1504 439.343C95.3352 439.861 94.4274 440.217 93.477 440.39C92.5667 440.524 91.6443 440.557 90.7266 440.49L85.4874 440.349L75.0089 440.057L75.1778 439.788C75.8079 441.439 76.0231 443.219 75.8045 444.973C75.8962 443.246 75.5651 441.522 74.84 439.952C74.8294 439.929 74.8232 439.905 74.822 439.88C74.8208 439.856 74.8244 439.831 74.8327 439.807C74.8411 439.784 74.8539 439.763 74.8705 439.744C74.8872 439.726 74.9073 439.711 74.9297 439.7C74.9546 439.689 74.9816 439.683 75.0089 439.682L85.4874 439.39L90.7266 439.25C91.5541 439.27 92.3813 439.199 93.1934 439.039C93.9558 438.851 94.6785 438.529 95.327 438.086C97.8848 436.455 99.1904 432.187 96.6181 430.706C96.334 430.533 96.0246 430.406 95.701 430.329C95.3327 430.261 94.9585 430.23 94.5841 430.236L91.9654 430.153L86.7281 429.987L76.254 429.645C75.4038 429.618 74.4589 429.56 73.6865 429.557C72.9034 429.559 72.1226 429.642 71.357 429.806C69.0508 430.299 66.9632 431.518 65.401 433.284L63.7327 435.255L60.3506 439.256L53.563 447.239L53.5479 447.257C53.4894 447.325 53.4238 447.387 53.3522 447.441C48.5463 451.123 43.4034 454.344 37.992 457.06C32.6051 459.77 27.0158 462.058 21.2746 463.903C15.5521 465.746 9.72303 467.24 3.81959 468.377C-2.0891 469.493 -8.0638 470.226 -14.0671 470.572L-13.8914 470.547C-15.6793 470.856 -17.5176 470.46 -19.0194 469.441C-20.3966 468.545 -21.6402 467.459 -22.7132 466.215C-24.7833 463.807 -26.5912 461.185 -28.1064 458.394C-31.1569 452.914 -33.7446 447.189 -35.8428 441.279Z" fill="#020202"/>
<path d="M120.893 401.208L93.293 429.205C96.5348 429.839 98.1263 430.885 98.7159 432.079C98.7189 432.11 98.7288 432.14 98.7451 432.167C98.7451 432.182 98.7598 432.182 98.7598 432.197C98.9348 432.648 99.0096 433.132 98.9791 433.616C98.9486 434.099 98.8135 434.57 98.5832 434.996C98.5684 435.041 98.5537 435.07 98.5389 435.114C97.776 436.574 96.723 437.863 95.4444 438.901L95.4296 438.916C95.1686 439.111 94.874 439.256 94.5605 439.343H94.5309C93.3459 439.654 92.13 439.832 90.9057 439.874C87.1927 440.11 82.6983 439.874 82.6983 439.874L59.8877 464.232L98.9073 509.16L177.124 434.716L120.893 401.208ZM86.6621 477.302C86.0895 477.282 85.5471 477.04 85.1492 476.628C84.7513 476.215 84.529 475.665 84.529 475.092C84.529 474.519 84.7513 473.968 85.1492 473.556C85.5471 473.144 86.0895 472.902 86.6621 472.882C87.2347 472.902 87.777 473.144 88.1749 473.556C88.5727 473.968 88.7951 474.519 88.7951 475.092C88.7951 475.665 88.5727 476.215 88.1749 476.628C87.777 477.04 87.2347 477.282 86.6621 477.302ZM83.1256 455.184L122.027 413.91L155.978 436.883L110.003 478.643L83.1256 455.184Z" fill="#020202"/>
<path d="M112.525 432.398L117.243 426.863L122.246 421.173L122.588 420.784L123.052 421.084C126.052 423.027 129.033 425 131.994 427.001L132.774 427.526L132.077 428.156C128.058 431.786 124.012 435.385 119.863 438.873L119.543 439.142L119.255 438.879C116.872 436.698 114.651 434.442 112.525 432.398ZM112.525 432.398C115.087 434.445 117.552 436.28 119.856 438.19L119.249 438.196C123.117 434.401 127.088 430.718 131.087 427.066L131.169 428.221C128.215 426.209 125.275 424.175 122.351 422.12L123.156 422.031L117.984 427.137L112.525 432.398Z" fill="#020202"/>
<path d="M265.672 308.021C266.494 307.444 267.406 307.008 268.371 306.73C269.33 306.434 270.322 306.258 271.325 306.205C272.343 306.16 273.362 306.269 274.348 306.528C275.341 306.792 276.25 307.306 276.989 308.021C276.052 307.846 275.105 307.726 274.154 307.662C273.231 307.631 272.315 307.629 271.391 307.676C269.534 307.75 267.682 307.972 265.672 308.021Z" fill="#020202"/>
<path d="M270.623 318.542C271.196 318.522 271.738 318.281 272.137 317.868C272.535 317.456 272.758 316.905 272.758 316.332C272.758 315.759 272.535 315.208 272.137 314.795C271.738 314.383 271.196 314.141 270.623 314.122C270.05 314.141 269.507 314.383 269.109 314.795C268.71 315.208 268.488 315.759 268.488 316.332C268.488 316.905 268.71 317.456 269.109 317.868C269.507 318.281 270.05 318.522 270.623 318.542Z" fill="#020202"/>
<path d="M269.256 289.749C272.119 294.461 275.286 298.982 278.736 303.282C280.459 305.415 282.342 307.414 284.368 309.262C285.362 310.17 286.44 310.98 287.589 311.683C288.63 312.384 289.85 312.773 291.105 312.802L290.558 313.102C291.51 311.72 292.645 310.474 293.933 309.398C295.269 308.216 296.914 307.437 298.676 307.154C299.62 307.081 300.569 307.21 301.459 307.533C302.349 307.856 303.16 308.365 303.838 309.027C305.159 310.277 306.103 311.873 306.562 313.633C306.976 315.329 307.079 317.087 306.865 318.82C306.716 320.535 306.335 322.221 305.732 323.834C305.089 325.583 303.949 327.106 302.452 328.217C300.877 329.277 298.996 329.788 297.101 329.67L298.459 328.423C297.823 341.757 296.849 355.103 296.614 368.44C296.609 370.105 296.579 371.773 296.658 373.427C296.666 374.262 296.756 375.069 296.823 375.885C296.871 376.653 297.094 377.401 297.474 378.071C297.607 378.394 297.813 378.683 298.076 378.914C298.339 379.145 298.651 379.313 298.989 379.404C299.743 379.48 300.504 379.379 301.211 379.11C302.753 378.553 304.233 377.84 305.629 376.982C311.264 373.419 316.699 369.549 321.911 365.391L321.92 365.384C321.951 365.361 321.985 365.341 322.021 365.325C329.187 362.398 337.078 361.74 344.629 363.439C345.558 363.702 346.509 363.902 347.422 364.221L350.114 365.175C350.864 365.477 351.658 365.655 352.464 365.702C353.182 365.665 353.524 365.497 353.775 365.019C354.034 364.325 354.126 363.579 354.042 362.843C353.984 361.974 353.855 361.11 353.655 360.262C353.228 358.49 352.687 356.748 352.035 355.046C350.714 351.582 349.214 348.189 347.541 344.881L346.909 343.643C346.793 343.428 346.706 343.239 346.608 343.089L346.252 342.513L344.777 340.105L341.853 335.275C337.977 328.821 334.16 322.331 330.607 315.655C329.73 313.976 328.851 312.299 328.023 310.576C327.104 308.779 326.368 306.895 325.825 304.951L325.669 303.997L325.628 303.41C325.615 303.034 325.513 302.582 325.462 302.171C325.293 301.315 325.088 300.452 324.83 299.592C324.318 297.864 323.671 296.179 322.894 294.553C320.104 287.843 314.764 282.513 308.047 279.737C304.639 278.449 300.973 277.996 297.354 278.416C293.632 278.691 289.932 279.216 286.28 279.986C282.612 280.751 278.993 281.736 275.443 282.937C274.559 283.248 273.663 283.529 272.79 283.872C271.911 284.156 271.06 284.517 270.245 284.951C269.508 285.481 268.998 286.269 268.815 287.158C268.632 288.046 268.789 288.971 269.256 289.749ZM269.005 289.903C268.487 289.059 268.305 288.051 268.496 287.079C268.687 286.107 269.237 285.242 270.036 284.656C270.87 284.193 271.745 283.806 272.65 283.502L275.289 282.499C278.822 281.196 282.427 280.084 286.072 279.098C289.733 278.127 293.454 277.4 297.212 276.922C301.066 276.267 305.021 276.538 308.75 277.712C312.512 278.925 315.937 281.005 318.749 283.784C321.559 286.524 323.866 289.736 325.565 293.274C326.428 295.03 327.152 296.851 327.73 298.721C328.023 299.658 328.266 300.62 328.471 301.605C328.545 302.124 328.659 302.592 328.696 303.155L328.756 303.973C328.802 304.117 328.84 304.259 328.87 304.402C329.401 306.058 330.07 307.666 330.87 309.21C331.666 310.876 332.529 312.528 333.388 314.181C336.918 320.762 340.627 327.287 344.386 333.777L347.231 338.632L348.665 341.052L349.04 341.68C349.19 341.929 349.298 342.169 349.402 342.369L350.034 343.65C351.715 347.069 353.197 350.581 354.474 354.171C355.12 355.996 355.647 357.861 356.051 359.755C356.256 360.742 356.379 361.744 356.418 362.751C356.505 363.895 356.3 365.042 355.821 366.084C355.641 366.378 355.436 366.656 355.208 366.915C354.95 367.163 354.658 367.373 354.341 367.54C353.748 367.815 353.1 367.952 352.447 367.937C351.375 367.872 350.323 367.614 349.342 367.176L346.759 366.147C345.911 365.812 345.023 365.593 344.155 365.309C336.999 363.408 329.429 363.776 322.49 366.361L322.6 366.295C317.224 370.28 311.862 374.296 306.08 377.754C304.634 378.659 303.099 379.412 301.499 380.002C300.641 380.332 299.716 380.45 298.802 380.345C298.327 380.23 297.884 380.012 297.503 379.706C297.122 379.4 296.813 379.014 296.599 378.575C296.137 377.797 295.851 376.927 295.759 376.026C295.667 375.179 295.553 374.325 295.524 373.488C295.414 371.804 295.359 370.129 295.297 368.451C295.126 361.747 295.17 355.053 295.253 348.359C295.331 341.665 295.507 334.979 295.833 328.29L295.835 328.255C295.851 327.917 296.002 327.599 296.253 327.371C296.504 327.143 296.835 327.024 297.173 327.041L297.192 327.042C298.534 327.126 299.866 326.762 300.979 326.005C302.091 325.249 302.92 324.144 303.335 322.864C303.868 321.483 304.214 320.035 304.363 318.562C304.598 317.121 304.571 315.649 304.282 314.217C303.689 311.536 301.47 308.922 298.838 309.061C296.145 309.293 293.56 311.578 291.71 313.903L291.66 313.966C291.6 314.041 291.525 314.101 291.439 314.142C291.353 314.183 291.258 314.204 291.163 314.203C289.643 314.123 288.179 313.597 286.955 312.691C285.785 311.892 284.695 310.983 283.699 309.977C281.75 307.992 279.939 305.876 278.279 303.644C274.935 299.23 271.891 294.613 269.005 289.904V289.903Z" fill="#020202"/>
<path d="M296.921 333.136C296.633 334.517 296.2 335.863 295.629 337.153C295.076 338.45 294.415 339.7 293.656 340.888C292.891 342.103 291.965 343.209 290.904 344.176C290.356 344.673 289.733 345.081 289.058 345.386C288.723 345.548 288.359 345.643 287.987 345.664C287.615 345.685 287.242 345.632 286.891 345.508C287.539 345.382 288.155 345.128 288.704 344.761C289.252 344.393 289.722 343.92 290.085 343.368C290.928 342.322 291.708 341.226 292.42 340.087C293.909 337.812 295.275 335.436 296.921 333.136Z" fill="#020202"/>
<path d="M294.934 470.656C295.382 471.741 295.655 472.89 295.745 474.06C294.551 477.169 289.276 487.543 289.276 487.543C288.464 487.384 287.692 487.063 287.007 486.6C280.154 482.533 266.067 466.398 261.249 460.739L261.146 460.636C261.12 460.594 261.09 460.555 261.057 460.518C260.114 459.413 259.569 458.765 259.569 458.765C278.932 437.015 283.175 407.574 285.297 392.985C287.419 378.397 292.915 374.699 292.915 374.699L293.004 377.675C292.989 377.277 292.945 376.894 292.915 376.496C292.917 376.541 292.913 376.586 292.901 376.629C292.518 384.542 291.81 392.391 290.779 400.176C290.219 404.081 289.571 407.971 288.745 411.803C288.347 413.733 287.846 415.619 287.36 417.505C286.881 419.341 286.204 421.12 285.341 422.81C284.929 423.665 284.472 424.46 283.956 425.345C283.435 426.26 282.977 427.21 282.586 428.189C281.794 430.138 281.245 432.177 280.95 434.26C280.354 438.377 280.6 442.573 281.672 446.593C282.734 450.535 284.331 454.313 286.417 457.822C286.948 458.676 287.434 459.561 287.994 460.4L289.718 462.876C290.867 464.497 292.208 465.97 293.446 467.518C294.021 468.524 294.519 469.574 294.934 470.656Z" fill="#020202"/>
<path d="M295.995 473.206C295.98 473.22 295.995 473.22 295.995 473.235V473.25C295.948 473.53 295.863 473.802 295.745 474.06C295.796 473.437 295.781 472.809 295.7 472.189C295.701 472.168 295.696 472.148 295.686 472.13C295.671 472.097 295.661 472.062 295.656 472.027C295.553 471.673 295.435 471.334 295.317 470.995C295.288 470.907 295.258 470.833 295.229 470.745C295.067 470.288 294.89 469.831 294.713 469.389C294.688 469.302 294.653 469.218 294.61 469.139C294.492 468.829 294.36 468.52 294.227 468.225C294.109 467.945 293.991 467.665 293.859 467.4C293.682 467.046 293.52 466.692 293.343 466.354V466.339C293.004 465.661 292.68 465.057 292.4 464.526C292.223 464.202 292.046 463.907 291.899 463.642C291.844 463.557 291.795 463.468 291.751 463.377C291.748 463.355 291.737 463.334 291.722 463.318C291.678 463.259 291.648 463.2 291.604 463.141C291.53 463.009 291.442 462.876 291.368 462.758C291.309 462.67 291.25 462.567 291.191 462.478C291.177 462.446 291.157 462.416 291.132 462.39C287.913 457.359 285.557 451.826 284.162 446.019C283.323 442.304 283.193 438.464 283.78 434.702C284.219 431.93 285.141 429.256 286.505 426.804C286.992 425.949 287.522 425.021 287.964 424.092C288.88 422.223 289.596 420.262 290.101 418.242C290.602 416.282 291.044 414.323 291.398 412.333C292.12 408.384 292.641 404.411 292.96 400.412C293.151 398.025 293.284 395.638 293.343 393.236C293.355 393.208 293.36 393.178 293.358 393.147C293.387 392.293 293.402 391.424 293.416 390.554L293.475 392.764L295.995 473.206Z" fill="#020202"/>
<path d="M298.866 481.993C299.381 483.437 299.63 484.961 299.603 486.494C299.633 488.026 299.384 489.551 298.866 490.994C298.349 489.551 298.099 488.026 298.13 486.494C298.102 484.961 298.352 483.437 298.866 481.993Z" fill="#020202"/>
<path d="M343.611 477.403C345.027 482.168 345.847 487.09 346.052 492.057C346.427 496.995 346.675 501.939 346.795 506.888C346.914 511.835 346.965 516.782 346.948 521.73C346.999 526.683 346.648 531.64 346.487 536.566L345.06 566.178L344.344 580.985L343.507 595.785L343.453 595.347C344.165 597.696 344.374 600.167 344.068 602.602C343.73 605.067 342.785 607.409 341.32 609.42C341.223 609.548 341.115 609.684 340.989 609.825L340.706 610.141L340.135 610.768L338.992 612.022L336.706 614.53L332.132 619.546L329.845 622.054L328.702 623.308L328.13 623.936C327.974 624.128 327.818 624.308 327.665 624.53C326.44 626.387 325.311 628.305 324.281 630.278C322.206 634.351 319.855 638.276 317.243 642.027C316.536 643.018 315.663 643.88 314.664 644.575C314.355 644.799 313.998 644.948 313.622 645.01C313.246 645.073 312.86 645.047 312.496 644.935C312.311 644.851 312.133 644.753 311.964 644.642L311.56 644.256C311.354 643.986 311.192 643.708 311.013 643.432C310.492 642.301 310.276 641.053 310.386 639.813C310.456 638.64 310.661 637.478 310.996 636.352C311.641 634.142 312.496 631.999 313.55 629.952L314.344 628.43C314.612 627.983 314.81 627.499 314.934 626.993C315.052 626.504 315.074 625.997 315 625.5C314.967 625.056 314.774 624.64 314.456 624.329C313.896 623.869 312.679 624.297 311.877 624.863C311.03 625.546 310.287 626.349 309.671 627.246C308.25 629.014 306.831 630.785 305.375 632.527C303.922 634.273 302.435 635.992 300.872 637.652C300.094 638.484 299.286 639.294 298.448 640.079C298.024 640.468 297.589 640.849 297.132 641.214C296.893 641.39 296.668 641.574 296.407 641.738C296.278 641.826 296.144 641.907 296.006 641.98C295.823 642.09 295.622 642.165 295.412 642.2L295.49 642.189C294.074 642.548 292.615 642.702 291.155 642.647C290.372 642.618 289.605 642.414 288.91 642.05C288.539 641.85 288.212 641.577 287.948 641.249C287.684 640.92 287.489 640.541 287.374 640.136C287.193 639.374 287.168 638.585 287.299 637.813C287.43 637.042 287.715 636.304 288.137 635.645C288.532 635.013 289.002 634.43 289.537 633.91L290.986 632.376L296.783 626.242L299.682 623.174C300.653 622.221 301.558 621.204 302.392 620.129C302.738 619.609 303.004 619.04 303.18 618.441C303.356 617.996 303.39 617.507 303.279 617.041C303.333 616.976 302.868 616.857 302.269 617.01C301.683 617.146 301.125 617.384 300.622 617.713C299.552 618.549 298.529 619.442 297.557 620.389C296.51 621.344 295.422 622.258 294.343 623.181C292.153 625.021 289.851 626.723 287.45 628.276C286.222 629.064 284.941 629.764 283.616 630.372C282.931 630.688 282.225 630.956 281.504 631.175C281.125 631.292 280.741 631.386 280.352 631.459C279.868 631.557 279.372 631.577 278.882 631.519L279.316 631.523C278.402 631.717 277.461 631.753 276.535 631.63C275.949 631.545 275.394 631.316 274.918 630.965C274.391 630.56 274.015 629.99 273.849 629.346C273.625 628.317 273.715 627.245 274.107 626.268C274.454 625.356 274.995 624.53 275.693 623.849C276.027 623.522 276.388 623.226 276.773 622.962L277.743 622.275L279.682 620.896L283.542 618.118C286.107 616.258 288.672 614.393 291.16 612.469C292.369 611.576 293.515 610.601 294.59 609.551C294.691 609.452 294.78 609.341 294.856 609.222L294.963 609.075C294.968 609.048 294.978 609.022 294.991 608.998C295.02 608.959 295.006 608.968 294.992 609.011C294.998 609.062 295.001 609.114 295 609.165C295.024 609.242 295.052 609.316 295.086 609.389C295.146 609.462 295.171 609.488 295.18 609.503C294.747 609.367 294.294 609.308 293.841 609.326L294.412 609.18L282.849 614.98L277.067 617.879L275.622 618.604C275.131 618.84 274.709 619.09 274.036 619.36C272.743 619.879 271.324 619.995 269.964 619.693C269.195 619.527 268.476 619.182 267.866 618.686C267.503 618.375 267.208 617.993 266.999 617.563C266.79 617.133 266.671 616.664 266.651 616.186C266.628 615.416 266.775 614.65 267.082 613.943C267.353 613.293 267.726 612.69 268.186 612.156C269.045 611.227 270.078 610.476 271.226 609.945L274.061 608.385L285.397 602.141L296.734 595.898L302.402 592.776L303.819 591.996C304.259 591.733 304.631 591.469 305.043 591.21C305.84 590.678 306.574 590.056 307.23 589.357C309.727 586.167 311.301 582.354 311.781 578.331C312.423 574.197 312.526 569.998 312.089 565.837L312.08 565.748L312.079 565.743L310.835 543.683L309.672 521.625L309.108 510.598C308.966 508.762 309.006 506.919 309.039 505.077L309.141 499.551L309.567 477.459C309.568 477.42 309.584 477.383 309.611 477.356C309.639 477.329 309.676 477.314 309.715 477.314C309.753 477.314 309.79 477.329 309.818 477.356C309.845 477.383 309.861 477.42 309.862 477.459L310.288 499.525L310.39 505.038C310.407 506.876 310.416 508.715 310.606 510.548L311.465 521.554L313.147 543.563L314.749 565.57L314.74 565.477C315.285 569.895 315.249 574.366 314.634 578.775C314.136 583.372 312.338 587.732 309.451 591.343C308.639 592.223 307.728 593.005 306.736 593.676C306.24 593.996 305.724 594.347 305.238 594.635L303.825 595.419L298.173 598.558L286.869 604.836L275.565 611.113L272.739 612.683C271.918 613.042 271.172 613.554 270.541 614.191C270.293 614.473 270.09 614.792 269.94 615.136C269.81 615.419 269.738 615.725 269.73 616.036C269.755 616.24 269.752 616.246 269.872 616.365C270.111 616.54 270.383 616.662 270.673 616.723C271.433 616.891 272.227 616.827 272.95 616.538C273.282 616.417 273.804 616.138 274.285 615.908L275.737 615.197L281.545 612.35L293.161 606.656L293.197 606.639C293.364 606.557 293.547 606.514 293.733 606.511C294.229 606.499 294.724 606.536 295.213 606.621C295.849 606.71 296.452 606.961 296.964 607.35C297.379 607.679 297.658 608.151 297.747 608.673C297.817 609.12 297.763 609.577 297.591 609.996C297.524 610.153 297.451 610.314 297.375 610.462L297.142 610.804C297 611.017 296.838 611.216 296.659 611.399C295.463 612.571 294.181 613.653 292.824 614.634C290.265 616.571 287.678 618.428 285.074 620.264L281.153 622.992L279.186 624.345L278.201 625.019C277.926 625.198 277.667 625.401 277.429 625.627C276.977 626.05 276.623 626.567 276.392 627.141C276.179 627.644 276.105 628.194 276.179 628.735C276.271 629.047 276.372 629.158 276.946 629.296C277.598 629.38 278.259 629.357 278.904 629.227L279.339 629.232C279.244 629.218 279.459 629.232 279.556 629.222L279.969 629.175C280.272 629.123 280.571 629.053 280.867 628.967C281.494 628.786 282.108 628.563 282.705 628.298C283.946 627.751 285.147 627.119 286.301 626.406C288.66 624.958 290.927 623.365 293.089 621.635C294.169 620.756 295.258 619.886 296.312 618.97L297.892 617.594C298.443 617.074 299.042 616.606 299.679 616.196C300.368 615.772 301.126 615.472 301.918 615.311C302.358 615.215 302.81 615.194 303.257 615.249C303.561 615.281 303.853 615.383 304.11 615.548C304.367 615.714 304.581 615.937 304.737 616.2C304.978 616.665 305.069 617.194 304.997 617.713C304.953 618.12 304.868 618.522 304.743 618.912C304.504 619.66 304.155 620.368 303.708 621.013C302.803 622.149 301.817 623.219 300.759 624.214L297.796 627.219L291.871 633.231C290.87 634.158 289.946 635.165 289.109 636.243C288.756 636.762 288.513 637.348 288.393 637.964C288.274 638.581 288.281 639.215 288.413 639.829C288.631 640.388 289.023 640.862 289.531 641.181C290.039 641.5 290.637 641.646 291.235 641.599C292.591 641.656 293.948 641.52 295.266 641.195L295.344 641.184C295.254 641.193 295.456 641.138 295.533 641.082C295.645 641.024 295.754 640.959 295.859 640.888C296.08 640.753 296.295 640.579 296.514 640.422C296.945 640.083 297.364 639.721 297.778 639.347C298.598 638.591 299.396 637.804 300.171 636.986C301.727 635.361 303.218 633.664 304.676 631.939C306.144 630.222 307.569 628.469 308.953 626.678C309.614 625.701 310.415 624.828 311.331 624.085C311.837 623.721 312.404 623.447 313.004 623.277C313.343 623.161 313.704 623.124 314.06 623.17C314.415 623.217 314.755 623.345 315.053 623.544C315.581 624.002 315.917 624.644 315.991 625.339C316.092 625.964 316.071 626.602 315.93 627.22C315.791 627.817 315.565 628.391 315.259 628.923L314.497 630.421C313.496 632.415 312.688 634.499 312.084 636.647C311.782 637.696 311.602 638.776 311.547 639.866C311.458 640.892 311.647 641.924 312.096 642.851C312.652 643.818 313.124 644.035 313.968 643.456C314.807 642.822 315.534 642.053 316.12 641.18C318.585 637.425 320.791 633.507 322.724 629.453C323.737 627.382 324.859 625.365 326.084 623.412C326.247 623.163 326.451 622.907 326.649 622.656L327.205 622.014L328.319 620.729L330.546 618.159L339.384 607.947C340.575 606.263 341.337 604.313 341.603 602.267C341.842 600.189 341.644 598.084 341.021 596.088C340.978 595.946 340.96 595.798 340.967 595.65L341.707 580.852L342.569 566.06L344.297 536.475C344.58 531.532 345.05 526.633 345.118 521.703C345.249 516.772 345.318 511.839 345.326 506.905C345.32 501.973 345.315 497.039 345.112 492.114C345.008 489.652 344.862 487.192 344.626 484.743C344.451 482.295 344.019 479.872 343.338 477.514L343.333 477.499C343.32 477.462 343.323 477.421 343.34 477.386C343.357 477.351 343.388 477.325 343.424 477.312C343.461 477.299 343.502 477.302 343.537 477.319C343.572 477.336 343.599 477.366 343.611 477.403L343.611 477.403Z" fill="#020202"/>
<path d="M313.193 578.712C313.458 593.447 295.997 598.03 295.997 598.03C295.997 598.03 202.013 613.753 194.941 577.327C187.868 540.901 230.659 525.34 230.659 525.34C304.573 482.548 310.084 489.267 310.084 489.267L309.907 506.847C309.924 519.249 310.627 531.641 312.014 543.966C312.014 543.966 312.663 557.979 313.031 571.182C307.638 570.106 302.215 569.296 296.792 568.589C291.119 567.822 285.446 567.218 279.758 566.658C274.07 566.157 268.382 565.686 262.68 565.391C256.977 565.082 251.26 564.875 245.513 564.949C251.142 566.084 256.8 566.938 262.459 567.69C268.132 568.456 273.805 569.046 279.493 569.591C285.181 570.092 290.869 570.563 296.572 570.858C302.038 571.167 307.52 571.373 313.031 571.315C313.105 573.849 313.149 576.34 313.193 578.712Z" fill="#020202"/>
<path d="M291.315 462.396L291.774 463.047L291.76 463.025L291.887 463.194L291.869 463.173C291.897 463.199 291.92 463.23 291.936 463.265C291.952 463.3 291.961 463.337 291.962 463.376L291.94 463.283L292.089 463.516L292.099 463.532C292.674 464.383 293.176 465.277 293.689 466.166C293.713 466.206 293.726 466.252 293.728 466.299L293.73 466.339L293.73 466.353L293.687 466.175C294.197 467.078 294.663 467.997 295.1 468.952L295.06 468.869C295.232 469.218 295.309 469.425 295.416 469.666L295.724 470.378C295.929 470.848 296.103 471.351 296.292 471.841L296.319 472.026C296.293 471.781 296.286 471.863 296.319 471.919L296.283 471.833C296.308 471.881 296.327 471.931 296.342 471.983C296.36 472.05 296.37 472.119 296.37 472.189L296.3 471.89C296.366 472.014 296.402 472.151 296.405 472.291L296.376 472.099L296.681 473.01L296.501 473.708C296.523 473.655 296.603 473.683 296.696 473.314C296.716 473.163 296.687 473.01 296.615 472.876C296.587 472.829 296.605 472.856 296.631 472.906C296.68 473.01 296.707 473.123 296.71 473.238L296.71 473.25L296.687 473.07C297.056 474.346 297.299 475.655 297.414 476.978C297.461 477.662 297.454 478.349 297.394 479.032C297.322 479.732 297.185 480.423 296.983 481.097L296.542 479.943C297.566 480.44 298.628 480.857 299.716 481.19C300.802 481.524 301.913 481.767 303.038 481.916C304.119 482.066 305.215 482.062 306.295 481.903C306.806 481.823 307.308 481.69 307.793 481.506L309.453 480.824L308.639 482.033L308.437 477.504C308.429 477.323 308.46 477.142 308.529 476.974C308.597 476.805 308.701 476.654 308.833 476.529C308.965 476.404 309.122 476.31 309.294 476.251C309.466 476.193 309.649 476.172 309.83 476.191L309.866 476.195C312.756 476.51 315.65 476.771 318.542 477.023C321.434 477.267 324.327 477.463 327.22 477.609C330.112 477.761 333.007 477.861 335.891 477.779C338.736 477.774 341.571 477.447 344.341 476.802L344.429 476.777C344.517 476.753 344.608 476.747 344.698 476.758C344.788 476.769 344.875 476.798 344.954 476.843C345.033 476.888 345.102 476.948 345.157 477.019C345.213 477.091 345.254 477.173 345.278 477.26C345.296 477.327 345.304 477.396 345.303 477.464L345.253 479.07L345.246 478.972L345.604 481.902L345.008 481.411C347.917 481.336 350.817 481.056 353.686 480.573C356.548 480.061 359.361 479.301 362.091 478.301C367.531 476.289 372.498 473.18 376.685 469.166L376.404 469.802L376.403 469.787C376.4 469.675 376.42 469.564 376.463 469.46C376.505 469.356 376.569 469.262 376.65 469.185L376.689 469.148C377.677 468.208 378.61 467.211 379.481 466.161C379.914 465.637 380.33 465.103 380.719 464.557C381.1 464.03 381.452 463.482 381.771 462.915L381.656 463.68C380.644 459.623 379.726 455.546 378.643 451.509C377.633 447.455 376.571 443.415 375.455 439.389C373.226 431.337 370.869 423.324 368.446 415.33C365.975 407.352 363.541 399.354 360.795 391.457C358.144 383.527 355.335 375.644 352.368 367.81L352.36 367.79C352.353 367.77 352.349 367.75 352.35 367.729L352.351 367.714L352.37 367.8L352.003 366.873C351.988 366.837 351.989 366.796 352.004 366.761C352.02 366.725 352.049 366.697 352.085 366.682C352.12 366.67 352.159 366.671 352.193 366.685C352.228 366.699 352.256 366.724 352.274 366.757L352.731 367.628C352.742 367.649 352.748 367.671 352.749 367.694L352.75 367.714L352.751 367.729L352.734 367.648C356.502 375.154 359.774 382.893 362.895 390.689C365.904 398.526 368.824 406.408 371.368 414.414C373.993 422.395 376.239 430.496 378.289 438.641C380.409 446.769 382.166 454.987 383.803 463.221L383.815 463.284C383.863 463.526 383.817 463.777 383.687 463.987C383.286 464.62 382.847 465.229 382.373 465.811C381.917 466.38 381.44 466.924 380.951 467.452C379.972 468.504 378.932 469.497 377.836 470.426L378.121 469.787L378.121 469.802L378.119 469.855C378.116 469.966 378.089 470.076 378.041 470.176C377.992 470.276 377.924 470.365 377.839 470.438C375.575 472.382 373.124 474.097 370.522 475.559C367.93 477.003 365.216 478.218 362.412 479.19C359.617 480.158 356.756 480.922 353.851 481.475C350.941 481.989 348.006 482.353 345.059 482.565C344.922 482.575 344.785 482.534 344.677 482.45C344.568 482.366 344.494 482.245 344.469 482.109L344.462 482.074L343.941 479.169L343.935 479.112L343.934 479.07L343.885 477.464L344.846 478.127C341.972 479.009 339.002 479.547 336.001 479.728C333.051 479.978 330.097 480.081 327.15 480.059C321.267 479.961 315.395 479.518 309.564 478.734L310.992 477.425L311.115 481.943C311.121 482.204 311.046 482.461 310.9 482.678C310.754 482.894 310.545 483.06 310.3 483.152L308.614 483.781C307.97 484.002 307.304 484.156 306.628 484.24C305.327 484.391 304.011 484.357 302.72 484.136C301.474 483.931 300.25 483.608 299.065 483.171C297.88 482.744 296.73 482.225 295.627 481.616C295.433 481.51 295.282 481.34 295.2 481.134C295.118 480.929 295.109 480.701 295.176 480.49L295.185 480.462C295.371 479.924 295.509 479.37 295.6 478.808C295.689 478.227 295.734 477.641 295.734 477.053C295.709 475.835 295.565 474.621 295.305 473.43L295.294 473.378C295.285 473.336 295.281 473.293 295.282 473.25L295.282 473.238C295.286 473.345 295.311 473.45 295.356 473.546C295.381 473.594 295.397 473.617 295.367 473.566C295.292 473.429 295.263 473.272 295.283 473.117C295.377 472.74 295.463 472.762 295.49 472.704L295.311 473.401L295.085 472.486L295.057 472.292C295.058 472.36 295.074 472.427 295.103 472.488C295.081 472.423 295.064 472.356 295.051 472.288L295.032 472.189C295.034 472.238 295.041 472.286 295.054 472.334C295.062 472.366 295.075 472.398 295.09 472.428L295.054 472.341C295.017 472.241 294.997 472.135 294.996 472.028L295.022 472.212C294.883 471.732 294.766 471.252 294.604 470.766L294.365 470.043C294.29 469.805 294.19 469.53 294.161 469.408L294.121 469.325C293.79 468.39 293.415 467.449 293.001 466.533L292.984 466.497C292.964 466.452 292.955 466.403 292.956 466.353L292.957 466.339L292.998 466.512C292.563 465.596 292.159 464.661 291.7 463.753L291.71 463.769L291.565 463.471L291.542 463.378C291.562 463.482 291.55 463.42 291.577 463.464L291.576 463.467L291.572 463.466L291.558 463.442L291.45 463.258L291.436 463.235L291.069 462.56L291.065 462.552C291.047 462.519 291.042 462.48 291.052 462.444C291.062 462.407 291.085 462.376 291.117 462.356C291.149 462.337 291.187 462.33 291.224 462.337C291.26 462.345 291.293 462.366 291.315 462.396L291.315 462.396Z" fill="#020202"/>
<path d="M269.752 290.707C267.786 293.489 266.412 296.645 265.714 299.979C265.359 301.612 265.135 303.272 265.046 304.941C264.988 306.611 265.044 308.283 265.213 309.945L265.354 311.194C265.417 311.696 265.44 312.203 265.422 312.708C265.376 313.685 265.211 314.653 264.928 315.589C264.369 317.484 263.258 319.17 261.736 320.431C260.284 321.346 258.889 322.347 257.557 323.429C256.994 323.964 256.541 324.604 256.226 325.313C255.912 325.984 255.811 326.735 255.937 327.465L255.902 327.385C256.122 327.73 256.415 328.022 256.761 328.241C257.141 328.485 257.562 328.66 258.004 328.757C258.93 328.962 259.889 328.976 260.821 328.798C260.878 328.787 260.936 328.788 260.993 328.8C261.049 328.812 261.103 328.835 261.151 328.868C261.198 328.901 261.239 328.943 261.27 328.991C261.302 329.04 261.323 329.094 261.334 329.151L261.34 329.198L261.342 329.23C261.444 330.6 261.533 331.971 261.668 333.338C261.994 337.395 262.882 341.388 264.305 345.201C264.658 346.28 265.308 347.237 266.18 347.964C266.265 347.996 266.328 348.062 266.417 348.086L266.85 348.226C267.153 348.317 267.464 348.402 267.781 348.479C268.41 348.641 269.055 348.781 269.705 348.901C272.338 349.356 275.008 349.564 277.68 349.525C279.023 349.491 280.366 349.464 281.71 349.382L283.761 349.234C284.592 349.173 285.428 349.229 286.243 349.403C287.915 349.779 289.424 350.677 290.552 351.967C291.568 353.161 292.336 354.544 292.814 356.037C293.693 358.797 294.122 361.68 294.083 364.576C294.103 367.39 293.866 370.199 293.375 372.97L293.378 372.905L293.242 374.773L293.156 375.701C293.115 376.031 293.116 376.275 293.04 376.676C293.034 376.708 293.016 376.738 292.99 376.758C292.964 376.779 292.931 376.789 292.898 376.788C292.865 376.786 292.834 376.773 292.81 376.75C292.786 376.727 292.771 376.696 292.768 376.663L292.76 376.582L292.422 372.927L292.425 372.861C292.473 370.136 292.346 367.41 292.045 364.701C291.789 362.07 291.185 359.485 290.248 357.013C289.925 355.924 289.331 354.934 288.522 354.137C287.712 353.339 286.714 352.761 285.62 352.454C285.078 352.369 284.528 352.345 283.981 352.381L281.898 352.52C280.485 352.599 279.066 352.638 277.646 352.594C274.789 352.519 271.946 352.179 269.153 351.577C268.451 351.416 267.75 351.239 267.052 351.02C266.704 350.909 266.356 350.787 266.006 350.654L265.467 350.435C265.236 350.324 265.014 350.194 264.804 350.047C264.102 349.521 263.53 348.841 263.131 348.059C262.772 347.39 262.474 346.69 262.241 345.967C260.6 340.355 260.796 334.797 260.447 329.249L260.968 329.681C259.919 329.873 258.843 329.871 257.794 329.676C257.252 329.56 256.729 329.366 256.242 329.1C255.713 328.817 255.261 328.409 254.924 327.912C254.91 327.89 254.899 327.866 254.892 327.841L254.889 327.831C254.663 326.867 254.673 325.863 254.919 324.904C255.164 323.944 255.638 323.059 256.299 322.322C257.513 321.047 258.816 319.859 260.197 318.767C261.252 317.667 262.014 316.32 262.414 314.85C262.623 314.117 262.744 313.362 262.774 312.601C262.799 312.238 262.794 311.873 262.761 311.511L262.648 310.166C262.325 306.553 262.738 302.912 263.862 299.464C264.934 296.027 266.894 292.935 269.543 290.499C269.571 290.475 269.606 290.462 269.642 290.462C269.678 290.463 269.713 290.476 269.74 290.501C269.767 290.525 269.784 290.559 269.787 290.595C269.791 290.631 269.781 290.667 269.76 290.697L269.752 290.707Z" fill="#020202"/>
<path d="M385.205 474.06C367.522 487.499 345.367 488.883 345.367 488.883C345.367 488.883 349.751 516.557 343.93 563.888C343.48 566.322 343.273 568.795 343.312 571.271C348.18 570.908 353.064 570.794 357.944 570.932C363.034 571.008 368.116 571.372 373.166 572.022C380.783 569.252 387.593 564.634 392.985 558.583C412.789 531.352 385.205 474.06 385.205 474.06ZM357.9 572.405C353.037 572.258 348.174 572.022 343.312 571.403C343.43 572.862 343.798 573.996 344.593 574.144L342.663 597.5L369.644 599.253C369.644 599.253 365.179 582.366 372.37 572.597L373.166 572.022C368.088 572.437 362.991 572.565 357.9 572.405ZM363.543 596.571C362.971 596.551 362.428 596.309 362.03 595.897C361.633 595.485 361.41 594.934 361.41 594.361C361.41 593.788 361.633 593.237 362.03 592.825C362.428 592.413 362.971 592.171 363.543 592.151C364.116 592.171 364.658 592.413 365.056 592.825C365.454 593.237 365.677 593.788 365.677 594.361C365.677 594.934 365.454 595.485 365.056 595.897C364.658 596.309 364.116 596.551 363.543 596.571ZM365.135 575.441C365.708 575.461 366.25 575.703 366.648 576.115C367.046 576.527 367.268 577.078 367.268 577.651C367.268 578.224 367.046 578.774 366.648 579.187C366.25 579.599 365.708 579.841 365.135 579.861C364.562 579.841 364.02 579.599 363.622 579.187C363.224 578.774 363.002 578.224 363.002 577.651C363.002 577.078 363.224 576.527 363.622 576.115C364.02 575.703 364.562 575.461 365.135 575.441H365.135ZM363.543 584.194C364.116 584.214 364.658 584.456 365.056 584.868C365.454 585.28 365.676 585.831 365.676 586.404C365.676 586.977 365.454 587.527 365.056 587.94C364.658 588.352 364.116 588.594 363.543 588.614C362.971 588.594 362.429 588.352 362.031 587.94C361.633 587.527 361.411 586.977 361.411 586.404C361.411 585.831 361.633 585.28 362.031 584.868C362.429 584.456 362.971 584.214 363.543 584.194Z" fill="#020202"/>
<path d="M392.961 558.439C396.684 557.33 400.56 556.824 404.442 556.939C406.421 556.98 408.389 557.233 410.314 557.694C412.312 558.136 414.206 558.96 415.892 560.121C417.6 561.338 418.945 562.999 419.781 564.924C420.173 565.937 420.366 566.787 420.753 567.593C421.147 568.414 421.647 569.18 422.241 569.871C424.863 572.544 428.186 574.425 431.828 575.298C435.441 576.25 439.114 576.963 442.821 577.432C444.714 577.677 446.438 577.833 448.472 577.942C450.437 578.179 452.378 578.577 454.277 579.13C456.223 579.692 458.091 580.493 459.839 581.515C460.761 582.077 461.603 582.759 462.345 583.544C463.163 584.402 463.718 585.476 463.945 586.64C464.128 587.794 463.957 588.976 463.455 590.032C463.003 590.971 462.409 591.835 461.693 592.593C460.334 594.001 458.783 595.211 457.088 596.188C457.071 596.198 457.052 596.204 457.033 596.207C457.014 596.21 456.994 596.21 456.975 596.205C456.956 596.2 456.939 596.192 456.923 596.181C456.907 596.169 456.894 596.155 456.884 596.138C456.867 596.109 456.861 596.075 456.865 596.042C456.869 596.009 456.884 595.979 456.907 595.955C458.24 594.643 459.448 593.211 460.517 591.677C461.013 590.965 461.395 590.181 461.651 589.352C461.86 588.635 461.87 587.875 461.681 587.152C461.035 585.724 459.869 584.595 458.421 583.994C456.822 583.206 455.144 582.588 453.415 582.153C451.654 581.671 449.869 581.281 448.067 580.987C446.31 580.809 444.254 580.516 442.391 580.171C438.561 579.514 434.828 578.386 431.274 576.813C427.668 575.332 424.366 573.197 421.535 570.516C420.841 569.804 420.224 569.021 419.694 568.181C419.412 567.76 419.162 567.319 418.947 566.861L418.314 565.659C417.387 564.191 416.093 562.992 414.559 562.18C411.359 560.529 407.865 559.522 404.277 559.217C400.535 558.827 396.773 558.664 393.012 558.729C392.972 558.731 392.934 558.717 392.905 558.691C392.875 558.664 392.858 558.627 392.856 558.588C392.856 558.555 392.866 558.523 392.885 558.496C392.903 558.47 392.93 558.45 392.961 558.439Z" fill="#020202"/>
<path d="M376.724 570.659C378.671 570.439 380.604 570.111 382.515 569.678C383.447 569.465 384.361 569.182 385.25 568.831C386.18 568.439 387.127 568.119 388.08 567.806C391.924 566.483 395.964 565.82 400.03 565.845C402.166 565.875 404.276 566.327 406.237 567.175C407.25 567.656 408.185 568.283 409.014 569.036C409.832 569.82 410.514 570.732 411.035 571.738C411.536 572.717 411.909 573.756 412.145 574.83L412.523 576.036C412.689 576.427 412.88 576.807 413.094 577.174C414.046 578.683 415.296 579.981 416.768 580.991C419.974 583.083 423.506 584.628 427.218 585.563C429.094 586.075 430.999 586.519 432.925 586.867C434.845 587.216 436.805 587.397 438.779 587.731C442.716 588.363 446.566 589.452 450.25 590.976C452.159 591.688 453.954 592.673 455.58 593.901C456.426 594.584 457.113 595.444 457.591 596.421C457.837 596.926 458.011 597.463 458.111 598.016C458.178 598.57 458.197 599.128 458.169 599.685C457.878 601.795 457.07 603.801 455.815 605.522C455.257 606.379 454.652 607.205 454.004 607.996L453.767 608.297L453.412 608.637C453.191 608.86 452.941 609.052 452.669 609.208C452.187 609.515 451.676 609.773 451.144 609.979C447.229 611.184 443.149 611.767 439.054 611.706C431.071 611.833 423.093 611.215 415.225 609.86C411.246 609.206 407.331 608.21 403.523 606.885C401.507 606.096 399.938 605.314 398.064 604.699C396.246 604.059 394.374 603.523 392.493 603.016C384.944 601.009 377.173 599.618 369.389 598.354C369.35 598.349 369.315 598.329 369.291 598.297C369.268 598.266 369.257 598.227 369.263 598.188C369.268 598.152 369.287 598.119 369.315 598.096C369.343 598.073 369.378 598.06 369.414 598.061C377.346 598.324 385.243 599.231 393.028 600.774C394.976 601.206 396.923 601.669 398.855 602.252C400.762 602.776 402.788 603.644 404.475 604.209C408.167 605.337 411.937 606.19 415.755 606.761C423.447 608.067 431.227 608.793 439.028 608.934C440.969 608.943 442.906 608.877 444.819 608.736C446.686 608.633 448.535 608.315 450.329 607.787C450.723 607.655 451.104 607.486 451.465 607.281C451.628 607.205 451.777 607.102 451.907 606.978L452.102 606.823L452.334 606.553C452.982 605.858 453.594 605.129 454.166 604.371C455.351 602.97 456.175 601.3 456.565 599.507C456.677 598.641 456.569 597.76 456.251 596.946C455.932 596.132 455.413 595.412 454.742 594.853C453.288 593.607 451.638 592.609 449.86 591.898C446.292 590.292 442.512 589.207 438.636 588.676C430.879 587.882 422.661 587.318 415.406 583.031C413.562 581.888 411.999 580.342 410.835 578.511C410.549 578.029 410.295 577.529 410.075 577.014L409.56 575.4C409.373 574.547 409.089 573.717 408.713 572.928C407.269 569.775 403.605 568.371 399.906 568.126C396.068 567.957 392.226 568.359 388.505 569.316C387.56 569.539 386.621 569.801 385.693 570.069C384.711 570.343 383.709 570.542 382.696 570.663C380.72 570.919 378.725 571.016 376.733 570.954C376.694 570.953 376.657 570.936 376.63 570.907C376.603 570.879 376.589 570.841 376.59 570.802C376.592 570.766 376.607 570.732 376.631 570.706C376.655 570.68 376.688 570.664 376.724 570.659Z" fill="#020202"/>
<path d="M313.736 571.315C313.501 571.315 313.265 571.329 313.029 571.315V571.182C313.265 571.226 313.5 571.271 313.736 571.315Z" fill="white"/>
<path d="M287.001 486.604C285.748 489.184 284.248 491.637 282.522 493.927C280.849 496.257 278.952 498.417 276.857 500.377C278.108 497.796 279.608 495.343 281.336 493.054C283.012 490.726 284.909 488.566 287.001 486.604Z" fill="#020202"/>
<path d="M381.146 465.689L383.968 474.061" stroke="#020202" stroke-width="1.47354" stroke-linecap="round" stroke-linejoin="round"/>
<path d="M261.252 460.739C257.42 464.748 253.488 468.653 249.575 472.583L243.593 478.371L242.062 479.803C241.807 480.039 241.498 480.287 241.272 480.514L240.684 481.17C239.844 482.216 239.032 483.325 238.22 484.435C231.745 493.378 225.482 502.533 219.025 511.542C215.773 516.037 212.503 520.508 208.963 524.84C205.411 529.114 201.778 533.341 197.864 537.314C189.978 545.171 181.329 552.224 172.045 558.366C172.012 558.387 171.978 558.405 171.941 558.418C164.569 561.108 157.245 563.929 149.97 566.879L144.547 569.134C142.773 569.832 141.06 570.674 139.423 571.651C138.693 572.108 138.042 572.68 137.494 573.344C137.293 573.578 137.157 573.86 137.099 574.162C137.079 574.251 137.085 574.344 137.114 574.431C137.144 574.518 137.197 574.595 137.267 574.654C137.834 575.145 138.516 575.485 139.249 575.644C140.137 575.871 141.04 576.035 141.952 576.134C142.201 576.165 142.435 576.273 142.62 576.444C142.804 576.615 142.931 576.839 142.982 577.085C143.032 577.332 143.004 577.588 142.902 577.818C142.8 578.047 142.628 578.239 142.411 578.366L142.38 578.384C141.107 579.117 139.881 579.929 138.71 580.817C138.144 581.243 137.608 581.706 137.104 582.203C136.678 582.588 136.333 583.054 136.089 583.574C136.009 583.771 136.065 583.756 136.05 583.716C136.116 583.774 136.188 583.826 136.265 583.869C136.808 584.125 137.39 584.289 137.987 584.355C139.422 584.536 140.868 584.602 142.313 584.553C142.607 584.549 142.894 584.637 143.135 584.805C143.376 584.974 143.557 585.214 143.653 585.491C143.749 585.769 143.755 586.069 143.67 586.35C143.586 586.632 143.414 586.879 143.181 587.057L143.147 587.082C142.362 587.673 141.625 588.327 140.945 589.037C140.325 589.634 139.831 590.349 139.491 591.14C139.391 591.453 139.432 591.588 139.463 591.648C139.586 591.827 139.759 591.966 139.959 592.048C140.769 592.405 141.633 592.622 142.515 592.689C142.743 592.716 142.962 592.794 143.154 592.92C143.346 593.045 143.507 593.213 143.624 593.41C143.74 593.608 143.81 593.83 143.826 594.058C143.843 594.287 143.806 594.517 143.719 594.729L143.707 594.758C143.56 595.105 143.508 595.485 143.556 595.859C143.562 595.931 143.552 595.795 143.516 595.829C143.564 595.818 143.566 595.838 143.623 595.857C143.711 595.858 143.798 595.868 143.884 595.886C145.105 595.788 146.3 595.475 147.414 594.963C149.922 593.852 152.563 592.511 155.061 591.165C157.581 589.805 160.043 588.345 162.406 586.788C164.739 585.323 166.871 583.56 168.748 581.543L168.803 581.479C168.883 581.388 168.975 581.308 169.077 581.243C170.06 580.614 171.091 580.063 172.16 579.597C173.275 579.093 174.455 578.746 175.665 578.565C176.003 578.544 176.33 578.509 176.676 578.511C177.041 578.545 177.404 578.58 177.767 578.639C178.15 578.757 178.527 578.898 178.894 579.059C179.244 579.291 179.577 579.546 179.892 579.825C180.79 580.945 181.271 582.343 181.251 583.779C181.27 583.956 181.242 584.136 181.171 584.299L181.13 584.393C179.147 588.513 177.793 592.907 177.112 597.428C176.989 598.409 177.089 599.405 177.404 600.341C177.548 600.686 177.803 600.974 178.128 601.158C178.549 601.444 178.996 601.689 179.463 601.89C180.597 602.695 182.187 600.211 183.407 598.401C185.911 594.492 188.408 590.359 190.827 586.44C192.806 582.206 193.942 577.627 194.173 572.959C194.176 572.92 194.194 572.884 194.223 572.858C194.252 572.832 194.291 572.819 194.33 572.821C194.367 572.824 194.402 572.841 194.427 572.868C194.453 572.895 194.467 572.93 194.468 572.968C194.58 577.759 193.712 582.524 191.917 586.968C190.81 589.172 189.621 591.117 188.487 593.211C187.337 595.272 186.208 597.339 184.992 599.396C184.381 600.466 183.693 601.49 182.931 602.458C182.478 603.043 181.904 603.522 181.248 603.863C180.844 604.06 180.403 604.167 179.953 604.177C179.542 604.165 179.135 604.089 178.746 603.953C178.115 603.725 177.512 603.427 176.948 603.064C176.6 602.866 176.284 602.616 176.012 602.322C175.736 602.022 175.506 601.681 175.331 601.312C174.811 600.035 174.606 598.651 174.731 597.278C174.933 594.827 175.412 592.407 176.157 590.064C176.852 587.754 177.668 585.483 178.603 583.259L178.482 583.873C178.479 583.136 178.254 582.417 177.836 581.81C177.58 581.62 177.285 581.492 176.972 581.436C176.659 581.38 176.337 581.398 176.032 581.488C175.11 581.648 174.214 581.931 173.367 582.329C172.464 582.737 171.594 583.214 170.764 583.756L171.092 583.457C169.055 585.735 166.722 587.73 164.155 589.389C161.7 591.032 159.164 592.548 156.555 593.933C153.938 595.325 151.406 596.637 148.596 597.846C147.057 598.527 145.398 598.896 143.716 598.932C143.443 598.9 143.169 598.86 142.898 598.811C142.586 598.718 142.282 598.598 141.991 598.452C141.351 598.064 140.878 597.451 140.668 596.733C140.508 596.175 140.475 595.588 140.571 595.015C140.64 594.523 140.772 594.041 140.964 593.583L142.155 595.651C140.903 595.53 139.684 595.183 138.557 594.626C137.79 594.24 137.173 593.609 136.804 592.833C136.457 591.998 136.439 591.063 136.755 590.216C137.238 589.026 137.969 587.953 138.899 587.069C139.71 586.246 140.588 585.492 141.523 584.814L142.357 587.342C140.747 587.372 139.137 587.27 137.544 587.038C136.622 586.914 135.73 586.626 134.909 586.188C134.652 586.03 134.41 585.847 134.188 585.642C133.925 585.378 133.717 585.064 133.577 584.718C133.315 584.047 133.327 583.3 133.611 582.638C134.001 581.763 134.576 580.983 135.296 580.351C135.894 579.79 136.529 579.269 137.197 578.792C138.486 577.866 139.833 577.024 141.229 576.271L141.658 578.521C140.62 578.381 139.594 578.165 138.588 577.875C137.405 577.577 136.334 576.943 135.503 576.05C135.255 575.743 135.069 575.392 134.956 575.014C134.859 574.621 134.845 574.212 134.916 573.813L135.048 573.26L135.27 572.804C135.414 572.523 135.59 572.259 135.795 572.018C136.521 571.185 137.38 570.479 138.337 569.928C140.11 568.955 141.961 568.132 143.87 567.466L149.408 565.414L171.612 557.505L171.509 557.557C180.826 551.608 189.301 544.432 196.703 536.222C200.391 532.133 203.815 527.803 207.162 523.411C210.455 519.019 213.649 514.488 216.885 510.002L226.634 496.548C229.91 492.076 233.125 487.564 236.548 483.174C237.417 482.083 238.287 480.99 239.227 479.913C239.48 479.634 239.789 479.342 240.071 479.064C240.346 478.815 240.588 478.64 240.85 478.417L242.411 477.072L248.603 471.548L261.049 460.526C261.063 460.513 261.08 460.503 261.098 460.497C261.117 460.49 261.136 460.488 261.156 460.489C261.175 460.49 261.194 460.495 261.211 460.504C261.229 460.512 261.244 460.524 261.257 460.538C261.281 460.566 261.294 460.602 261.293 460.64C261.293 460.677 261.278 460.712 261.252 460.739Z" fill="#020202"/>
<path d="M261.248 460.733C257.416 464.741 253.482 468.646 249.577 472.58L243.594 478.371L242.062 479.8C241.811 480.036 241.502 480.287 241.266 480.508L240.676 481.171C239.837 482.217 239.026 483.322 238.216 484.427L219.03 511.541C215.774 516.035 212.502 520.515 208.966 524.847C205.414 529.12 201.775 533.335 197.87 537.313C189.977 545.169 181.324 552.223 172.039 558.37C172.005 558.388 171.971 558.402 171.935 558.414C164.568 561.111 157.244 563.93 149.965 566.873C148.152 567.609 146.34 568.361 144.542 569.127C142.775 569.833 141.065 570.676 139.429 571.647C138.696 572.101 138.044 572.674 137.499 573.342C137.391 573.479 137.297 573.627 137.218 573.784L137.116 573.99C137.118 574.049 137.113 574.109 137.101 574.167C137.078 574.255 137.081 574.348 137.11 574.434C137.139 574.52 137.192 574.596 137.263 574.653C137.832 575.144 138.516 575.484 139.252 575.64C139.679 575.758 140.122 575.847 140.563 575.935L141.241 576.023L141.948 576.127C142.266 576.174 142.552 576.344 142.745 576.6C142.938 576.857 143.023 577.179 142.98 577.497C142.953 577.678 142.886 577.852 142.784 578.004C142.682 578.157 142.548 578.286 142.391 578.381H142.376C141.698 578.779 141.006 579.206 140.343 579.663C139.783 580.031 139.238 580.415 138.707 580.812C138.146 581.243 137.61 581.706 137.101 582.198C136.681 582.588 136.336 583.053 136.084 583.568C136.065 583.615 136.055 583.665 136.054 583.715L136.069 583.73C136.128 583.781 136.192 583.826 136.261 583.863C136.803 584.123 137.386 584.287 137.985 584.349C139.083 584.501 140.191 584.57 141.3 584.555H142.317C142.686 584.55 143.042 584.692 143.307 584.949C143.572 585.205 143.725 585.557 143.732 585.926C143.733 586.125 143.688 586.322 143.599 586.5C143.52 586.724 143.377 586.919 143.186 587.06L143.142 587.075C142.362 587.673 141.629 588.328 140.947 589.035C140.327 589.635 139.831 590.351 139.488 591.142C139.385 591.452 139.429 591.584 139.458 591.643C139.582 591.823 139.756 591.962 139.959 592.041C140.596 592.344 141.278 592.538 141.978 592.616C142.155 592.645 142.332 592.675 142.509 592.689C142.704 592.71 142.892 592.77 143.064 592.865C143.236 592.959 143.387 593.087 143.509 593.241C143.631 593.394 143.721 593.57 143.775 593.759C143.828 593.948 143.843 594.145 143.82 594.34C143.809 594.473 143.774 594.602 143.717 594.723L143.702 594.752C143.668 594.839 143.639 594.928 143.614 595.018V595.032C143.527 595.293 143.506 595.572 143.555 595.843C143.58 595.843 143.605 595.848 143.629 595.857C143.713 595.86 143.797 595.87 143.879 595.887C145.104 595.79 146.301 595.476 147.416 594.959C149.921 593.853 152.558 592.512 155.063 591.172C157.583 589.801 160.044 588.342 162.402 586.78C164.736 585.318 166.87 583.56 168.753 581.549L168.797 581.476C168.88 581.385 168.974 581.306 169.077 581.24C170.063 580.618 171.092 580.067 172.156 579.589C173.273 579.088 174.453 578.741 175.664 578.558C176.002 578.543 176.327 578.514 176.68 578.514C177.046 578.537 177.41 578.581 177.771 578.646C178.153 578.759 178.527 578.897 178.891 579.059C179.243 579.289 179.578 579.545 179.893 579.825C180.785 580.946 181.264 582.341 181.248 583.774C181.265 583.961 181.234 584.148 181.16 584.319L181.13 584.393C180.178 586.494 179.337 588.643 178.611 590.833C177.873 592.972 177.369 595.186 177.108 597.434C176.991 598.412 177.092 599.403 177.402 600.337C177.472 600.506 177.572 600.66 177.697 600.794C177.739 600.863 177.794 600.923 177.859 600.971L177.948 601.044L178.125 601.162C178.545 601.45 178.994 601.692 179.466 601.884C180.6 602.695 182.191 600.204 183.4 598.407C185.905 594.487 188.41 590.361 190.827 586.441C192.802 582.205 193.938 577.627 194.172 572.958C194.172 572.939 194.178 572.919 194.186 572.902C194.195 572.884 194.208 572.868 194.223 572.856C194.238 572.843 194.256 572.834 194.275 572.829C194.294 572.824 194.314 572.823 194.334 572.826C194.352 572.826 194.371 572.83 194.387 572.838C194.404 572.846 194.419 572.857 194.432 572.871C194.444 572.885 194.454 572.901 194.46 572.918C194.466 572.936 194.468 572.955 194.466 572.973C194.582 577.765 193.714 582.529 191.917 586.972C190.812 589.167 189.618 591.113 188.483 593.205C187.334 595.268 186.214 597.346 184.991 599.394C184.379 600.464 183.689 601.489 182.928 602.459C182.477 603.042 181.904 603.52 181.248 603.859C180.845 604.059 180.402 604.17 179.952 604.183C179.539 604.17 179.131 604.09 178.743 603.947C178.114 603.718 177.511 603.422 176.945 603.063C176.598 602.87 176.284 602.621 176.017 602.326C175.732 602.028 175.498 601.684 175.325 601.31C174.808 600.03 174.606 598.646 174.735 597.272C174.936 594.825 175.411 592.408 176.15 590.066C176.813 587.885 177.579 585.764 178.448 583.656C178.443 582.992 178.226 582.347 177.83 581.814C177.577 581.622 177.283 581.492 176.97 581.435C176.657 581.379 176.336 581.398 176.032 581.49C175.109 581.65 174.212 581.932 173.365 582.33C172.504 582.723 171.672 583.176 170.875 583.686C168.882 585.861 166.625 587.776 164.155 589.388C161.699 591.03 159.162 592.544 156.552 593.927C153.943 595.327 151.409 596.638 148.595 597.847C147.056 598.528 145.399 598.898 143.717 598.937C143.437 598.893 143.172 598.863 142.892 598.805C142.584 598.71 142.283 598.592 141.993 598.451C141.443 598.107 141.011 597.603 140.755 597.007C140.712 596.918 140.683 596.824 140.667 596.727C140.539 596.282 140.494 595.818 140.534 595.357C140.055 595.247 139.586 595.094 139.134 594.9C138.937 594.818 138.745 594.725 138.56 594.62C137.794 594.236 137.177 593.609 136.806 592.837C136.541 592.225 136.464 591.548 136.585 590.892C136.625 590.661 136.684 590.434 136.762 590.214C137.21 589.074 137.899 588.043 138.78 587.193C138.501 587.178 138.221 587.134 137.941 587.105C137.808 587.09 137.675 587.06 137.543 587.046C136.62 586.92 135.727 586.63 134.905 586.191C134.651 586.028 134.409 585.846 134.183 585.646C133.921 585.381 133.715 585.065 133.579 584.717C133.327 584.068 133.327 583.348 133.579 582.699C133.593 582.669 133.594 582.655 133.608 582.64C134.002 581.765 134.58 580.986 135.303 580.356C135.73 579.943 136.172 579.575 136.629 579.206C137.027 578.926 137.425 578.632 137.823 578.352C137.839 578.336 137.86 578.326 137.882 578.322C138.117 578.175 138.339 578.013 138.574 577.865C138.56 577.865 138.56 577.865 138.545 577.851C137.377 577.566 136.32 576.94 135.509 576.053C135.26 575.747 135.07 575.397 134.949 575.021C134.859 574.625 134.849 574.214 134.92 573.813C134.95 573.624 134.994 573.436 135.052 573.253L135.274 572.811C135.418 572.529 135.591 572.262 135.789 572.016C136.52 571.184 137.381 570.478 138.339 569.923C140.112 568.956 141.96 568.133 143.865 567.462L149.405 565.414L171.552 557.53C180.854 551.587 189.314 544.421 196.706 536.223C200.39 532.126 203.809 527.809 207.168 523.418C210.454 519.027 213.652 514.488 216.879 510.008C223.362 501.02 229.758 491.987 236.551 483.175C237.42 482.085 238.29 480.994 239.232 479.919C239.483 479.639 239.793 479.344 240.072 479.064C240.353 478.813 240.588 478.637 240.854 478.415L242.416 477.075L248.605 471.549L261.041 460.527C261.073 460.5 261.114 460.487 261.155 460.49C261.196 460.492 261.235 460.511 261.263 460.541C261.285 460.569 261.296 460.604 261.294 460.64C261.291 460.676 261.274 460.709 261.248 460.733Z" fill="#020202"/>
<path d="M162.075 566.289C160.418 567.882 149.082 574.767 147.162 575.909C145.593 576.838 144 577.716 142.381 578.532C142.005 578.72 141.628 578.908 141.239 579.097C139.737 579.851 138.195 580.525 136.621 581.117C136.634 581.092 136.634 581.079 136.646 581.067C136.981 580.322 137.474 579.658 138.09 579.122C138.454 578.77 138.83 578.457 139.219 578.143C139.558 577.904 139.897 577.653 140.235 577.415C140.249 577.402 140.267 577.393 140.286 577.39C140.474 577.252 140.662 577.114 140.85 576.988C141.603 576.461 142.369 575.947 143.146 575.432C144.05 574.855 144.954 574.29 145.882 573.751C147.802 572.597 159.879 566.992 162.075 566.289Z" fill="#020202"/>
<path d="M162.074 573.013C160.267 574.967 148.797 583.004 146.67 584.503L145.505 585.306C143.738 586.511 141.945 587.649 140.098 588.746C139.776 588.934 139.455 589.121 139.134 589.295C139.17 589.086 139.224 588.88 139.295 588.679C139.702 587.644 140.327 586.708 141.128 585.936C140.874 585.922 140.62 585.882 140.366 585.855C141.369 585.066 142.386 584.289 143.417 583.54C143.979 583.111 144.555 582.71 145.13 582.308C147.258 580.809 159.624 574.057 162.074 573.013Z" fill="#020202"/>
<path d="M162.074 579.52C160.5 581.409 148.699 591.069 146.77 592.492C146.386 592.779 145.99 593.067 145.593 593.34V593.354C144.717 593.984 143.841 594.599 142.938 595.188C142.898 595.105 142.871 595.018 142.856 594.928C142.738 594.515 142.696 594.083 142.733 593.655C142.287 593.553 141.852 593.411 141.433 593.231C142.295 592.506 144.785 590.576 145.141 590.303C147.057 588.866 159.815 580.505 162.074 579.52Z" fill="#020202"/>
<path d="M322.09 375.542C327.01 374.299 332.201 374.704 336.868 376.694C341.495 378.773 345.585 381.886 348.821 385.792C352.092 389.609 354.935 393.773 357.299 398.209C359.698 402.599 361.81 407.141 363.623 411.804C367.197 421.116 370.176 430.645 372.543 440.334C375.019 449.983 376.809 459.781 378.475 469.581C378.486 469.649 378.492 469.718 378.492 469.787V469.802L378.475 469.596C380.777 483.895 382.368 498.291 383.631 512.695C384.22 519.903 384.873 527.102 385.339 534.317C385.794 541.533 386.255 548.743 386.58 555.973L385.828 555.573C390.371 552.995 395.34 551.252 400.498 550.428C405.667 549.535 410.963 549.697 416.067 550.905C418.636 551.51 421.078 552.482 423.458 553.237C425.868 553.965 428.337 554.483 430.837 554.784C433.299 555.093 435.792 555.058 438.245 554.68C439.444 554.486 440.62 554.174 441.757 553.748C442.828 553.352 443.833 552.797 444.738 552.102L444.768 553.775C441.616 550.511 439.022 546.752 437.088 542.647C435.042 538.717 433.217 534.705 431.477 530.663C428.013 522.573 424.871 514.375 421.784 506.165C415.581 489.755 409.869 473.191 403.828 456.76C397.717 440.362 391.713 423.912 384.504 407.999C382.707 404.009 380.836 400.11 378.71 396.32C376.577 392.539 374.182 388.912 371.542 385.466C366.335 378.474 359.841 372.541 352.408 367.988L352.396 367.981C352.352 367.955 352.316 367.918 352.291 367.874C352.267 367.829 352.254 367.779 352.255 367.729L352.255 367.714L352.407 367.972C351.395 367.382 350.361 366.829 349.303 366.323C348.775 366.07 348.24 365.83 347.699 365.603C347.182 365.372 346.563 365.171 346.096 365.003L346.014 364.973C345.98 364.961 345.952 364.936 345.936 364.904C345.92 364.872 345.917 364.835 345.928 364.801C345.939 364.767 345.962 364.738 345.994 364.721C346.025 364.703 346.062 364.699 346.096 364.708C346.685 364.86 347.266 365.045 347.835 365.26C348.39 365.467 348.94 365.687 349.486 365.92C350.576 366.386 351.645 366.902 352.694 367.456C352.739 367.48 352.776 367.515 352.803 367.558C352.83 367.601 352.844 367.651 352.845 367.701L352.846 367.714L352.846 367.729L352.694 367.47C360.454 371.749 367.283 377.533 372.779 384.485C378.308 391.392 382.945 398.969 386.579 407.036C394.067 422.946 400.568 439.27 406.647 455.719C412.758 472.159 418.61 488.679 424.542 505.146C427.54 513.366 430.591 521.566 433.946 529.618C435.637 533.635 437.347 537.646 439.29 541.519C441.03 545.384 443.375 548.947 446.236 552.074L446.351 552.186C446.449 552.281 446.527 552.395 446.581 552.52C446.635 552.645 446.664 552.78 446.665 552.916C446.667 553.052 446.642 553.188 446.592 553.314C446.541 553.441 446.467 553.556 446.371 553.654C446.338 553.688 446.303 553.719 446.266 553.748C444.006 555.405 441.347 556.431 438.56 556.724C435.917 557.064 433.239 557.034 430.604 556.635C428.007 556.254 425.449 555.648 422.957 554.823C420.463 553.953 418.132 552.972 415.706 552.341C410.8 551.064 405.686 550.793 400.672 551.544C395.643 552.287 390.791 553.934 386.349 556.406L386.33 556.418C386.274 556.449 386.212 556.47 386.148 556.478C386.084 556.485 386.019 556.481 385.957 556.463C385.894 556.446 385.836 556.417 385.785 556.377C385.735 556.337 385.692 556.288 385.66 556.232C385.622 556.163 385.6 556.085 385.597 556.006C385.364 548.799 384.934 541.584 384.346 534.39C383.76 527.194 383.159 519.998 382.306 512.829C381.495 505.656 380.542 498.501 379.513 491.361C378.523 484.213 377.25 477.115 376.049 470.007C376.038 469.939 376.032 469.87 376.032 469.802V469.787L376.049 469.993C374.365 460.24 372.307 450.564 370.047 440.947C367.809 431.333 364.963 421.871 361.526 412.618C357.991 403.465 353.894 394.35 347.656 386.786C344.642 382.941 340.822 379.805 336.464 377.598C332.002 375.505 326.99 374.886 322.153 375.83C322.134 375.834 322.114 375.834 322.095 375.83C322.076 375.826 322.058 375.818 322.042 375.808C322.026 375.797 322.012 375.783 322.002 375.767C321.991 375.751 321.983 375.732 321.98 375.713C321.973 375.676 321.981 375.638 322.002 375.606C322.022 375.574 322.054 375.551 322.09 375.542Z" fill="#020202"/>
<path d="M-51.6395 300.596C-51.6395 300.596 -42.1697 312.391 -28.0236 308.501C-28.0236 308.501 1.66166 295.464 -26.7234 281.594C-55.1084 267.724 -56.1078 271.043 -66.9827 268.914C-69.8577 268.351 -89.4651 263.327 -99.948 276.074C-101.852 278.462 -103.252 281.21 -104.066 284.153C-104.88 287.097 -105.091 290.174 -104.685 293.201C-104.486 294.845 -104.253 296.631 -104.008 298.207C-103.609 300.766 -103.657 303.375 -104.149 305.918C-106.11 316.445 -105.805 327.27 -103.255 337.671C-103.255 337.671 -85.7102 340.281 -75.707 327.827C-75.707 327.827 -73.7448 305.762 -61.6832 320.178C-61.6833 320.178 -51.6395 323.937 -51.6395 300.596Z" fill="#020202"/>
<path d="M261.297 335.468C263.108 335.677 264.935 335.7 266.751 335.535C267.586 335.415 268.397 335.161 269.152 334.783C269.947 334.332 270.679 333.778 271.329 333.136C271.125 334.145 270.59 335.057 269.809 335.727C268.994 336.401 268.009 336.839 266.962 336.993C265.951 337.12 264.924 337.047 263.941 336.777C262.976 336.535 262.074 336.089 261.297 335.468Z" fill="#020202"/>
<path d="M343.312 571.271C343.319 571.309 343.319 571.349 343.312 571.388C343.091 571.374 342.884 571.344 342.663 571.315C342.884 571.3 343.091 571.271 343.312 571.271Z" fill="white"/>
<path d="M291.722 463.318C291.738 463.334 291.748 463.355 291.752 463.377C291.693 463.289 291.649 463.215 291.604 463.141C291.649 463.2 291.678 463.259 291.722 463.318Z" fill="white"/>
<path d="M434.894 551.475C435.467 551.455 436.01 551.213 436.408 550.801C436.807 550.389 437.029 549.838 437.029 549.264C437.029 548.691 436.807 548.14 436.408 547.728C436.01 547.315 435.467 547.074 434.894 547.054C434.321 547.074 433.778 547.315 433.38 547.728C432.981 548.14 432.759 548.691 432.759 549.264C432.759 549.838 432.981 550.389 433.38 550.801C433.778 551.213 434.321 551.455 434.894 551.475Z" fill="#020202"/>
<path d="M423.754 548.822C424.327 548.802 424.87 548.561 425.268 548.148C425.667 547.736 425.889 547.185 425.889 546.612C425.889 546.039 425.667 545.488 425.268 545.075C424.87 544.663 424.327 544.421 423.754 544.401C423.181 544.421 422.638 544.663 422.24 545.075C421.842 545.488 421.619 546.039 421.619 546.612C421.619 547.185 421.842 547.736 422.24 548.148C422.638 548.561 423.181 548.802 423.754 548.822Z" fill="#020202"/>
<path d="M413.675 546.17C414.248 546.15 414.79 545.908 415.189 545.496C415.587 545.084 415.81 544.533 415.81 543.96C415.81 543.386 415.587 542.835 415.189 542.423C414.79 542.011 414.248 541.769 413.675 541.749C413.102 541.769 412.559 542.011 412.161 542.423C411.762 542.835 411.54 543.386 411.54 543.96C411.54 544.533 411.762 545.084 412.161 545.496C412.559 545.908 413.102 546.15 413.675 546.17Z" fill="#020202"/>
<path d="M403.596 546.17C404.169 546.15 404.712 545.908 405.11 545.496C405.508 545.084 405.731 544.533 405.731 543.96C405.731 543.386 405.508 542.835 405.11 542.423C404.712 542.011 404.169 541.769 403.596 541.749C403.023 541.769 402.48 542.011 402.082 542.423C401.684 542.835 401.461 543.386 401.461 543.96C401.461 544.533 401.684 545.084 402.082 545.496C402.48 545.908 403.023 546.15 403.596 546.17Z" fill="#020202"/>
<path d="M135.112 430.068C137.137 430.783 139.061 431.756 140.836 432.963C142.647 434.118 144.298 435.505 145.749 437.088C143.723 436.376 141.799 435.403 140.025 434.193C138.217 433.035 136.565 431.649 135.112 430.068Z" fill="black"/>
<path d="M130.417 436.081C132.427 436.786 134.337 437.75 136.098 438.948C137.894 440.094 139.531 441.471 140.968 443.045C138.956 442.343 137.046 441.379 135.287 440.178C133.493 439.029 131.855 437.652 130.417 436.081Z" fill="black"/>
<path d="M123.385 441.208C125.76 442.152 128.026 443.352 130.143 444.786C132.295 446.166 134.289 447.778 136.09 449.593C133.713 448.651 131.446 447.452 129.332 446.015C127.181 444.633 125.187 443.021 123.385 441.208Z" fill="black"/>
<path d="M99.9238 444.518C104.106 446.653 108.159 449.033 112.06 451.646C115.999 454.203 119.781 456.994 123.386 460.003C119.202 457.871 115.149 455.491 111.249 452.875C107.313 450.315 103.531 447.525 99.9238 444.518Z" fill="black"/>
<path d="M95.1416 450.475C99.324 452.609 103.377 454.989 107.278 457.602C111.216 460.16 114.998 462.95 118.603 465.959C114.419 463.827 110.367 461.447 106.467 458.831C102.53 456.272 98.7487 453.481 95.1416 450.475Z" fill="black"/>
<path d="M90.2627 457.023C94.4451 459.158 98.4977 461.538 102.399 464.151C106.338 466.708 110.119 469.499 113.724 472.508C109.54 470.376 105.488 467.996 101.588 465.38C97.6515 462.82 93.8698 460.03 90.2627 457.023Z" fill="black"/>
<path d="M105.775 439.103C109.958 441.238 114.01 443.618 117.912 446.231C121.85 448.788 125.632 451.579 129.237 454.588C125.053 452.456 121 450.076 117.101 447.46C113.164 444.9 109.382 442.11 105.775 439.103Z" fill="black"/>
<path d="M107.476 296.877C108.869 292.737 109.739 288.438 110.067 284.082C110.245 281.909 110.274 279.727 110.154 277.55C110.118 276.461 109.912 275.385 109.8 274.303C109.7 273.219 109.529 272.143 109.287 271.082L108.573 267.899C108.316 266.844 107.918 265.827 107.597 264.79C106.911 262.732 106.098 260.717 105.164 258.758C103.237 254.877 100.831 251.252 98.0022 247.968L96.9674 246.721C96.6014 246.324 96.2043 245.956 95.8246 245.572L93.5237 243.291L91.0174 241.24L89.762 240.218C89.3268 239.901 88.8653 239.618 88.4184 239.317L85.7184 237.533C84.7886 236.989 83.8231 236.504 82.8772 235.987C80.9699 234.977 78.9994 234.091 76.978 233.335C68.8162 230.352 60.032 229.484 51.4442 230.812C49.3052 231.169 47.1915 231.665 45.1164 232.295C44.0873 232.635 43.0172 232.866 42.0195 233.295L39.0048 234.533C33.0416 237.221 27.6718 241.067 23.207 245.848C18.7423 250.628 15.2715 256.248 12.996 262.381C9.91855 270.543 9.05573 279.375 10.4952 287.979C11.9202 296.553 15.5518 304.608 21.033 311.353L21.2753 311.651L21.147 312.02L13.1613 335.002L12.2674 333.975L44.3184 327.505L44.5149 327.465L44.708 327.526C57.0635 331.501 70.4718 330.594 82.1796 324.992C88.0366 322.198 93.2854 318.277 97.6259 313.452C101.966 308.628 105.314 302.996 107.476 296.877V296.877ZM107.62 296.928C103.258 309.39 94.2981 319.713 82.5733 325.784C70.7231 331.886 56.9372 333.043 44.236 329L44.6251 329.021L12.5777 335.51L11.2206 335.785L11.6836 334.482L19.8339 311.558L19.9478 312.225C14.435 305.259 10.8361 296.974 9.50703 288.19C8.17794 279.407 9.1647 270.429 12.3697 262.143C15.5823 253.906 20.8423 246.624 27.6526 240.985C34.463 235.347 42.5987 231.538 51.2908 229.919C60.044 228.348 69.0562 229.102 77.4269 232.105C85.8079 235.127 93.2238 240.344 98.9002 247.211C99.5908 248.075 100.308 248.918 100.968 249.804L102.779 252.581C103.398 253.496 103.951 254.454 104.431 255.448C104.931 256.432 105.481 257.391 105.938 258.393C106.834 260.406 107.605 262.473 108.249 264.58C108.547 265.64 108.922 266.678 109.155 267.752L109.796 270.988C111.265 279.68 110.516 288.602 107.62 296.928H107.62Z" fill="black"/>
</svg>
