<svg width="562" height="271" viewBox="0 0 562 271" fill="none" xmlns="http://www.w3.org/2000/svg">
<g clip-path="url(#clip0)">
<rect x="1" y="1" width="560" height="269" rx="19" fill="white"/>
<path d="M88.2553 164.04C83.8639 164.04 80.1659 163.231 77.1612 161.613C74.1566 159.938 71.7297 157.713 69.8807 154.939C68.0895 152.166 66.7605 149.075 65.8938 145.665C65.0848 142.199 64.6803 138.674 64.6803 135.091C64.6803 128.389 65.6048 122.524 67.4539 117.497C69.3029 112.412 71.9609 108.454 75.4278 105.623C78.9525 102.733 83.1994 101.289 88.1687 101.289C91.9823 101.289 95.247 102.04 97.9627 103.542C100.678 105.045 102.816 107.067 104.376 109.61C105.994 112.094 107.006 114.868 107.41 117.93H100.65C100.014 114.637 98.5983 112.094 96.4026 110.303C94.2069 108.512 91.4333 107.616 88.082 107.616C83.5172 107.616 79.6747 109.783 76.5545 114.117C73.4921 118.392 71.8453 125.095 71.6142 134.225C73.0009 131.509 75.1966 129.169 78.2013 127.204C81.2637 125.182 84.9329 124.171 89.2087 124.171C92.6757 124.171 95.9114 124.98 98.9161 126.597C101.979 128.215 104.463 130.498 106.37 133.445C108.277 136.334 109.23 139.743 109.23 143.672C109.23 147.081 108.392 150.346 106.717 153.466C105.041 156.586 102.614 159.129 99.4361 161.093C96.3159 163.058 92.589 164.04 88.2553 164.04ZM87.7353 157.626C90.4511 157.626 92.8779 157.048 95.0158 155.893C97.1538 154.737 98.8294 153.148 100.043 151.126C101.256 149.046 101.863 146.677 101.863 144.019C101.863 139.916 100.505 136.651 97.7894 134.225C95.1314 131.74 91.78 130.498 87.7353 130.498C85.0196 130.498 82.5927 131.133 80.4548 132.404C78.3169 133.618 76.6123 135.265 75.3411 137.345C74.1277 139.425 73.521 141.678 73.521 144.105C73.521 146.706 74.1277 149.046 75.3411 151.126C76.6123 153.148 78.3169 154.737 80.4548 155.893C82.5927 157.048 85.0196 157.626 87.7353 157.626ZM123.749 163L147.844 108.569H114.562V102.329H155.298V107.789L131.463 163H123.749ZM175.857 130.498C173.257 130.498 170.888 129.92 168.75 128.764C166.67 127.551 165.023 125.875 163.81 123.737C162.596 121.541 161.99 118.941 161.99 115.937C161.99 112.932 162.596 110.361 163.81 108.223C165.081 106.027 166.757 104.351 168.837 103.196C170.975 101.982 173.344 101.376 175.944 101.376C178.544 101.376 180.884 101.982 182.964 103.196C185.045 104.351 186.691 106.027 187.905 108.223C189.118 110.361 189.725 112.932 189.725 115.937C189.725 118.941 189.089 121.541 187.818 123.737C186.605 125.875 184.958 127.551 182.878 128.764C180.798 129.92 178.457 130.498 175.857 130.498ZM170.483 163L205.759 102.329H213.04L177.764 163H170.483ZM175.857 124.864C177.88 124.864 179.642 124.113 181.144 122.61C182.704 121.108 183.484 118.884 183.484 115.937C183.484 112.932 182.733 110.678 181.231 109.176C179.729 107.616 177.966 106.836 175.944 106.836C173.922 106.836 172.101 107.616 170.483 109.176C168.923 110.678 168.143 112.932 168.143 115.937C168.143 118.884 168.923 121.108 170.483 122.61C172.044 124.113 173.835 124.864 175.857 124.864ZM208.273 164.04C205.673 164.04 203.304 163.462 201.166 162.307C199.086 161.093 197.439 159.418 196.225 157.28C195.012 155.084 194.405 152.484 194.405 149.479C194.405 146.474 195.012 143.903 196.225 141.765C197.497 139.569 199.172 137.894 201.252 136.738C203.332 135.525 205.673 134.918 208.273 134.918C210.873 134.918 213.213 135.525 215.293 136.738C217.373 137.894 219.02 139.569 220.234 141.765C221.447 143.903 222.054 146.474 222.054 149.479C222.054 152.484 221.447 155.084 220.234 157.28C219.02 159.418 217.373 161.093 215.293 162.307C213.213 163.462 210.873 164.04 208.273 164.04ZM208.186 158.406C210.266 158.406 212.058 157.655 213.56 156.153C215.12 154.651 215.9 152.426 215.9 149.479C215.9 146.474 215.149 144.221 213.647 142.719C212.144 141.216 210.353 140.465 208.273 140.465C206.25 140.465 204.459 141.216 202.899 142.719C201.339 144.221 200.559 146.474 200.559 149.479C200.559 152.426 201.31 154.651 202.812 156.153C204.373 157.655 206.164 158.406 208.186 158.406Z" fill="black"/>
<path d="M259.144 117.192C258.195 117.192 257.405 116.952 256.776 116.472C256.147 115.992 255.779 115.341 255.672 114.52H257.048C257.133 114.936 257.352 115.299 257.704 115.608C258.067 115.907 258.552 116.056 259.16 116.056C259.725 116.056 260.141 115.939 260.408 115.704C260.675 115.459 260.808 115.171 260.808 114.84C260.808 114.36 260.632 114.04 260.28 113.88C259.939 113.72 259.453 113.576 258.824 113.448C258.397 113.363 257.971 113.24 257.544 113.08C257.117 112.92 256.76 112.696 256.472 112.408C256.184 112.109 256.04 111.72 256.04 111.24C256.04 110.547 256.296 109.981 256.808 109.544C257.331 109.096 258.035 108.872 258.92 108.872C259.763 108.872 260.451 109.085 260.984 109.512C261.528 109.928 261.843 110.525 261.928 111.304H260.6C260.547 110.899 260.371 110.584 260.072 110.36C259.784 110.125 259.395 110.008 258.904 110.008C258.424 110.008 258.051 110.109 257.784 110.312C257.528 110.515 257.4 110.781 257.4 111.112C257.4 111.432 257.565 111.683 257.896 111.864C258.237 112.045 258.696 112.2 259.272 112.328C259.763 112.435 260.227 112.568 260.664 112.728C261.112 112.877 261.475 113.107 261.752 113.416C262.04 113.715 262.184 114.152 262.184 114.728C262.195 115.443 261.923 116.035 261.368 116.504C260.824 116.963 260.083 117.192 259.144 117.192ZM266.881 117C266.155 117 265.585 116.824 265.169 116.472C264.753 116.12 264.545 115.485 264.545 114.568V110.2H263.169V109.064H264.545L264.721 107.16H265.889V109.064H268.225V110.2H265.889V114.568C265.889 115.069 265.99 115.411 266.193 115.592C266.395 115.763 266.753 115.848 267.265 115.848H268.097V117H266.881ZM272.828 117.192C271.889 117.192 271.143 116.909 270.588 116.344C270.033 115.768 269.756 114.888 269.756 113.704V109.064H271.1V113.56C271.1 115.213 271.777 116.04 273.132 116.04C273.825 116.04 274.396 115.795 274.844 115.304C275.303 114.803 275.532 114.093 275.532 113.176V109.064H276.876V117H275.66L275.564 115.576C275.319 116.077 274.951 116.472 274.46 116.76C273.98 117.048 273.436 117.192 272.828 117.192ZM282.688 117.192C281.899 117.192 281.206 117.011 280.608 116.648C280.022 116.285 279.563 115.789 279.232 115.16C278.912 114.531 278.752 113.816 278.752 113.016C278.752 112.216 278.918 111.507 279.248 110.888C279.579 110.259 280.038 109.768 280.624 109.416C281.211 109.053 281.904 108.872 282.704 108.872C283.355 108.872 283.931 109.005 284.432 109.272C284.934 109.539 285.323 109.912 285.6 110.392V105.48H286.944V117H285.728L285.6 115.688C285.344 116.072 284.976 116.419 284.496 116.728C284.016 117.037 283.414 117.192 282.688 117.192ZM282.832 116.024C283.366 116.024 283.835 115.901 284.24 115.656C284.656 115.4 284.976 115.048 285.2 114.6C285.435 114.152 285.552 113.629 285.552 113.032C285.552 112.435 285.435 111.912 285.2 111.464C284.976 111.016 284.656 110.669 284.24 110.424C283.835 110.168 283.366 110.04 282.832 110.04C282.31 110.04 281.84 110.168 281.424 110.424C281.019 110.669 280.699 111.016 280.464 111.464C280.24 111.912 280.128 112.435 280.128 113.032C280.128 113.629 280.24 114.152 280.464 114.6C280.699 115.048 281.019 115.4 281.424 115.656C281.84 115.901 282.31 116.024 282.832 116.024ZM292.703 117.192C291.946 117.192 291.274 117.021 290.687 116.68C290.101 116.328 289.637 115.843 289.295 115.224C288.965 114.605 288.799 113.875 288.799 113.032C288.799 112.2 288.965 111.475 289.295 110.856C289.626 110.227 290.085 109.741 290.671 109.4C291.269 109.048 291.957 108.872 292.735 108.872C293.503 108.872 294.165 109.048 294.719 109.4C295.285 109.741 295.717 110.195 296.015 110.76C296.314 111.325 296.463 111.933 296.463 112.584C296.463 112.701 296.458 112.819 296.447 112.936C296.447 113.053 296.447 113.187 296.447 113.336H290.127C290.159 113.944 290.298 114.451 290.543 114.856C290.799 115.251 291.114 115.549 291.487 115.752C291.871 115.955 292.277 116.056 292.703 116.056C293.258 116.056 293.722 115.928 294.095 115.672C294.469 115.416 294.741 115.069 294.911 114.632H296.239C296.026 115.368 295.615 115.981 295.007 116.472C294.41 116.952 293.642 117.192 292.703 117.192ZM292.703 110.008C292.063 110.008 291.493 110.205 290.991 110.6C290.501 110.984 290.218 111.549 290.143 112.296H295.135C295.103 111.581 294.858 111.021 294.399 110.616C293.941 110.211 293.375 110.008 292.703 110.008ZM298.245 117V109.064H299.461L299.541 110.488C299.797 109.987 300.165 109.592 300.645 109.304C301.125 109.016 301.669 108.872 302.277 108.872C303.215 108.872 303.962 109.16 304.517 109.736C305.082 110.301 305.365 111.176 305.365 112.36V117H304.021V112.504C304.021 110.851 303.338 110.024 301.973 110.024C301.29 110.024 300.719 110.275 300.261 110.776C299.813 111.267 299.589 111.971 299.589 112.888V117H298.245ZM310.537 117C309.812 117 309.241 116.824 308.825 116.472C308.409 116.12 308.201 115.485 308.201 114.568V110.2H306.825V109.064H308.201L308.377 107.16H309.545V109.064H311.881V110.2H309.545V114.568C309.545 115.069 309.646 115.411 309.849 115.592C310.052 115.763 310.409 115.848 310.921 115.848H311.753V117H310.537ZM316.628 117.192C315.679 117.192 314.89 116.952 314.26 116.472C313.631 115.992 313.263 115.341 313.156 114.52H314.532C314.618 114.936 314.836 115.299 315.188 115.608C315.551 115.907 316.036 116.056 316.644 116.056C317.21 116.056 317.626 115.939 317.892 115.704C318.159 115.459 318.292 115.171 318.292 114.84C318.292 114.36 318.116 114.04 317.764 113.88C317.423 113.72 316.938 113.576 316.308 113.448C315.882 113.363 315.455 113.24 315.028 113.08C314.602 112.92 314.244 112.696 313.956 112.408C313.668 112.109 313.524 111.72 313.524 111.24C313.524 110.547 313.78 109.981 314.292 109.544C314.815 109.096 315.519 108.872 316.404 108.872C317.247 108.872 317.935 109.085 318.468 109.512C319.012 109.928 319.327 110.525 319.412 111.304H318.084C318.031 110.899 317.855 110.584 317.556 110.36C317.268 110.125 316.879 110.008 316.388 110.008C315.908 110.008 315.535 110.109 315.268 110.312C315.012 110.515 314.884 110.781 314.884 111.112C314.884 111.432 315.05 111.683 315.38 111.864C315.722 112.045 316.18 112.2 316.756 112.328C317.247 112.435 317.711 112.568 318.148 112.728C318.596 112.877 318.959 113.107 319.236 113.416C319.524 113.715 319.668 114.152 319.668 114.728C319.679 115.443 319.407 116.035 318.852 116.504C318.308 116.963 317.567 117.192 316.628 117.192ZM329.471 117.192C328.713 117.192 328.031 117.021 327.423 116.68C326.825 116.328 326.351 115.843 325.999 115.224C325.657 114.595 325.487 113.864 325.487 113.032C325.487 112.2 325.657 111.475 325.999 110.856C326.351 110.227 326.825 109.741 327.423 109.4C328.031 109.048 328.713 108.872 329.471 108.872C330.409 108.872 331.199 109.117 331.839 109.608C332.489 110.099 332.9 110.755 333.071 111.576H331.695C331.588 111.085 331.327 110.707 330.911 110.44C330.495 110.163 330.009 110.024 329.455 110.024C329.007 110.024 328.585 110.136 328.191 110.36C327.796 110.584 327.476 110.92 327.231 111.368C326.985 111.816 326.863 112.371 326.863 113.032C326.863 113.693 326.985 114.248 327.231 114.696C327.476 115.144 327.796 115.485 328.191 115.72C328.585 115.944 329.007 116.056 329.455 116.056C330.009 116.056 330.495 115.923 330.911 115.656C331.327 115.379 331.588 114.989 331.695 114.488H333.071C332.911 115.288 332.505 115.939 331.855 116.44C331.204 116.941 330.409 117.192 329.471 117.192ZM337.588 117.192C336.926 117.192 336.377 117.08 335.94 116.856C335.502 116.632 335.177 116.333 334.964 115.96C334.75 115.587 334.644 115.181 334.644 114.744C334.644 113.933 334.953 113.309 335.572 112.872C336.19 112.435 337.033 112.216 338.1 112.216H340.244V112.12C340.244 111.427 340.062 110.904 339.7 110.552C339.337 110.189 338.852 110.008 338.244 110.008C337.721 110.008 337.268 110.141 336.884 110.408C336.51 110.664 336.276 111.043 336.18 111.544H334.804C334.857 110.968 335.049 110.483 335.38 110.088C335.721 109.693 336.142 109.395 336.644 109.192C337.145 108.979 337.678 108.872 338.244 108.872C339.353 108.872 340.185 109.171 340.74 109.768C341.305 110.355 341.588 111.139 341.588 112.12V117H340.388L340.308 115.576C340.084 116.024 339.753 116.408 339.316 116.728C338.889 117.037 338.313 117.192 337.588 117.192ZM337.796 116.056C338.308 116.056 338.745 115.923 339.108 115.656C339.481 115.389 339.764 115.043 339.956 114.616C340.148 114.189 340.244 113.741 340.244 113.272V113.256H338.212C337.422 113.256 336.862 113.395 336.532 113.672C336.212 113.939 336.052 114.275 336.052 114.68C336.052 115.096 336.201 115.432 336.5 115.688C336.809 115.933 337.241 116.056 337.796 116.056ZM343.604 117V109.064H344.82L344.9 110.488C345.156 109.987 345.524 109.592 346.004 109.304C346.484 109.016 347.028 108.872 347.636 108.872C348.575 108.872 349.321 109.16 349.876 109.736C350.441 110.301 350.724 111.176 350.724 112.36V117H349.38V112.504C349.38 110.851 348.697 110.024 347.332 110.024C346.649 110.024 346.079 110.275 345.62 110.776C345.172 111.267 344.948 111.971 344.948 112.888V117H343.604ZM352.184 109.368L353.112 105.8H354.616L353.144 109.368H352.184ZM359.303 117C358.577 117 358.007 116.824 357.591 116.472C357.175 116.12 356.967 115.485 356.967 114.568V110.2H355.59V109.064H356.967L357.143 107.16H358.311V109.064H360.647V110.2H358.311V114.568C358.311 115.069 358.412 115.411 358.615 115.592C358.817 115.763 359.175 115.848 359.687 115.848H360.519V117H359.303ZM369.628 117.192C368.679 117.192 367.89 116.952 367.26 116.472C366.631 115.992 366.263 115.341 366.156 114.52H367.532C367.618 114.936 367.836 115.299 368.188 115.608C368.551 115.907 369.036 116.056 369.644 116.056C370.21 116.056 370.626 115.939 370.892 115.704C371.159 115.459 371.292 115.171 371.292 114.84C371.292 114.36 371.116 114.04 370.764 113.88C370.423 113.72 369.938 113.576 369.308 113.448C368.882 113.363 368.455 113.24 368.028 113.08C367.602 112.92 367.244 112.696 366.956 112.408C366.668 112.109 366.524 111.72 366.524 111.24C366.524 110.547 366.78 109.981 367.292 109.544C367.815 109.096 368.519 108.872 369.404 108.872C370.247 108.872 370.935 109.085 371.468 109.512C372.012 109.928 372.327 110.525 372.412 111.304H371.084C371.031 110.899 370.855 110.584 370.556 110.36C370.268 110.125 369.879 110.008 369.388 110.008C368.908 110.008 368.535 110.109 368.268 110.312C368.012 110.515 367.884 110.781 367.884 111.112C367.884 111.432 368.05 111.683 368.38 111.864C368.722 112.045 369.18 112.2 369.756 112.328C370.247 112.435 370.711 112.568 371.148 112.728C371.596 112.877 371.959 113.107 372.236 113.416C372.524 113.715 372.668 114.152 372.668 114.728C372.679 115.443 372.407 116.035 371.852 116.504C371.308 116.963 370.567 117.192 369.628 117.192ZM374.588 120.52V109.064H375.804L375.932 110.376C376.188 109.992 376.551 109.645 377.02 109.336C377.5 109.027 378.108 108.872 378.844 108.872C379.634 108.872 380.322 109.053 380.908 109.416C381.495 109.779 381.948 110.275 382.268 110.904C382.599 111.533 382.764 112.248 382.764 113.048C382.764 113.848 382.599 114.563 382.268 115.192C381.948 115.811 381.49 116.301 380.892 116.664C380.306 117.016 379.618 117.192 378.828 117.192C378.178 117.192 377.596 117.059 377.084 116.792C376.583 116.525 376.199 116.152 375.932 115.672V120.52H374.588ZM378.684 116.024C379.218 116.024 379.687 115.901 380.092 115.656C380.498 115.4 380.818 115.048 381.052 114.6C381.287 114.152 381.404 113.629 381.404 113.032C381.404 112.435 381.287 111.912 381.052 111.464C380.818 111.016 380.498 110.669 380.092 110.424C379.687 110.168 379.218 110.04 378.684 110.04C378.151 110.04 377.682 110.168 377.276 110.424C376.871 110.669 376.551 111.016 376.316 111.464C376.082 111.912 375.964 112.435 375.964 113.032C375.964 113.629 376.082 114.152 376.316 114.6C376.551 115.048 376.871 115.4 377.276 115.656C377.682 115.901 378.151 116.024 378.684 116.024ZM388.203 117.192C387.446 117.192 386.774 117.021 386.187 116.68C385.601 116.328 385.137 115.843 384.795 115.224C384.465 114.605 384.299 113.875 384.299 113.032C384.299 112.2 384.465 111.475 384.795 110.856C385.126 110.227 385.585 109.741 386.171 109.4C386.769 109.048 387.457 108.872 388.235 108.872C389.003 108.872 389.665 109.048 390.219 109.4C390.785 109.741 391.217 110.195 391.515 110.76C391.814 111.325 391.963 111.933 391.963 112.584C391.963 112.701 391.958 112.819 391.947 112.936C391.947 113.053 391.947 113.187 391.947 113.336H385.627C385.659 113.944 385.798 114.451 386.043 114.856C386.299 115.251 386.614 115.549 386.987 115.752C387.371 115.955 387.777 116.056 388.203 116.056C388.758 116.056 389.222 115.928 389.595 115.672C389.969 115.416 390.241 115.069 390.411 114.632H391.739C391.526 115.368 391.115 115.981 390.507 116.472C389.91 116.952 389.142 117.192 388.203 117.192ZM388.203 110.008C387.563 110.008 386.993 110.205 386.491 110.6C386.001 110.984 385.718 111.549 385.643 112.296H390.635C390.603 111.581 390.358 111.021 389.899 110.616C389.441 110.211 388.875 110.008 388.203 110.008ZM396.385 117.192C395.723 117.192 395.174 117.08 394.737 116.856C394.299 116.632 393.974 116.333 393.761 115.96C393.547 115.587 393.441 115.181 393.441 114.744C393.441 113.933 393.75 113.309 394.369 112.872C394.987 112.435 395.83 112.216 396.897 112.216H399.041V112.12C399.041 111.427 398.859 110.904 398.497 110.552C398.134 110.189 397.649 110.008 397.041 110.008C396.518 110.008 396.065 110.141 395.681 110.408C395.307 110.664 395.073 111.043 394.977 111.544H393.601C393.654 110.968 393.846 110.483 394.177 110.088C394.518 109.693 394.939 109.395 395.441 109.192C395.942 108.979 396.475 108.872 397.041 108.872C398.15 108.872 398.982 109.171 399.537 109.768C400.102 110.355 400.385 111.139 400.385 112.12V117H399.185L399.105 115.576C398.881 116.024 398.55 116.408 398.113 116.728C397.686 117.037 397.11 117.192 396.385 117.192ZM396.593 116.056C397.105 116.056 397.542 115.923 397.905 115.656C398.278 115.389 398.561 115.043 398.753 114.616C398.945 114.189 399.041 113.741 399.041 113.272V113.256H397.009C396.219 113.256 395.659 113.395 395.329 113.672C395.009 113.939 394.849 114.275 394.849 114.68C394.849 115.096 394.998 115.432 395.297 115.688C395.606 115.933 396.038 116.056 396.593 116.056ZM402.401 117V105.48H403.745V112.408L406.993 109.064H408.641L405.121 112.648L409.089 117H407.377L403.745 112.888V117H402.401ZM418.938 117.192C418.287 117.192 417.706 117.059 417.194 116.792C416.692 116.525 416.308 116.152 416.042 115.672L415.914 117H414.698V105.48H416.042V110.376C416.298 109.992 416.66 109.645 417.13 109.336C417.61 109.027 418.218 108.872 418.954 108.872C419.743 108.872 420.431 109.053 421.018 109.416C421.604 109.779 422.058 110.275 422.378 110.904C422.708 111.533 422.874 112.248 422.874 113.048C422.874 113.848 422.708 114.563 422.378 115.192C422.058 115.811 421.599 116.301 421.002 116.664C420.415 117.016 419.727 117.192 418.938 117.192ZM418.794 116.024C419.327 116.024 419.796 115.901 420.202 115.656C420.607 115.4 420.927 115.048 421.162 114.6C421.396 114.152 421.514 113.629 421.514 113.032C421.514 112.435 421.396 111.912 421.162 111.464C420.927 111.016 420.607 110.669 420.202 110.424C419.796 110.168 419.327 110.04 418.794 110.04C418.26 110.04 417.791 110.168 417.386 110.424C416.98 110.669 416.66 111.016 416.426 111.464C416.191 111.912 416.074 112.435 416.074 113.032C416.074 113.629 416.191 114.152 416.426 114.6C416.66 115.048 416.98 115.4 417.386 115.656C417.791 115.901 418.26 116.024 418.794 116.024ZM428.313 117.192C427.555 117.192 426.883 117.021 426.297 116.68C425.71 116.328 425.246 115.843 424.905 115.224C424.574 114.605 424.409 113.875 424.409 113.032C424.409 112.2 424.574 111.475 424.905 110.856C425.235 110.227 425.694 109.741 426.281 109.4C426.878 109.048 427.566 108.872 428.345 108.872C429.113 108.872 429.774 109.048 430.329 109.4C430.894 109.741 431.326 110.195 431.625 110.76C431.923 111.325 432.073 111.933 432.073 112.584C432.073 112.701 432.067 112.819 432.057 112.936C432.057 113.053 432.057 113.187 432.057 113.336H425.737C425.769 113.944 425.907 114.451 426.153 114.856C426.409 115.251 426.723 115.549 427.097 115.752C427.481 115.955 427.886 116.056 428.313 116.056C428.867 116.056 429.331 115.928 429.705 115.672C430.078 115.416 430.35 115.069 430.521 114.632H431.849C431.635 115.368 431.225 115.981 430.617 116.472C430.019 116.952 429.251 117.192 428.313 117.192ZM428.313 110.008C427.673 110.008 427.102 110.205 426.601 110.6C426.11 110.984 425.827 111.549 425.753 112.296H430.745C430.713 111.581 430.467 111.021 430.009 110.616C429.55 110.211 428.985 110.008 428.313 110.008ZM437.502 117.192C436.745 117.192 436.062 117.021 435.454 116.68C434.857 116.328 434.382 115.843 434.03 115.224C433.689 114.595 433.518 113.864 433.518 113.032C433.518 112.2 433.689 111.475 434.03 110.856C434.382 110.227 434.857 109.741 435.454 109.4C436.062 109.048 436.745 108.872 437.502 108.872C438.441 108.872 439.23 109.117 439.87 109.608C440.521 110.099 440.931 110.755 441.102 111.576H439.726C439.619 111.085 439.358 110.707 438.942 110.44C438.526 110.163 438.041 110.024 437.486 110.024C437.038 110.024 436.617 110.136 436.222 110.36C435.827 110.584 435.507 110.92 435.262 111.368C435.017 111.816 434.894 112.371 434.894 113.032C434.894 113.693 435.017 114.248 435.262 114.696C435.507 115.144 435.827 115.485 436.222 115.72C436.617 115.944 437.038 116.056 437.486 116.056C438.041 116.056 438.526 115.923 438.942 115.656C439.358 115.379 439.619 114.989 439.726 114.488H441.102C440.942 115.288 440.537 115.939 439.886 116.44C439.235 116.941 438.441 117.192 437.502 117.192ZM445.619 117.192C444.958 117.192 444.408 117.08 443.971 116.856C443.534 116.632 443.208 116.333 442.995 115.96C442.782 115.587 442.675 115.181 442.675 114.744C442.675 113.933 442.984 113.309 443.603 112.872C444.222 112.435 445.064 112.216 446.131 112.216H448.275V112.12C448.275 111.427 448.094 110.904 447.731 110.552C447.368 110.189 446.883 110.008 446.275 110.008C445.752 110.008 445.299 110.141 444.915 110.408C444.542 110.664 444.307 111.043 444.211 111.544H442.835C442.888 110.968 443.08 110.483 443.411 110.088C443.752 109.693 444.174 109.395 444.675 109.192C445.176 108.979 445.71 108.872 446.275 108.872C447.384 108.872 448.216 109.171 448.771 109.768C449.336 110.355 449.619 111.139 449.619 112.12V117H448.419L448.339 115.576C448.115 116.024 447.784 116.408 447.347 116.728C446.92 117.037 446.344 117.192 445.619 117.192ZM445.827 116.056C446.339 116.056 446.776 115.923 447.139 115.656C447.512 115.389 447.795 115.043 447.987 114.616C448.179 114.189 448.275 113.741 448.275 113.272V113.256H446.243C445.454 113.256 444.894 113.395 444.563 113.672C444.243 113.939 444.083 114.275 444.083 114.68C444.083 115.096 444.232 115.432 444.531 115.688C444.84 115.933 445.272 116.056 445.827 116.056ZM454.531 117.192C453.593 117.192 452.846 116.909 452.291 116.344C451.737 115.768 451.459 114.888 451.459 113.704V109.064H452.803V113.56C452.803 115.213 453.481 116.04 454.835 116.04C455.529 116.04 456.099 115.795 456.547 115.304C457.006 114.803 457.235 114.093 457.235 113.176V109.064H458.579V117H457.363L457.267 115.576C457.022 116.077 456.654 116.472 456.163 116.76C455.683 117.048 455.139 117.192 454.531 117.192ZM463.832 117.192C462.882 117.192 462.093 116.952 461.464 116.472C460.834 115.992 460.466 115.341 460.36 114.52H461.736C461.821 114.936 462.04 115.299 462.392 115.608C462.754 115.907 463.24 116.056 463.848 116.056C464.413 116.056 464.829 115.939 465.096 115.704C465.362 115.459 465.496 115.171 465.496 114.84C465.496 114.36 465.32 114.04 464.968 113.88C464.626 113.72 464.141 113.576 463.512 113.448C463.085 113.363 462.658 113.24 462.232 113.08C461.805 112.92 461.448 112.696 461.16 112.408C460.872 112.109 460.728 111.72 460.728 111.24C460.728 110.547 460.984 109.981 461.496 109.544C462.018 109.096 462.722 108.872 463.608 108.872C464.45 108.872 465.138 109.085 465.672 109.512C466.216 109.928 466.53 110.525 466.616 111.304H465.288C465.234 110.899 465.058 110.584 464.76 110.36C464.472 110.125 464.082 110.008 463.592 110.008C463.112 110.008 462.738 110.109 462.472 110.312C462.216 110.515 462.088 110.781 462.088 111.112C462.088 111.432 462.253 111.683 462.584 111.864C462.925 112.045 463.384 112.2 463.96 112.328C464.45 112.435 464.914 112.568 465.352 112.728C465.8 112.877 466.162 113.107 466.44 113.416C466.728 113.715 466.872 114.152 466.872 114.728C466.882 115.443 466.61 116.035 466.056 116.504C465.512 116.963 464.77 117.192 463.832 117.192ZM472.36 117.192C471.602 117.192 470.93 117.021 470.344 116.68C469.757 116.328 469.293 115.843 468.952 115.224C468.621 114.605 468.456 113.875 468.456 113.032C468.456 112.2 468.621 111.475 468.952 110.856C469.282 110.227 469.741 109.741 470.328 109.4C470.925 109.048 471.613 108.872 472.391 108.872C473.16 108.872 473.821 109.048 474.376 109.4C474.941 109.741 475.373 110.195 475.672 110.76C475.97 111.325 476.12 111.933 476.12 112.584C476.12 112.701 476.114 112.819 476.104 112.936C476.104 113.053 476.104 113.187 476.104 113.336H469.784C469.816 113.944 469.954 114.451 470.2 114.856C470.456 115.251 470.77 115.549 471.144 115.752C471.528 115.955 471.933 116.056 472.36 116.056C472.914 116.056 473.378 115.928 473.752 115.672C474.125 115.416 474.397 115.069 474.568 114.632H475.896C475.682 115.368 475.272 115.981 474.664 116.472C474.066 116.952 473.298 117.192 472.36 117.192ZM472.36 110.008C471.72 110.008 471.149 110.205 470.648 110.6C470.157 110.984 469.874 111.549 469.799 112.296H474.792C474.76 111.581 474.514 111.021 474.056 110.616C473.597 110.211 473.032 110.008 472.36 110.008ZM485.271 117C484.546 117 483.975 116.824 483.559 116.472C483.143 116.12 482.935 115.485 482.935 114.568V110.2H481.559V109.064H482.935L483.111 107.16H484.279V109.064H486.615V110.2H484.279V114.568C484.279 115.069 484.381 115.411 484.583 115.592C484.786 115.763 485.143 115.848 485.655 115.848H486.487V117H485.271ZM488.323 117V105.48H489.667V110.424C489.933 109.933 490.312 109.555 490.803 109.288C491.293 109.011 491.827 108.872 492.403 108.872C493.32 108.872 494.056 109.16 494.611 109.736C495.165 110.301 495.443 111.176 495.443 112.36V117H494.115V112.504C494.115 110.851 493.448 110.024 492.115 110.024C491.421 110.024 490.84 110.275 490.371 110.776C489.901 111.267 489.667 111.971 489.667 112.888V117H488.323ZM501.047 117.192C500.29 117.192 499.618 117.021 499.031 116.68C498.444 116.328 497.98 115.843 497.639 115.224C497.308 114.605 497.143 113.875 497.143 113.032C497.143 112.2 497.308 111.475 497.639 110.856C497.97 110.227 498.428 109.741 499.015 109.4C499.612 109.048 500.3 108.872 501.079 108.872C501.847 108.872 502.508 109.048 503.063 109.4C503.628 109.741 504.06 110.195 504.359 110.76C504.658 111.325 504.807 111.933 504.807 112.584C504.807 112.701 504.802 112.819 504.791 112.936C504.791 113.053 504.791 113.187 504.791 113.336H498.471C498.503 113.944 498.642 114.451 498.887 114.856C499.143 115.251 499.458 115.549 499.831 115.752C500.215 115.955 500.62 116.056 501.047 116.056C501.602 116.056 502.066 115.928 502.439 115.672C502.812 115.416 503.084 115.069 503.255 114.632H504.583C504.37 115.368 503.959 115.981 503.351 116.472C502.754 116.952 501.986 117.192 501.047 117.192ZM501.047 110.008C500.407 110.008 499.836 110.205 499.335 110.6C498.844 110.984 498.562 111.549 498.487 112.296H503.479C503.447 111.581 503.202 111.021 502.743 110.616C502.284 110.211 501.719 110.008 501.047 110.008ZM507.14 120.52L509.108 116.232H508.644L505.492 109.064H506.948L509.572 115.24L512.356 109.064H513.748L508.548 120.52H507.14ZM259.704 141.192C258.915 141.192 258.221 141.011 257.624 140.648C257.037 140.285 256.579 139.789 256.248 139.16C255.928 138.531 255.768 137.816 255.768 137.016C255.768 136.216 255.933 135.507 256.264 134.888C256.595 134.259 257.053 133.768 257.64 133.416C258.227 133.053 258.92 132.872 259.72 132.872C260.371 132.872 260.947 133.005 261.448 133.272C261.949 133.539 262.339 133.912 262.616 134.392V129.48H263.96V141H262.744L262.616 139.688C262.36 140.072 261.992 140.419 261.512 140.728C261.032 141.037 260.429 141.192 259.704 141.192ZM259.848 140.024C260.381 140.024 260.851 139.901 261.256 139.656C261.672 139.4 261.992 139.048 262.216 138.6C262.451 138.152 262.568 137.629 262.568 137.032C262.568 136.435 262.451 135.912 262.216 135.464C261.992 135.016 261.672 134.669 261.256 134.424C260.851 134.168 260.381 134.04 259.848 134.04C259.325 134.04 258.856 134.168 258.44 134.424C258.035 134.669 257.715 135.016 257.48 135.464C257.256 135.912 257.144 136.435 257.144 137.032C257.144 137.629 257.256 138.152 257.48 138.6C257.715 139.048 258.035 139.4 258.44 139.656C258.856 139.901 259.325 140.024 259.848 140.024ZM269.767 141.192C269.02 141.192 268.348 141.021 267.751 140.68C267.154 140.339 266.679 139.859 266.327 139.24C265.986 138.611 265.815 137.875 265.815 137.032C265.815 136.189 265.991 135.459 266.343 134.84C266.695 134.211 267.17 133.725 267.767 133.384C268.375 133.043 269.052 132.872 269.799 132.872C270.546 132.872 271.218 133.043 271.815 133.384C272.412 133.725 272.882 134.211 273.223 134.84C273.575 135.459 273.751 136.189 273.751 137.032C273.751 137.875 273.575 138.611 273.223 139.24C272.871 139.859 272.391 140.339 271.783 140.68C271.186 141.021 270.514 141.192 269.767 141.192ZM269.767 140.04C270.226 140.04 270.652 139.928 271.047 139.704C271.442 139.48 271.762 139.144 272.007 138.696C272.252 138.248 272.375 137.693 272.375 137.032C272.375 136.371 272.252 135.816 272.007 135.368C271.772 134.92 271.458 134.584 271.063 134.36C270.668 134.136 270.247 134.024 269.799 134.024C269.34 134.024 268.914 134.136 268.519 134.36C268.124 134.584 267.804 134.92 267.559 135.368C267.314 135.816 267.191 136.371 267.191 137.032C267.191 137.693 267.314 138.248 267.559 138.696C267.804 139.144 268.119 139.48 268.503 139.704C268.898 139.928 269.319 140.04 269.767 140.04ZM275.62 141V133.064H276.836L276.916 134.488C277.172 133.987 277.54 133.592 278.02 133.304C278.5 133.016 279.044 132.872 279.652 132.872C280.59 132.872 281.337 133.16 281.892 133.736C282.457 134.301 282.74 135.176 282.74 136.36V141H281.396V136.504C281.396 134.851 280.713 134.024 279.348 134.024C278.665 134.024 278.094 134.275 277.636 134.776C277.188 135.267 276.964 135.971 276.964 136.888V141H275.62ZM284.2 133.368L285.128 129.8H286.632L285.16 133.368H284.2ZM291.318 141C290.593 141 290.022 140.824 289.606 140.472C289.19 140.12 288.982 139.485 288.982 138.568V134.2H287.606V133.064H288.982L289.158 131.16H290.326V133.064H292.662V134.2H290.326V138.568C290.326 139.069 290.427 139.411 290.63 139.592C290.833 139.763 291.19 139.848 291.702 139.848H292.534V141H291.318ZM298.604 141V129.48H299.948V134.424C300.215 133.933 300.593 133.555 301.084 133.288C301.575 133.011 302.108 132.872 302.684 132.872C303.601 132.872 304.337 133.16 304.892 133.736C305.447 134.301 305.724 135.176 305.724 136.36V141H304.396V136.504C304.396 134.851 303.729 134.024 302.396 134.024C301.703 134.024 301.121 134.275 300.652 134.776C300.183 135.267 299.948 135.971 299.948 136.888V141H298.604ZM310.4 141.192C309.739 141.192 309.19 141.08 308.752 140.856C308.315 140.632 307.99 140.333 307.776 139.96C307.563 139.587 307.456 139.181 307.456 138.744C307.456 137.933 307.766 137.309 308.384 136.872C309.003 136.435 309.846 136.216 310.912 136.216H313.056V136.12C313.056 135.427 312.875 134.904 312.512 134.552C312.15 134.189 311.664 134.008 311.056 134.008C310.534 134.008 310.08 134.141 309.696 134.408C309.323 134.664 309.088 135.043 308.992 135.544H307.616C307.67 134.968 307.862 134.483 308.192 134.088C308.534 133.693 308.955 133.395 309.456 133.192C309.958 132.979 310.491 132.872 311.056 132.872C312.166 132.872 312.998 133.171 313.552 133.768C314.118 134.355 314.4 135.139 314.4 136.12V141H313.2L313.12 139.576C312.896 140.024 312.566 140.408 312.128 140.728C311.702 141.037 311.126 141.192 310.4 141.192ZM310.608 140.056C311.12 140.056 311.558 139.923 311.92 139.656C312.294 139.389 312.576 139.043 312.768 138.616C312.96 138.189 313.056 137.741 313.056 137.272V137.256H311.024C310.235 137.256 309.675 137.395 309.344 137.672C309.024 137.939 308.864 138.275 308.864 138.68C308.864 139.096 309.014 139.432 309.312 139.688C309.622 139.933 310.054 140.056 310.608 140.056ZM318.408 141L315.4 133.064H316.808L319.192 139.704L321.592 133.064H322.968L319.96 141H318.408ZM327.625 141.192C326.868 141.192 326.196 141.021 325.609 140.68C325.022 140.328 324.558 139.843 324.217 139.224C323.886 138.605 323.721 137.875 323.721 137.032C323.721 136.2 323.886 135.475 324.217 134.856C324.548 134.227 325.006 133.741 325.593 133.4C326.19 133.048 326.878 132.872 327.657 132.872C328.425 132.872 329.086 133.048 329.641 133.4C330.206 133.741 330.638 134.195 330.937 134.76C331.236 135.325 331.385 135.933 331.385 136.584C331.385 136.701 331.38 136.819 331.369 136.936C331.369 137.053 331.369 137.187 331.369 137.336H325.049C325.081 137.944 325.22 138.451 325.465 138.856C325.721 139.251 326.036 139.549 326.409 139.752C326.793 139.955 327.198 140.056 327.625 140.056C328.18 140.056 328.644 139.928 329.017 139.672C329.39 139.416 329.662 139.069 329.833 138.632H331.161C330.948 139.368 330.537 139.981 329.929 140.472C329.332 140.952 328.564 141.192 327.625 141.192ZM327.625 134.008C326.985 134.008 326.414 134.205 325.913 134.6C325.422 134.984 325.14 135.549 325.065 136.296H330.057C330.025 135.581 329.78 135.021 329.321 134.616C328.862 134.211 328.297 134.008 327.625 134.008ZM340.041 141.192C339.38 141.192 338.83 141.08 338.393 140.856C337.956 140.632 337.63 140.333 337.417 139.96C337.204 139.587 337.097 139.181 337.097 138.744C337.097 137.933 337.406 137.309 338.025 136.872C338.644 136.435 339.486 136.216 340.553 136.216H342.697V136.12C342.697 135.427 342.516 134.904 342.153 134.552C341.79 134.189 341.305 134.008 340.697 134.008C340.174 134.008 339.721 134.141 339.337 134.408C338.964 134.664 338.729 135.043 338.633 135.544H337.257C337.31 134.968 337.502 134.483 337.833 134.088C338.174 133.693 338.596 133.395 339.097 133.192C339.598 132.979 340.132 132.872 340.697 132.872C341.806 132.872 342.638 133.171 343.193 133.768C343.758 134.355 344.041 135.139 344.041 136.12V141H342.841L342.761 139.576C342.537 140.024 342.206 140.408 341.769 140.728C341.342 141.037 340.766 141.192 340.041 141.192ZM340.249 140.056C340.761 140.056 341.198 139.923 341.561 139.656C341.934 139.389 342.217 139.043 342.409 138.616C342.601 138.189 342.697 137.741 342.697 137.272V137.256H340.665C339.876 137.256 339.316 137.395 338.985 137.672C338.665 137.939 338.505 138.275 338.505 138.68C338.505 139.096 338.654 139.432 338.953 139.688C339.262 139.933 339.694 140.056 340.249 140.056ZM353.332 141.192C352.382 141.192 351.593 140.952 350.964 140.472C350.334 139.992 349.966 139.341 349.86 138.52H351.236C351.321 138.936 351.54 139.299 351.892 139.608C352.254 139.907 352.74 140.056 353.348 140.056C353.913 140.056 354.329 139.939 354.596 139.704C354.862 139.459 354.996 139.171 354.996 138.84C354.996 138.36 354.82 138.04 354.468 137.88C354.126 137.72 353.641 137.576 353.012 137.448C352.585 137.363 352.158 137.24 351.732 137.08C351.305 136.92 350.948 136.696 350.66 136.408C350.372 136.109 350.228 135.72 350.228 135.24C350.228 134.547 350.484 133.981 350.996 133.544C351.518 133.096 352.222 132.872 353.108 132.872C353.95 132.872 354.638 133.085 355.172 133.512C355.716 133.928 356.03 134.525 356.116 135.304H354.788C354.734 134.899 354.558 134.584 354.26 134.36C353.972 134.125 353.582 134.008 353.092 134.008C352.612 134.008 352.238 134.109 351.972 134.312C351.716 134.515 351.588 134.781 351.588 135.112C351.588 135.432 351.753 135.683 352.084 135.864C352.425 136.045 352.884 136.2 353.46 136.328C353.95 136.435 354.414 136.568 354.852 136.728C355.3 136.877 355.662 137.107 355.94 137.416C356.228 137.715 356.372 138.152 356.372 138.728C356.382 139.443 356.11 140.035 355.556 140.504C355.012 140.963 354.27 141.192 353.332 141.192ZM361.188 141.192C360.249 141.192 359.502 140.909 358.948 140.344C358.393 139.768 358.116 138.888 358.116 137.704V133.064H359.46V137.56C359.46 139.213 360.137 140.04 361.492 140.04C362.185 140.04 362.756 139.795 363.204 139.304C363.662 138.803 363.892 138.093 363.892 137.176V133.064H365.236V141H364.02L363.924 139.576C363.678 140.077 363.31 140.472 362.82 140.76C362.34 141.048 361.796 141.192 361.188 141.192ZM367.88 141V134.2H366.68V133.064H367.88V131.688C367.88 130.92 368.072 130.36 368.456 130.008C368.84 129.656 369.4 129.48 370.136 129.48H370.936V130.632H370.344C369.938 130.632 369.65 130.717 369.48 130.888C369.309 131.048 369.224 131.325 369.224 131.72V133.064H371.176V134.2H369.224V141H367.88ZM373.208 141V134.2H372.008V133.064H373.208V131.688C373.208 130.92 373.4 130.36 373.784 130.008C374.168 129.656 374.728 129.48 375.464 129.48H376.264V130.632H375.672C375.267 130.632 374.979 130.717 374.808 130.888C374.637 131.048 374.552 131.325 374.552 131.72V133.064H379.48V141H378.136V134.2H374.552V141H373.208ZM378.824 131.544C378.568 131.544 378.349 131.459 378.168 131.288C377.987 131.107 377.896 130.883 377.896 130.616C377.896 130.36 377.987 130.147 378.168 129.976C378.349 129.805 378.568 129.72 378.824 129.72C379.091 129.72 379.309 129.805 379.48 129.976C379.661 130.147 379.752 130.36 379.752 130.616C379.752 130.883 379.661 131.107 379.48 131.288C379.309 131.459 379.091 131.544 378.824 131.544ZM385.502 141.192C384.745 141.192 384.062 141.021 383.454 140.68C382.857 140.328 382.382 139.843 382.03 139.224C381.689 138.595 381.518 137.864 381.518 137.032C381.518 136.2 381.689 135.475 382.03 134.856C382.382 134.227 382.857 133.741 383.454 133.4C384.062 133.048 384.745 132.872 385.502 132.872C386.441 132.872 387.23 133.117 387.87 133.608C388.521 134.099 388.931 134.755 389.102 135.576H387.726C387.619 135.085 387.358 134.707 386.942 134.44C386.526 134.163 386.041 134.024 385.486 134.024C385.038 134.024 384.617 134.136 384.222 134.36C383.827 134.584 383.507 134.92 383.262 135.368C383.017 135.816 382.894 136.371 382.894 137.032C382.894 137.693 383.017 138.248 383.262 138.696C383.507 139.144 383.827 139.485 384.222 139.72C384.617 139.944 385.038 140.056 385.486 140.056C386.041 140.056 386.526 139.923 386.942 139.656C387.358 139.379 387.619 138.989 387.726 138.488H389.102C388.942 139.288 388.537 139.939 387.886 140.44C387.235 140.941 386.441 141.192 385.502 141.192ZM391.795 131.304C391.528 131.304 391.304 131.219 391.123 131.048C390.952 130.867 390.867 130.643 390.867 130.376C390.867 130.12 390.952 129.907 391.123 129.736C391.304 129.565 391.528 129.48 391.795 129.48C392.051 129.48 392.27 129.565 392.451 129.736C392.632 129.907 392.723 130.12 392.723 130.376C392.723 130.643 392.632 130.867 392.451 131.048C392.27 131.219 392.051 131.304 391.795 131.304ZM391.123 141V133.064H392.467V141H391.123ZM398.375 141.192C397.618 141.192 396.946 141.021 396.359 140.68C395.772 140.328 395.308 139.843 394.967 139.224C394.636 138.605 394.471 137.875 394.471 137.032C394.471 136.2 394.636 135.475 394.967 134.856C395.298 134.227 395.756 133.741 396.343 133.4C396.94 133.048 397.628 132.872 398.407 132.872C399.175 132.872 399.836 133.048 400.391 133.4C400.956 133.741 401.388 134.195 401.687 134.76C401.986 135.325 402.135 135.933 402.135 136.584C402.135 136.701 402.13 136.819 402.119 136.936C402.119 137.053 402.119 137.187 402.119 137.336H395.799C395.831 137.944 395.97 138.451 396.215 138.856C396.471 139.251 396.786 139.549 397.159 139.752C397.543 139.955 397.948 140.056 398.375 140.056C398.93 140.056 399.394 139.928 399.767 139.672C400.14 139.416 400.412 139.069 400.583 138.632H401.911C401.698 139.368 401.287 139.981 400.679 140.472C400.082 140.952 399.314 141.192 398.375 141.192ZM398.375 134.008C397.735 134.008 397.164 134.205 396.663 134.6C396.172 134.984 395.89 135.549 395.815 136.296H400.807C400.775 135.581 400.53 135.021 400.071 134.616C399.612 134.211 399.047 134.008 398.375 134.008ZM403.917 141V133.064H405.133L405.213 134.488C405.469 133.987 405.837 133.592 406.317 133.304C406.797 133.016 407.341 132.872 407.949 132.872C408.887 132.872 409.634 133.16 410.189 133.736C410.754 134.301 411.036 135.176 411.036 136.36V141H409.693V136.504C409.693 134.851 409.01 134.024 407.645 134.024C406.962 134.024 406.391 134.275 405.933 134.776C405.485 135.267 405.261 135.971 405.261 136.888V141H403.917ZM416.209 141C415.483 141 414.913 140.824 414.497 140.472C414.081 140.12 413.873 139.485 413.873 138.568V134.2H412.497V133.064H413.873L414.049 131.16H415.217V133.064H417.553V134.2H415.217V138.568C415.217 139.069 415.318 139.411 415.521 139.592C415.723 139.763 416.081 139.848 416.593 139.848H417.425V141H416.209ZM426.135 141.192C425.473 141.192 424.924 141.08 424.487 140.856C424.049 140.632 423.724 140.333 423.511 139.96C423.297 139.587 423.191 139.181 423.191 138.744C423.191 137.933 423.5 137.309 424.119 136.872C424.737 136.435 425.58 136.216 426.647 136.216H428.791V136.12C428.791 135.427 428.609 134.904 428.247 134.552C427.884 134.189 427.399 134.008 426.791 134.008C426.268 134.008 425.815 134.141 425.431 134.408C425.057 134.664 424.823 135.043 424.727 135.544H423.351C423.404 134.968 423.596 134.483 423.927 134.088C424.268 133.693 424.689 133.395 425.191 133.192C425.692 132.979 426.225 132.872 426.791 132.872C427.9 132.872 428.732 133.171 429.287 133.768C429.852 134.355 430.135 135.139 430.135 136.12V141H428.935L428.855 139.576C428.631 140.024 428.3 140.408 427.863 140.728C427.436 141.037 426.86 141.192 426.135 141.192ZM426.343 140.056C426.855 140.056 427.292 139.923 427.655 139.656C428.028 139.389 428.311 139.043 428.503 138.616C428.695 138.189 428.791 137.741 428.791 137.272V137.256H426.759C425.969 137.256 425.409 137.395 425.079 137.672C424.759 137.939 424.599 138.275 424.599 138.68C424.599 139.096 424.748 139.432 425.047 139.688C425.356 139.933 425.788 140.056 426.343 140.056ZM432.151 141V133.064H433.367L433.463 134.216C433.719 133.789 434.06 133.459 434.487 133.224C434.914 132.989 435.394 132.872 435.927 132.872C436.556 132.872 437.095 133 437.543 133.256C438.002 133.512 438.354 133.901 438.599 134.424C438.876 133.944 439.255 133.565 439.735 133.288C440.226 133.011 440.754 132.872 441.319 132.872C442.268 132.872 443.026 133.16 443.591 133.736C444.156 134.301 444.439 135.176 444.439 136.36V141H443.111V136.504C443.111 135.683 442.946 135.064 442.615 134.648C442.284 134.232 441.81 134.024 441.191 134.024C440.551 134.024 440.018 134.275 439.591 134.776C439.175 135.267 438.967 135.971 438.967 136.888V141H437.623V136.504C437.623 135.683 437.458 135.064 437.127 134.648C436.796 134.232 436.322 134.024 435.703 134.024C435.074 134.024 434.546 134.275 434.119 134.776C433.703 135.267 433.495 135.971 433.495 136.888V141H432.151ZM450.079 141.192C449.333 141.192 448.661 141.021 448.063 140.68C447.466 140.339 446.991 139.859 446.639 139.24C446.298 138.611 446.127 137.875 446.127 137.032C446.127 136.189 446.303 135.459 446.655 134.84C447.007 134.211 447.482 133.725 448.079 133.384C448.687 133.043 449.365 132.872 450.111 132.872C450.858 132.872 451.53 133.043 452.127 133.384C452.725 133.725 453.194 134.211 453.535 134.84C453.887 135.459 454.063 136.189 454.063 137.032C454.063 137.875 453.887 138.611 453.535 139.24C453.183 139.859 452.703 140.339 452.095 140.68C451.498 141.021 450.826 141.192 450.079 141.192ZM450.079 140.04C450.538 140.04 450.965 139.928 451.359 139.704C451.754 139.48 452.074 139.144 452.319 138.696C452.565 138.248 452.687 137.693 452.687 137.032C452.687 136.371 452.565 135.816 452.319 135.368C452.085 134.92 451.77 134.584 451.375 134.36C450.981 134.136 450.559 134.024 450.111 134.024C449.653 134.024 449.226 134.136 448.831 134.36C448.437 134.584 448.117 134.92 447.871 135.368C447.626 135.816 447.503 136.371 447.503 137.032C447.503 137.693 447.626 138.248 447.871 138.696C448.117 139.144 448.431 139.48 448.815 139.704C449.21 139.928 449.631 140.04 450.079 140.04ZM458.828 141.192C457.889 141.192 457.143 140.909 456.588 140.344C456.033 139.768 455.756 138.888 455.756 137.704V133.064H457.1V137.56C457.1 139.213 457.777 140.04 459.132 140.04C459.825 140.04 460.396 139.795 460.844 139.304C461.303 138.803 461.532 138.093 461.532 137.176V133.064H462.876V141H461.66L461.564 139.576C461.319 140.077 460.951 140.472 460.46 140.76C459.98 141.048 459.436 141.192 458.828 141.192ZM465.088 141V133.064H466.304L466.384 134.488C466.64 133.987 467.008 133.592 467.488 133.304C467.968 133.016 468.512 132.872 469.12 132.872C470.059 132.872 470.806 133.16 471.36 133.736C471.926 134.301 472.208 135.176 472.208 136.36V141H470.864V136.504C470.864 134.851 470.182 134.024 468.816 134.024C468.134 134.024 467.563 134.275 467.104 134.776C466.656 135.267 466.432 135.971 466.432 136.888V141H465.088ZM477.381 141C476.655 141 476.085 140.824 475.669 140.472C475.253 140.12 475.045 139.485 475.045 138.568V134.2H473.669V133.064H475.045L475.221 131.16H476.389V133.064H478.725V134.2H476.389V138.568C476.389 139.069 476.49 139.411 476.693 139.592C476.895 139.763 477.253 139.848 477.765 139.848H478.597V141H477.381ZM488.283 141.192C487.536 141.192 486.864 141.021 486.267 140.68C485.669 140.339 485.195 139.859 484.843 139.24C484.501 138.611 484.331 137.875 484.331 137.032C484.331 136.189 484.507 135.459 484.859 134.84C485.211 134.211 485.685 133.725 486.283 133.384C486.891 133.043 487.568 132.872 488.315 132.872C489.061 132.872 489.733 133.043 490.331 133.384C490.928 133.725 491.397 134.211 491.739 134.84C492.091 135.459 492.267 136.189 492.267 137.032C492.267 137.875 492.091 138.611 491.739 139.24C491.387 139.859 490.907 140.339 490.299 140.68C489.701 141.021 489.029 141.192 488.283 141.192ZM488.283 140.04C488.741 140.04 489.168 139.928 489.563 139.704C489.957 139.48 490.277 139.144 490.523 138.696C490.768 138.248 490.891 137.693 490.891 137.032C490.891 136.371 490.768 135.816 490.523 135.368C490.288 134.92 489.973 134.584 489.579 134.36C489.184 134.136 488.763 134.024 488.315 134.024C487.856 134.024 487.429 134.136 487.035 134.36C486.64 134.584 486.32 134.92 486.075 135.368C485.829 135.816 485.707 136.371 485.707 137.032C485.707 137.693 485.829 138.248 486.075 138.696C486.32 139.144 486.635 139.48 487.019 139.704C487.413 139.928 487.835 140.04 488.283 140.04ZM494.567 141V134.2H493.367V133.064H494.567V131.688C494.567 130.92 494.759 130.36 495.143 130.008C495.527 129.656 496.087 129.48 496.823 129.48H497.623V130.632H497.031C496.626 130.632 496.338 130.717 496.167 130.888C495.997 131.048 495.911 131.325 495.911 131.72V133.064H497.863V134.2H495.911V141H494.567ZM258.392 165L255.384 157.064H256.792L259.176 163.704L261.576 157.064H262.952L259.944 165H258.392ZM267.658 165.192C266.911 165.192 266.239 165.021 265.642 164.68C265.044 164.339 264.57 163.859 264.218 163.24C263.876 162.611 263.706 161.875 263.706 161.032C263.706 160.189 263.882 159.459 264.234 158.84C264.586 158.211 265.06 157.725 265.658 157.384C266.266 157.043 266.943 156.872 267.69 156.872C268.436 156.872 269.108 157.043 269.706 157.384C270.303 157.725 270.772 158.211 271.114 158.84C271.466 159.459 271.642 160.189 271.642 161.032C271.642 161.875 271.466 162.611 271.114 163.24C270.762 163.859 270.282 164.339 269.674 164.68C269.076 165.021 268.404 165.192 267.658 165.192ZM267.658 164.04C268.116 164.04 268.543 163.928 268.938 163.704C269.332 163.48 269.652 163.144 269.898 162.696C270.143 162.248 270.266 161.693 270.266 161.032C270.266 160.371 270.143 159.816 269.898 159.368C269.663 158.92 269.348 158.584 268.954 158.36C268.559 158.136 268.138 158.024 267.69 158.024C267.231 158.024 266.804 158.136 266.41 158.36C266.015 158.584 265.695 158.92 265.45 159.368C265.204 159.816 265.082 160.371 265.082 161.032C265.082 161.693 265.204 162.248 265.45 162.696C265.695 163.144 266.01 163.48 266.394 163.704C266.788 163.928 267.21 164.04 267.658 164.04ZM277.158 165.192C276.401 165.192 275.718 165.021 275.11 164.68C274.513 164.328 274.038 163.843 273.686 163.224C273.345 162.595 273.174 161.864 273.174 161.032C273.174 160.2 273.345 159.475 273.686 158.856C274.038 158.227 274.513 157.741 275.11 157.4C275.718 157.048 276.401 156.872 277.158 156.872C278.097 156.872 278.886 157.117 279.526 157.608C280.177 158.099 280.588 158.755 280.758 159.576H279.382C279.276 159.085 279.014 158.707 278.598 158.44C278.182 158.163 277.697 158.024 277.142 158.024C276.694 158.024 276.273 158.136 275.878 158.36C275.484 158.584 275.164 158.92 274.918 159.368C274.673 159.816 274.55 160.371 274.55 161.032C274.55 161.693 274.673 162.248 274.918 162.696C275.164 163.144 275.484 163.485 275.878 163.72C276.273 163.944 276.694 164.056 277.142 164.056C277.697 164.056 278.182 163.923 278.598 163.656C279.014 163.379 279.276 162.989 279.382 162.488H280.758C280.598 163.288 280.193 163.939 279.542 164.44C278.892 164.941 278.097 165.192 277.158 165.192ZM285.275 165.192C284.614 165.192 284.065 165.08 283.627 164.856C283.19 164.632 282.865 164.333 282.651 163.96C282.438 163.587 282.331 163.181 282.331 162.744C282.331 161.933 282.641 161.309 283.259 160.872C283.878 160.435 284.721 160.216 285.787 160.216H287.931V160.12C287.931 159.427 287.75 158.904 287.387 158.552C287.025 158.189 286.539 158.008 285.931 158.008C285.409 158.008 284.955 158.141 284.571 158.408C284.198 158.664 283.963 159.043 283.867 159.544H282.491C282.545 158.968 282.737 158.483 283.067 158.088C283.409 157.693 283.83 157.395 284.331 157.192C284.833 156.979 285.366 156.872 285.931 156.872C287.041 156.872 287.873 157.171 288.427 157.768C288.993 158.355 289.275 159.139 289.275 160.12V165H288.075L287.995 163.576C287.771 164.024 287.441 164.408 287.003 164.728C286.577 165.037 286.001 165.192 285.275 165.192ZM285.483 164.056C285.995 164.056 286.433 163.923 286.795 163.656C287.169 163.389 287.451 163.043 287.643 162.616C287.835 162.189 287.931 161.741 287.931 161.272V161.256H285.899C285.11 161.256 284.55 161.395 284.219 161.672C283.899 161.939 283.739 162.275 283.739 162.68C283.739 163.096 283.889 163.432 284.187 163.688C284.497 163.933 284.929 164.056 285.483 164.056ZM295.532 165.192C294.881 165.192 294.3 165.059 293.788 164.792C293.286 164.525 292.902 164.152 292.636 163.672L292.508 165H291.292V153.48H292.636V158.376C292.892 157.992 293.254 157.645 293.724 157.336C294.204 157.027 294.812 156.872 295.548 156.872C296.337 156.872 297.025 157.053 297.612 157.416C298.198 157.779 298.652 158.275 298.972 158.904C299.302 159.533 299.468 160.248 299.468 161.048C299.468 161.848 299.302 162.563 298.972 163.192C298.652 163.811 298.193 164.301 297.596 164.664C297.009 165.016 296.321 165.192 295.532 165.192ZM295.388 164.024C295.921 164.024 296.39 163.901 296.796 163.656C297.201 163.4 297.521 163.048 297.756 162.6C297.99 162.152 298.108 161.629 298.108 161.032C298.108 160.435 297.99 159.912 297.756 159.464C297.521 159.016 297.201 158.669 296.796 158.424C296.39 158.168 295.921 158.04 295.388 158.04C294.854 158.04 294.385 158.168 293.98 158.424C293.574 158.669 293.254 159.016 293.02 159.464C292.785 159.912 292.668 160.435 292.668 161.032C292.668 161.629 292.785 162.152 293.02 162.6C293.254 163.048 293.574 163.4 293.98 163.656C294.385 163.901 294.854 164.024 295.388 164.024ZM304.234 165.192C303.296 165.192 302.549 164.909 301.994 164.344C301.44 163.768 301.162 162.888 301.162 161.704V157.064H302.506V161.56C302.506 163.213 303.184 164.04 304.538 164.04C305.232 164.04 305.802 163.795 306.25 163.304C306.709 162.803 306.938 162.093 306.938 161.176V157.064H308.282V165H307.066L306.97 163.576C306.725 164.077 306.357 164.472 305.866 164.76C305.386 165.048 304.842 165.192 304.234 165.192ZM310.495 165V153.48H311.839V165H310.495ZM316.682 165.192C316.02 165.192 315.471 165.08 315.034 164.856C314.596 164.632 314.271 164.333 314.058 163.96C313.844 163.587 313.738 163.181 313.738 162.744C313.738 161.933 314.047 161.309 314.666 160.872C315.284 160.435 316.127 160.216 317.194 160.216H319.338V160.12C319.338 159.427 319.156 158.904 318.794 158.552C318.431 158.189 317.946 158.008 317.338 158.008C316.815 158.008 316.362 158.141 315.978 158.408C315.604 158.664 315.37 159.043 315.274 159.544H313.898C313.951 158.968 314.143 158.483 314.474 158.088C314.815 157.693 315.236 157.395 315.738 157.192C316.239 156.979 316.772 156.872 317.338 156.872C318.447 156.872 319.279 157.171 319.834 157.768C320.399 158.355 320.682 159.139 320.682 160.12V165H319.482L319.402 163.576C319.178 164.024 318.847 164.408 318.41 164.728C317.983 165.037 317.407 165.192 316.682 165.192ZM316.89 164.056C317.402 164.056 317.839 163.923 318.202 163.656C318.575 163.389 318.858 163.043 319.05 162.616C319.242 162.189 319.338 161.741 319.338 161.272V161.256H317.306C316.516 161.256 315.956 161.395 315.626 161.672C315.306 161.939 315.146 162.275 315.146 162.68C315.146 163.096 315.295 163.432 315.594 163.688C315.903 163.933 316.335 164.056 316.89 164.056ZM322.698 165V157.064H323.914L324.026 158.584C324.271 158.061 324.644 157.645 325.146 157.336C325.647 157.027 326.266 156.872 327.002 156.872V158.28H326.634C326.164 158.28 325.732 158.365 325.338 158.536C324.943 158.696 324.628 158.973 324.394 159.368C324.159 159.763 324.042 160.307 324.042 161V165H322.698ZM329.374 168.52L331.342 164.232H330.878L327.726 157.064H329.182L331.806 163.24L334.59 157.064H335.982L330.782 168.52H329.374ZM341.635 165V153.48H342.979V160.408L346.227 157.064H347.875L344.355 160.648L348.323 165H346.611L342.979 160.888V165H341.635ZM349.698 165V157.064H350.914L350.994 158.488C351.25 157.987 351.618 157.592 352.098 157.304C352.578 157.016 353.122 156.872 353.73 156.872C354.668 156.872 355.415 157.16 355.97 157.736C356.535 158.301 356.818 159.176 356.818 160.36V165H355.474V160.504C355.474 158.851 354.791 158.024 353.426 158.024C352.743 158.024 352.172 158.275 351.714 158.776C351.266 159.267 351.042 159.971 351.042 160.888V165H349.698ZM362.47 165.192C361.723 165.192 361.051 165.021 360.454 164.68C359.857 164.339 359.382 163.859 359.03 163.24C358.689 162.611 358.518 161.875 358.518 161.032C358.518 160.189 358.694 159.459 359.046 158.84C359.398 158.211 359.873 157.725 360.47 157.384C361.078 157.043 361.755 156.872 362.502 156.872C363.249 156.872 363.921 157.043 364.518 157.384C365.115 157.725 365.585 158.211 365.926 158.84C366.278 159.459 366.454 160.189 366.454 161.032C366.454 161.875 366.278 162.611 365.926 163.24C365.574 163.859 365.094 164.339 364.486 164.68C363.889 165.021 363.217 165.192 362.47 165.192ZM362.47 164.04C362.929 164.04 363.355 163.928 363.75 163.704C364.145 163.48 364.465 163.144 364.71 162.696C364.955 162.248 365.078 161.693 365.078 161.032C365.078 160.371 364.955 159.816 364.71 159.368C364.475 158.92 364.161 158.584 363.766 158.36C363.371 158.136 362.95 158.024 362.502 158.024C362.043 158.024 361.617 158.136 361.222 158.36C360.827 158.584 360.507 158.92 360.262 159.368C360.017 159.816 359.894 160.371 359.894 161.032C359.894 161.693 360.017 162.248 360.262 162.696C360.507 163.144 360.822 163.48 361.206 163.704C361.601 163.928 362.022 164.04 362.47 164.04ZM369.626 165L367.306 157.064H368.65L370.33 163.288L372.186 157.064H373.706L375.578 163.288L377.242 157.064H378.602L376.282 165H374.906L372.954 158.456L371.002 165H369.626ZM380.088 165V153.48H381.432V165H380.088ZM387.203 165.192C386.446 165.192 385.774 165.021 385.187 164.68C384.601 164.328 384.137 163.843 383.795 163.224C383.465 162.605 383.299 161.875 383.299 161.032C383.299 160.2 383.465 159.475 383.795 158.856C384.126 158.227 384.585 157.741 385.171 157.4C385.769 157.048 386.457 156.872 387.235 156.872C388.003 156.872 388.665 157.048 389.219 157.4C389.785 157.741 390.217 158.195 390.515 158.76C390.814 159.325 390.963 159.933 390.963 160.584C390.963 160.701 390.958 160.819 390.947 160.936C390.947 161.053 390.947 161.187 390.947 161.336H384.627C384.659 161.944 384.798 162.451 385.043 162.856C385.299 163.251 385.614 163.549 385.987 163.752C386.371 163.955 386.777 164.056 387.203 164.056C387.758 164.056 388.222 163.928 388.595 163.672C388.969 163.416 389.241 163.069 389.411 162.632H390.739C390.526 163.368 390.115 163.981 389.507 164.472C388.91 164.952 388.142 165.192 387.203 165.192ZM387.203 158.008C386.563 158.008 385.993 158.205 385.491 158.6C385.001 158.984 384.718 159.549 384.643 160.296H389.635C389.603 159.581 389.358 159.021 388.899 158.616C388.441 158.211 387.875 158.008 387.203 158.008ZM396.345 165.192C395.555 165.192 394.862 165.011 394.265 164.648C393.678 164.285 393.219 163.789 392.889 163.16C392.569 162.531 392.409 161.816 392.409 161.016C392.409 160.216 392.574 159.507 392.905 158.888C393.235 158.259 393.694 157.768 394.281 157.416C394.867 157.053 395.561 156.872 396.361 156.872C397.011 156.872 397.587 157.005 398.089 157.272C398.59 157.539 398.979 157.912 399.257 158.392V153.48H400.601V165H399.385L399.257 163.688C399.001 164.072 398.633 164.419 398.153 164.728C397.673 165.037 397.07 165.192 396.345 165.192ZM396.489 164.024C397.022 164.024 397.491 163.901 397.897 163.656C398.313 163.4 398.633 163.048 398.857 162.6C399.091 162.152 399.209 161.629 399.209 161.032C399.209 160.435 399.091 159.912 398.857 159.464C398.633 159.016 398.313 158.669 397.897 158.424C397.491 158.168 397.022 158.04 396.489 158.04C395.966 158.04 395.497 158.168 395.081 158.424C394.675 158.669 394.355 159.016 394.121 159.464C393.897 159.912 393.785 160.435 393.785 161.032C393.785 161.629 393.897 162.152 394.121 162.6C394.355 163.048 394.675 163.4 395.081 163.656C395.497 163.901 395.966 164.024 396.489 164.024ZM405.928 162.504C405.48 162.504 405.069 162.445 404.696 162.328L403.896 163.08C404.013 163.165 404.157 163.24 404.328 163.304C404.509 163.357 404.765 163.411 405.096 163.464C405.426 163.507 405.89 163.555 406.488 163.608C407.554 163.683 408.317 163.928 408.776 164.344C409.234 164.76 409.464 165.304 409.464 165.976C409.464 166.435 409.336 166.872 409.08 167.288C408.834 167.704 408.45 168.045 407.928 168.312C407.416 168.579 406.754 168.712 405.944 168.712C405.229 168.712 404.594 168.616 404.039 168.424C403.485 168.243 403.053 167.96 402.743 167.576C402.434 167.203 402.28 166.728 402.28 166.152C402.28 165.853 402.36 165.528 402.52 165.176C402.68 164.835 402.978 164.509 403.416 164.2C403.181 164.104 402.978 164.003 402.808 163.896C402.648 163.779 402.498 163.651 402.36 163.512V163.144L403.72 161.8C403.09 161.267 402.776 160.563 402.776 159.688C402.776 159.165 402.898 158.691 403.144 158.264C403.389 157.837 403.746 157.501 404.216 157.256C404.685 157 405.256 156.872 405.928 156.872C406.386 156.872 406.802 156.936 407.176 157.064H410.104V158.072L408.616 158.136C408.925 158.584 409.08 159.101 409.08 159.688C409.08 160.211 408.952 160.685 408.696 161.112C408.45 161.539 408.093 161.88 407.624 162.136C407.165 162.381 406.6 162.504 405.928 162.504ZM405.928 161.4C406.493 161.4 406.941 161.256 407.272 160.968C407.613 160.669 407.784 160.243 407.784 159.688C407.784 159.144 407.613 158.728 407.272 158.44C406.941 158.141 406.493 157.992 405.928 157.992C405.352 157.992 404.893 158.141 404.552 158.44C404.221 158.728 404.056 159.144 404.056 159.688C404.056 160.243 404.221 160.669 404.552 160.968C404.893 161.256 405.352 161.4 405.928 161.4ZM403.592 166.024C403.592 166.557 403.816 166.952 404.264 167.208C404.712 167.475 405.272 167.608 405.944 167.608C406.605 167.608 407.133 167.464 407.528 167.176C407.933 166.888 408.136 166.504 408.136 166.024C408.136 165.683 407.997 165.384 407.72 165.128C407.442 164.883 406.93 164.739 406.184 164.696C405.597 164.653 405.09 164.6 404.664 164.536C404.226 164.771 403.938 165.021 403.799 165.288C403.661 165.565 403.592 165.811 403.592 166.024ZM414.875 165.192C414.118 165.192 413.446 165.021 412.859 164.68C412.272 164.328 411.808 163.843 411.467 163.224C411.136 162.605 410.971 161.875 410.971 161.032C410.971 160.2 411.136 159.475 411.467 158.856C411.798 158.227 412.256 157.741 412.843 157.4C413.44 157.048 414.128 156.872 414.907 156.872C415.675 156.872 416.336 157.048 416.891 157.4C417.456 157.741 417.888 158.195 418.187 158.76C418.486 159.325 418.635 159.933 418.635 160.584C418.635 160.701 418.63 160.819 418.619 160.936C418.619 161.053 418.619 161.187 418.619 161.336H412.299C412.331 161.944 412.47 162.451 412.715 162.856C412.971 163.251 413.286 163.549 413.659 163.752C414.043 163.955 414.448 164.056 414.875 164.056C415.43 164.056 415.894 163.928 416.267 163.672C416.64 163.416 416.912 163.069 417.083 162.632H418.411C418.198 163.368 417.787 163.981 417.179 164.472C416.582 164.952 415.814 165.192 414.875 165.192ZM414.875 158.008C414.235 158.008 413.664 158.205 413.163 158.6C412.672 158.984 412.39 159.549 412.315 160.296H417.307C417.275 159.581 417.03 159.021 416.571 158.616C416.112 158.211 415.547 158.008 414.875 158.008ZM420.881 165.08C420.614 165.08 420.39 164.995 420.209 164.824C420.038 164.643 419.953 164.424 419.953 164.168C419.953 163.912 420.038 163.699 420.209 163.528C420.39 163.347 420.614 163.256 420.881 163.256C421.137 163.256 421.35 163.347 421.521 163.528C421.702 163.699 421.793 163.912 421.793 164.168C421.793 164.424 421.702 164.643 421.521 164.824C421.35 164.995 421.137 165.08 420.881 165.08Z" fill="black"/>
</g>
<rect x="1" y="1" width="560" height="269" rx="19" stroke="black" stroke-width="2"/>
<defs>
<clipPath id="clip0">
</clipPath>
</defs>
</svg>
